<svg width="25" height="24" viewBox="0 0 25 24" fill="none" xmlns="http://www.w3.org/2000/svg">
<path d="M14.5966 18.82C14.4066 18.82 14.2166 18.75 14.0666 18.6C13.7766 18.31 13.7766 17.83 14.0666 17.54L19.6066 12L14.0666 6.46C13.7766 6.17 13.7766 5.69 14.0666 5.4C14.3566 5.11 14.8366 5.11 15.1266 5.4L21.1966 11.47C21.4866 11.76 21.4866 12.24 21.1966 12.53L15.1266 18.6C14.9766 18.75 14.7866 18.82 14.5966 18.82Z" fill="#69B9CF"/>
<path d="M20.4965 12.75H3.6665C3.2565 12.75 2.9165 12.41 2.9165 12C2.9165 11.59 3.2565 11.25 3.6665 11.25H20.4965C20.9065 11.25 21.2465 11.59 21.2465 12C21.2465 12.41 20.9065 12.75 20.4965 12.75Z" fill="#69B9CF"/>
</svg>
