<svg width="24" height="25" viewBox="0 0 24 25" fill="none" xmlns="http://www.w3.org/2000/svg">
<path fill-rule="evenodd" clip-rule="evenodd" d="M13.3432 7.1587L14.7682 8.5717L8.44998 15.0316C8.13295 15.3575 8.13295 15.8818 8.44998 16.2077C8.75083 16.5168 9.2534 16.5154 9.55103 16.206L16.5024 9.09569C17.5172 8.05292 17.5172 6.37824 16.5024 5.33548C15.5342 4.34057 13.821 4.36271 12.8721 5.33738L5.28478 13.0926C3.57178 14.8521 3.57178 17.6774 5.28478 19.4368C6.94819 21.1453 9.80568 21.1175 11.4431 19.4352L20.2921 10.3861L21.7172 11.799L12.8699 20.8465C10.456 23.3265 6.31032 23.3668 3.85657 20.8465C1.38118 18.304 1.38118 14.2254 3.85828 11.6811L11.4456 3.92591C13.169 2.15572 16.1703 2.11695 17.9309 3.92605C19.7077 5.75181 19.7077 8.67936 17.9293 10.5068L10.9821 17.6127C9.90743 18.7303 8.10958 18.7353 7.02138 17.617C5.94248 16.5082 5.94248 14.7311 7.02318 13.6205L13.3432 7.1587Z" fill="#48ABC4"/>
</svg>
