<svg width="24" height="24" viewBox="-1.5 -1.5 24 24" fill="none" xmlns="http://www.w3.org/2000/svg">
<g clip-path="url(#clip0_820_1175)">
<path fill-rule="evenodd" clip-rule="evenodd" d="M3.6567 2.85728C3.4791 2.85689 3.30789 2.87713 3.14521 2.91561C2.92219 2.42068 2.62761 1.97665 2.29256 1.6393C1.72388 1.06671 0.826999 0.840942 -0.414551 0.840942V2.85472C0.343897 2.85472 0.780349 2.96458 0.878339 3.06325C1.25631 3.44383 1.58545 4.2171 1.58545 4.8685L1.5955 5.0109L2.57537 11.9172C0.935809 12.0029 -0.334353 13.2849 -0.413322 14.8875L-0.414551 15.9443C-0.31773 17.5995 0.948199 18.8728 2.52869 18.9633L2.75571 18.9636C3.16719 20.1375 4.27876 20.9787 5.58545 20.9787C6.89167 20.9787 8.00291 20.1381 8.41474 18.9649H10.7561C11.1679 20.1381 12.2792 20.9787 13.5854 20.9787C15.2423 20.9787 16.5854 19.6263 16.5854 17.958C16.5854 16.2898 15.2423 14.9374 13.5854 14.9374C12.2792 14.9374 11.1679 15.7779 10.7561 16.9511H8.41474C8.00291 15.7779 6.89167 14.9374 5.58545 14.9374C4.27923 14.9374 3.16799 15.7779 2.75616 16.9511H2.58545C2.07546 16.9203 1.61799 16.4602 1.58366 15.884L1.58545 14.9374C1.61242 14.4151 2.06676 13.9576 2.635 13.9292L4.60914 13.9297L4.62345 13.9305H14.7023L14.8499 13.8833C15.6081 13.6411 16.215 13.0662 16.5024 12.322L16.6078 12.112L16.9501 11.4292C17.3042 10.7224 17.6583 10.0145 18.0034 9.32278C18.8486 7.62846 19.3802 6.55168 19.4979 6.28726C20.1026 4.92937 18.8778 3.88423 17.6262 3.86197L3.6567 2.85728ZM14.3548 11.9167H4.69832C4.63411 11.8987 4.58518 11.844 4.5756 11.7757L3.59571 4.86924L17.4788 5.87028C17.2359 6.36909 16.7943 7.26002 16.2162 8.41889L16.2017 8.44792C15.8717 9.10938 15.518 9.81641 15.1644 10.5222L14.8225 11.2042L14.693 11.4624L14.6442 11.5766C14.5919 11.7231 14.4882 11.8435 14.3548 11.9167ZM13.5854 18.9649C14.1377 18.9649 14.5854 18.5141 14.5854 17.958C14.5854 17.4019 14.1377 16.9511 13.5854 16.9511C13.0331 16.9511 12.5854 17.4019 12.5854 17.958C12.5854 18.5141 13.0331 18.9649 13.5854 18.9649ZM6.58545 17.958C6.58545 18.5141 6.13773 18.9649 5.58545 18.9649C5.03317 18.9649 4.58545 18.5141 4.58545 17.958C4.58545 17.4019 5.03317 16.9511 5.58545 16.9511C6.13773 16.9511 6.58545 17.4019 6.58545 17.958Z" fill="white" stroke="#48ABC4" stroke-width="0.6"/>
</g>
<defs>
<clipPath id="clip0_820_1175">
<rect width="21" height="21" fill="white" transform="translate(-0.414551 0.40979)"/>
</clipPath>
</defs>
</svg>
