<svg width="24" height="10" viewBox="-5.5 0 24 10" fill="none" xmlns="http://www.w3.org/2000/svg">
<g clip-path="url(#clip0_656_2683)">
<path fill-rule="evenodd" clip-rule="evenodd" d="M12.2838 1.50602C12.3304 1.55247 12.3673 1.60765 12.3925 1.66839C12.4177 1.72914 12.4307 1.79426 12.4307 1.86002C12.4307 1.92579 12.4177 1.99091 12.3925 2.05166C12.3673 2.1124 12.3304 2.16758 12.2838 2.21402L5.28383 9.21402C5.23738 9.26059 5.18221 9.29753 5.12146 9.32274C5.06072 9.34794 4.9956 9.36092 4.92983 9.36092C4.86406 9.36092 4.79894 9.34794 4.7382 9.32274C4.67745 9.29753 4.62228 9.26059 4.57583 9.21402L1.07583 5.71402C0.981944 5.62014 0.929199 5.4928 0.929199 5.36002C0.929199 5.22725 0.981944 5.09991 1.07583 5.00602C1.16972 4.91214 1.29706 4.85939 1.42983 4.85939C1.56261 4.85939 1.68994 4.91214 1.78383 5.00602L4.92983 8.15302L11.5758 1.50602C11.6223 1.45946 11.6775 1.42252 11.7382 1.39731C11.7989 1.37211 11.8641 1.35913 11.9298 1.35913C11.9956 1.35913 12.0607 1.37211 12.1215 1.39731C12.1822 1.42252 12.2374 1.45946 12.2838 1.50602Z" fill="white"/>
</g>
<defs>
<clipPath id="clip0_656_2683">
<rect width="12.0009" height="9" fill="white" transform="translate(0.429688 0.860107)"/>
</clipPath>
</defs>
</svg>
