<svg width="33" height="32" viewBox="0 0 33 32" fill="none" xmlns="http://www.w3.org/2000/svg">
<path d="M8.74129 6.80762C8.35076 6.41709 7.7176 6.41709 7.32707 6.80762C6.93655 7.19814 6.93655 7.83131 7.32707 8.22183L15.1052 16L7.32707 23.7782C6.93655 24.1687 6.93655 24.8019 7.32707 25.1924C7.7176 25.5829 8.35076 25.5829 8.74129 25.1924L16.5195 17.4142L24.2975 25.1923C24.688 25.5828 25.3212 25.5828 25.7117 25.1923C26.1023 24.8018 26.1023 24.1686 25.7117 23.7781L17.9337 16L25.7119 8.22183C26.1024 7.83131 26.1024 7.19814 25.7119 6.80762C25.3213 6.41709 24.6882 6.41709 24.2976 6.80762L16.5195 14.5858L8.74129 6.80762Z" fill="#48ABC4"/>
</svg>
