<svg width="24" height="21" viewBox="-0.5 0 24 21" fill="none" xmlns="http://www.w3.org/2000/svg">
<path fill-rule="evenodd" clip-rule="evenodd" d="M15.9736 0.65767C14.526 0.657654 13.5928 0.831306 12.5231 1.35852C12.127 1.55371 11.7554 1.78878 11.4104 2.06303C11.0786 1.80416 10.7219 1.57988 10.3422 1.3908C9.25173 0.84773 8.27069 0.657654 6.87496 0.657654C3.13685 0.657654 0.42041 3.77626 0.42041 7.82658C0.42041 10.8854 2.11424 13.8402 5.26925 16.6974C6.9253 18.1971 9.03973 19.6812 10.554 20.4708L11.4204 20.9225L12.2868 20.4708C13.8011 19.6812 15.9155 18.1971 17.5716 16.6974C20.7266 13.8402 22.4204 10.8854 22.4204 7.82658C22.4204 3.81913 19.6783 0.673118 15.9736 0.65767ZM20.4204 7.82658C20.4204 10.223 19.0066 12.6893 16.2341 15.2001C14.7226 16.5689 12.7794 17.9369 11.4204 18.6545C10.0615 17.9369 8.11823 16.5689 6.60669 15.2001C3.83423 12.6893 2.42041 10.223 2.42041 7.82658C2.42041 4.83395 4.30405 2.67143 6.87496 2.67143C7.98469 2.67143 8.66854 2.80393 9.45555 3.19586C9.92042 3.42737 10.3313 3.73307 10.6869 4.11508L11.4227 4.90543L12.1519 4.10882C12.5155 3.7115 12.9324 3.39884 13.4023 3.16725C14.1663 2.79075 14.8074 2.67143 15.9695 2.67144C18.5086 2.68203 20.4204 4.87548 20.4204 7.82658Z" fill="#69B9CF"/>
</svg>
