<svg width="16" height="31" viewBox="0 0 16 31" fill="none" xmlns="http://www.w3.org/2000/svg">
<path d="M12.3404 26.8428L12.3105 25.3456L12.2806 19.7461C12.3364 19.5521 12.3297 19.3625 12.2602 19.1772C12.2322 19.0838 12.1708 19.0339 12.0757 19.0275C11.4298 18.9812 10.7474 18.9836 10.0288 19.0347C9.85872 19.0459 9.73535 19.091 9.6587 19.17C9.57485 19.2563 9.49979 19.376 9.43352 19.5293C8.66137 21.3132 7.87725 23.0918 7.08115 24.8653C6.28905 26.6284 5.49893 28.4258 4.71082 30.2575C4.68964 30.3072 4.65577 30.3505 4.61252 30.3833C4.56926 30.416 4.51812 30.4371 4.46409 30.4444C3.31106 30.6017 2.13488 30.6113 0.935537 30.4731C0.919044 30.4713 0.903878 30.4633 0.893177 30.4508C0.882476 30.4383 0.877057 30.4223 0.878044 30.406C0.886828 30.2551 0.930347 30.1178 1.0086 29.994C1.15073 29.7673 1.22379 29.6491 1.22778 29.6395C2.48222 26.9733 3.71709 24.298 4.9324 21.6134C5.42108 20.5339 5.92214 19.4699 6.43557 18.4214C6.4603 18.3709 6.4645 18.3127 6.44729 18.2593C6.43008 18.2059 6.3928 18.1614 6.34334 18.1352C5.40511 17.6369 4.6142 17.0001 3.97062 16.2248C3.49551 15.6523 3.09986 14.9636 2.78365 14.1587C2.46266 13.3402 2.25625 12.5178 2.16442 11.6913C2.02468 10.4281 2.02229 9.32778 2.15723 8.39034C2.2283 7.89767 2.36844 7.31078 2.57764 6.62966C2.78285 5.96132 3.00324 5.40118 3.2388 4.94923C4.01573 3.45764 5.14201 2.32537 6.61763 1.55243C7.2668 1.21227 8.02178 0.966336 8.88256 0.814622C9.75691 0.660513 10.6416 0.583059 11.5368 0.58226C12.693 0.58226 13.8496 0.58226 15.0066 0.58226C15.0162 0.58226 15.0777 0.578667 15.1911 0.571481C15.4705 0.553115 15.6099 0.706426 15.6091 1.03141C15.5987 3.98585 15.5887 6.94028 15.5791 9.89471C15.5783 10.2492 15.5851 10.5563 15.5995 10.8158C15.6251 11.2717 15.6374 11.5771 15.6366 11.732C15.6167 15.5608 15.6183 19.39 15.6414 23.2196C15.6446 23.7658 15.6366 24.3119 15.6175 24.8581C15.5967 25.425 15.5911 25.97 15.6007 26.493C15.6175 27.4552 15.6059 28.4174 15.566 29.3796C15.5564 29.6223 15.5632 29.8978 15.5863 30.206C15.6023 30.412 15.5073 30.5202 15.3013 30.5306C14.4189 30.5761 13.5026 30.5745 12.5524 30.5258C12.5145 30.5239 12.4784 30.509 12.4501 30.4838C12.4218 30.4585 12.403 30.4243 12.3967 30.3869C12.3608 30.1721 12.3444 29.9389 12.3476 29.6874C12.3588 28.7388 12.3564 27.7906 12.3404 26.8428ZM12.235 3.32988C11.9556 3.23326 11.6697 3.19573 11.3775 3.21729C10.9694 3.24684 10.5642 3.29674 10.1617 3.36701C9.58603 3.46682 9.18599 3.54987 8.96161 3.61614C8.53202 3.74151 8.13676 3.93434 7.77584 4.19465C7.45964 4.42222 7.1614 4.73603 6.88113 5.13608C6.04591 6.32823 5.60593 7.67489 5.56122 9.17606C5.53567 10.0209 5.56122 10.8094 5.63787 11.5416C5.72092 12.3329 5.94609 13.1086 6.3134 13.8688C6.97296 15.2342 8.05532 16.0355 9.56048 16.2727C10.3638 16.3996 11.2186 16.448 12.1248 16.4176C12.1678 16.4164 12.2085 16.3986 12.2387 16.3681C12.2688 16.3375 12.2859 16.2964 12.2865 16.2535C12.3201 13.3414 12.3301 10.4041 12.3165 7.44173C12.3157 7.36907 12.3053 7.24889 12.2853 7.08121C12.271 6.95984 12.2682 6.83847 12.277 6.7171C12.2961 6.46238 12.3029 6.28391 12.2973 6.18171C12.267 5.64192 12.2786 5.10254 12.3321 4.56356C12.368 4.19385 12.3728 3.83094 12.3464 3.47481C12.3439 3.44234 12.332 3.41135 12.3122 3.38561C12.2924 3.35987 12.2656 3.34051 12.235 3.32988Z" fill="#FE3534"/>
</svg>
