<svg width="31" height="31" viewBox="0 0 31 31" fill="none" xmlns="http://www.w3.org/2000/svg">
<rect x="0.259766" y="0.570007" width="30" height="30" rx="15" fill="#419FD9"/>
<path d="M21.5217 8.18848C21.5234 8.18769 22.7886 7.62142 22.8107 8.55957L20.0363 22.4951C20.0363 22.4951 19.6432 23.4566 18.5949 22.998L14.6633 19.9834L12.1291 22.2773C12.1199 22.2844 11.9272 22.428 11.7141 22.3428C11.7055 22.3415 11.5125 22.3042 11.299 21.5996C11.0595 20.8592 9.89008 17.024 9.88007 16.9912L5.96992 15.6807C5.96992 15.6807 5.38051 15.4623 5.31464 15.0039C5.2495 14.5479 5.98268 14.2853 5.9914 14.2822L21.5217 8.18848ZM19.7961 11.0283C19.8177 10.7049 19.2863 11.0202 19.2727 11.0283L10.6877 16.4883C10.5566 16.5757 10.5131 16.7293 10.5568 16.8604L11.5832 20.2236C11.6487 20.4202 11.9331 20.3981 11.9768 20.1797L12.217 18.127C12.217 18.0396 12.2609 17.9744 12.3264 17.9307C13.1562 17.1882 19.3352 11.6422 19.5998 11.3779C19.8838 11.0721 19.7961 11.0283 19.7961 11.0283Z" fill="white"/>
</svg>
