<svg width="31" height="31" viewBox="0 0 31 31" fill="none" xmlns="http://www.w3.org/2000/svg">
<rect x="0.259766" y="0.570007" width="30" height="30" rx="15" fill="#0DC143"/>
<path d="M21.9793 8.82719C20.3712 7.17178 18.1482 6.27313 15.8779 6.27313C11.0536 6.27313 7.17523 10.1988 7.22252 14.9758C7.22252 16.4893 7.6482 17.9556 8.35766 19.2799L7.12793 23.7731L11.7158 22.5907C12.9928 23.3002 14.4117 23.6312 15.8306 23.6312C20.6077 23.6312 24.486 19.7056 24.486 14.9285C24.486 12.611 23.5874 10.4353 21.9793 8.82719ZM15.8779 22.165C14.6009 22.165 13.3239 21.8339 12.236 21.1718L11.9523 21.0299L9.20901 21.7393L9.91847 19.0434L9.72928 18.7596C7.6482 15.4015 8.64144 10.9556 12.0468 8.87448C15.4523 6.7934 19.8509 7.78665 21.932 11.1921C24.0131 14.5975 23.0198 18.9961 19.6144 21.0772C18.5266 21.7866 17.2023 22.165 15.8779 22.165ZM20.0401 16.915L19.5198 16.6785C19.5198 16.6785 18.7631 16.3475 18.2901 16.111C18.2428 16.111 18.1955 16.0637 18.1482 16.0637C18.0063 16.0637 17.9117 16.111 17.8171 16.1583C17.8171 16.1583 17.7698 16.2056 17.1077 16.9623C17.0604 17.0569 16.9658 17.1042 16.8712 17.1042H16.8239C16.7766 17.1042 16.682 17.0569 16.6347 17.0096L16.3982 16.915C15.8779 16.6785 15.405 16.3948 15.0266 16.0164C14.932 15.9218 14.7901 15.8272 14.6955 15.7326C14.3644 15.4015 14.0333 15.0231 13.7968 14.5975L13.7496 14.5029C13.7023 14.4556 13.7023 14.4083 13.655 14.3137C13.655 14.2191 13.655 14.1245 13.7023 14.0772C13.7023 14.0772 13.8914 13.8407 14.0333 13.6988C14.1279 13.6042 14.1752 13.4623 14.2698 13.3677C14.3644 13.2258 14.4117 13.0366 14.3644 12.8948C14.3171 12.6583 13.7496 11.3812 13.6077 11.0975C13.5131 10.9556 13.4185 10.9083 13.2766 10.861H13.1347C13.0401 10.861 12.8982 10.861 12.7563 10.861C12.6617 10.861 12.5671 10.9083 12.4725 10.9083L12.4252 10.9556C12.3306 11.0029 12.236 11.0975 12.1414 11.1448C12.0468 11.2393 11.9996 11.3339 11.905 11.4285C11.5739 11.8542 11.3847 12.3745 11.3847 12.8948C11.3847 13.2731 11.4793 13.6515 11.6212 13.9826L11.6685 14.1245C12.0941 15.0231 12.6617 15.8272 13.4185 16.5366L13.6077 16.7258C13.7496 16.8677 13.8914 16.9623 13.986 17.1042C14.9793 17.9556 16.1144 18.5704 17.3914 18.9015C17.5333 18.9488 17.7225 18.9488 17.8644 18.9961C18.0063 18.9961 18.1955 18.9961 18.3374 18.9961C18.5739 18.9961 18.8577 18.9015 19.0468 18.8069C19.1887 18.7123 19.2833 18.7123 19.3779 18.6177L19.4725 18.5231C19.5671 18.4285 19.6617 18.3812 19.7563 18.2866C19.8509 18.1921 19.9455 18.0975 19.9928 18.0029C20.0874 17.8137 20.1347 17.5772 20.182 17.3407C20.182 17.2461 20.182 17.1042 20.182 17.0096C20.182 17.0096 20.1347 16.9623 20.0401 16.915Z" fill="white"/>
</svg>
