<svg width="22" height="32" viewBox="0 0 22 32" fill="none" xmlns="http://www.w3.org/2000/svg">
<path d="M2.44583 0.0555439C1.84418 0.173725 1.33207 0.467384 0.873671 0.95443C0.515549 1.33404 0.261283 1.8175 0.153846 2.31887C0.0893842 2.62328 0.085803 3.08167 0.0929654 16.0994C0.100128 29.0204 0.103709 29.5755 0.16459 29.7976C0.200402 29.9265 0.315001 30.1986 0.415275 30.4064C0.57643 30.743 0.633729 30.8182 0.956039 31.1405C1.2497 31.4306 1.37862 31.5309 1.64005 31.6669C1.81911 31.7601 2.09128 31.8711 2.24886 31.9176L2.53536 32H11.0049C19.12 32 19.4853 31.9964 19.7073 31.9355C20.2409 31.7815 20.7423 31.4843 21.1075 31.1011C21.4657 30.7179 21.6698 30.3526 21.8274 29.8083L21.9097 29.529V15.992V2.45496L21.8095 2.13981C21.6304 1.5704 21.4048 1.19795 20.9894 0.804018C20.5739 0.410084 20.0905 0.159399 19.539 0.0519638C19.1594 -0.0196609 2.81111 -0.0160789 2.44583 0.0555439ZM19.6464 1.60979C19.9437 1.7602 20.1764 2.00373 20.3268 2.32245L20.4414 2.5624V16.0099V29.4573L20.3412 29.6686C20.2122 29.948 20.026 30.17 19.8004 30.3168C19.4172 30.5675 20.1227 30.5496 10.9154 30.5424L2.60698 30.5317L2.41001 30.435C2.02682 30.2488 1.77256 29.9659 1.62573 29.5719L1.55052 29.3642V16.0349C1.55052 1.96791 1.54336 2.54449 1.70451 2.23651C1.79404 2.06461 2.08054 1.76378 2.25602 1.66351C2.59266 1.46296 2.05547 1.47371 11.0622 1.48087L19.4065 1.48803L19.6464 1.60979Z" fill="#69B9CF"/>
<path d="M3.4306 2.97065C3.21931 3.06377 3.0689 3.25715 3.02234 3.48277C2.99369 3.61527 2.98653 4.99762 2.99011 8.11328L3.00085 12.554L3.09038 12.7151C3.19066 12.8906 3.35539 13.0196 3.55594 13.0733C3.64547 13.0983 6.20246 13.1055 11.0837 13.1019L18.4789 13.0912L18.6508 12.9837C18.769 12.9085 18.8513 12.8226 18.9086 12.7151L18.991 12.5504V8.00585V3.4577L18.9086 3.29655C18.8513 3.18911 18.769 3.09958 18.6508 3.02795L18.4789 2.92052L11.0264 2.91336C3.87825 2.90261 3.56668 2.90619 3.4306 2.97065ZM17.5585 8.00585V11.6408H11.0049H4.45125V8.00585V4.37091H11.0049H17.5585V8.00585Z" fill="#69B9CF"/>
<path d="M10.3601 14.5774C7.83896 14.8066 5.58996 16.3608 4.46904 18.6421C3.99273 19.6126 3.77786 20.4936 3.74563 21.6037C3.68833 23.4373 4.25774 25.0883 5.4288 26.4921C6.91501 28.272 9.23922 29.264 11.5025 29.0813C14.1419 28.87 16.3623 27.3767 17.5297 25.0274C18.357 23.3621 18.5002 21.3889 17.9273 19.609C17.1537 17.206 15.1554 15.3473 12.7094 14.7564C12.0003 14.5845 11.0585 14.5129 10.3601 14.5774ZM12.1328 16.1173C14.4929 16.6115 16.2226 18.3484 16.724 20.7371C16.8242 21.2098 16.8135 22.5241 16.7061 23.004C16.3372 24.6585 15.3738 25.9979 13.9414 26.8538C12.6879 27.5987 11.1122 27.8315 9.65106 27.4877C6.88278 26.8287 4.99906 24.2646 5.20319 21.4247C5.32853 19.6699 6.20951 18.0977 7.62409 17.0878C8.39763 16.5399 9.36456 16.1603 10.2885 16.0457C10.7254 15.992 11.7174 16.0314 12.1328 16.1173Z" fill="#69B9CF"/>
<path d="M10.7721 19.6663C10.2707 19.7164 9.8517 19.9205 9.46493 20.3073C8.60544 21.1632 8.60544 22.4847 9.46493 23.3514C9.89468 23.7883 10.3817 23.996 10.9869 23.996C11.5993 23.996 12.1043 23.7918 12.5305 23.3693C13.2718 22.6279 13.3864 21.4927 12.8098 20.6225C12.3586 19.9456 11.5993 19.5911 10.7721 19.6663ZM11.3594 21.2026C11.8178 21.4354 11.8429 22.1445 11.406 22.4238C11.1982 22.5563 11.0335 22.585 10.8294 22.5313C10.4856 22.4381 10.2886 22.1839 10.2886 21.8293C10.2886 21.5034 10.4856 21.2241 10.7792 21.131C10.9261 21.0844 11.1911 21.1167 11.3594 21.2026Z" fill="#69B9CF"/>
</svg>
