<svg width="32" height="16" viewBox="0 0 32 16" fill="none" xmlns="http://www.w3.org/2000/svg">
<path d="M6.24 0.540861C6.048 0.643972 5.99822 0.750639 5.97689 1.12397L5.95556 1.46531L3.11111 1.48308C1.52889 1.49375 0.241778 1.51508 0.213333 1.53286C0.032 1.64308 0 1.70353 0 1.94886C0 2.16575 0.0106667 2.19775 0.103111 2.29375C0.177778 2.36842 0.256 2.40397 0.380444 2.42175C0.472889 2.43242 1.76711 2.44308 3.25333 2.44308L5.95556 2.43953L5.96622 2.75597L5.97689 3.07242L5.77778 3.17197C5.51822 3.29642 5.25156 3.57375 5.10933 3.86175L4.99556 4.09642L4.98489 5.38708C4.97067 6.77375 4.98133 6.87686 5.16978 7.20753C5.26578 7.37819 5.536 7.65553 5.70667 7.75508C6.28622 8.09642 7.07556 7.97553 7.52356 7.48131C7.81511 7.15775 7.92889 6.81642 7.92889 6.26175V5.96308H9.25511H10.5778L10.6773 6.15153C10.7911 6.36842 11.0009 6.60308 11.1929 6.72042C11.4524 6.88397 11.6302 6.93019 12.0711 6.95508L12.4978 6.97642L12.5084 7.68753C12.512 8.07864 12.5084 8.43419 12.4978 8.47686C12.4836 8.54086 12.4516 8.55864 12.3627 8.55864C11.936 8.56219 11.1964 9.05997 10.9476 9.51864C10.7947 9.79597 10.752 9.94886 10.2044 12.1498C9.90933 13.3338 9.64978 14.3613 9.632 14.4324L9.59644 14.5675H9.23378C8.94933 14.5675 8.84267 14.5818 8.75022 14.6315C8.42311 14.8058 8.43022 15.268 8.75733 15.4458C8.86044 15.5026 8.98489 15.5098 9.99111 15.5098C11.0151 15.5098 11.1182 15.5026 11.2071 15.4458C11.3493 15.3462 11.424 15.2075 11.424 15.0404C11.424 14.724 11.2676 14.5924 10.8729 14.5711C10.6844 14.564 10.5956 14.5462 10.5956 14.5178C10.5956 14.4111 11.6622 10.2298 11.7262 10.0875C11.8578 9.79597 12.1458 9.56842 12.4658 9.50086C12.5689 9.47953 12.5831 9.49019 12.7147 9.71419C12.9316 10.0911 13.2338 10.3222 13.6427 10.4253C13.8311 10.4751 14.1582 10.4786 16.1138 10.4715L18.3644 10.4609L18.6027 10.3471C18.9049 10.2049 19.1573 9.97019 19.3031 9.69642C19.4169 9.48308 19.4204 9.47953 19.5484 9.50442C19.872 9.56131 20.1884 9.82797 20.3129 10.1444C20.3804 10.3186 21.4044 14.4111 21.4044 14.5035C21.4044 14.5569 21.3724 14.5675 21.1733 14.5675C20.9138 14.5675 20.7751 14.6209 20.6613 14.7666C20.512 14.9551 20.5902 15.3249 20.8071 15.4422C20.8676 15.4778 21.1769 15.4884 22.0587 15.492H23.2249L23.3636 15.3533C23.4809 15.236 23.5022 15.1933 23.5022 15.0618C23.5022 14.9693 23.4738 14.8591 23.4311 14.7915C23.3209 14.6102 23.2 14.5675 22.7911 14.5675C22.3716 14.5675 22.4284 14.6386 22.24 13.8991C22.1724 13.6324 22.1084 13.38 22.0978 13.3409C22.0907 13.3018 21.8987 12.5338 21.6747 11.6342C21.4507 10.7346 21.2516 9.94886 21.2302 9.88486C21.1164 9.50797 20.7111 9.01019 20.3449 8.80042C20.1458 8.68308 19.7902 8.55864 19.6622 8.55864C19.4916 8.55864 19.4844 8.52308 19.4844 7.77286C19.4844 7.38531 19.4951 7.04753 19.5058 7.01553C19.5236 6.96931 19.5876 6.95864 19.8222 6.95864C20.1956 6.95864 20.448 6.90886 20.6898 6.79508C20.9316 6.67419 21.2231 6.38264 21.3369 6.14797L21.4222 5.96308H22.7484H24.0711V6.16575C24.0747 6.27953 24.0889 6.48575 24.1031 6.62797C24.192 7.39242 24.8107 7.95419 25.5644 7.95419C26.3111 7.95419 26.9227 7.40308 27.0222 6.63864C27.0684 6.27242 27.0649 4.59419 27.0187 4.28131C26.9973 4.13908 26.9369 3.93642 26.8871 3.82975C26.7733 3.59153 26.4604 3.27508 26.2222 3.15419L26.0444 3.06531L26.0338 2.75242C26.0267 2.51775 26.0338 2.44308 26.0693 2.44308C26.0942 2.44308 27.3316 2.44308 28.8178 2.44308C30.304 2.43953 31.5876 2.42531 31.6729 2.41108C31.7582 2.39331 31.8649 2.34353 31.9147 2.30086C31.9893 2.22619 32 2.18708 32 1.96308C32 1.70353 31.9716 1.64308 31.7867 1.53286C31.7582 1.51508 30.4711 1.49375 28.8889 1.48308L26.0444 1.46531L26.0267 1.12753C26.0053 0.739972 25.952 0.619083 25.76 0.537306C25.5929 0.46975 25.4613 0.473306 25.3262 0.55864C25.1591 0.658195 25.1236 0.754194 25.1022 1.12753L25.0844 1.46531L22.24 1.48308C19.9822 1.49731 19.3778 1.51153 19.3067 1.54708C19.0044 1.70708 18.9902 2.13731 19.2818 2.35064C19.3813 2.42531 19.4204 2.42531 22.2329 2.44308L25.0844 2.46086V2.76308V3.06531L24.9102 3.15419C24.6436 3.28931 24.384 3.54531 24.256 3.80131C24.1351 4.03597 24.0747 4.36664 24.0711 4.77908V5.00308H22.7591H21.4471L21.3191 4.77908C21.1627 4.49464 20.9316 4.28131 20.6293 4.13908L20.3911 4.02531L16.0889 4.01464C11.8649 4.00753 11.7831 4.00753 11.552 4.07864C11.1538 4.19953 10.8267 4.48397 10.6453 4.86797L10.5813 5.00308H9.25511H7.92889V4.68308C7.92889 4.32397 7.88267 4.06086 7.776 3.83331C7.67289 3.60931 7.35644 3.28575 7.12889 3.16842L6.93333 3.06531V2.75597V2.44664L9.77067 2.43597C12.0178 2.42886 12.6222 2.41464 12.6933 2.37908C12.9209 2.26175 13.0098 1.93108 12.8747 1.71064C12.7289 1.47242 12.8604 1.48308 9.74578 1.48308H6.93333V1.25908C6.92978 0.91775 6.88356 0.739972 6.76267 0.622639C6.63467 0.491083 6.40356 0.455528 6.24 0.540861ZM6.74133 4.02886C6.78756 4.06086 6.85867 4.13908 6.89778 4.20308C6.96533 4.31331 6.96889 4.37731 6.96889 5.48664C6.96889 6.63153 6.96889 6.65286 6.89067 6.76664C6.66667 7.09375 6.19378 7.07953 5.99111 6.73819C5.92356 6.62797 5.92 6.5462 5.90933 5.56486C5.90222 4.84664 5.91289 4.45908 5.93778 4.35597C5.984 4.19242 6.16889 3.98975 6.30044 3.96131C6.42844 3.93286 6.64533 3.96842 6.74133 4.02886ZM25.8453 4.03953C25.8951 4.07153 25.9662 4.14619 26.0053 4.19953C26.0764 4.29197 26.08 4.34175 26.08 5.47597C26.08 6.63864 26.08 6.65642 26.0018 6.76664C25.8809 6.93731 25.7564 7.00131 25.5573 7.00131C25.4222 6.99775 25.3511 6.97642 25.2551 6.90175C25.0382 6.73819 25.0311 6.69197 25.0311 5.45819C25.0311 4.38797 25.0347 4.34175 25.1058 4.22086C25.1484 4.15331 25.2089 4.07864 25.2409 4.05375C25.4009 3.92931 25.6853 3.92219 25.8453 4.03953ZM20.288 5.02442C20.6116 5.26619 20.6293 5.68219 20.3271 5.90619C20.2311 5.97731 20.1671 5.98086 19.0649 5.99864C17.792 6.01997 17.7636 6.02353 17.6356 6.22975C17.5502 6.36842 17.5431 6.60664 17.6213 6.72753C17.728 6.88753 17.8453 6.93375 18.2044 6.95508L18.5422 6.97642V8.06086C18.5422 9.12753 18.5422 9.14886 18.4604 9.27331C18.304 9.52931 18.3822 9.52219 15.9929 9.51864C14.0302 9.51864 13.8453 9.51153 13.7493 9.45464C13.6 9.36931 13.5076 9.23419 13.472 9.05286C13.4364 8.85731 13.4329 7.06175 13.4684 7.00486C13.4898 6.97286 13.8382 6.95864 14.8267 6.95153C16.0676 6.94086 16.1671 6.93731 16.2596 6.87331C16.5404 6.68131 16.5262 6.26175 16.2347 6.08397C16.1316 6.01997 16 6.01642 13.9556 5.99864C11.6338 5.98086 11.6978 5.98442 11.5627 5.79597C11.4204 5.58975 11.4311 5.33375 11.5876 5.14531C11.7724 4.92486 11.5662 4.93197 16.0782 4.94264C20.1707 4.94975 20.192 4.94975 20.288 5.02442Z" fill="#69B9CF"/>
</svg>
