<svg width="24" height="32" viewBox="0 0 24 32" fill="none" xmlns="http://www.w3.org/2000/svg">
<path d="M5.43311 0.742567C5.22427 1.16026 4.78337 2.2045 4.43529 3.1095C3.5999 5.19797 3.53028 5.29079 2.43964 5.45323C1.88271 5.54605 1.27938 5.87092 0.838479 6.28862L0.165527 6.98477V15.9884V24.992L0.884889 25.6882C1.30258 26.1059 1.95233 26.4307 2.46284 26.5236C3.55349 26.686 3.66952 26.8252 4.43529 28.8673C4.78337 29.7491 5.22427 30.8397 5.43311 31.2342L5.8044 32L10.3294 31.9768C14.9008 31.9536 15.481 31.9072 15.481 31.4895C15.481 31.3503 15.7826 30.6077 16.1539 29.8187C16.5252 29.0529 16.9893 28.0319 17.175 27.5678C17.4766 26.8484 17.6623 26.686 18.4512 26.5468C18.985 26.454 19.7043 26.1059 20.1452 25.7114C20.8878 25.0616 20.9342 24.8992 21.0038 23.298L21.0966 21.5577H21.9088C22.4425 21.5577 22.8834 21.372 23.2547 20.9775C23.7652 20.4902 23.8349 20.2117 23.8349 18.8891C23.8349 17.3111 23.394 16.2204 22.7674 16.2204C22.5818 16.2204 22.4425 16.1044 22.4425 15.9884C22.4425 15.8492 22.5818 15.7563 22.7674 15.7563C23.394 15.7563 23.8349 14.6657 23.8349 13.0877C23.8349 11.765 23.7652 11.4866 23.2547 10.9993C22.8834 10.6048 22.4425 10.4191 21.8624 10.4191H21.0502V8.95722C21.0502 6.86875 20.238 5.7549 18.4048 5.43002C17.6623 5.29079 17.4534 5.10515 17.175 4.40899C16.9893 3.94489 16.6412 3.15591 16.4092 2.6454C16.1771 2.13488 15.8291 1.3227 15.6434 0.858593L15.2953 0H10.5383H5.8044L5.43311 0.742567ZM14.8544 1.87962C15.1793 2.55257 16.1771 5.10515 16.1771 5.24438C16.1771 5.26759 13.5781 5.3372 10.399 5.36041C5.03862 5.43002 4.64413 5.40682 4.82978 5.03553C4.99221 4.71066 5.40991 3.78245 5.61875 3.22553C5.64196 3.15591 5.85081 2.6686 6.08286 2.11168L6.50055 1.13706H10.4919H14.5064L14.8544 1.87962ZM19.4259 7.07759C19.7275 7.37926 19.7739 8.67875 19.7739 15.9884C19.7739 23.298 19.7275 24.5975 19.4259 24.8992C19.1242 25.2009 17.7783 25.2473 10.4919 25.2705C1.92912 25.3169 1.92912 25.3169 1.51143 24.8064C1.11694 24.3423 1.09374 23.5997 1.09374 16.0116C1.09374 6.84554 1.09374 6.79913 2.55567 6.6599C2.95015 6.61349 6.84863 6.61349 11.188 6.6599C17.8015 6.70631 19.1242 6.77592 19.4259 7.07759ZM22.6282 11.8579C23.0459 12.2756 22.9763 14.0392 22.5354 14.4569C22.3497 14.6657 21.932 14.8281 21.6072 14.8281C21.0734 14.8281 21.0502 14.7585 21.0502 13.2038C21.0502 11.5794 21.0502 11.5794 21.7 11.5794C22.048 11.5794 22.4657 11.6954 22.6282 11.8579ZM22.5354 17.5199C22.9763 17.9376 23.0459 19.7012 22.6282 20.1189C22.4657 20.2814 22.048 20.3974 21.7 20.3974C21.0502 20.3974 21.0502 20.3974 21.0502 18.773C21.0502 17.2183 21.0734 17.1487 21.6072 17.1487C21.932 17.1487 22.3497 17.3111 22.5354 17.5199ZM16.1771 26.7092C16.1771 26.8484 15.1793 29.401 14.8544 30.0972L14.5064 30.8397H10.4919H6.50055L6.08286 29.7259C5.85081 29.1226 5.52593 28.4264 5.3635 28.1711C5.22427 27.9159 5.01542 27.475 4.9226 27.1733L4.78337 26.6628H10.4686C13.6013 26.6628 16.1771 26.686 16.1771 26.7092Z" fill="#69B9CF"/>
<path d="M2.69492 8.07541L2.02197 8.74837V15.9884V23.2284L2.69492 23.9014L3.36788 24.5743H10.5383L17.6855 24.5511L18.3817 23.9942L19.0778 23.4141L19.1474 16.7542C19.1938 13.0645 19.1474 9.72298 19.0778 9.30529C19.0082 8.9108 18.6601 8.30747 18.312 7.98259L17.6855 7.40246H10.5383H3.36788L2.69492 8.07541ZM17.6623 8.93401C17.9872 9.23567 18.0336 10.2103 18.0336 15.9884C18.0336 21.7665 17.9872 22.7411 17.6623 23.0428C17.3606 23.3677 16.386 23.4141 10.5615 23.4141C4.59775 23.4141 3.73916 23.3677 3.36788 23.0196C2.97339 22.6715 2.95018 22.1378 2.95018 16.0348C2.95018 10.1871 2.99659 9.3517 3.34467 8.98042C3.69275 8.58593 4.22647 8.56272 10.5151 8.56272C16.386 8.56272 17.3606 8.60913 17.6623 8.93401Z" fill="#69B9CF"/>
<path d="M7.49828 11.0921C7.40546 11.2313 7.24302 11.3009 7.12699 11.2313C6.87174 11.0689 5.75788 12.4148 5.59545 13.1109C5.3866 13.9695 5.68827 15.269 6.43084 16.5685C7.12699 17.7752 10.1437 21.0935 10.5614 21.0935C10.9326 21.0935 13.5316 18.1929 14.5527 16.6381C15.3416 15.4083 15.4809 15.0138 15.4809 13.9695C15.4809 12.8789 15.3881 12.6236 14.6919 11.8579C13.9725 11.0921 13.7637 10.9993 12.7659 10.9993C11.9073 10.9993 11.536 11.1153 11.1183 11.533L10.5614 12.0899L10.0276 11.5794C9.42431 10.9993 7.73033 10.6744 7.49828 11.0921ZM9.58675 12.8557C10.4918 13.8303 10.9559 13.8767 11.3503 13.0413C12.0929 11.5098 14.135 11.9971 14.2742 13.7375C14.367 14.8977 13.8565 15.8492 12.0465 17.984L10.515 19.7708L9.49393 18.6338C6.75571 15.5475 6.01314 13.5286 7.26622 12.5308C8.14802 11.8347 8.70495 11.9275 9.58675 12.8557Z" fill="#69B9CF"/>
</svg>
