<svg width="32" height="32" viewBox="0 0 32 32" fill="none" xmlns="http://www.w3.org/2000/svg">
<path d="M24.9323 1.01215C24.7254 1.21903 24.6826 1.31177 24.6826 1.56145C24.6826 1.80399 24.7254 1.90386 24.918 2.08934C25.1106 2.28908 25.2176 2.33188 25.61 2.37469C28.2067 2.66003 30.2469 4.6432 30.3682 6.98304C30.411 7.86762 30.4466 8.01743 30.6535 8.2243C30.9032 8.47398 31.4311 8.48825 31.7164 8.2457C32.2229 7.81055 32.0232 5.89872 31.3383 4.52192C30.2897 2.43176 28.0782 0.962216 25.7384 0.798142L25.1891 0.75534L24.9323 1.01215Z" fill="#69B9CF"/>
<path d="M23.2557 5.54918C22.7135 6.08421 23.0131 6.84038 23.7978 6.93311C24.554 7.01872 25.3245 7.57515 25.6241 8.23858C25.7025 8.41692 25.7881 8.82354 25.8238 9.14456C25.8738 9.66531 25.9023 9.74378 26.102 9.92213C26.423 10.2075 26.8939 10.2075 27.1863 9.91499C27.379 9.71525 27.3932 9.67245 27.3932 9.10889C27.3932 8.78074 27.3504 8.35272 27.2934 8.15297C26.8796 6.60497 25.3173 5.3423 23.805 5.3423C23.5196 5.3423 23.4198 5.37797 23.2557 5.54918Z" fill="#69B9CF"/>
<path d="M2.76079 8.51678C1.84055 8.76646 0.813297 9.6011 0.406677 10.4143C-0.0142098 11.2633 5.75152e-05 10.8566 5.75152e-05 19.8237C5.75152e-05 26.7362 0.0214586 28.1273 0.107063 28.4483C0.442346 29.7181 1.52667 30.7953 2.81786 31.1377C3.34575 31.2804 19.4821 31.2804 20.01 31.1377C21.3084 30.7953 22.3855 29.7181 22.728 28.4198C22.8778 27.8705 22.8706 11.7483 22.7208 11.199C22.5496 10.5499 22.25 10.0434 21.7221 9.5155C21.1942 8.98761 20.6877 8.68799 20.0386 8.51678C19.4893 8.36698 3.28868 8.37411 2.76079 8.51678ZM19.8103 10.1361C20.3596 10.343 20.8946 10.878 21.1015 11.4273L21.2584 11.8411V19.8237V27.8063L21.1015 28.22C20.8946 28.7693 20.3596 29.3043 19.8103 29.5112L19.3965 29.6681H11.4139H3.43136L3.0176 29.5112C2.46831 29.3043 1.93328 28.7693 1.72641 28.22L1.56947 27.8063V19.8237V11.8411L1.72641 11.4273C1.92615 10.8852 2.46831 10.343 2.9962 10.1361C3.38856 9.98632 3.43849 9.98632 11.3925 9.98632L19.3965 9.97919L19.8103 10.1361Z" fill="#69B9CF"/>
<path d="M9.987 13.0823C7.44028 13.653 5.49278 15.4864 4.76515 18.0117C4.62248 18.5039 4.60107 18.7322 4.60107 19.8237C4.60107 20.9151 4.62248 21.1434 4.76515 21.6356C5.45712 24.0183 7.21913 25.7803 9.60178 26.4722C10.094 26.6149 10.3223 26.6363 11.4137 26.6363C12.5052 26.6363 12.7335 26.6149 13.2257 26.4722C15.6083 25.7803 17.3704 24.0183 18.0623 21.6356C18.205 21.1434 18.2264 20.9151 18.2264 19.8237C18.2264 18.7322 18.205 18.5039 18.0623 18.0117C17.3775 15.6362 15.6226 13.8742 13.2614 13.1822C12.5694 12.9825 10.7004 12.9254 9.987 13.0823ZM12.5908 14.6803C16.5785 15.6433 18.0409 20.48 15.2445 23.4404C13.24 25.5663 9.91567 25.659 7.79696 23.6544C5.60692 21.5857 5.58552 18.0973 7.75416 16.0285C9.06676 14.7801 10.8858 14.2737 12.5908 14.6803Z" fill="#69B9CF"/>
<path d="M10.5008 17.6907C9.04552 18.2543 8.64603 20.3302 9.77315 21.4644C10.9145 22.5987 12.9976 22.1921 13.5469 20.7154C14.0034 19.4955 13.4327 18.1116 12.3056 17.6907C11.7777 17.491 11.0215 17.491 10.5008 17.6907ZM11.7634 19.2102C12.2414 19.4599 12.2271 20.2303 11.7349 20.4514C11.0857 20.7439 10.458 20.0876 10.8004 19.4741C10.9859 19.1388 11.3996 19.0247 11.7634 19.2102Z" fill="#69B9CF"/>
</svg>
