<svg width="32" height="32" viewBox="0 0 32 32" fill="none" xmlns="http://www.w3.org/2000/svg">
<path d="M7.09763 0.0253582C7.06208 0.0644732 6.57492 0.142702 6.37224 0.142702C6.166 0.146257 5.65395 0.260045 5.38727 0.363165C5.29126 0.398724 5.18103 0.430726 5.13836 0.430726C5.09924 0.430726 5.01746 0.462729 4.95701 0.501843C4.90011 0.540958 4.82188 0.572961 4.78633 0.572961C4.75077 0.572961 4.66187 0.604963 4.59075 0.640522C4.51964 0.679637 4.33118 0.768533 4.17472 0.846762C4.01826 0.921435 3.84402 1.01389 3.78357 1.053C3.72668 1.09212 3.63778 1.14545 3.588 1.17035C3.0404 1.44415 2.0412 2.35089 1.53271 3.03362C1.39048 3.22563 1.27669 3.3892 1.27669 3.40343C1.27669 3.41765 1.24824 3.46032 1.21269 3.49943C1.14868 3.57055 0.953108 3.90125 0.881991 4.0577C0.860656 4.10749 0.828653 4.17149 0.810874 4.19994C0.775315 4.25683 0.743313 4.32795 0.633081 4.58041C0.593966 4.66576 0.533517 4.80088 0.494402 4.88266C0.455288 4.968 0.423285 5.06757 0.423285 5.10668C0.423285 5.1458 0.391282 5.23825 0.352168 5.31292C0.313054 5.38404 0.281051 5.4836 0.281051 5.52983C0.281051 5.57606 0.25616 5.68273 0.224157 5.76807C0.19571 5.85341 0.15304 6.07388 0.135261 6.25878C0.117481 6.44013 0.0783668 6.63926 0.0499199 6.69971C0.00724961 6.78505 -0.00341797 6.95929 -0.00341797 7.56023C-0.00341797 7.97271 0.0108055 8.32474 0.0285848 8.34251C0.0712551 8.38519 0.138816 8.75855 0.138816 8.92568C0.135261 9.08925 0.270383 9.64752 0.355724 9.84664C0.394838 9.92843 0.423285 10.0351 0.423285 10.0778C0.423285 10.1204 0.44462 10.188 0.473067 10.2271C0.497958 10.2662 0.533517 10.3374 0.544184 10.3871C0.611746 10.6218 1.01356 11.3899 1.29092 11.813C1.34781 11.8984 1.44026 12.0264 1.49715 12.0939C1.55405 12.1615 1.6145 12.2362 1.63228 12.2611C1.9203 12.6202 2.02698 12.7447 2.17988 12.9082C2.37545 13.1109 3.20752 13.8008 3.26086 13.8008C3.27864 13.8008 3.32131 13.8328 3.35687 13.8719C3.39243 13.911 3.4351 13.943 3.45288 13.943C3.47066 13.943 3.53111 13.975 3.588 14.0141C3.64845 14.0532 3.7409 14.1172 3.80135 14.1563C3.85825 14.1955 3.92225 14.2275 3.94714 14.2275C3.96848 14.2275 4.02537 14.2595 4.07515 14.2986C4.12494 14.3377 4.18894 14.3697 4.21739 14.3697C4.24583 14.3697 4.30984 14.4017 4.35962 14.4408C4.4094 14.4799 4.48052 14.5119 4.51608 14.5119C4.55164 14.5119 4.63342 14.5439 4.69743 14.583C4.76143 14.6222 4.84322 14.6542 4.87522 14.6542C4.91078 14.6542 5.00679 14.6826 5.08857 14.7217C5.3197 14.8213 5.68596 14.9315 5.87442 14.9564C5.97043 14.9706 6.11266 15.0062 6.19445 15.0382C6.32246 15.0844 6.51803 15.0951 7.49945 15.0951C8.50575 15.0915 8.68355 15.0844 8.86845 15.0275C8.9858 14.9955 9.1707 14.9529 9.27738 14.9422C9.38405 14.928 9.52273 14.8889 9.58674 14.8569C9.65074 14.8248 9.73964 14.7964 9.78942 14.7964C9.90676 14.7964 10.1983 14.6471 10.3086 14.5297C10.3832 14.4515 10.3975 14.3981 10.3975 14.2239C10.3975 14.0354 10.3868 14.0034 10.2801 13.9003C10.1699 13.7865 10.1521 13.783 9.88898 13.783C9.71119 13.7865 9.56896 13.8079 9.48717 13.8434C9.41961 13.8754 9.30227 13.911 9.22404 13.9252C9.14581 13.9394 9.01069 13.975 8.92535 14.0034C8.75467 14.0568 7.90837 14.135 7.44611 14.135C7.04785 14.1386 6.32601 14.0639 6.12333 13.9999C6.03088 13.9714 5.88864 13.9323 5.81041 13.9145C5.73218 13.8968 5.61484 13.8612 5.55439 13.8399C5.49039 13.8185 5.38371 13.783 5.32326 13.7616C5.03524 13.6621 4.91789 13.6123 4.86455 13.5661C4.83611 13.5376 4.77566 13.5163 4.73654 13.5163C4.69743 13.5163 4.63698 13.4843 4.60142 13.4452C4.56586 13.4061 4.51252 13.3741 4.48408 13.3741C4.45919 13.3741 4.39162 13.3456 4.34184 13.3101C4.28851 13.2745 4.22094 13.2318 4.1925 13.2176C4.08938 13.1714 3.87247 13.0291 3.75868 12.9367C3.69468 12.8869 3.53822 12.7624 3.41021 12.6629C3.18974 12.4922 2.45013 11.749 2.45013 11.6992C2.45013 11.6886 2.36834 11.5748 2.26878 11.4503C2.16921 11.3259 2.05542 11.1588 2.01631 11.0805C1.97364 11.0023 1.93097 10.9312 1.91675 10.9205C1.87763 10.8921 1.78162 10.7036 1.62161 10.3516C1.5825 10.2627 1.51849 10.1347 1.48293 10.0636C1.44737 9.99243 1.41893 9.90709 1.41893 9.87509C1.41893 9.84309 1.38692 9.75775 1.34781 9.68663C1.30869 9.61196 1.27669 9.51595 1.27669 9.47328C1.27669 9.43061 1.24469 9.31326 1.20557 9.2137C1.16646 9.11414 1.13446 8.97546 1.13446 8.90078C1.1309 8.82967 1.10957 8.67321 1.07756 8.55587C0.995779 8.22162 0.974443 7.2402 1.03845 6.83127C1.1629 6.08454 1.18068 5.99209 1.22691 5.89964C1.25536 5.8463 1.27669 5.76096 1.27669 5.71118C1.27669 5.6614 1.30869 5.55828 1.34781 5.48005C1.38692 5.40182 1.41893 5.31292 1.41893 5.28092C1.41893 5.24892 1.44737 5.16358 1.48293 5.09246C1.51849 5.02134 1.61805 4.82221 1.70695 4.64442C1.79229 4.47018 1.89897 4.2675 1.94519 4.19994C1.98786 4.13238 2.04476 4.04348 2.06965 4.00792C2.09098 3.97236 2.14788 3.89769 2.1941 3.84435C2.23677 3.79101 2.27233 3.73412 2.27233 3.7199C2.27233 3.663 2.59236 3.30742 3.0084 2.89494C3.38532 2.52157 3.65912 2.29755 3.90803 2.15532C3.94359 2.13398 3.99692 2.09487 4.02893 2.06998C4.09649 2.01308 4.17827 1.96686 4.62987 1.73928C4.80766 1.64683 4.99612 1.56149 5.0459 1.54727C5.09569 1.53304 5.1668 1.50104 5.20592 1.47615C5.24503 1.4477 5.29837 1.42637 5.33037 1.42637C5.36237 1.42637 5.44772 1.39436 5.52594 1.35525C5.60417 1.31614 5.71085 1.28413 5.76419 1.28413C5.81752 1.28413 5.94198 1.25213 6.04154 1.21302C6.14111 1.1739 6.29757 1.1419 6.39002 1.1419C6.48247 1.1419 6.64604 1.11701 6.75272 1.08856C7.02652 1.01389 8.09683 1.00678 8.35996 1.08145C8.46308 1.1099 8.65154 1.1419 8.77956 1.15257C8.90757 1.16323 9.07114 1.19879 9.14225 1.22724C9.21693 1.25924 9.32005 1.28413 9.37338 1.28413C9.43028 1.28413 9.5334 1.31614 9.60807 1.35525C9.67919 1.39436 9.76809 1.42637 9.80009 1.42637C9.83565 1.42637 9.91388 1.45837 9.97077 1.49748C10.0312 1.5366 10.1094 1.5686 10.1486 1.5686C10.1877 1.5686 10.2588 1.6006 10.3086 1.63972C10.3584 1.67883 10.4224 1.71084 10.4508 1.71084C10.4828 1.71084 10.5433 1.73573 10.5895 1.77129C10.6357 1.80329 10.7459 1.86729 10.8384 1.91352C10.9273 1.9633 11.034 2.03086 11.0766 2.06998C11.1158 2.10554 11.1584 2.13754 11.1726 2.13754C11.2473 2.13754 11.6634 2.47179 12.0936 2.88071C12.3888 3.16163 12.9399 3.80168 12.9399 3.86569C12.9399 3.87991 12.9719 3.92614 13.0075 3.96525C13.0928 4.0577 13.2422 4.32795 13.4662 4.78665C13.6475 5.15646 13.6973 5.28092 13.7791 5.55116C13.804 5.64006 13.8502 5.77518 13.8787 5.85341C13.9071 5.93164 13.932 6.04543 13.9356 6.10588C13.9356 6.16633 13.9604 6.28723 13.9924 6.37257C14.1062 6.69615 14.1205 8.5132 14.0102 8.79767C13.9889 8.851 13.9569 8.99679 13.9356 9.12125C13.9178 9.24215 13.8751 9.39149 13.8467 9.45194C13.772 9.60485 13.74 9.96043 13.7898 10.1062C13.8822 10.3694 14.2662 10.4725 14.5009 10.2982C14.693 10.1596 14.8067 9.83598 15.0094 8.87589C15.0841 8.52031 15.0912 8.39941 15.0877 7.578C15.0805 6.79216 15.0699 6.62859 15.0059 6.35835C14.9632 6.18766 14.9312 5.9992 14.9312 5.94587C14.9312 5.88897 14.8992 5.77518 14.8601 5.68984C14.821 5.6045 14.789 5.49427 14.789 5.44449C14.789 5.3627 14.7427 5.23114 14.5685 4.78665C14.4832 4.58041 14.0529 3.71278 14.0031 3.65234C13.9853 3.631 13.8858 3.48521 13.7827 3.33231C13.4128 2.77404 12.6661 1.98108 12.1434 1.59349C12.0438 1.51882 11.9229 1.42637 11.8732 1.38725C11.7843 1.31969 11.7558 1.29836 11.514 1.16323C11.45 1.12768 11.3753 1.07434 11.3469 1.04945C11.322 1.021 11.2829 0.999664 11.2615 0.999664C11.2438 0.999664 11.1869 0.967661 11.1371 0.928547C11.0873 0.889433 11.0197 0.85743 10.9842 0.85743C10.9486 0.85743 10.8811 0.825427 10.8313 0.786312C10.7815 0.747198 10.7211 0.715196 10.6997 0.715196C10.6571 0.715196 10.5041 0.65119 10.1841 0.498288C10.1059 0.462729 10.0063 0.430726 9.9601 0.430726C9.91743 0.430726 9.82142 0.40228 9.74675 0.363165C9.67563 0.327606 9.53695 0.284936 9.4445 0.274269C9.34849 0.260045 9.20982 0.224486 9.13159 0.199595C9.05691 0.171148 8.87912 0.146257 8.73689 0.142702C8.59465 0.139146 8.35996 0.107143 8.21417 0.0680285C7.9546 0.00402355 7.15097 -0.0244236 7.09763 0.0253582Z" fill="#69B9CF"/>
<path d="M23.9561 0.0253439C23.9135 0.0644579 23.6468 0.110684 23.2521 0.146243C23.0458 0.164022 22.8147 0.203136 22.7365 0.231584C22.6582 0.260031 22.5409 0.284922 22.4769 0.288477C22.4164 0.288477 22.3027 0.32048 22.2315 0.359594C22.1569 0.398709 22.0609 0.430712 22.0146 0.430712C21.9684 0.430712 21.8724 0.462714 21.8013 0.498273C21.7302 0.537388 21.5808 0.601393 21.4741 0.644063C21.3675 0.690289 21.2217 0.754295 21.1506 0.789853C21.0794 0.828968 20.9977 0.857415 20.9692 0.857415C20.9408 0.857415 20.8874 0.889418 20.8519 0.928532C20.8163 0.967647 20.7594 0.999649 20.7239 0.999649C20.6883 0.999649 20.6527 1.01387 20.6385 1.03165C20.6136 1.07788 20.3078 1.28412 20.2687 1.28412C20.2545 1.28412 20.2118 1.31612 20.1762 1.35524C20.1407 1.39435 20.098 1.42635 20.0767 1.42635C20.0589 1.42635 19.9949 1.46547 19.9309 1.51525C19.8704 1.56503 19.8029 1.61837 19.7851 1.63259C19.49 1.8495 18.4054 2.95537 18.3521 3.09761C18.3414 3.12605 18.2739 3.23273 18.2027 3.32874C18.1281 3.4283 18.0178 3.60254 17.9503 3.71633C17.8827 3.83011 17.7938 3.97946 17.7512 4.05058C17.7085 4.12525 17.6623 4.20704 17.6516 4.23548C17.6409 4.26393 17.6018 4.35283 17.5627 4.43105C17.5271 4.50928 17.4845 4.6124 17.4738 4.66218C17.4596 4.71197 17.4311 4.77242 17.4062 4.80086C17.3849 4.82931 17.3493 4.91465 17.328 4.99644C17.3031 5.07822 17.2711 5.18845 17.2498 5.2489C17.1502 5.52626 17.0649 5.83206 17.0649 5.91029C17.0649 5.95652 17.0329 6.11653 16.9938 6.26232C16.944 6.45434 16.9191 6.69969 16.9013 7.15129C16.8693 8.1327 16.9511 8.92922 17.1395 9.51593C17.1751 9.63328 17.2071 9.76484 17.2071 9.80751C17.2071 9.91419 17.3636 10.2093 17.4702 10.3124C17.5485 10.3836 17.5983 10.3978 17.7796 10.3978C17.9894 10.3978 18.0072 10.3907 18.121 10.2698C18.185 10.1987 18.2419 10.1098 18.2419 10.0778C18.2525 9.91419 18.249 9.86085 18.2241 9.72928C18.2099 9.65106 18.1672 9.50171 18.1281 9.39859C18.0925 9.29547 18.0605 9.16746 18.0605 9.11412C18.057 9.06078 18.0321 8.95411 18.0036 8.87588C17.8685 8.50607 17.8685 6.65347 18.0036 6.26588C18.0356 6.18054 18.0605 6.05964 18.0605 5.99919C18.0605 5.93874 18.089 5.83206 18.1245 5.7645C18.1636 5.69694 18.2027 5.5796 18.2134 5.50137C18.2241 5.42669 18.2596 5.3378 18.2845 5.3058C18.313 5.27379 18.345 5.19201 18.3592 5.12089C18.3734 5.04622 18.4054 4.97154 18.4339 4.94665C18.4623 4.92176 18.4872 4.88265 18.4872 4.85776C18.4872 4.83642 18.537 4.72263 18.5939 4.60529C18.9033 4.00791 19.2944 3.47453 19.8207 2.93404C20.0198 2.73135 20.7452 2.13752 20.795 2.13752C20.8127 2.13752 20.8519 2.11619 20.8803 2.08774C20.9052 2.0593 21.019 1.99173 21.1257 1.93128C21.2359 1.87439 21.3604 1.79972 21.4066 1.76771C21.4528 1.73571 21.5133 1.71082 21.5381 1.71082C21.5666 1.71082 21.627 1.67882 21.6768 1.6397C21.7266 1.60059 21.7942 1.56859 21.8262 1.56859C21.8582 1.56503 21.9471 1.53658 22.0253 1.49747C22.1035 1.45835 22.1889 1.42991 22.2138 1.42635C22.2351 1.42635 22.3169 1.39435 22.388 1.35524C22.4627 1.31612 22.5622 1.28412 22.612 1.28412C22.6618 1.28412 22.7934 1.25212 22.9071 1.213C23.0174 1.17389 23.1774 1.14188 23.2592 1.14188C23.3445 1.14188 23.501 1.11699 23.6077 1.08855C23.7463 1.05299 23.9881 1.03521 24.4255 1.03521C24.8629 1.03521 25.1047 1.05299 25.2433 1.08855C25.35 1.11699 25.5065 1.14188 25.5918 1.14188C25.6736 1.14188 25.8336 1.17389 25.9439 1.213C26.0576 1.25212 26.1892 1.28412 26.239 1.28412C26.2888 1.28412 26.3919 1.31612 26.4701 1.35524C26.5483 1.39435 26.6408 1.42635 26.6835 1.42635C26.7226 1.42635 26.7937 1.45835 26.8435 1.49747C26.8933 1.53658 26.9573 1.56859 26.9893 1.56859C27.0533 1.56859 27.6364 1.86017 27.7289 1.93484C27.7609 1.95973 27.8249 1.99885 27.8747 2.02374C27.9991 2.08063 28.0774 2.13397 28.2872 2.29754C28.3903 2.37577 28.5254 2.47889 28.5894 2.52867C28.657 2.57845 28.8988 2.80958 29.1299 3.04427C29.6099 3.53498 29.8944 3.92257 30.2464 4.57329C30.2678 4.6124 30.3211 4.72263 30.3673 4.8222C30.41 4.91821 30.4705 5.04622 30.4989 5.10311C30.5274 5.16 30.5629 5.25601 30.5807 5.31646C30.5949 5.37691 30.634 5.49781 30.6625 5.58671C30.7869 5.95652 30.8616 6.23387 30.8616 6.34411C30.8616 6.40456 30.8901 6.56101 30.9221 6.68902C30.9612 6.85971 30.979 7.1015 30.9825 7.61355C30.9861 8.31761 30.9718 8.42073 30.8047 9.08923C30.7763 9.20657 30.7407 9.36659 30.7229 9.44482C30.7087 9.52305 30.6696 9.63683 30.6376 9.70084C30.6056 9.76484 30.5771 9.84307 30.5771 9.87863C30.5771 9.91419 30.5451 9.98886 30.506 10.0493C30.4669 10.1062 30.4349 10.188 30.4349 10.2271C30.4349 10.2662 30.4029 10.3373 30.3638 10.3871C30.3247 10.4369 30.2927 10.5045 30.2927 10.5365C30.2927 10.5685 30.2749 10.6076 30.2536 10.6218C30.2322 10.6325 30.1931 10.6965 30.1647 10.7605C30.0615 11.0129 29.489 11.7917 29.1406 12.1615C28.9806 12.3286 28.4258 12.8051 28.3903 12.8051C28.3761 12.8051 28.2907 12.8691 28.1983 12.9473C28.1058 13.0256 28.0134 13.0896 27.9956 13.0896C27.9742 13.0896 27.9387 13.1109 27.9174 13.1322C27.8676 13.182 27.4551 13.4167 27.3057 13.4843C27.256 13.5056 27.1528 13.5518 27.0746 13.5874C26.6835 13.7652 26.1572 13.943 26.0399 13.943C25.9972 13.943 25.8941 13.9679 25.8087 13.9999C25.6096 14.071 25.0122 14.1314 24.5322 14.1314C24.0521 14.1314 23.2592 14.0639 23.1241 14.0141C23.0672 13.9892 22.9249 13.9572 22.8076 13.9394C22.6902 13.9181 22.5622 13.8825 22.5231 13.8576C22.4236 13.7936 22.1426 13.7581 21.9577 13.783C21.7373 13.8185 21.6164 13.9892 21.6164 14.2666C21.6164 14.4337 21.6306 14.4764 21.7159 14.5546C21.8511 14.6755 22.0573 14.7964 22.1355 14.7964C22.1746 14.7964 22.2991 14.8284 22.4164 14.8639C23.1027 15.0844 23.2236 15.0986 24.4433 15.0986C25.5136 15.0986 25.5954 15.0915 25.8514 15.0168C25.9972 14.9742 26.1608 14.9386 26.2105 14.9386C26.2603 14.9386 26.3706 14.9066 26.4559 14.8675C26.5412 14.8284 26.6444 14.7964 26.6799 14.7964C26.719 14.7964 26.815 14.7679 26.8933 14.7288C26.9751 14.6933 27.0711 14.6542 27.1102 14.6435C27.2951 14.5901 27.544 14.487 27.6258 14.4301C27.672 14.3981 27.7467 14.3697 27.7858 14.3697C27.8249 14.3697 27.8854 14.3377 27.9209 14.2986C27.9529 14.2594 28.0098 14.2274 28.0454 14.2274C28.0845 14.2274 28.1414 14.1954 28.1769 14.1563C28.2125 14.1172 28.2552 14.0852 28.2729 14.0852C28.2943 14.0852 28.3974 14.0212 28.5112 13.943C28.6214 13.8647 28.7245 13.8007 28.7423 13.8007C28.7885 13.8007 29.4926 13.2069 29.7415 12.958C30.1113 12.5846 30.6803 11.8699 30.8936 11.5072C31.0465 11.2476 31.3239 10.6965 31.3239 10.6538C31.3239 10.6289 31.3488 10.5898 31.3772 10.5649C31.4057 10.54 31.4305 10.4867 31.4305 10.444C31.4305 10.4049 31.4625 10.3196 31.5017 10.2627C31.5408 10.2022 31.5728 10.1204 31.5728 10.0742C31.5728 10.028 31.6012 9.91775 31.6403 9.82529C31.7292 9.59061 31.8501 9.06434 31.8786 8.7692C31.8893 8.63052 31.9213 8.46695 31.9497 8.39939C32.0066 8.26071 32.0208 7.04461 31.9675 6.98772C31.9497 6.96994 31.9141 6.78859 31.8928 6.58235C31.8715 6.37611 31.8359 6.13787 31.8146 6.04897C31.7932 5.96007 31.7577 5.79295 31.7328 5.6756C31.7115 5.55826 31.6652 5.41247 31.6332 5.34847C31.5977 5.28446 31.5728 5.20268 31.5728 5.16C31.5728 5.12089 31.5408 5.02488 31.5017 4.94665C31.4625 4.86842 31.4305 4.77597 31.4305 4.74041C31.4305 4.7013 31.4057 4.65152 31.3772 4.62663C31.3488 4.60174 31.3168 4.53062 31.3025 4.46306C31.2919 4.3955 31.267 4.33149 31.2492 4.32438C31.235 4.31371 31.1674 4.19637 31.1034 4.0648C31.0394 3.93323 30.9505 3.76966 30.9043 3.7021C30.8616 3.63454 30.8083 3.55276 30.7905 3.52431C30.3958 2.9127 29.8162 2.2442 29.3468 1.86372C28.8205 1.43702 28.6285 1.29123 28.5574 1.26989C28.5147 1.25567 28.4792 1.23078 28.4792 1.213C28.4792 1.19522 28.4472 1.17033 28.4045 1.15966C28.3618 1.14544 28.2765 1.09921 28.2125 1.05654C28.1485 1.01387 27.9707 0.917865 27.8178 0.843191C27.6613 0.772074 27.4764 0.679622 27.4053 0.644063C27.3342 0.604949 27.2489 0.572946 27.2169 0.572946C27.1848 0.572946 27.0995 0.540943 27.0213 0.501829C26.9431 0.462714 26.8542 0.430712 26.8186 0.430712C26.783 0.430712 26.7084 0.405821 26.6479 0.373817C26.591 0.345371 26.4523 0.302701 26.3457 0.284922C26.239 0.263586 26.0825 0.224472 25.9972 0.196025C25.9154 0.167578 25.7554 0.146243 25.6416 0.142687C25.5314 0.142687 25.318 0.117796 25.1722 0.0857935C24.8949 0.0288992 23.9988 -0.0173264 23.9561 0.0253439Z" fill="#69B9CF"/>
<path d="M10.568 3.92257C10.3617 4.12526 9.84256 4.64441 9.40875 5.08179C8.97493 5.51916 8.57668 5.89963 8.52689 5.92452C8.44155 5.97075 8.42022 5.9672 8.3491 5.9103C8.25665 5.84274 7.78728 5.72895 7.5917 5.72895C7.38902 5.72895 6.95876 5.84274 6.73474 5.95297C6.45027 6.09876 6.09113 6.46146 5.94534 6.76015C5.88133 6.88816 5.80666 7.11574 5.78177 7.26864C5.7391 7.50688 5.7391 7.59222 5.78533 7.89091C5.82088 8.10782 5.86355 8.27139 5.90978 8.32829C5.9489 8.38518 5.97023 8.44918 5.95601 8.49186C5.94534 8.52741 5.53286 8.95767 5.04215 9.44483C4.55144 9.93554 4.01451 10.476 3.85094 10.6467C3.56647 10.9454 3.55225 10.9667 3.55225 11.1196C3.55225 11.3579 3.68381 11.5143 3.99317 11.6317C4.1603 11.6921 4.35943 11.5286 5.51864 10.3729C6.34004 9.5515 6.66362 9.24925 6.72407 9.24925C6.7703 9.24925 6.85564 9.28126 6.91253 9.32037C6.97298 9.35949 7.0761 9.39149 7.14366 9.39149C7.25745 9.39149 7.43525 9.56217 10.0737 12.1971C12.3566 14.4835 12.8757 15.0169 12.8508 15.0702C12.7299 15.376 12.7299 16.6526 12.8508 16.9441C12.8757 16.9975 12.3886 17.4988 10.0737 19.8137C7.43525 22.4486 7.25745 22.6193 7.14366 22.6193C7.0761 22.6193 6.97298 22.6513 6.91253 22.6904C6.85564 22.7295 6.7703 22.7615 6.72763 22.7615C6.67074 22.7615 6.31871 22.4344 5.50797 21.6236C4.88214 20.9978 4.32031 20.4609 4.26342 20.4324C4.12118 20.3578 3.97184 20.3649 3.82249 20.4538C3.54513 20.6173 3.47402 20.9267 3.65537 21.1578C3.71226 21.2289 4.24919 21.773 4.84658 22.3704C5.44396 22.9642 5.94534 23.4834 5.95601 23.5189C5.96668 23.558 5.95245 23.6114 5.91689 23.6505C5.84578 23.7287 5.75688 24.1625 5.76044 24.415C5.76755 25.3182 6.33293 26.0258 7.21123 26.2214C7.35346 26.2569 7.55614 26.2818 7.65571 26.2783C7.86195 26.2783 8.29932 26.1716 8.35977 26.1111C8.38466 26.0863 8.43444 26.0685 8.47356 26.0685C8.51623 26.0685 8.95715 26.4845 9.66477 27.1886C10.2835 27.8037 10.8275 28.3407 10.8738 28.3798C10.9378 28.4331 11.0089 28.4509 11.1653 28.4509C11.3716 28.4509 11.3751 28.4509 11.5174 28.2695C11.6703 28.074 11.6952 27.9353 11.6098 27.7788C11.5849 27.7326 11.0373 27.1672 10.3937 26.5272L9.2274 25.3573L9.27007 25.2506C9.3163 25.1333 9.36252 25.0053 9.40875 24.8488C9.42653 24.7884 10.4613 23.7287 12.225 21.9615C14.8777 19.3088 15.0199 19.1701 15.123 19.1843C15.9764 19.3159 16.0475 19.3194 16.3925 19.2661C16.5774 19.2341 16.7978 19.2021 16.8867 19.1914L17.0467 19.1701L19.831 21.9543C21.744 23.8709 22.6117 24.7599 22.6117 24.8133C22.6117 24.8524 22.6437 24.9555 22.6828 25.0408C22.8179 25.3431 22.8606 25.2826 21.616 26.5201C20.6382 27.4908 20.4746 27.6722 20.4284 27.8108C20.3644 28.01 20.407 28.1771 20.567 28.3442C20.6595 28.4402 20.6915 28.4509 20.8942 28.4509H21.1182L22.3343 27.2419L23.5504 26.0329L23.6393 26.0934C23.7638 26.1751 24.1976 26.2818 24.4074 26.2818C24.5069 26.2818 24.6492 26.264 24.7274 26.2427C24.8056 26.2214 24.9265 26.1965 24.9941 26.1858C25.0616 26.1751 25.1434 26.1467 25.1719 26.1254C25.2003 26.1005 25.2821 26.0578 25.3497 26.0294C25.5026 25.9725 25.9648 25.5173 26.0395 25.3537C26.0715 25.2862 26.1106 25.208 26.1284 25.1795C26.1462 25.1511 26.196 24.9982 26.2386 24.8453C26.3026 24.6212 26.3133 24.5146 26.2955 24.319C26.2742 24.0736 26.1604 23.6754 26.0893 23.5865C26.0395 23.5296 25.9648 23.6114 27.3161 22.2601L28.4433 21.1258V20.884C28.4433 20.6244 28.4219 20.5853 28.1872 20.4395C27.8992 20.2618 27.7925 20.3364 26.4911 21.6414C25.7266 22.4059 25.3497 22.7615 25.2999 22.7615C25.2572 22.7615 25.1825 22.7331 25.1363 22.7011C25.0901 22.6655 24.9905 22.63 24.9159 22.6193C24.7914 22.6015 24.5318 22.3526 21.9894 19.8102C18.8638 16.6881 19.1376 17.0117 19.2549 16.5601C19.3296 16.2792 19.3296 15.7351 19.2549 15.4507C19.1376 14.9991 18.8673 15.3227 21.9645 12.222C23.49 10.7 24.7558 9.44127 24.7843 9.42349C24.8127 9.40571 24.8732 9.39149 24.923 9.39149C24.9727 9.39149 25.0616 9.35949 25.1185 9.32037C25.179 9.28126 25.2572 9.24925 25.2999 9.24925C25.3497 9.24925 25.7408 9.61551 26.4982 10.3729C27.7854 11.6601 27.8814 11.7312 28.1481 11.589C28.4077 11.4503 28.4433 11.397 28.4433 11.1267V10.8849L27.2521 9.69729C26.5978 9.04301 26.0608 8.48474 26.0608 8.45274C26.0608 8.42429 26.0751 8.39585 26.0964 8.38873C26.1462 8.37096 26.3097 7.80202 26.3097 7.63489C26.3097 7.43221 26.1675 6.86327 26.0893 6.76371C26.0537 6.71748 26.0253 6.65703 26.0253 6.63214C26.0253 6.55036 25.5026 6.05254 25.3426 5.97786C25.2572 5.93875 25.1648 5.89252 25.1363 5.87474C25.0545 5.82852 24.5994 5.72895 24.4571 5.72895C24.2545 5.72895 23.714 5.86052 23.6393 5.92808C23.554 6.00275 23.6855 6.1201 22.3414 4.77243C21.7654 4.19993 21.2462 3.69144 21.1822 3.64522C21.0933 3.57766 21.0222 3.55988 20.8693 3.55988C20.6986 3.55988 20.6559 3.5741 20.5777 3.65589C20.5244 3.71278 20.4568 3.82301 20.4248 3.9048C20.3146 4.18215 20.3501 4.22482 21.6196 5.49071C22.8606 6.72815 22.8179 6.6677 22.6828 6.96995C22.6437 7.05529 22.6117 7.15485 22.6117 7.19752C22.6117 7.2473 21.7298 8.15405 19.8665 10.0209C18.3553 11.5357 17.093 12.7873 17.061 12.8051C17.029 12.8229 16.9152 12.8229 16.7943 12.8051C16.0369 12.6878 16.0084 12.6842 15.7062 12.734C15.5462 12.7589 15.3186 12.7873 15.2048 12.8016L14.9986 12.8264L12.2179 10.0422C10.4755 8.29628 9.42653 7.22241 9.40875 7.16196C9.36252 7.00551 9.3163 6.87394 9.27007 6.76015L9.2274 6.65703L10.3404 5.54405C10.9555 4.93244 11.5031 4.36706 11.5565 4.29239C11.6845 4.1217 11.6881 3.9688 11.5743 3.8159C11.4178 3.60255 11.3431 3.55988 11.1333 3.55988H10.9378L10.568 3.92257ZM7.92595 6.79927C8.2282 6.92017 8.45933 7.26153 8.45933 7.59578C8.45933 7.95492 8.18909 8.31051 7.83706 8.41363C7.31435 8.56297 6.82364 8.21805 6.72763 7.63134C6.70274 7.47844 6.8343 7.16908 6.99432 7.00551C7.23967 6.75304 7.59881 6.67126 7.92595 6.79927ZM24.7487 6.80993C25.2074 7.01262 25.4243 7.546 25.2145 7.95492C25.1292 8.12205 24.8234 8.39585 24.7203 8.39585C24.6812 8.39585 24.6029 8.41363 24.5425 8.43141C24.4643 8.45985 24.386 8.4563 24.2331 8.41718C23.9807 8.34962 23.8242 8.23583 23.6997 8.02604C23.6215 7.89447 23.6073 7.82335 23.6073 7.59933C23.6073 7.26864 23.6357 7.18686 23.8313 6.99839C24.1122 6.72815 24.4216 6.66414 24.7487 6.80993ZM11.6667 10.9098C12.9753 12.2184 14.042 13.2958 14.042 13.3136C14.042 13.3563 13.3664 14.0141 13.3202 14.0141C13.242 14.0141 8.52689 9.26703 8.54823 9.21014C8.5589 9.18169 8.63357 9.12124 8.7118 9.07146C8.85403 8.98612 9.01405 8.82255 9.14561 8.63053C9.18117 8.58075 9.2274 8.53808 9.25229 8.53808C9.27718 8.53808 10.3617 9.60484 11.6667 10.9098ZM22.9139 8.6412C22.9779 8.77277 23.305 9.09635 23.3975 9.1248C23.4366 9.13902 23.4651 9.18169 23.4651 9.22436C23.4651 9.28126 22.7823 9.98532 21.0862 11.6815L18.7038 14.0639L18.3482 13.6941C18.1491 13.4914 17.989 13.3172 17.989 13.3065C17.989 13.2532 22.7468 8.53808 22.8001 8.53808C22.8321 8.53808 22.8819 8.58431 22.9139 8.6412ZM16.4245 13.7474C16.5062 13.7759 16.62 13.8008 16.6734 13.8008C16.7267 13.8008 16.812 13.8328 16.8618 13.8719C16.9116 13.911 16.9827 13.943 17.0218 13.943C17.0574 13.943 17.1179 13.975 17.1534 14.0141C17.189 14.0532 17.2388 14.0852 17.2636 14.0852C17.2921 14.0852 17.445 14.2168 17.605 14.3768C18.0708 14.8426 18.3091 15.4009 18.3091 16.0267C18.3091 16.3574 18.2522 16.617 18.1099 16.9157C18.0637 17.0153 18.0246 17.1077 18.0246 17.1219C18.0246 17.2215 17.3596 17.922 17.2672 17.9256C17.2494 17.9256 17.1961 17.9576 17.1463 17.9967C17.0965 18.0358 17.029 18.0678 17.0005 18.0678C16.9685 18.0678 16.9152 18.0962 16.8796 18.1282C16.8441 18.1602 16.7374 18.1994 16.6449 18.2136C16.5525 18.2314 16.3782 18.2598 16.2538 18.2847C16.0333 18.3274 15.82 18.3096 15.4004 18.2171C15.0946 18.1496 14.7176 17.922 14.4154 17.6233C14.2554 17.4668 14.1025 17.2891 14.074 17.2322C14.042 17.1717 14.0029 17.0935 13.9816 17.0544C13.7967 16.7059 13.7433 16.4712 13.7433 16.0054C13.7398 15.3369 13.9211 14.8853 14.3798 14.423C14.5363 14.263 14.7141 14.1066 14.771 14.0746C14.8314 14.0426 14.9452 13.9821 15.0306 13.9394C15.1123 13.8968 15.1906 13.8505 15.2012 13.8328C15.2119 13.815 15.2724 13.8008 15.3328 13.8008C15.3968 13.7972 15.5284 13.7759 15.6244 13.7474C15.8626 13.6834 16.2396 13.6834 16.4245 13.7474ZM21.0897 20.3329C22.8428 22.0859 23.4651 22.7295 23.4651 22.79C23.4651 22.8433 23.4366 22.8824 23.3797 22.9038C23.273 22.9429 22.9459 23.27 22.9139 23.3625C22.9032 23.4016 22.8606 23.4442 22.8179 23.4585C22.7574 23.4762 22.3699 23.1064 20.3679 21.1045C19.0594 19.7959 17.9926 18.7114 17.9997 18.6972C18.0104 18.6616 18.6753 17.9647 18.7002 17.9611C18.7109 17.9611 19.7847 19.0279 21.0897 20.3329ZM13.7149 18.3487L14.0705 18.7007L11.6916 21.076C10.3831 22.3846 9.2914 23.4585 9.26296 23.4656C9.23451 23.4727 9.18473 23.4336 9.14561 23.3802C9.04249 23.2238 8.7118 22.9038 8.6549 22.9038C8.62646 22.9038 8.58734 22.8718 8.56245 22.8291C8.52689 22.7615 8.71891 22.5588 10.9022 20.3755C12.2072 19.067 13.2953 17.9967 13.3202 17.9967C13.3415 17.9967 13.5229 18.1531 13.7149 18.3487ZM7.75527 23.5758C7.8015 23.5936 7.87973 23.6185 7.93307 23.6292C8.07174 23.6612 8.37399 23.9741 8.40244 24.1199C8.46289 24.4114 8.46644 24.4826 8.42022 24.639C8.35621 24.8773 8.1642 25.0977 7.93307 25.2008C7.68771 25.3075 7.51703 25.3075 7.27879 25.2008C7.03699 25.0942 6.86986 24.9093 6.78097 24.6426C6.70985 24.4328 6.70985 24.4257 6.77386 24.2123C6.90898 23.7749 7.42102 23.4407 7.75527 23.5758ZM24.6989 23.6043C24.8483 23.6292 25.1043 23.8532 25.211 24.0487C25.3248 24.2657 25.3248 24.5786 25.211 24.7706C25.0972 24.9626 24.8874 25.1795 24.8163 25.1795C24.7843 25.1795 24.7274 25.2044 24.6883 25.2328C24.5425 25.3431 24.0909 25.2648 23.8953 25.0942C23.8491 25.0515 23.7673 24.9519 23.7104 24.8701C23.618 24.735 23.6073 24.6959 23.6073 24.415C23.6073 24.1483 23.618 24.095 23.6997 23.9705C23.8242 23.7856 23.9984 23.654 24.2047 23.5971C24.3611 23.5545 24.4145 23.5545 24.6989 23.6043Z" fill="#69B9CF"/>
<path d="M6.64616 16.9299C6.47904 16.9441 6.24791 16.9832 6.13056 17.0153C6.01322 17.0437 5.86743 17.0686 5.81053 17.0721C5.75008 17.0721 5.6683 17.0935 5.62919 17.1219C5.59007 17.1504 5.49406 17.1859 5.41939 17.2002C5.34116 17.2144 5.21315 17.2535 5.13492 17.2891C5.05669 17.3246 4.95713 17.3566 4.91801 17.3566C4.87534 17.3566 4.82201 17.3779 4.80067 17.4064C4.77578 17.4348 4.71533 17.4668 4.66199 17.4811C4.55532 17.506 4.27085 17.6269 4.19262 17.6766C4.16417 17.698 4.07527 17.7442 3.99705 17.7833C3.91882 17.8224 3.80859 17.8864 3.74814 17.9255C3.69124 17.9647 3.58457 18.0287 3.517 18.0678C2.86984 18.4447 1.92754 19.3586 1.36571 20.1515C1.25548 20.3115 0.992344 20.7382 0.992344 20.7631C0.992344 20.7773 0.960341 20.8271 0.921227 20.8769C0.882112 20.9267 0.85011 20.9907 0.85011 21.0227C0.85011 21.0547 0.818107 21.1223 0.778992 21.172C0.739878 21.2218 0.707875 21.2894 0.707875 21.3285C0.707875 21.3641 0.675872 21.4316 0.636758 21.4814C0.597643 21.5312 0.565641 21.6023 0.565641 21.6414C0.565641 21.6805 0.533638 21.773 0.494524 21.8477C0.455409 21.9188 0.423406 22.0183 0.423406 22.0681C0.423406 22.1179 0.391404 22.2175 0.352289 22.2886C0.313175 22.3633 0.281172 22.4557 0.281172 22.4948C0.281172 22.5375 0.256281 22.6655 0.224278 22.7793C-0.0175203 23.6647 0.0571528 25.7947 0.355845 26.5378C0.394959 26.6303 0.423406 26.7405 0.423406 26.7868C0.423406 26.833 0.455409 26.9148 0.494524 26.9752C0.533638 27.0321 0.565641 27.1103 0.565641 27.1459C0.565641 27.1779 0.597643 27.2668 0.636758 27.3379C0.675872 27.4126 0.707875 27.4979 0.707875 27.5335C0.707875 27.5655 0.722099 27.6046 0.743434 27.6153C0.761213 27.6259 0.842998 27.7682 0.924783 27.9282C1.08835 28.2624 1.10258 28.2873 1.29459 28.5754C1.46527 28.8385 1.97376 29.4679 2.21556 29.7239C2.40046 29.9195 3.0903 30.4848 3.37477 30.6733C3.46367 30.7338 3.55612 30.8013 3.58101 30.8262C3.6059 30.8475 3.64857 30.8689 3.67346 30.8689C3.69835 30.8689 3.74814 30.9009 3.78369 30.94C3.81925 30.9791 3.87615 31.0111 3.90815 31.0111C3.94371 31.0111 4.01127 31.0431 4.06105 31.0822C4.11083 31.1213 4.17128 31.1533 4.19973 31.1533C4.22462 31.1533 4.28507 31.1854 4.33485 31.2245C4.38463 31.2636 4.45575 31.2956 4.49842 31.2956C4.53754 31.2956 4.60154 31.3276 4.6371 31.3667C4.67266 31.4058 4.73666 31.4378 4.77578 31.4378C4.81845 31.4378 4.90735 31.4663 4.97491 31.5054C5.04247 31.5409 5.17404 31.5801 5.26649 31.5943C5.35538 31.6085 5.45139 31.6441 5.47273 31.6689C5.49762 31.6974 5.55807 31.7223 5.61141 31.7223C5.66119 31.7223 5.79276 31.7472 5.89943 31.7792C6.00611 31.8076 6.24791 31.8467 6.43281 31.8681C6.61771 31.8859 6.87374 31.9179 7.00175 31.9392C7.40356 32.0032 7.75559 32.0174 7.94049 31.9783C8.04006 31.957 8.28186 31.9214 8.47743 31.9001C8.673 31.8787 8.92191 31.8467 9.02859 31.8254C9.13526 31.8041 9.32728 31.765 9.45529 31.7401C9.5833 31.7152 9.7362 31.6689 9.7931 31.6369C9.85355 31.6049 9.93533 31.5801 9.98156 31.5801C10.0242 31.5801 10.1238 31.548 10.202 31.5089C10.2802 31.4698 10.362 31.4378 10.3869 31.4378C10.4296 31.4378 10.6678 31.3311 10.8065 31.2529C10.835 31.2387 10.9239 31.1925 11.0021 31.1533C11.0803 31.1142 11.1692 31.068 11.1977 31.0502C11.2261 31.0324 11.2759 31.0076 11.3043 30.9933C11.5675 30.8867 12.3426 30.3213 12.7445 29.9479C13.1107 29.603 13.7934 28.8029 13.7934 28.714C13.7934 28.7069 13.8574 28.618 13.9357 28.5185C14.0139 28.4189 14.0779 28.3193 14.0779 28.2944C14.0779 28.2695 14.1099 28.2198 14.149 28.1842C14.1881 28.1486 14.2201 28.0918 14.2201 28.0598C14.2201 28.0242 14.2486 27.9602 14.2841 27.914C14.3802 27.7824 14.6468 27.2028 14.6468 27.1246C14.6468 27.0997 14.6788 27.0214 14.718 26.9468C14.7571 26.8756 14.7891 26.7903 14.7891 26.7619C14.7891 26.7334 14.8175 26.6161 14.8566 26.5058C14.9171 26.3138 14.9598 26.136 15.038 25.7484C15.1909 24.9697 15.1731 23.6469 14.9989 22.9215C14.9633 22.7615 14.9313 22.6015 14.9313 22.5588C14.9313 22.5162 14.9029 22.413 14.8673 22.3277C14.8282 22.2424 14.7891 22.1179 14.7749 22.0432C14.7606 21.9721 14.6966 21.8512 14.6184 21.7659C14.4904 21.6201 14.4833 21.6165 14.2593 21.6165C14.0459 21.6165 14.0246 21.6236 13.9072 21.741C13.7899 21.8583 13.7828 21.8797 13.7863 22.093C13.7899 22.2388 13.8183 22.3775 13.861 22.4806C13.9001 22.5659 13.9357 22.6726 13.9357 22.7153C13.9357 22.758 13.9606 22.8718 13.9926 22.9642C14.0246 23.0567 14.0637 23.27 14.0815 23.4371C14.0957 23.6043 14.1277 23.8994 14.1455 24.095C14.1739 24.3403 14.1739 24.5537 14.149 24.7884C14.1277 24.9733 14.0992 25.2613 14.0815 25.4284C14.0637 25.5955 14.0246 25.7947 13.9961 25.8729C13.9641 25.9511 13.9321 26.0791 13.9179 26.1574C13.9037 26.232 13.8717 26.3423 13.8432 26.3956C13.8148 26.4489 13.7934 26.5272 13.7934 26.5698C13.7934 26.6125 13.765 26.705 13.7294 26.7761C13.6121 27.0001 13.4734 27.3024 13.4734 27.3237C13.4734 27.3486 13.2494 27.7433 13.1249 27.9353C12.9614 28.1878 12.4564 28.8207 12.2609 29.0198C12.0973 29.1905 11.795 29.4501 11.5355 29.6457C11.251 29.8626 11.0341 30.0155 11.0092 30.0155C10.9914 30.0155 10.9381 30.0475 10.8883 30.0866C10.8385 30.1257 10.771 30.1577 10.7354 30.1577C10.7034 30.1577 10.6465 30.1897 10.6109 30.2288C10.5754 30.2679 10.5256 30.2999 10.4972 30.2999C10.4687 30.2999 10.3869 30.3284 10.3158 30.3675C9.97445 30.5417 9.60819 30.6804 9.36639 30.7302C9.28817 30.7444 9.13526 30.7835 9.02859 30.812C8.92191 30.844 8.78679 30.8689 8.72634 30.8689C8.66945 30.8689 8.50232 30.8938 8.36009 30.9222C8.05428 30.9862 7.22221 30.9969 6.93419 30.94C6.82751 30.9222 6.60705 30.8902 6.44348 30.8689C6.28346 30.8511 6.10211 30.812 6.04522 30.7835C5.98477 30.7515 5.88876 30.7266 5.82831 30.7266C5.76786 30.7266 5.65763 30.6946 5.5794 30.6555C5.50117 30.6164 5.41228 30.5844 5.37672 30.5844C5.34116 30.5844 5.25938 30.5524 5.19537 30.5133C5.13137 30.4742 5.04602 30.4422 5.00691 30.4422C4.96424 30.4422 4.89312 30.4102 4.84334 30.3711C4.79356 30.3319 4.73311 30.2999 4.70822 30.2999C4.68688 30.2999 4.62999 30.2679 4.58376 30.2288C4.53754 30.1897 4.47353 30.1577 4.44153 30.1577C4.40953 30.1577 4.35263 30.1257 4.31707 30.0866C4.28151 30.0475 4.22462 30.0155 4.19262 30.0155C4.16062 30.0155 4.10372 29.9835 4.06816 29.9444C4.0326 29.9052 3.98993 29.8732 3.97215 29.8732C3.92593 29.8732 3.28232 29.3541 3.02274 29.1087C2.79516 28.8918 2.22623 28.1984 2.116 28.0064C2.08399 27.946 2.0271 27.85 1.98798 27.7931C1.94887 27.7326 1.88486 27.6188 1.84931 27.5406C1.81019 27.4588 1.76397 27.3806 1.74263 27.3699C1.7213 27.3557 1.70352 27.313 1.70352 27.2703C1.70352 27.2312 1.67151 27.1601 1.6324 27.1103C1.59328 27.0606 1.56128 26.993 1.56128 26.961C1.56128 26.929 1.53639 26.8685 1.50794 26.8294C1.4795 26.7868 1.44038 26.6907 1.4226 26.6161C1.40482 26.5378 1.36571 26.4063 1.33371 26.3174C1.08124 25.56 0.967453 24.4008 1.07768 23.6789C1.15591 23.1598 1.31237 22.4806 1.37282 22.3882C1.39771 22.349 1.41905 22.2921 1.41905 22.2566C1.41905 22.1392 1.96309 21.0156 2.06621 20.9267C2.10177 20.8911 2.13022 20.852 2.13022 20.8342C2.13022 20.6991 3.0263 19.6786 3.37477 19.4155C3.46367 19.3514 3.54901 19.2768 3.56323 19.2519C3.57745 19.227 3.61301 19.2057 3.64146 19.2057C3.66991 19.2057 3.70547 19.1843 3.71969 19.1594C3.75169 19.1132 3.96149 18.9496 4.05038 18.907C4.07883 18.8927 4.16773 18.843 4.24596 18.7967C4.49131 18.6509 4.79711 18.4945 4.84334 18.4945C4.86823 18.4945 4.92513 18.4625 4.97491 18.4234C5.02469 18.3843 5.09225 18.3523 5.12781 18.3523C5.16337 18.3523 5.25226 18.3238 5.32338 18.2847C5.49406 18.1994 5.89587 18.0678 5.99188 18.0678C6.03455 18.0678 6.13767 18.0429 6.22301 18.0109C6.6995 17.8438 8.53432 17.8402 8.97525 18.0073C9.05348 18.0358 9.1886 18.0713 9.27394 18.082C9.35928 18.0962 9.47663 18.1318 9.53708 18.1638C9.60819 18.1994 9.74687 18.2207 9.90688 18.2242C10.1522 18.2278 10.17 18.2207 10.2802 18.1105C10.3869 18.0038 10.3976 17.9789 10.3976 17.7691C10.3976 17.5771 10.3834 17.5273 10.3123 17.4491C10.2091 17.3388 9.98511 17.2286 9.7931 17.1966C9.71487 17.1824 9.63308 17.1575 9.60819 17.1361C9.58686 17.1184 9.45173 17.0864 9.31306 17.0686C9.17438 17.0473 8.99303 17.0081 8.91124 16.9797C8.73701 16.9157 7.15109 16.8801 6.64616 16.9299Z" fill="#69B9CF"/>
<path d="M23.5008 16.9263C23.3337 16.9441 23.1026 16.9797 22.9852 17.0152C22.8714 17.0472 22.7256 17.0721 22.6652 17.0721C22.6083 17.0721 22.5123 17.097 22.4554 17.1255C22.3985 17.1539 22.2883 17.1895 22.2065 17.2001C22.0287 17.2286 21.7904 17.3602 21.6909 17.4846C21.6375 17.5522 21.6162 17.6304 21.6162 17.7655C21.6162 17.922 21.634 17.9682 21.7371 18.0891L21.858 18.2278L22.1389 18.2242C22.3309 18.2242 22.4447 18.2029 22.5052 18.1638C22.555 18.1353 22.683 18.0927 22.7896 18.0749C22.8963 18.0535 23.0314 18.0215 23.0883 18.0002C23.2199 17.9469 23.9986 17.8722 24.4076 17.8722C24.8414 17.8722 25.5845 17.9433 25.7979 18.0073C25.8939 18.0358 26.0539 18.0749 26.1499 18.0962C26.3633 18.1389 26.5304 18.1958 26.7082 18.2847C26.7793 18.3202 26.8575 18.3522 26.8824 18.3522C26.9038 18.3522 26.9891 18.3807 27.0709 18.4198C27.1527 18.4554 27.2558 18.5051 27.3056 18.5265C27.3554 18.5478 27.4585 18.6047 27.5367 18.6545C27.6149 18.7007 27.7216 18.7576 27.7785 18.7825C27.8318 18.8038 27.8745 18.8358 27.8745 18.8501C27.8745 18.8678 27.9065 18.8892 27.9421 18.9034C27.999 18.9212 28.2088 19.067 28.4612 19.2661C28.9697 19.6679 29.3182 20.0199 29.6204 20.4253C29.6951 20.5284 29.7698 20.6244 29.784 20.6458C29.8089 20.6742 30.04 21.0511 30.1894 21.3036C30.2214 21.3605 30.4027 21.7339 30.5094 21.965C30.545 22.0468 30.577 22.1392 30.577 22.1712C30.577 22.2032 30.609 22.2921 30.6481 22.3704C30.6872 22.4486 30.7192 22.5588 30.7192 22.6193C30.7192 22.6797 30.7405 22.7651 30.769 22.8077C30.7974 22.8504 30.8365 23.014 30.8579 23.1704C30.8757 23.3304 30.9112 23.5047 30.9361 23.5616C30.961 23.6327 30.9788 23.9278 30.9788 24.415C30.9823 25.0124 30.9681 25.2044 30.9219 25.3786C30.8899 25.4995 30.8614 25.6524 30.8614 25.7164C30.8614 25.8338 30.7868 26.0969 30.6445 26.4774C30.6054 26.5769 30.577 26.6765 30.577 26.7014C30.577 26.7263 30.513 26.8756 30.4383 27.0392C30.3636 27.1992 30.2889 27.3557 30.2783 27.3841C30.2676 27.4126 30.2214 27.4944 30.1787 27.569C30.1325 27.6401 30.0436 27.7895 29.976 27.9068C29.912 28.0206 29.8338 28.138 29.8089 28.1664C29.7805 28.1949 29.6667 28.3407 29.5529 28.4864C29.4355 28.6322 29.2257 28.874 29.08 29.0198C28.831 29.2723 28.2977 29.731 28.2479 29.731C28.2372 29.731 28.1483 29.795 28.0488 29.8732C27.9492 29.9515 27.8496 30.0155 27.8247 30.0155C27.7998 30.0155 27.7501 30.0475 27.7145 30.0866C27.6789 30.1257 27.6221 30.1577 27.59 30.1577C27.558 30.1577 27.5189 30.1719 27.4976 30.1897C27.4336 30.2537 27.0531 30.4422 26.9927 30.4422C26.9607 30.4422 26.886 30.4742 26.8255 30.5133C26.7686 30.5524 26.6904 30.5844 26.6549 30.5844C26.6193 30.5844 26.5304 30.6164 26.4522 30.6555C26.3739 30.6946 26.2673 30.7266 26.2104 30.7266C26.1535 30.7266 26.0433 30.7515 25.9686 30.7835C25.8903 30.8155 25.6948 30.8582 25.5312 30.8724C25.3676 30.8902 25.1756 30.9222 25.1045 30.9435C24.9374 30.9898 23.8635 30.9684 23.4653 30.908C23.2981 30.8831 23.0634 30.8298 22.939 30.7942C22.8181 30.7586 22.683 30.7266 22.6367 30.7266C22.5941 30.7266 22.4874 30.6946 22.402 30.6555C22.3167 30.6164 22.2278 30.5844 22.1994 30.5844C22.1567 30.5844 21.634 30.3533 21.4633 30.2608C21.4277 30.243 21.2926 30.1684 21.1611 30.0972C21.033 30.0261 20.905 29.9479 20.8766 29.923C20.8517 29.8946 20.8161 29.8732 20.7984 29.8732C20.7557 29.8732 20.1192 29.3576 19.8703 29.1194C19.76 29.0163 19.5858 28.8278 19.4827 28.6998C19.3796 28.5718 19.2836 28.4616 19.2729 28.4509C19.1698 28.3691 18.7644 27.7362 18.5937 27.3841C18.5297 27.2561 18.4657 27.1281 18.4515 27.0961C18.3697 26.9396 18.2026 26.4809 18.2026 26.4205C18.2026 26.3814 18.1812 26.3138 18.1528 26.2711C18.1243 26.2285 18.0888 26.1111 18.0746 26.0151C18.0603 25.9156 18.0283 25.7769 18.0035 25.6986C17.879 25.3431 17.8754 23.5971 17.9999 23.1527C18.0283 23.046 18.0781 22.854 18.1101 22.726C18.1421 22.5979 18.1919 22.4059 18.2204 22.2992C18.2844 22.0468 18.2452 21.8619 18.0995 21.7196C18.007 21.6236 17.9714 21.613 17.7794 21.613C17.5981 21.613 17.5447 21.6272 17.4701 21.6983C17.3705 21.7908 17.2069 22.0966 17.2069 22.1855C17.2069 22.2175 17.1749 22.349 17.1394 22.477C17.0149 22.8789 16.9509 23.2629 16.9189 23.7749C16.8798 24.3865 16.9118 25.3857 16.9758 25.624C17.0007 25.72 17.0398 25.9156 17.0611 26.0542C17.0825 26.1929 17.1252 26.3636 17.1536 26.4347C17.182 26.5058 17.2069 26.6018 17.2069 26.6516C17.2069 26.7014 17.2212 26.7512 17.2425 26.7619C17.2603 26.7725 17.2923 26.8507 17.3136 26.9325C17.3349 27.0143 17.3741 27.1281 17.399 27.1886C17.4274 27.2454 17.4914 27.3912 17.5447 27.5086C17.5945 27.6259 17.6514 27.7504 17.6728 27.7859C17.6905 27.8215 17.7652 27.9566 17.8328 28.0846C18.3413 29.0198 19.0773 29.8341 20.1654 30.6555C20.2152 30.6946 20.2721 30.7266 20.2934 30.7266C20.3112 30.7266 20.3539 30.7586 20.3894 30.7978C20.425 30.8369 20.4712 30.8689 20.4961 30.8689C20.521 30.8689 20.5672 30.9009 20.6028 30.94C20.6383 30.9791 20.7023 31.0111 20.745 31.0111C20.7877 31.0111 20.8517 31.0431 20.8873 31.0822C20.9228 31.1213 20.9797 31.1533 21.0117 31.1533C21.0473 31.1533 21.0935 31.1782 21.1184 31.2067C21.1433 31.2351 21.2108 31.2742 21.2748 31.292C21.3353 31.3098 21.5202 31.3809 21.6873 31.452C21.8509 31.5231 22.018 31.58 22.0607 31.58C22.0998 31.58 22.1923 31.612 22.2669 31.6512C22.338 31.6903 22.4269 31.7223 22.4625 31.7223C22.4981 31.7223 22.6118 31.7472 22.7185 31.7756C22.8252 31.8076 23.067 31.8467 23.2519 31.8645C23.4368 31.8858 23.7035 31.9178 23.8386 31.9392C24.2049 31.9996 24.7169 31.9925 25.1187 31.925C25.3143 31.893 25.5419 31.8645 25.6272 31.8645C25.709 31.8645 25.8939 31.8325 26.0326 31.7934C26.1748 31.7543 26.3277 31.7223 26.3704 31.7223C26.4166 31.7223 26.5126 31.6903 26.5837 31.6512C26.6584 31.612 26.7615 31.58 26.8149 31.58C26.8682 31.58 26.9642 31.548 27.0282 31.5089C27.0922 31.4698 27.174 31.4378 27.2096 31.4378C27.2451 31.4378 27.334 31.4058 27.4051 31.3667C27.4763 31.3311 27.5616 31.292 27.59 31.2778C27.6185 31.2671 27.7714 31.1889 27.9279 31.1C28.0843 31.0111 28.2621 30.9187 28.3226 30.8902C28.383 30.8618 28.4506 30.812 28.479 30.7835C28.5039 30.7515 28.5395 30.7266 28.5572 30.7266C28.5964 30.7266 28.735 30.6306 29.1546 30.3035C29.4889 30.0404 29.9547 29.5923 30.1752 29.3185C30.513 28.8989 30.7192 28.6251 30.7192 28.5967C30.7192 28.5789 30.7405 28.5398 30.769 28.5149C30.8117 28.4687 30.9823 28.1806 31.1388 27.8819C31.1744 27.8144 31.2206 27.7255 31.2419 27.6864C31.2633 27.6473 31.3166 27.5264 31.3593 27.4197C31.4019 27.313 31.4659 27.1601 31.505 27.0819C31.5406 27.0036 31.5726 26.9076 31.5726 26.8685C31.5726 26.8294 31.6011 26.7405 31.6402 26.673C31.6757 26.6054 31.7148 26.4703 31.7291 26.3778C31.7433 26.2818 31.7789 26.1396 31.8073 26.0613C31.8357 25.9831 31.8571 25.8409 31.8571 25.752C31.8571 25.6595 31.8891 25.464 31.9282 25.3182C32.0171 24.9768 32.0313 23.9136 31.946 23.7109C31.9175 23.6434 31.8784 23.4193 31.8571 23.2202C31.8393 23.0175 31.7966 22.7722 31.7682 22.6762C31.7397 22.5802 31.7148 22.4628 31.7148 22.4166C31.7148 22.3704 31.6828 22.2744 31.6437 22.2032C31.6046 22.1286 31.5726 22.0326 31.5726 21.9899C31.5726 21.9437 31.5406 21.8477 31.5015 21.7765C31.4624 21.7019 31.4304 21.6201 31.4304 21.5952C31.4304 21.5703 31.3984 21.4885 31.3628 21.4174C31.3273 21.3463 31.2206 21.1329 31.1281 20.948C30.7725 20.244 30.2356 19.5328 29.6062 18.939C29.1191 18.4803 28.799 18.2242 28.4932 18.05C28.4363 18.0215 28.3439 17.9647 28.2834 17.9255C28.2265 17.8864 28.1234 17.8295 28.0559 17.7975C27.9883 17.7691 27.9136 17.7193 27.8852 17.6909C27.8567 17.6624 27.8105 17.6411 27.7821 17.6411C27.7536 17.6411 27.6683 17.6126 27.5972 17.5735C27.2985 17.4242 27.142 17.3566 27.0922 17.3566C27.0638 17.3566 26.982 17.3282 26.9144 17.2926C26.8469 17.2535 26.7189 17.2144 26.6335 17.2001C26.5482 17.1859 26.4344 17.1539 26.3775 17.1255C26.3242 17.097 26.2317 17.0721 26.1784 17.0721C26.1215 17.0721 25.965 17.0401 25.8299 17.001C25.6201 16.9406 25.4459 16.9263 24.692 16.9157C24.2049 16.9086 23.6679 16.9121 23.5008 16.9263Z" fill="#69B9CF"/>
</svg>
