<svg width="32" height="32" viewBox="0 0 32 32" fill="none" xmlns="http://www.w3.org/2000/svg">
<path d="M7.99733 8.01154L0 16.0053L7.98666 23.992C12.3802 28.3855 15.984 31.9822 15.9982 31.9857C16.016 31.9929 19.6198 28.4033 24.0133 24.0098L32 16.0231L28.816 12.832C27.0657 11.0746 23.4619 7.47079 20.8116 4.82755L15.9911 0.014204L7.99733 8.01154ZM22.4267 9.61954L28.8302 16.0195L22.4196 22.4302L16.0089 28.8409L9.59822 22.4338L3.18755 16.0267L9.59111 9.6231C13.1095 6.10114 15.9982 3.21954 16.0089 3.21598C16.0196 3.21598 18.9083 6.09758 22.4267 9.61954Z" fill="#69B9CF"/>
<path d="M10.758 14.2266C9.93625 14.4044 9.3208 15.1729 9.3208 16.0231C9.3208 16.5105 9.50223 16.9445 9.85443 17.3074C10.5766 18.0474 11.7364 18.0545 12.4692 17.3216C12.7254 17.0655 12.857 16.8307 12.9495 16.4643C13.0384 16.1192 13.0384 15.9271 12.9495 15.582C12.857 15.2156 12.7254 14.9843 12.4692 14.7246C12.0139 14.2693 11.3948 14.0878 10.758 14.2266Z" fill="#69B9CF"/>
<path d="M15.5928 14.2266C14.6749 14.4258 14.0452 15.3579 14.1875 16.297C14.4152 17.7877 16.2438 18.3889 17.3111 17.3252C18.0332 16.5994 18.0332 15.4504 17.3075 14.7246C16.845 14.2621 16.2367 14.0878 15.5928 14.2266Z" fill="#69B9CF"/>
<path d="M20.4062 14.2337C19.5097 14.4365 18.8907 15.3543 19.0259 16.2828C19.2429 17.7805 21.0786 18.3924 22.1494 17.3216C22.8751 16.603 22.8715 15.4468 22.1494 14.7211C21.6904 14.2621 21.0572 14.0843 20.4062 14.2337Z" fill="#69B9CF"/>
</svg>
