<svg width="32" height="26" viewBox="0 0 32 26" fill="none" xmlns="http://www.w3.org/2000/svg">
<path d="M6.8023 0.82951C6.34641 0.909491 5.65459 1.13343 5.26268 1.33338C4.52287 1.70129 3.75106 2.34513 3.26318 2.99697C2.83529 3.56483 2.3954 4.51259 2.26743 5.14043C2.25544 5.20442 1.73957 8.77952 1.11972 13.0784L0 20.8965L0.015996 21.4763C0.035991 22.0922 0.115971 22.4641 0.343914 22.976C0.775806 23.9597 1.76356 24.8075 2.84329 25.1194C3.29518 25.2474 4.25094 25.2714 4.74281 25.1634C5.49063 24.9995 6.15846 24.6276 6.69033 24.0877C7.30617 23.4678 7.37016 23.3399 8.14196 21.2964C8.90977 19.2649 9.48963 17.7373 9.50163 17.7213C9.50962 17.7133 9.56561 17.7453 9.62959 17.7893C9.81355 17.9172 10.1215 18.0612 10.4214 18.1572C10.7813 18.2731 11.4491 18.2851 11.841 18.1812C12.5529 17.9972 13.1207 17.5773 13.5086 16.9455L13.6526 16.7175H16H18.3474L18.4994 16.9695C18.5834 17.1054 18.7833 17.3454 18.9473 17.5053C19.819 18.3611 21.1787 18.5051 22.2584 17.8573C22.3864 17.7773 22.4944 17.7213 22.5024 17.7253C22.5064 17.7333 22.7183 18.2851 22.9703 18.957C24.4139 22.768 24.4819 22.94 24.6458 23.2359C25.1257 24.0877 25.9335 24.7555 26.8533 25.0555C27.3532 25.2194 27.5971 25.2474 28.2489 25.2274C28.8088 25.2074 28.8888 25.1954 29.2767 25.0634C30.5684 24.6276 31.4721 23.6998 31.86 22.4121C31.948 22.1202 31.968 21.9562 31.984 21.4763L32 20.8965L30.9003 13.2184C30.2924 8.99547 29.7686 5.39637 29.7326 5.22041C29.2887 2.97697 27.4291 1.19742 25.1257 0.817513C24.6138 0.737534 23.5461 0.757528 23.0782 0.861502C21.6546 1.17742 20.4749 1.94123 19.6671 3.06895L19.4591 3.36088L16 3.35688H12.5409L12.3249 3.06095C12.085 2.72903 11.4891 2.12519 11.1612 1.87725C10.4254 1.32939 9.56961 0.969475 8.66183 0.821512C8.20195 0.745531 7.25019 0.749531 6.8023 0.82951ZM8.70183 1.89324C9.88953 2.15318 10.9333 2.877 11.6091 3.90474C11.7691 4.14068 11.917 4.32464 11.981 4.35263C12.061 4.38862 13.0367 4.40062 15.984 4.40062C19.2472 4.40062 19.903 4.39262 20.015 4.34463C20.107 4.30864 20.187 4.22466 20.2629 4.09269C20.9028 2.98497 22.0185 2.17717 23.2982 1.89724C23.7581 1.79727 24.4419 1.78127 24.9138 1.85725C25.4296 1.94523 25.7176 2.03721 26.2174 2.28115C27.5771 2.93698 28.4889 4.18867 28.7488 5.74428C28.8648 6.44411 28.7768 7.22791 28.5049 7.95573C27.6411 10.2512 25.1137 11.4748 22.7983 10.715C21.5466 10.3031 20.4829 9.30739 19.987 8.0757C19.7551 7.49584 19.6711 7.06395 19.6591 6.38012C19.6511 5.91224 19.6351 5.74828 19.5831 5.64831C19.4071 5.30839 18.8633 5.32838 18.6713 5.6803C18.5994 5.80827 18.5954 5.88425 18.6153 6.52009C18.6433 7.50784 18.7673 8.01971 19.1792 8.8595C20.139 10.803 22.0665 11.9987 24.2499 11.9987C25.1377 11.9987 25.8775 11.8228 26.6973 11.4229C27.7051 10.927 28.4889 10.2112 29.0407 9.28739C29.1367 9.12344 29.2167 9.00747 29.2247 9.02746C29.2487 9.10744 30.6803 19.2089 30.6683 19.2169C30.6603 19.2209 29.6486 19.4369 28.4169 19.6968C27.1852 19.9527 26.1455 20.1807 26.1095 20.2007C25.8935 20.3166 25.7976 20.6126 25.8975 20.8605C25.9655 21.0365 26.1895 21.1964 26.3614 21.1964C26.4134 21.1964 27.4371 20.9885 28.6368 20.7405C29.8365 20.4886 30.8203 20.2886 30.8283 20.2926C30.8323 20.3006 30.8643 20.5086 30.9003 20.7605C31.0522 21.8243 30.7963 22.6361 30.1005 23.3399C29.7406 23.6998 29.4046 23.9077 28.9248 24.0677C28.6568 24.1597 28.5489 24.1717 28.077 24.1717C27.6011 24.1717 27.5011 24.1597 27.2172 24.0637C26.6813 23.8877 26.2254 23.5758 25.8575 23.1239C25.5816 22.796 25.4856 22.5881 24.9618 21.1964C24.7138 20.5486 24.2339 19.2849 23.894 18.3931L23.2782 16.7695L23.3582 16.5736C23.4941 16.2656 23.5581 15.9257 23.5581 15.5378C23.5581 14.754 23.3102 14.1462 22.7783 13.6183C22.2224 13.0625 21.7346 12.8425 20.9788 12.8105C20.2389 12.7745 19.7431 12.9265 19.1512 13.3584C18.7153 13.6783 18.3194 14.2701 18.1795 14.814C18.1475 14.946 18.1075 15.1939 18.0955 15.3659L18.0675 15.6778H16H13.9285L13.9005 15.3859C13.8045 14.3261 13.2727 13.5183 12.3769 13.0744C11.977 12.8745 11.6571 12.8025 11.1572 12.7985C9.63359 12.7945 8.44189 13.9862 8.44189 15.5178C8.44189 15.9177 8.53387 16.3936 8.66183 16.6376C8.72582 16.7615 8.72182 16.7695 8.09798 18.4091C7.75406 19.3169 7.28618 20.5526 7.05824 21.1564C6.49438 22.6481 6.35441 22.928 5.94251 23.3319C5.57061 23.7038 5.23869 23.9117 4.7828 24.0637C4.50687 24.1557 4.3949 24.1717 3.94301 24.1717C3.50712 24.1757 3.37516 24.1597 3.12322 24.0837C1.95151 23.7198 1.14771 22.724 1.05974 21.5323C1.03974 21.2724 1.12372 20.3406 1.17171 20.2926C1.17971 20.2886 2.16346 20.4886 3.36316 20.7405C4.56286 20.9885 5.5866 21.1964 5.63859 21.1964C5.81055 21.1964 6.03449 21.0365 6.10247 20.8605C6.20245 20.6126 6.10647 20.3166 5.89053 20.2007C5.85454 20.1807 4.8148 19.9527 3.5831 19.6968C2.35141 19.4369 1.33967 19.2209 1.33167 19.2169C1.31967 19.2089 2.75131 9.10744 2.77531 9.02346C2.7833 9.00747 2.87528 9.13943 2.98325 9.32339C3.49913 10.1952 4.32692 10.951 5.31067 11.4349C6.03449 11.7948 6.67833 11.9547 7.54211 11.9867C9.2137 12.0467 10.7053 11.4429 11.861 10.2352C12.8848 9.16343 13.4326 7.75178 13.3927 6.28415C13.3807 5.82426 13.3687 5.72029 13.3007 5.62431C13.1647 5.42036 12.8328 5.34038 12.6048 5.45635C12.3809 5.57632 12.3489 5.6803 12.3409 6.34013C12.3289 7.20791 12.2089 7.71579 11.837 8.43961C10.7253 10.6111 8.09798 11.5428 5.90252 10.5391C4.04699 9.69529 2.95126 7.70779 3.24719 5.72429C3.43914 4.4526 4.08698 3.40487 5.16271 2.63706C5.69458 2.25715 6.33442 1.98922 7.02224 1.86125C7.41815 1.78927 8.29793 1.80527 8.70183 1.89324ZM11.6451 13.9182C13.1407 14.3901 13.2487 16.3976 11.817 17.0654C11.6051 17.1654 11.5371 17.1774 11.1612 17.1774C10.7653 17.1774 10.7213 17.1694 10.4734 17.0455C9.42964 16.5336 9.16171 15.1979 9.93752 14.3901C10.4094 13.8982 11.0372 13.7263 11.6451 13.9182ZM21.3227 13.9182C21.6306 14.0222 21.7266 14.0822 21.9905 14.3341C22.6743 14.986 22.6743 16.0457 21.9905 16.7015C21.7266 16.9535 21.5666 17.0495 21.2587 17.1374C20.5069 17.3574 19.6591 16.9535 19.3072 16.2097C19.1872 15.9577 19.1792 15.9057 19.1792 15.5178C19.1792 15.1299 19.1872 15.0779 19.3032 14.838C19.5271 14.3701 19.839 14.0942 20.3149 13.9302C20.6508 13.8143 21.0028 13.8103 21.3227 13.9182Z" fill="#69B9CF"/>
<path d="M7.46629 3.56484C7.25434 3.7328 7.24234 3.79678 7.24234 4.86052V5.84027H6.26259C5.19886 5.84027 5.13487 5.85227 4.96691 6.06422C4.86694 6.19218 4.85494 6.46812 4.94292 6.64007C5.05889 6.86402 5.13887 6.88001 6.24259 6.88001H7.24234V7.85977C7.24234 8.95549 7.26234 9.05947 7.49028 9.19943C7.72622 9.3434 8.07814 9.27141 8.2301 9.04747C8.29408 8.95149 8.30208 8.82353 8.31408 7.90776L8.32607 6.88001H9.34582H10.3616L10.5055 6.74805C10.6935 6.57609 10.7335 6.29616 10.6015 6.08821C10.4615 5.86027 10.3536 5.84027 9.28583 5.84027H8.32607L8.31408 4.84852C8.30208 3.75679 8.28208 3.66482 8.04214 3.54085C7.87019 3.45287 7.59426 3.46487 7.46629 3.56484Z" fill="#69B9CF"/>
<path d="M23.4819 3.56084C22.6301 3.78478 21.9743 4.33664 21.5904 5.15244C21.3704 5.61233 21.3064 5.95624 21.3304 6.5001C21.3664 7.27591 21.6144 7.85576 22.1582 8.40363C22.5221 8.77154 22.958 9.03547 23.4099 9.16344C23.8738 9.2954 24.5616 9.2954 25.0295 9.16344C25.4014 9.05946 25.9333 8.75554 26.2052 8.4996C26.6251 8.0957 26.941 7.54784 27.061 7.01198C27.153 6.60408 27.121 5.89625 26.997 5.50035C26.6891 4.5326 25.9253 3.81278 24.9375 3.56084C24.5216 3.45287 23.8898 3.45686 23.4819 3.56084ZM24.6496 4.58058C24.9975 4.67256 25.2694 4.82452 25.5174 5.07646C26.3372 5.90025 26.2172 7.21193 25.2614 7.88376C24.1497 8.66356 22.6261 7.99573 22.3982 6.62807C22.1862 5.38038 23.4179 4.26066 24.6496 4.58058Z" fill="#69B9CF"/>
<path d="M14.9361 13.7143C14.7522 13.8263 14.6802 13.9502 14.6802 14.1622C14.6802 14.3701 14.7722 14.5221 14.9601 14.6181C15.1281 14.7061 16.8716 14.7061 17.0396 14.6181C17.4235 14.4221 17.4235 13.8943 17.0396 13.6983C16.9476 13.6503 16.7357 13.6383 15.9918 13.6383C15.1441 13.6383 15.0481 13.6463 14.9361 13.7143Z" fill="#69B9CF"/>
</svg>
