<svg width="26" height="32" viewBox="0 0 26 32" fill="none" xmlns="http://www.w3.org/2000/svg">
<path d="M2.61373 0.0449982C1.68772 0.226446 0.880592 1.03357 0.680374 1.97835C0.624063 2.23488 0.611549 5.7512 0.624063 16.1813L0.642834 30.0401L0.78674 30.3967C1.04327 31.0287 1.58761 31.573 2.23832 31.8421L2.58244 31.9797L12.7748 31.9985C19.5571 32.0047 23.086 31.9922 23.3175 31.9484C24.3061 31.767 25.1132 30.9849 25.3197 30.0088C25.376 29.7523 25.3885 26.236 25.376 15.8059L25.3572 1.94707L25.2133 1.59043C24.9568 0.958492 24.4124 0.41415 23.7617 0.145107L23.4176 0.00745773L13.1564 0.00119972C7.44398 -0.00505447 2.77015 0.0137138 2.61373 0.0449982ZM23.3488 1.10865C23.6741 1.19625 24.1058 1.6092 24.2435 1.96584C24.3499 2.24739 24.3561 2.91061 24.3561 15.9936C24.3561 29.0953 24.3499 29.7398 24.2435 30.0213C24.1184 30.3404 23.743 30.7221 23.4113 30.8598C23.2361 30.9348 21.6219 30.9473 13.0501 30.9473C6.02994 30.9473 2.8202 30.9286 2.65127 30.8785C2.32591 30.7909 1.89419 30.378 1.75654 30.0213C1.65018 29.7398 1.64392 29.0766 1.64392 15.9936C1.64392 2.89184 1.65018 2.24739 1.75654 1.96584C1.88168 1.653 2.25083 1.27133 2.57619 1.12742C2.73886 1.0586 4.47825 1.04609 12.9375 1.03983C19.9764 1.03983 23.1798 1.0586 23.3488 1.10865Z" fill="#69B9CF"/>
<path d="M3.17676 13.6473V24.7531H12.9999H22.8231V13.6473V2.54146H12.9999H3.17676V13.6473ZM21.7595 13.6786V23.752H12.9999H4.24041V13.6786V3.60512H12.9999H21.7595V13.6786Z" fill="#69B9CF"/>
<path d="M11.9676 5.2632C11.2105 5.42587 10.4472 5.82631 9.82148 6.38942C9.48987 6.68975 8.94553 7.43431 8.7766 7.82848C8.38867 8.72321 8.27605 9.73681 8.46376 10.5877C8.71403 11.7327 9.30842 13.1718 10.4784 15.4868C10.9352 16.394 11.2981 17.1511 11.2856 17.1636C11.2731 17.1824 11.0979 17.2325 10.8914 17.2825C9.84025 17.5578 8.83916 18.2461 8.52007 18.9155C8.30734 19.366 8.32611 19.9291 8.55761 20.3984C9.61501 22.5007 15.0835 22.8323 17.0293 20.9177C17.4736 20.4797 17.63 20.1294 17.63 19.5788C17.63 18.878 17.1044 18.196 16.2159 17.733C15.7967 17.5203 15.0835 17.245 14.9208 17.245C14.658 17.2387 14.6955 17.1261 15.4901 15.5494C16.6664 13.2218 17.1857 11.983 17.5111 10.7254C17.68 10.0622 17.655 9.05482 17.4485 8.42288C16.9355 6.84617 15.7216 5.69492 14.1574 5.29448C13.5818 5.15057 12.562 5.1318 11.9676 5.2632ZM14.195 6.39568C15.5089 6.86494 16.3786 7.94736 16.5726 9.34263C16.6977 10.2686 16.2722 11.5888 14.9959 14.2417C14.464 15.3429 13.05 17.9958 12.9999 17.9958C12.9436 17.9958 11.5358 15.3366 11.004 14.2417C9.79646 11.7265 9.30217 10.2561 9.40228 9.46151C9.50864 8.59807 9.82774 7.91608 10.4034 7.30291C11.3732 6.2768 12.8748 5.92016 14.195 6.39568ZM12.1115 18.6027C12.2491 18.8405 12.4931 19.2597 12.6558 19.5475C12.8185 19.8353 12.9812 20.0543 13.0125 20.048C13.05 20.0355 13.3065 19.6163 13.5943 19.122C13.8821 18.6277 14.1449 18.2085 14.1887 18.196C14.3264 18.146 15.1523 18.3837 15.6215 18.5964C16.3849 18.9468 16.754 19.4536 16.535 19.8666C16.2159 20.486 14.9833 21.0116 13.6256 21.1117C11.7236 21.2493 9.89031 20.6987 9.45859 19.8603C9.14575 19.2471 10.053 18.5276 11.5296 18.221C11.8299 18.1585 11.8675 18.1835 12.1115 18.6027Z" fill="#69B9CF"/>
<path d="M12.1802 7.34667C11.4607 7.61571 10.9851 8.04117 10.6598 8.72942C10.4783 9.11109 10.4658 9.19243 10.4658 9.79934C10.4658 10.4062 10.4783 10.4876 10.666 10.8755C11.4294 12.496 13.5629 12.8714 14.8143 11.6138C15.6465 10.7879 15.8091 9.4427 15.2022 8.45412C14.8831 7.92855 14.3826 7.54063 13.7882 7.34041C13.3815 7.20276 12.5681 7.20902 12.1802 7.34667ZM13.6818 8.41033C14.2011 8.65434 14.514 9.1674 14.5202 9.7618C14.5265 10.6628 13.8758 11.326 12.9936 11.3197C12.1114 11.3072 11.4794 10.6628 11.4732 9.76805C11.4732 9.08606 11.9549 8.46038 12.6056 8.30396C12.906 8.22888 13.4003 8.27268 13.6818 8.41033Z" fill="#69B9CF"/>
<path d="M10.9351 27.8815V29.9462H12.9998H15.0645V27.8815V25.8167H12.9998H10.9351V27.8815ZM14.0134 27.8502L14.0322 28.8826H12.9998H11.9674L11.9799 27.869C11.9862 27.3059 11.9925 26.8491 11.9925 26.8491C11.9987 26.8491 12.4492 26.8429 12.9998 26.8303L13.9946 26.8116L14.0134 27.8502Z" fill="#69B9CF"/>
</svg>
