<svg width="30" height="32" viewBox="0 0 30 32" fill="none" xmlns="http://www.w3.org/2000/svg">
<path d="M6.75688 0.0513802C5.73643 0.211451 4.96809 0.48357 4.10371 0.991796C3.50344 1.34795 3.14328 1.63608 2.55502 2.22434C1.8387 2.94066 1.40251 3.58494 1.01034 4.49735C0.61016 5.43776 0.434082 6.30615 0.434082 7.34661C0.434082 8.11095 0.502112 8.65519 0.67819 9.31148C1.1464 11.0763 2.29491 12.653 3.80758 13.6134L4.11571 13.8055V21.3728C4.11571 28.5 4.11971 28.9482 4.18774 29.0722C4.25978 29.2123 7.46119 31.9015 7.62927 31.9655C7.76533 32.0175 8.02544 32.0095 8.08547 31.9495C8.11348 31.9215 8.87382 31.2892 9.77022 30.5409C10.6706 29.7965 11.431 29.1363 11.463 29.0722C11.531 28.9402 11.543 27.7476 11.479 27.5716C11.455 27.5115 11.0308 27.0513 10.5346 26.5551L9.63416 25.6547L10.2824 25.0144C11.1468 24.1661 11.2389 24.046 11.2389 23.7979C11.2389 23.5498 11.1428 23.4297 10.2824 22.5814L9.63416 21.9451L9.82224 21.753L10.0143 21.5569L14.3562 25.9148C18.43 30.0006 18.7182 30.2808 18.9863 30.4168C19.3625 30.6049 19.6706 30.6809 20.0628 30.6809C20.4149 30.6809 20.691 30.6209 20.9512 30.4889C21.0592 30.4328 22.1717 29.3443 24.1926 27.3154C28.3304 23.1656 29.1788 22.2932 29.3229 22.0571C29.655 21.5089 29.647 20.7365 29.2989 20.0602C29.1628 19.7961 28.8427 19.464 24.8769 15.4942L20.599 11.2083L20.7991 10.7921C21.5354 9.22344 21.7035 7.60272 21.2993 5.97C21.1593 5.40575 20.9912 4.96556 20.6991 4.3893C19.7666 2.56449 18.0419 1.19589 16.045 0.711672C15.3727 0.5476 14.7884 0.491575 14.0241 0.519587C13.2758 0.5476 12.7956 0.635639 12.1273 0.863739L11.6591 1.02381L11.2589 0.807714C10.6346 0.475567 9.9663 0.247467 9.15794 0.0873966C8.67773 -0.00864792 7.27311 -0.0326576 6.75688 0.0513802ZM9.0579 1.18788C11.591 1.71612 13.4959 3.62096 14.0481 6.16609C14.1722 6.73034 14.1802 8.07893 14.0641 8.58316C14.0041 8.84727 13.9761 8.9073 13.9241 8.89529C13.888 8.88329 13.1317 8.76324 12.2393 8.62717C10.9387 8.42709 10.5266 8.37906 10.1584 8.38307C9.63816 8.38307 9.21397 8.47511 8.81779 8.66719C8.68573 8.73522 8.57369 8.77924 8.56568 8.77524C8.53367 8.74323 8.47764 8.25901 8.45363 7.81081C8.42962 7.38262 8.43362 7.31059 8.48565 7.31059C8.62171 7.31059 9.0619 7.04648 9.30201 6.81837C10.1824 5.99801 10.1984 4.6214 9.34203 3.76502C8.19752 2.62052 6.20063 3.16076 5.79245 4.72145C5.51233 5.78592 6.08859 6.91842 7.09303 7.27057L7.29712 7.34261L7.32513 7.97889C7.34914 8.61517 7.41717 9.07537 7.54923 9.55158L7.62126 9.8117L7.50921 10.0518C7.22109 10.6841 7.20508 11.1643 7.43718 12.6129C7.52522 13.1612 7.59725 13.6374 7.59725 13.6694C7.59725 13.7935 6.38872 13.5974 5.75644 13.3733C4.24777 12.829 2.91918 11.6685 2.21887 10.2799C1.28646 8.43109 1.29046 6.27814 2.22688 4.49735C2.76311 3.4769 3.65551 2.53648 4.66395 1.93221C5.31624 1.54004 6.30068 1.20789 7.11304 1.10785C7.56524 1.04782 8.6097 1.09184 9.0579 1.18788ZM15.3967 1.69211C17.4256 2.04026 19.2464 3.54092 19.9987 5.48979C20.2869 6.22611 20.4069 6.89041 20.4069 7.71077C20.4029 8.51913 20.2469 9.28347 19.9347 10.0318C19.8547 10.2199 19.7866 10.38 19.7786 10.384C19.7746 10.392 19.6386 10.3079 19.4745 10.1999C18.9623 9.85172 18.402 9.61161 17.8418 9.49556C17.6777 9.45954 17.0014 9.3515 16.3451 9.25145C15.6848 9.15141 15.1406 9.06337 15.1326 9.05536C15.1206 9.04736 15.1486 8.84327 15.1846 8.60316C15.2927 7.95488 15.2847 6.80637 15.1646 6.17009C14.9525 5.02558 14.6124 4.18521 13.9801 3.22879C13.724 2.84462 13.1237 2.1363 12.8836 1.94022L12.7515 1.83217L12.9036 1.79215C13.692 1.58406 14.5683 1.54804 15.3967 1.69211ZM8.10148 4.28125C8.11348 4.29326 8.06146 4.44532 7.98542 4.6174C7.82535 4.97356 7.62527 5.57382 7.54123 5.94599C7.50921 6.08205 7.4732 6.2061 7.46119 6.21811C7.44919 6.23011 7.36515 6.1941 7.27711 6.13407C6.52878 5.63785 6.73687 4.49335 7.61726 4.26525C7.74132 4.23323 8.06546 4.24524 8.10148 4.28125ZM8.78178 5.68987C8.72575 5.80993 8.67373 5.90997 8.66172 5.90997C8.65372 5.90997 8.68173 5.79792 8.72575 5.65786C8.86582 5.21767 8.85381 5.23767 8.86982 5.36173C8.87782 5.42176 8.8378 5.56982 8.78178 5.68987ZM10.9267 9.61561C11.2829 9.67164 12.1673 9.8157 12.8836 9.93575C13.5999 10.0518 14.2562 10.1518 14.3322 10.1518C14.4123 10.1518 15.1886 10.2599 16.057 10.392C17.9618 10.6841 18.234 10.7641 18.8822 11.2243C19.0303 11.3284 20.643 12.9051 22.6759 14.934C24.6208 16.8708 26.6777 18.9157 27.246 19.476C28.3825 20.5925 28.4465 20.6805 28.4465 21.1007C28.4465 21.2207 28.4185 21.3848 28.3865 21.4689C28.3424 21.5729 27.1779 22.7614 24.4527 25.4906C22.3238 27.6196 20.527 29.3964 20.4629 29.4404C20.2749 29.5564 19.9747 29.5804 19.6986 29.5004L19.4625 29.4364L14.8485 24.8263C11.0668 21.0487 10.1944 20.1563 10.0103 19.8842C9.78222 19.544 9.60614 19.1638 9.52611 18.8277C9.46608 18.5876 8.8378 14.4858 8.81779 14.1936C8.80979 14.0736 8.72975 13.4693 8.64172 12.857C8.55368 12.2408 8.48565 11.7325 8.48965 11.7285C8.49365 11.7245 8.62971 11.8926 8.78578 12.1047C9.294 12.789 10.0944 13.5253 10.7907 13.9535C10.9948 14.0776 10.9988 14.0856 10.9988 14.2657C11.0028 15.002 11.431 15.7343 12.0912 16.1305C12.6755 16.4787 13.6039 16.4787 14.1882 16.1305C14.7644 15.7823 15.1566 15.2101 15.2486 14.5658C15.3767 13.6974 14.9005 12.789 14.1161 12.3968C13.716 12.1968 13.4318 12.1367 12.9996 12.1647C12.4594 12.2008 11.9752 12.4169 11.619 12.789C11.535 12.8771 11.451 12.9531 11.431 12.9531C11.3509 12.9531 10.5746 12.3168 10.2584 11.9887C9.67017 11.3764 9.26199 10.7921 8.99787 10.1679L8.92184 9.99178L9.10992 9.85172C9.37404 9.65963 9.70619 9.55559 10.2064 9.51557C10.2424 9.51557 10.5666 9.55559 10.9267 9.61561ZM13.5439 13.3293C13.756 13.4293 14.0201 13.6694 14.0641 13.8015C14.0761 13.8455 14.0801 13.8855 14.0721 13.8895C14.0361 13.9215 13.3598 13.7775 12.9476 13.6454C12.4954 13.5053 12.4794 13.4973 12.5474 13.4253C12.7475 13.2252 13.2237 13.1812 13.5439 13.3293ZM5.48032 14.6979C5.57636 14.7299 5.78445 14.7939 5.93652 14.8339L6.21664 14.906L6.23665 21.3688L6.25666 27.8357L6.3407 27.9477C6.38472 28.0078 6.49677 28.0838 6.5808 28.1158C6.90495 28.2278 7.22109 28.0638 7.31313 27.7356C7.34514 27.6276 7.35715 25.7107 7.35715 21.3248V15.074H7.58925H7.81735L8.07346 16.7868C8.34959 18.6596 8.46964 19.3199 8.6017 19.7161C8.70174 20.0282 8.96586 20.5645 9.10592 20.7525L9.20997 20.8846L8.8258 21.2728C8.61771 21.4849 8.42562 21.697 8.40161 21.745C8.34558 21.857 8.34558 22.0571 8.40161 22.1692C8.42562 22.2172 8.78978 22.6054 9.20997 23.0255L9.97831 23.7979L9.18996 24.5862C8.51766 25.2625 8.40161 25.4026 8.3776 25.5307C8.36159 25.6147 8.36159 25.7387 8.3816 25.8028C8.40561 25.8748 8.80179 26.303 9.45007 26.9513L10.4785 27.9877V28.2639V28.54L10.1464 28.8201C9.9663 28.9722 9.59414 29.2883 9.31802 29.5164C9.04189 29.7485 8.6057 30.1167 8.34558 30.3368C7.9294 30.6849 7.86137 30.729 7.79334 30.6889C7.72931 30.6449 6.06057 29.2563 5.48832 28.7641L5.27623 28.584V21.6089C5.27623 17.7712 5.28423 14.6338 5.29223 14.6338C5.30024 14.6338 5.38427 14.6618 5.48032 14.6979ZM12.4754 14.7339C12.7635 14.8299 13.4238 14.982 13.6599 15.002C13.728 15.01 13.78 15.03 13.78 15.054C13.78 15.1341 13.4318 15.2821 13.2037 15.3021C12.8276 15.3381 12.4434 15.122 12.2273 14.7579C12.1873 14.6899 12.1633 14.6338 12.1713 14.6338C12.1793 14.6338 12.3153 14.6779 12.4754 14.7339Z" fill="#69B9CF"/>
<path d="M20.0106 20.1283C19.9585 20.1563 19.1382 20.9486 18.1857 21.889C16.3289 23.7178 16.2489 23.8099 16.3049 24.106C16.3609 24.3981 16.6931 24.6142 16.9892 24.5382C17.0652 24.5222 17.7015 23.9139 18.9181 22.6974L20.7349 20.8846L20.7509 20.6685C20.7629 20.5084 20.7469 20.4284 20.6909 20.3323C20.5508 20.1162 20.2186 20.0162 20.0106 20.1283Z" fill="#69B9CF"/>
<path d="M20.4227 22.7815C20.3587 22.8135 19.7744 23.3657 19.1301 24.01C17.8936 25.2465 17.8416 25.3106 17.8976 25.6067C17.9216 25.7428 18.0657 25.9108 18.2297 25.9949C18.3458 26.0549 18.5379 26.0509 18.6939 25.9829C18.846 25.9228 21.079 23.6498 21.151 23.4858C21.2631 23.2337 21.163 22.9495 20.9149 22.7975C20.7589 22.7014 20.5868 22.6974 20.4227 22.7815Z" fill="#69B9CF"/>
<path d="M23.2042 22.7614C23.0841 22.8095 19.6226 26.251 19.5386 26.4071C19.4585 26.5591 19.4705 26.7952 19.5626 26.9473C19.7267 27.2194 20.0828 27.2794 20.3469 27.0834C20.431 27.0193 21.2633 26.207 22.1878 25.2746C23.4883 23.966 23.8845 23.5458 23.9205 23.4297C24.0606 22.9975 23.6284 22.5974 23.2042 22.7614Z" fill="#69B9CF"/>
</svg>
