<svg width="32" height="32" viewBox="0 0 32 32" fill="none" xmlns="http://www.w3.org/2000/svg">
<path d="M19.1572 0.841648C18.6758 1.01045 18.3757 1.49809 18.3757 2.10452V2.3671L16.694 2.38586L15.0122 2.40461L14.7371 2.59217C13.9181 3.16109 14.0432 4.39895 14.9497 4.78032C15.1372 4.85534 15.4811 4.8741 16.7815 4.8741H18.3757V5.09916C18.3757 5.97442 19.0822 6.5621 19.8949 6.36829C20.4513 6.237 20.8139 5.73685 20.8139 5.10542C20.8139 4.8991 20.8327 4.8741 20.9702 4.8741C21.0578 4.8741 21.1265 4.89285 21.1265 4.91786C21.1265 4.94287 21.3703 6.03069 21.6642 7.33733C22.0768 9.16287 22.2018 9.81931 22.1956 10.1569C22.1956 10.5008 22.3644 11.3448 22.9896 14.1331L23.7836 17.6654L21.1515 21.3227L18.5195 24.9738H14.7871H11.0548L10.8735 24.4237C10.7672 24.1236 10.6297 23.761 10.5546 23.6109C10.2733 23.0545 9.74189 22.3293 9.29176 21.8979C8.89164 21.504 8.79161 21.4415 8.60405 21.4415C8.4415 21.4415 8.34773 21.4853 8.25395 21.6041C8.01638 21.9104 8.07264 22.0855 8.5853 22.6231C9.13546 23.2045 9.52933 23.7922 9.79816 24.4549C9.91069 24.7175 9.99822 24.9488 9.99822 24.9738C9.99822 24.9926 9.85442 25.0051 9.67312 24.9926L9.34802 24.9738L9.22299 24.6612C8.74784 23.5046 7.90384 22.6106 6.79727 22.098C6.10331 21.7791 5.5844 21.6728 4.74666 21.6728C4.11522 21.6728 3.89015 21.6978 3.34624 21.8604C3.24621 21.8854 3.23371 21.8666 3.27122 21.7166C3.32748 21.504 3.52129 21.279 3.75261 21.1539C4.19649 20.9226 5.49688 20.9914 6.43466 21.2915C6.69098 21.3728 6.97857 21.4415 7.06609 21.4415C7.40995 21.4415 7.62251 20.9539 7.4037 20.6475C7.30367 20.51 6.64097 20.2662 5.96577 20.1161C5.75946 20.0724 5.20929 20.0411 4.74666 20.0411C3.60882 20.0411 3.28997 20.1349 2.80858 20.6163C2.39596 21.0351 2.24591 21.3915 2.24591 21.9729C2.24591 22.3605 2.24591 22.3668 1.98959 22.5356C1.18935 23.0608 0.545408 23.9423 0.1828 25.0051C-0.0110077 25.574 -0.0610226 26.8619 0.0827701 27.5183C0.276578 28.3936 0.851749 29.3751 1.52695 30.0003C3.2087 31.532 5.88449 31.6571 7.66002 30.2754L7.96636 30.0378L13.1867 30.0066L18.407 29.9753L18.7196 29.8065C19.3447 29.4752 19.6823 28.9312 19.7386 28.181C19.7574 27.8809 19.7949 27.7559 19.8511 27.7559C20.045 27.7559 20.5889 27.0682 22.5332 24.3611C23.6648 22.7919 24.6088 21.5228 24.6338 21.5478C24.6588 21.5791 24.7088 21.7479 24.7463 21.9354C24.8089 22.2293 24.8026 22.2855 24.7213 22.3293C24.4713 22.4731 23.8211 23.0482 23.5522 23.3608C23.1896 23.7922 22.8145 24.4987 22.6145 25.1301C22.4269 25.7428 22.4082 27.0557 22.5895 27.6871C23.5522 31.1507 27.791 32.3948 30.4605 30.0066C31.1357 29.3939 31.7172 28.4061 31.9172 27.5183C32.061 26.8619 32.011 25.5803 31.8172 25.0051C31.2795 23.4046 30.0792 22.2543 28.5037 21.8229C28.2474 21.7479 27.9473 21.6916 27.841 21.6916C27.641 21.6916 27.641 21.6853 27.5347 21.2039C27.4722 20.9414 27.1658 19.566 26.8532 18.1593L26.2781 15.596L26.6157 15.6148C27.2408 15.6586 27.7848 15.346 28.0411 14.7833C28.1849 14.4832 28.1911 14.4082 28.1911 13.0328C28.1911 11.6511 28.1849 11.5823 28.0411 11.2823C27.866 10.9071 27.691 10.7383 27.3159 10.5695C26.7344 10.307 26.0717 10.432 25.6029 10.8946C25.4403 11.0572 25.2965 11.1885 25.2903 11.176C25.2778 11.1635 25.209 10.8634 25.134 10.5008C25.0527 10.1382 24.9214 9.71929 24.8339 9.56299C24.7401 9.39419 24.5713 8.82527 24.415 8.14382C24.2462 7.42485 24.1087 6.95597 24.0336 6.87469C23.7773 6.5871 23.1834 6.81217 23.1896 7.19353C23.1959 7.27481 23.2772 7.68743 23.3709 8.10631L23.546 8.87529L23.3709 8.88154C23.2709 8.88779 23.1584 8.89404 23.1209 8.90029C23.0521 8.90654 22.827 7.96877 22.0956 4.66153C21.9455 3.97383 21.833 3.8738 21.2516 3.8738H20.8139V3.62372V3.37365H21.4891C21.858 3.37365 22.1956 3.39866 22.2456 3.42992C22.2894 3.46118 22.4394 3.96132 22.577 4.56775C22.7145 5.16793 22.8708 5.70559 22.9208 5.76186C23.0583 5.91816 23.5085 5.91191 23.646 5.76186C23.7085 5.69934 23.7523 5.54305 23.7523 5.41801C23.7523 5.08041 23.3272 3.27362 23.1896 2.99229C22.9458 2.51715 22.5644 2.37335 21.5579 2.37335H20.8139V2.10452C20.8139 1.68565 20.6951 1.36055 20.4451 1.11673C20.1012 0.766624 19.6386 0.672848 19.1572 0.841648ZM19.7386 1.82319C19.7949 1.87946 19.8136 2.3546 19.8136 3.56746C19.8136 5.00538 19.8011 5.25546 19.7136 5.33673C19.6636 5.393 19.6073 5.43676 19.5948 5.43676C19.5823 5.43676 19.526 5.393 19.476 5.33673C19.3885 5.25546 19.376 5.00538 19.376 3.56746C19.376 1.89821 19.3948 1.74817 19.5948 1.74817C19.6323 1.74817 19.6948 1.77943 19.7386 1.82319ZM18.3757 3.62372V3.8738H16.8565C15.2998 3.8738 15.1873 3.85504 15.1873 3.62372C15.1873 3.39241 15.2998 3.37365 16.8565 3.37365H18.3757V3.62372ZM23.9023 9.99437C24.0649 10.1757 27.7035 26.4055 27.6285 26.6056C27.5659 26.7619 27.3846 26.8806 27.2033 26.8806C26.8845 26.8806 26.9095 26.9932 25.0089 18.5031C24.0086 14.0456 23.1896 10.3445 23.1896 10.2757C23.1896 10.2069 23.2334 10.0881 23.2897 10.0131C23.4147 9.83807 23.7523 9.82557 23.9023 9.99437ZM27.0345 11.5948C27.1908 11.7449 27.1908 11.7511 27.1908 13.0328C27.1908 14.3144 27.1908 14.3207 27.0345 14.4707C26.7657 14.7458 26.3718 14.652 26.2155 14.2831C26.0905 13.9831 26.0905 12.0825 26.2155 11.7887C26.3718 11.4135 26.7657 11.3198 27.0345 11.5948ZM24.2212 19.591L24.3275 20.1224L22.0018 23.3608C20.7202 25.1426 19.6073 26.6618 19.5198 26.7368L19.3698 26.8806H12.0051C4.93421 26.8806 4.62787 26.8744 4.49033 26.7681C4.29652 26.6056 4.29652 26.2805 4.49033 26.1179C4.62787 26.0116 4.92796 26.0054 11.7737 26.0054C17.8443 26.0054 18.9321 25.9929 19.0384 25.9179C19.1072 25.8678 20.2575 24.3049 21.6017 22.4481C22.9396 20.585 24.0524 19.0658 24.0711 19.0658C24.0899 19.0658 24.1587 19.3034 24.2212 19.591ZM5.9095 22.8419C6.49092 23.0295 7.02233 23.3671 7.47872 23.8297C7.77255 24.1298 8.2477 24.8238 8.2477 24.9551C8.2477 24.9801 8.02263 25.0051 7.7538 25.0051H7.2599L7.12236 24.7863C6.93481 24.4799 6.44716 24.061 6.05329 23.8735C4.96547 23.3421 3.7026 23.5171 2.85234 24.3049C2.46473 24.6737 2.23966 25.0051 2.07086 25.449C1.68325 26.4993 1.93332 27.6684 2.72731 28.4686C3.33374 29.0813 4.10897 29.3626 4.99673 29.3001C5.82198 29.2438 6.50343 28.875 7.02233 28.2123L7.27866 27.8872H7.7663C8.02888 27.8809 8.2477 27.9059 8.2477 27.9309C8.2477 28.0685 7.76005 28.7687 7.4287 29.1063C5.94076 30.613 3.59006 30.613 2.08962 29.1063C1.34565 28.3561 0.995541 27.5058 0.995541 26.4305C0.995541 25.0301 1.76452 23.7485 2.99614 23.1045C3.39 22.8982 3.8839 22.7294 4.27777 22.6669C4.66538 22.6106 5.42186 22.6919 5.9095 22.8419ZM28.2599 22.7919C29.1226 23.0482 29.8729 23.6047 30.373 24.3486C31.6359 26.2429 30.9607 28.8125 28.9351 29.8128C27.4096 30.563 25.7591 30.3004 24.5775 29.1188C23.3959 27.9435 23.1146 26.2304 23.8586 24.7425C24.1212 24.2173 24.9652 23.2921 25.0527 23.4296C25.0839 23.4734 25.1402 23.6922 25.184 23.911L25.2653 24.3174L25.0777 24.5362C24.6088 25.0676 24.3775 25.699 24.3775 26.4493C24.3775 28.3498 26.128 29.7002 27.9723 29.2251C29.0414 28.9437 29.8729 28.0435 30.0667 26.9432C30.1855 26.293 30.0417 25.499 29.7041 24.9426C29.454 24.5424 28.9288 24.0673 28.4912 23.861L28.0786 23.6609L28.0098 23.3171C27.9723 23.1295 27.9223 22.9107 27.9035 22.8294C27.8598 22.6669 27.8348 22.6669 28.2599 22.7919ZM5.59066 24.7863L5.96577 24.9738L5.15303 25.0051C4.44032 25.0363 4.30903 25.0551 4.05895 25.1926C3.26497 25.6365 3.08991 26.7556 3.70885 27.4308C4.00269 27.7559 4.28402 27.8434 5.14677 27.8809L5.95952 27.9122L5.62817 28.0935C4.93421 28.4686 4.13397 28.3623 3.54005 27.8184C3.09617 27.412 2.90861 26.9994 2.90861 26.443C2.91486 25.8866 3.10242 25.4615 3.52754 25.0801C4.12772 24.5299 4.87169 24.4299 5.59066 24.7863ZM28.9476 25.7178C29.2664 26.4305 29.0726 27.2557 28.46 27.8184C28.0473 28.1998 27.6034 28.3498 27.0595 28.2998C26.3843 28.2373 25.6904 27.7059 25.4778 27.0869C25.359 26.7368 25.3528 26.1054 25.4653 25.8491C25.5653 25.624 25.5778 25.6428 25.7529 26.418C25.9279 27.1682 26.1343 27.4996 26.5719 27.7184C27.4409 28.1498 28.5162 27.6184 28.6538 26.6743C28.6913 26.4305 28.5662 25.6365 28.4037 25.0989C28.3287 24.8488 28.8038 25.3864 28.9476 25.7178ZM18.7321 28.1685C18.6945 28.5124 18.5383 28.7499 18.2444 28.8937C18.0506 29 17.688 29.0063 13.4492 29.0063C10.9235 29.0063 8.87288 28.9875 8.88539 28.9563C8.96666 28.8 9.273 28.1373 9.31676 28.0185L9.37303 27.8809H14.0682H18.7696L18.7321 28.1685Z" fill="#69B9CF"/>
<path d="M13.8804 10.382C13.5491 10.4445 13.2052 10.7071 13.0552 11.0072C12.9114 11.276 11.7485 15.4397 11.7485 15.6648C11.7485 16.39 12.3362 16.9402 13.1177 16.9402C13.2865 16.9402 13.3928 16.9714 13.4115 17.0339C13.4303 17.084 13.174 17.8467 12.8364 18.7345C12.1862 20.4537 12.1299 20.7225 12.33 21.1102C12.58 21.5853 13.2115 21.8166 13.6991 21.6103C13.9742 21.4915 18.7256 17.4216 18.8819 17.1652C19.2258 16.5963 19.0069 15.7648 18.4193 15.4335C18.2692 15.3522 18.0191 15.2897 17.7691 15.2647C17.5127 15.2459 17.3752 15.2084 17.394 15.1646C17.4127 15.1271 17.8879 14.4269 18.463 13.6079C19.1132 12.6702 19.5133 12.0325 19.5384 11.8949C19.6446 11.3198 19.4071 10.7758 18.9194 10.4945L18.6568 10.3445L16.4062 10.332C15.1683 10.3257 14.0305 10.3507 13.8804 10.382ZM18.363 11.351C18.6881 11.4385 18.6193 11.6011 17.5378 13.1515C16.9688 13.9643 16.4749 14.6833 16.4374 14.752C16.3186 14.9708 16.3624 15.5273 16.5187 15.7523C16.7563 16.1024 16.9563 16.215 17.4252 16.24C17.8378 16.265 18.0629 16.3713 18.0629 16.5401C18.0629 16.6401 13.324 20.7038 13.2552 20.6663C13.224 20.6475 13.4803 19.8973 13.8179 18.997C14.3055 17.7154 14.4368 17.3028 14.4368 17.0527C14.4368 16.3963 13.9554 15.9399 13.2677 15.9399C12.9739 15.9399 12.7488 15.8336 12.7488 15.7023C12.7488 15.6773 13.0177 14.7145 13.3365 13.5642C13.7429 12.1325 13.9617 11.451 14.0367 11.3948C14.1242 11.3323 14.6119 11.3135 16.1811 11.3135C17.3002 11.3135 18.2817 11.3323 18.363 11.351Z" fill="#69B9CF"/>
</svg>
