<svg width="32" height="32" viewBox="0 0 32 32" fill="none" xmlns="http://www.w3.org/2000/svg">
<path d="M2.01823 0.0326576C1.72431 0.062048 1.59041 0.127363 1.45978 0.316776C1.36834 0.444139 1.36508 0.470266 1.33895 0.982986C1.32262 1.2769 1.30956 2.08027 1.3063 2.76608V4.01686H0.894812C0.659679 4.01686 0.453938 4.03319 0.414749 4.05278C0.37556 4.07237 0.264525 4.16381 0.169818 4.25526L0 4.42181V9.99316V15.5645L0.212273 15.7833L0.42128 16.0021H2.21744H4.01359L4.01686 20.6297C4.01686 23.1769 4.03319 25.5021 4.04951 25.7993C4.08217 26.3904 4.15402 26.7268 4.35323 27.2558C4.9182 28.7287 6.07101 29.839 7.58957 30.3681C8.4452 30.6685 9.58167 30.7535 11.0872 30.6294C11.8873 30.564 12.3706 30.4399 12.9813 30.1395C13.9904 29.6464 14.8656 28.8169 15.3914 27.8567C15.5743 27.5171 15.7996 26.9064 15.8552 26.5962C15.9466 26.0606 15.9695 24.6073 16.0021 15.9695C16.0217 11.2374 16.0511 6.98868 16.0674 6.52821C16.0936 5.75423 16.1001 5.67585 16.1817 5.43745C16.3777 4.85289 16.6912 4.34343 17.1386 3.8797C17.7395 3.25921 18.5135 2.84772 19.2777 2.74648C19.6042 2.70077 21.6747 2.70077 22.0568 2.74322C22.7687 2.82486 23.559 3.23961 24.1665 3.8503C24.6269 4.31404 24.9013 4.74838 25.156 5.42113L25.2833 5.76403L25.3029 10.8814L25.3193 16.0021H22.8732H20.4239L20.2214 16.2079L20.019 16.4136V21.9947L20.0157 27.5792L20.1888 27.7522C20.2835 27.8502 20.3913 27.9384 20.4272 27.9547C20.4631 27.9678 20.6787 27.9906 20.9073 28.0037L21.322 28.0266L21.3318 29.7149C21.3449 31.2041 21.3514 31.4197 21.4004 31.5699C21.4657 31.7691 21.5931 31.8834 21.8151 31.9422C22.0013 31.9912 28.7614 32.0238 29.6398 31.9781C30.1558 31.952 30.2473 31.9389 30.3616 31.8769C30.6555 31.7103 30.6685 31.6352 30.6881 29.666L30.7045 28.0298L31.1192 28.0037C31.3446 27.9906 31.5601 27.9678 31.596 27.9482C31.6319 27.9286 31.7397 27.8404 31.8344 27.749L32.0042 27.5824V22.0045V16.4299L31.7854 16.2144L31.5699 16.0021L29.1336 15.9956L26.6974 15.9858L26.6745 11.2505C26.6647 8.48765 26.6419 6.32573 26.619 6.05794C26.5276 4.83329 25.8548 3.527 24.8621 2.66158C24.1469 2.03455 23.1345 1.54469 22.2723 1.40427C21.9425 1.35201 20.2704 1.32915 19.5944 1.36834C18.9315 1.40427 18.6212 1.46958 18.0759 1.68839C16.8806 2.16192 15.7768 3.14491 15.2347 4.21607C15.091 4.50019 14.895 5.02924 14.8428 5.27743C14.7481 5.74117 14.7285 7.02134 14.6991 14.8591C14.6566 24.9535 14.6436 25.832 14.5162 26.4688C14.3856 27.1122 13.7096 28.0527 12.9976 28.5817C12.5372 28.9279 11.933 29.1826 11.3811 29.2643C10.9925 29.3198 9.01344 29.3231 8.62155 29.2643C7.42302 29.0879 6.29308 28.2258 5.72484 27.0534C5.53543 26.6582 5.44398 26.3382 5.3852 25.8646C5.35908 25.6491 5.34275 24.1044 5.33295 20.7766L5.31989 16.0021H6.79927C8.32763 15.9988 8.84362 15.9727 9.02323 15.8878C9.22898 15.7898 9.24204 15.7376 9.2747 14.7709C9.31715 13.6345 9.31715 6.27675 9.2747 5.18273C9.2453 4.42181 9.23877 4.33037 9.17672 4.24872C9.05916 4.07891 8.9122 4.03645 8.4354 4.02339L8.00106 4.01033V2.2109V0.414747L7.78552 0.205742L7.56671 0L4.9182 0.00326538C3.46168 0.00653076 2.15539 0.0195942 2.01823 0.0326576ZM6.64904 1.35201C6.65231 1.35201 6.65884 1.94965 6.66537 2.6779L6.67843 4.00053H4.68633H2.69423L2.68444 2.65178L2.67791 1.30303L4.66021 1.32589C5.75423 1.33895 6.64904 1.34875 6.64904 1.35201ZM8.00106 10.0323V14.7056L6.01875 14.686C4.92473 14.673 3.42576 14.6632 2.6877 14.6632H1.33895V10.0258V5.39173L1.62634 5.37867C1.78309 5.3754 3.28207 5.36561 4.95739 5.36234L8.00106 5.35581V10.0323ZM28.0102 17.3411H30.6653V21.9947V26.6484H26.0149H21.3645L21.3449 25.5969C21.3122 24.1828 21.3351 17.4194 21.3677 17.3835C21.4069 17.3476 23.19 17.3149 24.3755 17.328C24.9143 17.3345 26.5472 17.3411 28.0102 17.3411ZM29.3263 29.3622V30.6979L28.6666 30.6914L28.0037 30.6816L27.9972 30.2897C27.971 29.1108 27.9743 29.1206 27.8927 28.99C27.7196 28.7091 27.3048 28.6079 27.0077 28.7744C26.7725 28.905 26.7399 28.9736 26.7105 29.4145C26.6974 29.6268 26.6843 29.9501 26.6843 30.1297C26.6811 30.3126 26.6713 30.5085 26.6615 30.564L26.6419 30.6653H25.9953H25.3487L25.3291 30.0872C25.316 29.7672 25.2964 29.3916 25.2801 29.2479C25.254 29.0226 25.2376 28.9802 25.1429 28.8822C24.911 28.6438 24.4898 28.6275 24.2416 28.8463C24.0424 29.0226 24.026 29.0945 24.0097 29.937L23.9934 30.6979H23.3468H22.6969V29.359V28.02L25.9887 28.0135C27.798 28.007 29.2871 28.007 29.3035 28.0135C29.3165 28.02 29.3263 28.6275 29.3263 29.3622Z" fill="#69B9CF"/>
</svg>
