<svg width="20" height="32" viewBox="0 0 20 32" fill="none" xmlns="http://www.w3.org/2000/svg">
<path d="M10.7503 0.0575294C10.6969 0.0908661 10.4236 0.570902 10.1502 1.12428L9.65686 2.13102H8.88347C7.95673 2.13102 7.69004 2.19769 7.33668 2.51772C6.88998 2.92442 6.79664 3.21111 6.77664 4.33119L6.75664 5.29794L6.24993 5.31794L5.74989 5.33794V4.94457C5.74989 4.62455 5.72323 4.53121 5.59655 4.4112C5.4432 4.26452 5.39653 4.26452 3.57639 4.26452C2.46297 4.26452 1.61624 4.29119 1.45623 4.33786C1.10954 4.4312 0.6495 4.87123 0.502822 5.25126C0.409481 5.49128 0.382812 5.75797 0.382812 6.39802C0.382812 7.40476 0.48282 7.72479 0.90952 8.11815C1.24288 8.42484 1.54957 8.53152 2.10295 8.53152H2.48298V8.94488C2.50964 12.2718 2.52965 12.7585 2.67632 13.1385C2.97635 13.9186 3.38971 14.372 4.12977 14.7187L4.51647 14.8987L8.07007 14.9187L11.617 14.9387V15.9988C11.617 17.0122 11.6103 17.0655 11.4837 17.0655C11.417 17.0655 11.297 17.1322 11.217 17.2122C11.0836 17.3589 11.0836 17.4055 11.0836 24.0927C11.0836 31.6866 11.0503 31.1133 11.6037 31.6133C11.9637 31.94 12.2237 32 13.2171 32C14.2105 32 14.4706 31.94 14.8306 31.6133C15.3706 31.1266 15.3506 31.2999 15.3506 27.1463V23.466H15.7707C16.3374 23.466 16.6441 23.366 16.9641 23.0793C17.4175 22.6726 17.4841 22.4459 17.4841 21.3325C17.4841 20.2191 17.4175 19.9924 16.9641 19.5857C16.6441 19.299 16.3374 19.199 15.7707 19.199H15.3506V18.2789C15.3506 17.4455 15.3373 17.3455 15.2173 17.2122C15.1373 17.1322 15.0173 17.0655 14.9506 17.0655C14.8239 17.0655 14.8173 17.0122 14.8173 15.9988V14.932H16.0174C17.6041 14.932 17.4841 15.0587 17.4841 13.3319C17.4841 11.6118 17.5975 11.7318 15.9974 11.7318H14.8173V12.2651V12.7985H15.6173H16.4174V13.3319V13.8719L10.6703 13.8519C6.11659 13.8386 4.87649 13.8119 4.71648 13.7453C4.31645 13.5719 4.02976 13.3186 3.84308 12.9785L3.64973 12.6318L3.62973 10.5783L3.60306 8.53152H4.1431H4.68315V10.0783C4.68315 11.4384 4.70315 11.6651 4.80982 11.8984C4.96317 12.2385 5.4032 12.6385 5.72989 12.7252C5.89657 12.7718 7.33668 12.7985 9.87021 12.7985H13.7505V12.2651V11.7318H10.0569C7.4767 11.7318 6.30327 11.7118 6.14993 11.6584C5.79657 11.5317 5.74989 11.3184 5.74989 9.83162V8.53152H6.28327H6.81664V9.01155C6.81664 9.33825 6.85665 9.58493 6.94332 9.76495C7.09667 10.105 7.5367 10.505 7.86339 10.5917C8.21675 10.6917 18.2175 10.6917 18.5709 10.5917C18.8976 10.505 19.3376 10.105 19.491 9.76495C19.6043 9.51826 19.6176 9.25824 19.6176 6.39802C19.6176 2.90442 19.6243 2.99776 19.0976 2.51772C18.7442 2.19769 18.4775 2.13102 17.5508 2.13102H16.7774L16.284 1.12428C16.0107 0.570902 15.7307 0.0908661 15.6707 0.0575294C15.524 -0.0224762 10.8836 -0.0158081 10.7503 0.0575294ZM15.2373 1.56431C15.3706 1.84433 15.484 2.08435 15.484 2.09769C15.484 2.11769 14.4639 2.13102 13.2171 2.13102C11.9704 2.13102 10.9503 2.11769 10.9503 2.09769C10.9503 2.08435 11.0636 1.84433 11.197 1.56431L11.4437 1.06427H13.2171H14.9906L15.2373 1.56431ZM18.1775 3.29111C18.3309 3.35112 18.4242 3.45113 18.4775 3.5978C18.5776 3.90449 18.5776 8.89155 18.4775 9.19824C18.3309 9.60493 18.4509 9.59827 13.2305 9.59827C9.87688 9.59827 8.44344 9.57827 8.28342 9.52493C7.89673 9.38492 7.88339 9.29824 7.88339 6.41135C7.88339 4.65122 7.91006 3.75115 7.95673 3.5978C8.10341 3.1911 7.97007 3.20444 13.2038 3.19777C17.1174 3.19777 17.9975 3.21111 18.1775 3.29111ZM4.68315 6.39802V7.46477H3.38971C1.91626 7.46477 1.71625 7.42477 1.57624 7.09141C1.4629 6.82472 1.45623 6.03799 1.55624 5.7313C1.68291 5.37794 1.87626 5.33794 3.36971 5.33127H4.68315V6.39802ZM6.81664 6.93139V7.46477H6.28327H5.74989V6.93139V6.39802H6.28327H6.81664V6.93139ZM13.7505 15.9988V17.0655H13.2171H12.6838V15.9988V14.932H13.2171H13.7505V15.9988ZM14.2839 24.2261C14.2839 28.5931 14.2639 30.3732 14.2105 30.5332C14.1105 30.8132 13.8239 30.9333 13.2171 30.9333C12.6104 30.9333 12.3237 30.8132 12.2237 30.5332C12.1704 30.3732 12.1504 28.5931 12.1504 24.2261V18.1323H13.2171H14.2839V24.2261ZM16.044 20.3591C16.324 20.4724 16.4174 20.7258 16.4174 21.3458C16.4174 22.1259 16.204 22.3993 15.5773 22.3993H15.3506V21.3325V20.2658H15.584C15.7173 20.2658 15.924 20.3058 16.044 20.3591Z" fill="#69B9CF"/>
<path d="M12.3703 3.83114C11.9836 3.95115 11.3969 4.35785 11.1502 4.66454C11.0369 4.80455 10.8635 5.09791 10.7635 5.31126C10.6035 5.65795 10.5835 5.77796 10.5835 6.39801C10.5835 7.04472 10.5968 7.1314 10.7968 7.54476C11.2569 8.51817 12.1236 9.06488 13.217 9.06488C14.3105 9.06488 15.1772 8.51817 15.6372 7.54476C15.8372 7.1314 15.8506 7.04472 15.8506 6.39801C15.8506 5.77796 15.8306 5.65795 15.6706 5.31126C15.5705 5.09791 15.3972 4.80455 15.2839 4.66454C15.0305 4.34452 14.4505 3.95782 14.0371 3.83114C13.6437 3.71113 12.7503 3.71113 12.3703 3.83114ZM13.7304 4.93789C14.3571 5.17125 14.7505 5.73796 14.7505 6.39801C14.7505 7.27141 14.0904 7.93146 13.217 7.93146C12.3436 7.93146 11.6836 7.27141 11.6836 6.40467C11.6902 5.75796 12.0103 5.25792 12.5837 4.99123C12.877 4.85122 13.4437 4.82455 13.7304 4.93789Z" fill="#69B9CF"/>
<path d="M16.9507 4.26454V4.79791H17.4841H18.0174V4.26454V3.73116H17.4841H16.9507V4.26454Z" fill="#69B9CF"/>
<path d="M12.6836 21.3325V21.8659H13.217H13.7503V21.3325V20.7992H13.217H12.6836V21.3325Z" fill="#69B9CF"/>
</svg>
