<svg width="32" height="30" viewBox="0 0 32 30" fill="none" xmlns="http://www.w3.org/2000/svg">
<path d="M24.3767 0.664875C23.1911 0.913101 21.9435 1.17439 21.6005 1.24625C20.8167 1.40956 18.4977 1.89948 17.6812 2.06931C16.3747 2.34367 16.7601 2.31754 13.4711 2.36L10.5022 2.39593L10.1886 2.55597C10.0155 2.64416 9.82283 2.75194 9.76077 2.79766C9.52561 2.97404 9.22839 3.30065 9.05529 3.56847L8.87892 3.84609L7.19032 4.2021C3.30362 5.01537 2.92801 5.10029 2.81043 5.20807C2.621 5.38444 2.59813 5.61961 2.71898 6.23037C2.76797 6.47533 2.7843 6.62884 2.76471 6.64191C2.74837 6.65497 2.64386 6.6713 2.53281 6.6811C2.28785 6.70396 1.81752 6.86401 1.53664 7.01751C1.23289 7.18735 0.85728 7.50417 0.644981 7.77199C0.429416 8.04308 0.184455 8.51994 0.109334 8.81062C0.01135 9.1797 -0.011513 10.7507 0.00481771 15.9961C0.0211484 21.6923 0.0211484 21.6825 0.266109 22.1691C0.573126 22.7832 1.07285 23.2698 1.70974 23.5768C2.24212 23.8349 2.1572 23.8251 4.37165 23.8479L6.34766 23.8675L6.5175 24.7004C7.29157 28.476 7.48101 29.3546 7.55287 29.4951C7.61166 29.6094 7.72924 29.7172 7.84029 29.7596C8.04932 29.838 9.25779 29.6094 16.1297 28.1952C16.7503 28.0678 17.6093 27.8914 18.0404 27.8032C18.4716 27.715 19.2946 27.5452 19.8695 27.4276C20.4443 27.31 21.5254 27.0879 22.2701 26.9344C23.5504 26.6731 25.0888 26.3531 27.2509 25.9056C30.5922 25.2099 31.7223 24.9323 31.9215 24.7461C32.0064 24.6677 32.0097 24.6547 31.9901 24.4652C31.9673 24.2758 31.0658 19.7489 30.4518 16.7473C29.9292 14.1932 29.583 12.5046 29.338 11.3092C29.2041 10.6527 28.9918 9.62389 28.8677 9.02292C28.3124 6.32183 27.4502 2.1869 27.2313 1.18419C27.1105 0.638746 27.0876 0.570156 26.9962 0.472174C26.8949 0.364389 26.7284 0.26314 26.5977 0.227213C26.5618 0.217415 25.5624 0.413382 24.3767 0.664875ZM26.0033 1.68064C26.0588 1.7231 26.1241 2.02032 26.8917 5.77312C27.0419 6.508 27.6364 9.40506 28.2145 12.2074C30.2525 22.1103 30.6118 23.8806 30.5922 23.9002C30.5693 23.923 25.1247 25.0499 17.3709 26.6307C15.9599 26.9181 14.4542 27.2251 14.0231 27.3133C10.0188 28.1331 8.64702 28.4009 8.61763 28.3715C8.56863 28.3193 7.70311 24.1811 7.70311 24.0014C7.70311 23.9296 7.71944 23.9198 7.87621 23.9035C8.24202 23.8643 10.205 23.8479 11.3579 23.8708L12.5697 23.8937L12.8538 24.1125C13.6475 24.7167 14.7351 25.2262 15.7868 25.4908C16.0644 25.5627 16.1428 25.5659 17.2566 25.5659C18.7361 25.5659 18.9876 25.5267 19.9348 25.1511C20.5456 24.9094 21.4568 24.3934 21.8259 24.0766C21.9271 23.9916 22.048 23.9133 22.1002 23.9002C22.1525 23.8904 22.7502 23.8675 23.4328 23.8512C24.5401 23.8251 24.6968 23.8153 24.9091 23.7565C25.8563 23.4821 26.5716 22.8191 26.9113 21.8882C26.9962 21.6563 27.0158 21.542 27.0419 21.1403C27.0909 20.3466 27.117 12.4752 27.0746 10.6821C27.0321 8.89881 27.0223 8.82042 26.7806 8.33703C26.6173 8.00715 26.4932 7.82752 26.245 7.56623C25.8955 7.19062 25.4056 6.8934 24.9189 6.76275C24.6805 6.69743 24.576 6.69417 21.9533 6.67784L19.2391 6.66477L18.9713 5.87436C18.6414 4.89779 18.4128 4.31642 18.1352 3.75791C17.9457 3.36924 17.9294 3.32351 17.9816 3.30065C18.0143 3.28758 18.3213 3.21899 18.661 3.14714C19.5853 2.95117 25.8236 1.66431 25.9314 1.64472C25.9412 1.64145 25.9739 1.66105 26.0033 1.68064ZM15.6725 3.63053C16.3486 3.65992 16.4531 3.69585 16.7274 3.99307C17.0247 4.31315 17.2696 4.8488 17.7302 6.19771C18.0829 7.22001 18.2266 7.59562 18.3377 7.7524L18.4258 7.87977H19.4253C21.2021 7.88304 24.2722 7.94183 24.4911 7.97776C24.6054 7.99735 24.7752 8.05288 24.8667 8.10187C25.1018 8.22598 25.5362 8.67018 25.6505 8.90208C25.7387 9.08825 25.742 9.09151 25.7681 10.0289C25.7812 10.5449 25.7943 13.295 25.7975 16.1366V21.3101L25.6473 21.6041C25.3566 22.1626 25.0528 22.3978 24.4747 22.5153C24.3049 22.548 23.4002 22.5611 23.3479 22.5284C23.3316 22.5186 23.3838 22.4076 23.4655 22.2802C23.864 21.6661 24.3245 20.5426 24.4715 19.8338C24.6152 19.1316 24.625 17.541 24.4911 16.927C23.9228 14.3239 22.0839 12.2466 19.6212 11.4268C18.857 11.172 18.1058 11.0479 17.3513 11.0479C14.3203 11.0479 11.5898 12.926 10.4989 15.7577C9.97634 17.1197 9.89142 18.805 10.2703 20.2258C10.4271 20.8072 10.8255 21.7086 11.1848 22.303C11.2632 22.4337 11.3285 22.548 11.3285 22.5578C11.3285 22.5709 10.8778 22.5741 10.3258 22.5709L9.31985 22.5611L9.30025 15.8165C9.28718 12.1062 9.26759 9.02619 9.25452 8.97393C9.19247 8.71917 9.09775 8.44155 8.96384 8.13127C8.87892 7.94183 8.81359 7.76873 8.81359 7.74586C8.81359 7.723 8.87239 7.54989 8.94424 7.36046C9.0161 7.17102 9.199 6.65171 9.35251 6.20751C9.8261 4.82267 10.0645 4.29355 10.3519 3.98001C10.6132 3.69258 10.7243 3.65992 11.5408 3.63379C12.5109 3.60113 14.9931 3.60113 15.6725 3.63053ZM8.24529 5.40404C8.23222 5.46283 8.14077 5.77312 8.03952 6.08993L7.85662 6.66804L7.41242 6.65497C7.16746 6.64517 6.41625 6.62231 5.74342 6.60271C4.05156 6.55699 4.04503 6.55372 4.04503 6.32183C4.04503 6.15525 4.04177 6.15852 6.21701 5.70452C6.79185 5.58694 7.45488 5.4465 7.68678 5.39751C7.92194 5.34525 8.1473 5.30279 8.18976 5.30279C8.25835 5.29952 8.26488 5.30932 8.24529 5.40404ZM6.15169 7.94183C6.9029 7.96469 6.9421 7.96796 7.12173 8.04961C7.46468 8.20639 7.77823 8.5624 7.92847 8.9674C7.97746 9.10784 7.99706 9.22869 7.99706 9.44099C7.99706 10.2641 7.73577 10.7409 7.12173 11.0512L6.90617 11.1622H4.73092H2.55894L2.33031 11.0512C1.84365 10.8128 1.5301 10.3555 1.45825 9.78393C1.3374 8.83675 1.91224 8.05288 2.8039 7.9451C3.08152 7.91244 5.14899 7.90917 6.15169 7.94183ZM1.57583 12.0931C1.86325 12.2564 2.25845 12.3838 2.59813 12.423C2.8235 12.4491 3.55184 12.4556 5.05753 12.4426L7.19686 12.4262L7.55613 12.2597C7.75537 12.1682 7.935 12.0931 7.95787 12.0931C7.98726 12.0931 7.99706 13.1644 7.99706 17.3352V22.5774L6.86371 22.5741C6.23661 22.5741 4.99221 22.5611 4.09076 22.548L2.45442 22.5251L2.22906 22.4141C1.93511 22.2704 1.57583 21.9144 1.43212 21.6172C1.34067 21.431 1.32434 21.3559 1.30147 21.0195C1.26228 20.474 1.22635 13.7784 1.25248 12.8018C1.28188 11.8775 1.26228 11.9167 1.57583 12.0931ZM17.9914 12.387C18.7198 12.4524 19.1999 12.5863 19.8825 12.9129C21.1661 13.5269 22.1231 14.4774 22.7306 15.7348C22.9527 16.1888 23.1193 16.6788 23.2173 17.1393C23.3055 17.5671 23.3381 18.4849 23.2859 19.05C23.0932 21.0031 21.7769 22.855 19.9348 23.7532C19.1411 24.1386 18.4683 24.3052 17.5668 24.3313C16.4302 24.3672 15.6725 24.2137 14.7024 23.7499C14.3497 23.5801 13.7487 23.1914 13.458 22.9465C12.5925 22.2083 11.9556 21.2644 11.5931 20.1768C11.3742 19.5236 11.3449 19.2917 11.3449 18.2824C11.3481 17.4855 11.3547 17.3712 11.42 17.0903C11.8609 15.2449 13.0008 13.7817 14.6437 12.9652C15.2544 12.6647 15.9893 12.4295 16.489 12.3772C16.747 12.3511 17.642 12.3577 17.9914 12.387Z" fill="#69B9CF"/>
<path d="M11.7204 4.74103C11.237 4.7639 11.1423 4.79656 11.0476 4.97619C10.9692 5.1297 10.9398 5.64249 10.9365 6.76604V7.821L11.1358 8.04636L11.335 8.27173H13.5494H15.7639L15.9631 8.04636L16.1623 7.821V6.91301C16.1591 5.70128 16.1232 5.1395 16.0415 4.99906C15.9533 4.84228 15.7933 4.78023 15.4079 4.7443C15.0421 4.71164 12.4487 4.71164 11.7204 4.74103ZM14.8559 6.50801V6.99793H13.5168H12.1777V6.50801V6.01809H13.5168H14.8559V6.50801Z" fill="#69B9CF"/>
<path d="M21.4533 9.12092C21.228 9.17317 21.0287 9.52592 21.0712 9.79701C21.094 9.92439 21.2182 10.1008 21.3684 10.2118C21.4566 10.2771 21.4958 10.2804 22.8349 10.2804C24.1969 10.2804 24.2132 10.2804 24.3275 10.2085C24.481 10.1138 24.5855 9.92112 24.6084 9.68596C24.628 9.50305 24.6247 9.48999 24.5072 9.34955C24.2687 9.06539 24.4157 9.08825 22.91 9.09152C22.1719 9.09479 21.5154 9.10785 21.4533 9.12092Z" fill="#69B9CF"/>
<path d="M4.35853 8.92494C4.04498 8.98047 3.78369 9.26462 3.78369 9.54551C3.78696 9.70228 3.88168 9.90479 4.00579 10.0093C4.14297 10.1236 4.3618 10.1661 4.83865 10.1661C5.29265 10.1661 5.37757 10.1367 5.54414 9.90479C5.65846 9.74474 5.69112 9.58797 5.64539 9.4116C5.5964 9.23523 5.37757 9.00007 5.22406 8.95761C5.04769 8.91188 4.54144 8.89228 4.35853 8.92494Z" fill="#69B9CF"/>
<path d="M16.7993 13.651C15.7835 13.7196 14.6665 14.2814 13.8597 15.1371C13.3829 15.6401 13.0628 16.1986 12.7982 16.9858C12.5533 17.7305 12.5337 18.7658 12.7525 19.5693C13.1608 21.075 14.3203 22.3063 15.8129 22.8191C16.3355 22.9987 16.649 23.0477 17.3055 23.0477C17.9881 23.0477 18.3017 22.9987 18.9092 22.7864C20.3267 22.2998 21.5156 20.9868 21.8977 19.4876C22.0349 18.9455 22.0577 17.933 21.9467 17.3679C21.6887 16.0484 20.6925 14.755 19.4514 14.1312C18.6805 13.7425 17.8085 13.5825 16.7993 13.651ZM18.2037 15.013C18.6348 15.1404 19.1672 15.4148 19.4938 15.6761C20.4377 16.4436 20.9244 17.7174 20.7186 18.8899C20.4475 20.4511 19.1705 21.6368 17.6354 21.7576C16.5086 21.8458 15.5614 21.48 14.784 20.6504C14.3823 20.2258 14.1341 19.7718 13.9675 19.1545C13.8663 18.7756 13.863 17.9395 13.9675 17.5345C14.121 16.9205 14.3888 16.4501 14.8592 15.9635C15.2707 15.5389 15.728 15.2449 16.2603 15.0653C16.6359 14.9379 16.8972 14.902 17.4198 14.915C17.8314 14.9248 17.9555 14.9412 18.2037 15.013Z" fill="#69B9CF"/>
</svg>
