<svg width="22" height="32" viewBox="0 0 22 32" fill="none" xmlns="http://www.w3.org/2000/svg">
<path d="M7.79061 0.051033C7.45276 0.132366 7.2463 0.25124 6.98353 0.526524C6.52681 0.995758 6.52681 0.976988 6.50804 3.71732L6.48927 6.17611H4.94392C3.29848 6.17611 2.95437 6.2199 2.41006 6.49518C1.79693 6.81426 1.30892 7.37734 1.03364 8.10309L0.895996 8.45971V17.9382V27.4168L1.03989 27.8422C1.32769 28.6618 2.00339 29.3375 2.79796 29.6065L3.09827 29.7066L3.12955 30.3448C3.17335 31.2145 3.36104 31.5773 3.90535 31.8526C4.4309 32.1154 5.10659 32.009 5.50701 31.5961C5.84485 31.252 5.93245 30.9892 5.93245 30.326V29.763H11.0002H16.0679V30.276C16.0679 30.9579 16.1492 31.2207 16.4558 31.5523C17.1127 32.2655 18.2639 32.1029 18.7144 31.2332C18.8082 31.0455 18.8458 30.8266 18.8708 30.3448L18.9021 29.7066L19.2024 29.6065C19.997 29.3375 20.6727 28.6618 20.9605 27.8422L21.1044 27.4168V17.9695C21.1044 9.01028 21.0981 8.50351 20.9917 8.16566C20.7728 7.47119 20.2222 6.82052 19.5903 6.49518C19.046 6.2199 18.7019 6.17611 17.0564 6.17611H15.5111L15.4923 3.71732C15.4735 1.51504 15.461 1.23976 15.3609 1.01453C15.2108 0.676678 14.8479 0.307547 14.5038 0.14488C14.2285 0.0197506 14.1409 0.0134945 11.1253 0.000980377C9.42355 -0.00527573 7.922 0.0197506 7.79061 0.051033ZM14.1534 1.24602C14.2348 1.32735 14.3224 1.45248 14.3474 1.52756L14.3849 1.67146H11.0002H7.61543L7.65297 1.52756C7.678 1.45248 7.76559 1.32735 7.84692 1.24602L8.00333 1.10837H11.0002H13.997L14.1534 1.24602ZM14.3787 4.48686V6.17611H11.0002H7.62169V4.48686V2.79762H11.0002H14.3787V4.48686ZM18.9772 7.45242C19.3713 7.63386 19.6779 7.93417 19.8468 8.3033L19.9782 8.58484V17.9695V27.3542L19.8468 27.6358C19.7717 27.7922 19.6341 27.9986 19.534 28.0987C19.3526 28.2802 19.0147 28.5117 18.9334 28.5117C18.9083 28.5117 18.8771 25.5836 18.8708 22.0112L18.852 15.5107L18.7019 15.3481C18.4892 15.1228 18.12 15.1228 17.9136 15.3481L17.7572 15.517V22.0738V28.6368H11.0002H4.2432L4.25571 21.4544L4.27448 14.272L4.44966 14.0092C4.54351 13.859 4.73121 13.6901 4.88136 13.615C5.14413 13.4774 5.16916 13.4774 9.5737 13.4711L14.0033 13.4649L14.1722 13.296C14.3912 13.0707 14.4037 12.7516 14.191 12.5264L14.0408 12.37L9.43606 12.3825L4.83757 12.4013L4.41838 12.6077C3.74268 12.9393 3.29848 13.5337 3.1796 14.2845C3.14206 14.5035 3.11704 17.4502 3.11704 21.5795C3.11704 25.3959 3.09827 28.5117 3.07324 28.5117C2.98565 28.5117 2.6478 28.2802 2.46637 28.0987C2.36626 27.9986 2.22862 27.7922 2.15354 27.6358L2.02216 27.3542V17.9695V8.58484L2.15354 8.3033C2.32247 7.93417 2.62904 7.63386 3.02319 7.45242L3.33601 7.30227H11.0002H18.6643L18.9772 7.45242ZM4.80628 30.251C4.80628 30.7515 4.74997 30.8891 4.54977 30.8891C4.32454 30.8891 4.2432 30.7139 4.2432 30.2259V29.763H4.52474H4.80628V30.251ZM17.7572 30.2259C17.7572 30.7139 17.6758 30.8891 17.4506 30.8891C17.2504 30.8891 17.1941 30.7515 17.1941 30.251V29.763H17.4756H17.7572V30.2259Z" fill="#69B9CF"/>
<path d="M15.7115 12.4951C15.5238 12.664 15.4738 12.8955 15.5676 13.127C15.674 13.3835 15.8054 13.4398 16.3935 13.4711C16.9378 13.5024 17.1818 13.5962 17.4883 13.884C17.8762 14.2532 18.4456 14.0592 18.4456 13.5462C18.4456 13.2209 18.1202 12.8705 17.5822 12.6077C17.2068 12.42 17.1004 12.4013 16.5061 12.3825C15.9117 12.3637 15.8366 12.37 15.7115 12.4951Z" fill="#69B9CF"/>
</svg>
