<svg width="22" height="32" viewBox="0 0 22 32" fill="none" xmlns="http://www.w3.org/2000/svg">
<path d="M2.52856 0.0464306C1.77961 0.285318 1.19853 0.776007 0.875713 1.43456L0.688477 1.82195V13.4112V25.0005L0.875713 25.3879C1.1146 25.8721 1.65048 26.408 2.13471 26.634C2.49627 26.8018 2.50919 26.8083 4.18786 26.8277L5.87944 26.847L6.01502 27.2796C6.71877 29.4877 8.52657 31.1922 10.8251 31.812C11.4578 31.9863 12.9234 32.0574 13.6013 31.9476C15.9515 31.5796 18.0304 29.8686 18.8568 27.6283C19.2442 26.5888 19.2507 26.4661 19.2507 21.7981C19.2507 17.8016 19.2571 17.5369 19.3669 17.5046C20.1675 17.2334 20.7809 16.7298 21.1037 16.0777L21.2845 15.7033L21.3038 12.6365C21.3232 9.60839 21.3167 9.5632 21.1876 9.42116C21.1166 9.34368 20.9939 9.27911 20.9294 9.27911C20.8067 9.27911 20.8002 9.22746 20.8002 8.38813C20.8002 7.10976 20.981 7.21306 18.7342 7.21306C16.4809 7.21306 16.6681 7.10976 16.6681 8.37522C16.6681 9.23392 16.6617 9.27911 16.539 9.27911C16.468 9.27911 16.3518 9.33722 16.2807 9.40824C16.1516 9.53737 16.1451 9.59548 16.1645 12.6235L16.1839 15.7033L16.3582 16.0584C16.6939 16.7363 17.1846 17.1753 17.8884 17.4207L18.1854 17.524L18.2047 21.1977C18.2241 26.04 18.1854 26.5113 17.6108 27.7122C17.0749 28.8292 16.2291 29.7072 15.1444 30.2754C14.1307 30.8048 13.1365 31.0114 12.0841 30.9081C10.2052 30.7209 8.6557 29.7783 7.63559 28.1964C7.42898 27.8672 7.04805 27.0343 7.04805 26.8987C7.04805 26.8664 7.68724 26.8406 8.50075 26.8406C9.81786 26.8406 9.97927 26.8277 10.3215 26.705C11.0575 26.4338 11.6902 25.7817 11.9226 25.0651C12.013 24.7745 12.0195 23.5865 12.0066 13.2821L11.9872 1.82195L11.7742 1.40874C11.5094 0.911591 11.0381 0.440271 10.5474 0.194929L10.1794 0.0141487L6.43469 0.00123596C4.37509 -0.00522232 2.61895 0.0141487 2.52856 0.0464306ZM9.84368 1.10528C10.2827 1.2667 10.5862 1.52495 10.7734 1.91234L10.9542 2.2739V13.4435V24.6131L10.8057 24.8972C10.6249 25.2265 10.4054 25.446 10.0503 25.6397C9.79849 25.7753 9.74684 25.7753 6.33785 25.7753H2.88366L2.53501 25.5751C2.07661 25.3169 1.83126 24.9747 1.75379 24.484C1.71505 24.2386 1.68922 20.0226 1.68922 13.2756C1.68922 1.5185 1.66985 2.1254 2.04432 1.62825C2.21865 1.40228 2.5673 1.18276 2.91594 1.073C3.00633 1.04718 4.54296 1.02781 6.33785 1.02135C8.92687 1.02135 9.64999 1.04072 9.84368 1.10528ZM19.7672 8.7626V9.27911H18.7342H17.7011V8.7626V8.24609H18.7342H19.7672V8.7626ZM20.2708 12.8108C20.2514 15.29 20.2514 15.3159 20.1029 15.6C19.6639 16.4135 18.7794 16.704 18.0304 16.2779C17.572 16.0196 17.3267 15.6774 17.2492 15.1867C17.2169 14.9737 17.1846 13.7922 17.1846 12.5525V10.3121H18.7406H20.2902L20.2708 12.8108Z" fill="#69B9CF"/>
<path d="M3.3679 2.69355C3.24523 2.81622 3.23877 2.90661 3.23877 4.88873C3.23877 6.87085 3.24523 6.96124 3.3679 7.08391C3.49057 7.20659 3.58096 7.21304 6.33785 7.21304C9.17222 7.21304 9.17222 7.21304 9.30781 7.071C9.43048 6.93542 9.43693 6.85148 9.43693 4.88873C9.43693 2.92598 9.43048 2.84205 9.30781 2.70646C9.17222 2.56442 9.17222 2.56442 6.33785 2.56442C3.58096 2.56442 3.49057 2.57088 3.3679 2.69355ZM8.40391 4.88873V6.18002H6.33785H4.2718V4.88873V3.59745H6.33785H8.40391V4.88873Z" fill="#69B9CF"/>
<path d="M4.78809 4.63049V5.147H6.33763H7.88717V4.63049V4.11398H6.33763H4.78809V4.63049Z" fill="#69B9CF"/>
<path d="M3.3679 8.37522C3.24523 8.49789 3.23877 8.58828 3.23877 10.5704C3.23877 12.5525 3.24523 12.6429 3.3679 12.7656C3.49057 12.8883 3.58096 12.8947 6.33785 12.8947C9.17222 12.8947 9.17222 12.8947 9.30781 12.7527C9.43048 12.6171 9.43693 12.5332 9.43693 10.5704C9.43693 8.60765 9.43048 8.52372 9.30781 8.38813C9.17222 8.24609 9.17222 8.24609 6.33785 8.24609C3.58096 8.24609 3.49057 8.25255 3.3679 8.37522ZM8.40391 10.5704V11.8617H6.33785H4.2718V10.5704V9.27912H6.33785H8.40391V10.5704Z" fill="#69B9CF"/>
<path d="M4.78809 10.3121V10.8286H6.33763H7.88717V10.3121V9.79562H6.33763H4.78809V10.3121Z" fill="#69B9CF"/>
<path d="M3.3679 14.0569C3.24523 14.1795 3.23877 14.2699 3.23877 16.252C3.23877 18.2342 3.24523 18.3246 3.3679 18.4472C3.49057 18.5699 3.58096 18.5764 6.33785 18.5764C9.17222 18.5764 9.17222 18.5764 9.30781 18.4343C9.43048 18.2987 9.43693 18.2148 9.43693 16.252C9.43693 14.2893 9.43048 14.2054 9.30781 14.0698C9.17222 13.9277 9.17222 13.9277 6.33785 13.9277C3.58096 13.9277 3.49057 13.9342 3.3679 14.0569ZM8.40391 16.252V17.5433H6.33785H4.2718V16.252V14.9608H6.33785H8.40391V16.252Z" fill="#69B9CF"/>
<path d="M4.78809 15.9938V16.5103H6.33763H7.88717V15.9938V15.4773H6.33763H4.78809V15.9938Z" fill="#69B9CF"/>
<path d="M3.3679 19.7385C3.24523 19.8612 3.23877 19.9516 3.23877 21.9337C3.23877 23.9158 3.24523 24.0062 3.3679 24.1289C3.49057 24.2515 3.58096 24.258 6.33785 24.258C9.17222 24.258 9.17222 24.258 9.30781 24.116C9.43048 23.9804 9.43693 23.8964 9.43693 21.9337C9.43693 19.9709 9.43048 19.887 9.30781 19.7514C9.17222 19.6094 9.17222 19.6094 6.33785 19.6094C3.58096 19.6094 3.49057 19.6158 3.3679 19.7385ZM8.40391 21.9337V23.225H6.33785H4.2718V21.9337V20.6424H6.33785H8.40391V21.9337Z" fill="#69B9CF"/>
<path d="M4.78809 21.6754V22.192H6.33763H7.88717V21.6754V21.1589H6.33763H4.78809V21.6754Z" fill="#69B9CF"/>
</svg>
