<svg width="32" height="28" viewBox="0 0 32 28" fill="none" xmlns="http://www.w3.org/2000/svg">
<path d="M11.7315 3.5421C2.76244 10.6635 0.340794 12.6188 0.125537 12.8878C-0.340854 13.426 0.591927 14.4126 1.29151 14.1256C1.48883 14.0538 4.52037 11.7039 8.05417 8.88765C11.57 6.07137 14.763 3.5421 15.1397 3.27303L15.8393 2.75282L23.158 8.42126C30.7279 14.2691 31.0687 14.4843 31.7325 13.8027C32.2706 13.2645 32.0553 12.8878 30.5485 11.7219C22.7096 5.65879 17.7946 1.85592 17.0591 1.29984C16.5748 0.941074 16.0007 0.636127 15.7855 0.636127C15.5344 0.636127 13.9737 1.76623 11.7315 3.5421Z" fill="#69B9CF"/>
<path d="M14.3144 10.6815C12.5385 11.0044 10.4936 11.991 9.21999 13.139C8.44865 13.8386 8.35896 14.2332 8.84329 14.6817C9.34555 15.1481 9.90163 15.0404 10.7268 14.3767C12.4309 13.0134 14.3862 12.3856 16.5567 12.5112C18.2787 12.6367 19.6241 13.139 21.1668 14.2512C22.4583 15.2019 22.8709 15.2378 23.3373 14.5202C23.6781 14 23.4987 13.6054 22.5659 12.8879C20.216 11.0582 17.0231 10.1972 14.3144 10.6815Z" fill="#69B9CF"/>
<path d="M4.9328 13.8924C4.82517 14.1256 4.75342 16.5113 4.75342 20.4398C4.75342 26.4132 4.77136 26.6643 5.11218 27.0051C5.453 27.346 5.70414 27.3639 10.6371 27.3639C14.8167 27.3639 15.875 27.3101 16.162 27.1128C16.467 26.8796 16.5029 26.5926 16.5567 24.6552C16.6105 22.8256 16.6823 22.3592 16.9693 21.9645C17.902 20.6371 16.7899 19.0765 15.2113 19.507C14.2606 19.7581 13.7942 20.9959 14.3503 21.7313C14.5297 21.9645 14.6014 22.5565 14.6194 23.7225V25.3907H10.5833H6.54723V19.6864C6.54723 15.4889 6.49341 13.9283 6.33197 13.7668C5.99115 13.426 5.14806 13.4977 4.9328 13.8924Z" fill="#69B9CF"/>
<path d="M25.7053 13.7489C25.4004 13.9103 25.3824 14.3767 25.3824 19.5249C25.3824 22.6103 25.3107 25.2293 25.2389 25.3369C25.1313 25.4983 24.2165 25.5701 22.0639 25.606L19.0144 25.6598L18.9606 26.2876C18.853 27.3101 19.0862 27.3639 23.0505 27.3639C26.2435 27.3639 26.6022 27.328 26.8713 27.041C27.1404 26.7361 27.1762 26.0185 27.1762 20.4039C27.1762 14.9328 27.1404 14.0718 26.8892 13.8386C26.5664 13.5157 26.1538 13.4798 25.7053 13.7489Z" fill="#69B9CF"/>
<path d="M15.1395 15.1839C14.1529 15.3274 12.6999 16.045 12.1438 16.6549C11.6236 17.2109 11.6774 17.8567 12.2873 18.1617C12.664 18.341 12.8075 18.3231 13.2739 18.0182C15.2113 16.7087 16.5925 16.6369 18.3863 17.7491C19.4267 18.3949 19.4985 18.4128 19.911 18.1437C20.216 17.9464 20.3595 17.6773 20.3595 17.3365C20.3595 16.9239 20.1801 16.7087 19.4267 16.1885C18.0275 15.2557 16.6642 14.9328 15.1395 15.1839Z" fill="#69B9CF"/>
</svg>
