<svg width="32" height="32" viewBox="0 0 32 32" fill="none" xmlns="http://www.w3.org/2000/svg">
<path d="M15.6345 0.0266743C14.6319 0.151451 13.6251 0.637657 12.9066 1.339C12.1493 2.07476 11.8481 2.73737 11.8481 3.67536C11.8481 4.09272 11.8438 4.11854 11.7534 4.15726C11.6975 4.17878 11.4608 4.26913 11.2242 4.35519C7.54539 5.70193 4.79167 8.52881 3.84507 11.9322C3.54819 13.0079 3.53097 13.1929 3.50516 15.7746L3.47934 18.1195L2.87696 18.1453C2.46821 18.1625 2.21435 18.1927 2.08097 18.2443C1.64639 18.4078 1.25054 18.7477 0.98808 19.1866C0.704102 19.6599 0.708404 19.647 0.704102 23.3516C0.704102 25.6062 0.71701 26.7636 0.751431 26.9401C0.850393 27.4736 1.21182 28.1233 1.60767 28.4804C1.86583 28.7171 2.18853 28.9107 2.53275 29.0398C2.91999 29.1818 3.04907 29.2076 3.49655 29.2205C3.69878 29.2291 3.8924 29.2377 3.91822 29.2377C3.94834 29.242 4.00427 29.3065 4.043 29.3797C4.2151 29.7153 4.5335 30.1499 4.8519 30.4812C5.59197 31.2514 6.40948 31.7031 7.43783 31.9054L7.91112 32L16.1723 31.9871L24.4335 31.9742L24.8638 31.858C25.7673 31.6128 26.7612 30.9889 27.3421 30.3005C27.5659 30.038 27.9918 29.4055 28.0391 29.2721C28.0435 29.2506 28.2672 29.2248 28.534 29.2162C29.0847 29.199 29.558 29.0656 29.9883 28.8074C30.3497 28.588 30.8273 28.0674 31.0123 27.6887C31.3049 27.082 31.2963 27.2369 31.2963 23.343C31.2963 20.0428 31.292 19.8191 31.2145 19.591C30.9822 18.8811 30.397 18.3347 29.7129 18.1884C29.5881 18.1625 29.274 18.141 29.0159 18.141H28.5426V16.1919C28.5426 14.1955 28.5124 13.5974 28.3705 12.7971C27.7853 9.52273 25.5694 6.69156 22.2606 5.00059C21.6712 4.6994 20.7762 4.31646 20.3846 4.20029L20.2082 4.14866L20.1824 3.62373C20.1523 3.02996 20.0921 2.7761 19.8769 2.32862C19.679 1.90265 19.4639 1.62297 19.025 1.20992C18.1042 0.345074 16.7833 -0.119617 15.6345 0.0266743ZM16.6671 1.47238C17.0371 1.55843 17.6653 1.86393 17.9708 2.10918C18.272 2.35013 18.5689 2.74598 18.6808 3.05147C18.7754 3.30533 18.8486 3.77002 18.7926 3.77002C18.7711 3.77002 18.6033 3.7399 18.4183 3.70548C17.4029 3.51186 16.0389 3.43011 15.1181 3.50756C14.5674 3.55489 13.5778 3.69257 13.3282 3.75281L13.212 3.78293L13.2379 3.50756C13.311 2.81482 13.8876 2.15221 14.7911 1.72194C15.4365 1.41214 16.069 1.33039 16.6671 1.47238ZM17.4416 4.95757C21.2839 5.40075 24.6314 7.57791 26.1847 10.6371C26.6236 11.502 26.8989 12.3668 27.0409 13.3005C27.1184 13.834 27.1227 14.1653 27.1227 20.7485C27.1227 27.4004 27.1184 27.6457 27.0409 27.9598C26.7785 28.9881 26.0814 29.8272 25.1262 30.279C24.3862 30.6232 25.1692 30.5974 16.0217 30.5974C6.86557 30.5974 7.60993 30.6232 6.87847 30.279C5.85013 29.7927 5.13588 28.8548 4.94226 27.7447C4.8433 27.1853 4.8476 14.4278 4.94656 13.5845C5.36823 9.9487 8.01439 6.9239 11.9987 5.53413C12.7646 5.26306 13.9392 5.01781 14.903 4.91884C15.3548 4.87151 16.9124 4.89303 17.4416 4.95757ZM3.50086 20.2063V20.8948H3.05768C2.55856 20.8948 2.38215 20.8345 2.22726 20.6022C2.07236 20.3741 2.05945 20.1848 2.18423 19.931C2.34773 19.5953 2.50693 19.5222 3.06198 19.5179H3.50086V20.2063ZM29.601 19.6298C29.9108 19.8578 30.0055 20.2321 29.8334 20.5419C29.6785 20.8173 29.4935 20.8948 28.9771 20.8948H28.5426V20.202V19.5093L29.0116 19.5265C29.4074 19.5351 29.5021 19.5523 29.601 19.6298ZM2.40367 22.2501C2.57147 22.2845 2.88557 22.3147 3.10501 22.3147H3.50086V24.9694C3.50086 26.4323 3.51376 27.6758 3.53097 27.7318C3.55679 27.835 3.55679 27.835 3.31154 27.8049C2.78661 27.7447 2.32622 27.3574 2.16702 26.8454C2.08527 26.5786 2.08097 26.4495 2.08097 24.3756C2.08097 23.1709 2.08527 22.1856 2.09387 22.1856C2.09818 22.1856 2.24017 22.2157 2.40367 22.2501ZM29.9108 24.4961C29.8979 26.7679 29.8979 26.8153 29.8033 27.0132C29.6871 27.2714 29.3687 27.5898 29.1191 27.6973C29.0159 27.7447 28.8308 27.7963 28.7061 27.8092L28.4866 27.835L28.5124 27.5381C28.5297 27.3746 28.5426 26.1355 28.5426 24.7844V22.3276L29.0718 22.3017C29.3601 22.2888 29.6441 22.2587 29.7043 22.2372C29.9366 22.1425 29.9237 22.0135 29.9108 24.4961Z" fill="#69B9CF"/>
<path d="M15.1613 6.99702C12.5323 7.22936 10.3078 8.15444 8.71152 9.6862C8.31137 10.0734 7.93273 10.508 7.76493 10.7877C7.49816 11.2223 7.84238 11.816 8.3587 11.816C8.60826 11.816 8.74164 11.7343 8.98689 11.4417C9.10307 11.304 9.30529 11.076 9.43437 10.934C10.6047 9.6776 12.3172 8.82997 14.361 8.50296C14.9246 8.41261 15.9401 8.33516 16.2585 8.35667C16.3531 8.36528 16.5855 8.38249 16.7748 8.39539C19.3822 8.58471 21.7229 9.72063 22.9965 11.4116C23.2073 11.687 23.4268 11.816 23.6892 11.816C24.1238 11.816 24.4637 11.3513 24.326 10.9383C24.2184 10.6113 23.4052 9.70341 22.7512 9.18279C21.056 7.83174 18.754 7.05295 16.2628 6.97981C15.9056 6.9669 15.4108 6.9755 15.1613 6.99702Z" fill="#69B9CF"/>
<path d="M23.4008 12.6077C23.2072 12.6938 23.0523 12.8702 22.9964 13.0767C22.962 13.1972 22.9491 13.5285 22.9577 14.0535C22.9706 14.7591 22.9792 14.8667 23.0609 15.0216C23.3277 15.5293 24.0979 15.4819 24.3044 14.9441C24.3646 14.7849 24.3732 14.6171 24.3603 13.8986C24.3474 13.081 24.3431 13.0337 24.2442 12.8745C24.0721 12.5991 23.6934 12.4787 23.4008 12.6077Z" fill="#69B9CF"/>
<path d="M9.12863 17.4913C8.4531 17.7107 7.91527 18.2701 7.73886 18.937C7.68292 19.1564 7.67432 19.7115 7.67432 22.9815C7.67432 26.3247 7.68292 26.8023 7.74316 27.0089C7.94108 27.6801 8.47462 28.2265 9.13723 28.4288C9.41261 28.5105 9.55029 28.5105 16.1076 28.5019L22.7983 28.489L23.121 28.3341C23.6674 28.0716 24.0375 27.6672 24.2526 27.0992C24.3473 26.854 24.3473 26.8325 24.3602 23.0719C24.3688 19.7674 24.3645 19.2597 24.3042 19.0274C24.1364 18.3733 23.7664 17.9087 23.1726 17.6118L22.8069 17.4311L16.0904 17.4225C9.68798 17.4138 9.36097 17.4181 9.12863 17.4913ZM22.5315 18.8466C22.609 18.8768 22.7338 18.9757 22.8112 19.0618C22.9317 19.1995 22.9489 19.2511 22.9489 19.4576C22.9489 19.7459 22.8671 19.9137 22.6606 20.0557L22.4971 20.1633H16.0173H9.53739L9.3954 20.0643C9.15014 19.9008 9.07269 19.7588 9.07269 19.4791C9.07269 19.2769 9.09421 19.2038 9.18887 19.079C9.42982 18.7649 8.86616 18.7864 15.9914 18.7864C21.2708 18.7864 22.4154 18.795 22.5315 18.8466ZM15.8839 21.5746C21.5419 21.5832 22.3809 21.5746 22.6305 21.5186C22.7854 21.4842 22.9231 21.4541 22.9403 21.4541C22.9575 21.4541 22.9618 22.633 22.9489 24.0744C22.9274 26.6388 22.9274 26.6991 22.837 26.8152C22.7897 26.8798 22.695 26.9744 22.6305 27.0218C22.5143 27.1121 22.51 27.1121 16.0086 27.1121H9.50296L9.36097 27.0132C9.28353 26.9572 9.18456 26.8368 9.13723 26.7464C9.05548 26.5829 9.05118 26.4839 9.05118 24.0013V21.4197L9.2362 21.4928C9.3997 21.553 10.0236 21.5616 15.8839 21.5746Z" fill="#69B9CF"/>
<path d="M10.9531 24.3799C10.6347 24.4574 10.3851 24.8532 10.4497 25.1845C10.4884 25.3997 10.7337 25.6535 10.9574 25.7051C11.0564 25.7267 11.4952 25.7439 11.9341 25.7396C12.8248 25.7353 12.9323 25.7051 13.1303 25.4083C13.2163 25.2878 13.2292 25.2189 13.2163 25.0124C13.1948 24.7327 13.1044 24.5778 12.8764 24.4445C12.7473 24.367 12.6441 24.3584 11.9126 24.3498C11.4651 24.3455 11.0305 24.3584 10.9531 24.3799Z" fill="#69B9CF"/>
<path d="M15.1395 24.3756C14.9287 24.4273 14.7824 24.5477 14.6834 24.75C14.5544 25.021 14.5974 25.2792 14.8125 25.5072C14.9631 25.675 14.9846 25.6793 15.3332 25.7181C15.8581 25.7697 16.8993 25.7267 17.0542 25.6492C17.3812 25.4814 17.506 24.9823 17.2995 24.6811C17.1059 24.3885 16.9983 24.3584 16.0861 24.3498C15.6386 24.3455 15.2084 24.3584 15.1395 24.3756Z" fill="#69B9CF"/>
<path d="M19.2919 24.3799C19.094 24.4272 18.8401 24.7026 18.8014 24.9091C18.7368 25.2491 18.9821 25.6406 19.2962 25.7094C19.378 25.7267 19.8125 25.7396 20.26 25.7353C21.0044 25.7353 21.0904 25.7267 21.2281 25.6449C21.6971 25.3738 21.6971 24.7198 21.2281 24.4488C21.0904 24.367 21.0001 24.3584 20.26 24.3498C19.8125 24.3455 19.3736 24.3584 19.2919 24.3799Z" fill="#69B9CF"/>
</svg>
