<svg width="32" height="32" viewBox="0 0 32 32" fill="none" xmlns="http://www.w3.org/2000/svg">
<path d="M11.9384 0.20833C7.90925 0.624451 4.28819 2.8371 2.10355 6.21808C1.09126 7.77854 0.463075 9.39901 0.130978 11.2916C0.0389516 11.8117 0.022947 12.0358 0.00294112 13.0081C-0.00506122 13.6963 0.00294112 14.3164 0.0309493 14.6285C0.251014 17.0052 1.08326 19.2579 2.44365 21.1704C2.82376 21.6986 3.01582 21.8947 3.22388 21.9587C3.68001 22.0907 4.12014 21.6586 3.99611 21.1945C3.9721 21.1064 3.86807 20.9224 3.76404 20.7863C2.23159 18.7657 1.38735 16.4611 1.28331 14.0284L1.25531 13.4042L1.43536 13.4402C3.75604 13.8923 6.50484 14.2164 9.29766 14.3765C10.7941 14.4605 14.3631 14.4925 15.7795 14.4365C17.7321 14.3565 19.8767 14.2044 20.881 14.0724C21.3692 14.0084 21.3212 13.9563 21.3212 14.5805C21.3212 14.8806 21.2932 15.3768 21.2571 15.6808C21.2211 15.9889 21.2051 16.301 21.2171 16.377C21.2691 16.6411 21.5572 16.8732 21.8413 16.8732C22.0094 16.8732 22.2574 16.7412 22.3575 16.5971C22.4855 16.4171 22.5655 15.7809 22.5975 14.7526L22.6215 13.8523L22.8816 13.8203C23.2137 13.7803 24.6981 13.5322 25.0583 13.4562L25.3303 13.4002L25.3063 13.8483C25.2903 14.0924 25.2583 14.4885 25.2303 14.7326C25.1623 15.3768 25.1663 15.5648 25.2663 15.6969C25.5584 16.089 26.1146 16.089 26.3426 15.6969C26.5427 15.3487 26.6387 13.5522 26.5267 12.2919C26.1066 7.6545 23.3578 3.61732 19.1965 1.52872C17.9522 0.900532 16.5598 0.472406 15.0993 0.264347C14.3671 0.156315 12.6946 0.128307 11.9384 0.20833ZM14.9793 1.54072C17.236 1.89282 19.0885 2.70506 20.841 4.10147C21.2291 4.41356 22.3055 5.45786 22.2734 5.48987C22.2454 5.51788 21.1731 5.65792 20.3209 5.74594L19.5807 5.82197L19.4046 5.63791C19.3046 5.53388 19.0805 5.29782 18.9045 5.10976C18.3843 4.5536 17.6001 3.8654 17.1119 3.5373C16.8959 3.39326 16.5958 3.38526 16.3957 3.5213C16.1997 3.64933 16.0636 3.94142 16.0996 4.14948C16.1357 4.36554 16.2397 4.47758 16.7958 4.92571C17.0519 5.12977 17.412 5.44186 17.6001 5.61791L17.9402 5.938L17.6001 5.96201C15.2674 6.14606 11.2622 6.13006 8.39739 5.926C6.82893 5.81797 4.35221 5.55789 4.28819 5.49787C4.26419 5.46987 4.83635 4.87769 5.23647 4.51759C6.99298 2.92512 9.28965 1.85681 11.6383 1.53272C12.3065 1.44069 12.3625 1.43669 13.4589 1.44869C14.2271 1.45669 14.5792 1.4767 14.9793 1.54072ZM4.33621 6.80626C6.75691 7.12235 8.74149 7.27439 11.4183 7.35441C13.5589 7.41843 16.6038 7.34641 18.5203 7.19437C18.7524 7.17436 18.9525 7.16636 18.9725 7.17836C18.9885 7.18637 19.1645 7.43844 19.3606 7.73853C20.0528 8.78283 20.653 10.1272 20.9571 11.3316C21.0331 11.6397 21.2451 12.724 21.2291 12.736C21.2251 12.74 20.9771 12.772 20.681 12.808C17.216 13.2121 12.5626 13.3082 8.63746 13.0521C7.03299 12.944 5.75662 12.816 4.27619 12.6119C3.41594 12.4919 1.5674 12.1838 1.39135 12.1278C1.33533 12.1118 1.33133 12.0718 1.37934 11.7197C1.5914 10.1712 2.2636 8.35471 3.11585 7.03432C3.33992 6.69022 3.36392 6.66621 3.46795 6.68622C3.52797 6.69822 3.92008 6.75424 4.33621 6.80626ZM23.2937 6.79825C23.8979 7.61449 24.6181 9.23897 24.9422 10.5153C25.0503 10.9435 25.2543 12.0758 25.2263 12.1038C25.1943 12.1318 24.9142 12.1838 23.8419 12.3679C22.4335 12.6039 22.5055 12.5999 22.4895 12.4519C22.4615 12.1718 22.2254 11.0955 22.0934 10.6314C21.8013 9.61107 21.2611 8.36271 20.729 7.48245C20.593 7.25839 20.4809 7.05433 20.4809 7.03032C20.4809 7.01031 20.5489 6.99031 20.637 6.99031C20.793 6.99031 22.5255 6.77825 22.9016 6.71423C23.0137 6.69422 23.1217 6.67822 23.1497 6.67422C23.1777 6.67422 23.2417 6.73023 23.2937 6.79825Z" fill="#69B9CF"/>
<path d="M6.9169 17.2293C6.5648 17.3414 6.37274 17.4614 6.10067 17.7255C5.81258 18.0095 5.58852 18.4257 5.5205 18.8098C5.49249 18.9538 5.47648 19.682 5.47648 20.6543V22.2628L5.1884 22.2868C4.20811 22.3708 3.37587 23.111 3.19182 24.0673C3.09179 24.5955 3.21982 25.2517 3.51191 25.7118C3.87602 26.276 4.65224 26.7121 5.30443 26.7161H5.47248L5.48449 28.4446C5.50049 30.0971 5.50449 30.1891 5.58852 30.4412C5.75256 30.9413 6.07266 31.3334 6.51679 31.5855C6.83688 31.7656 7.12096 31.8376 7.52108 31.8376C7.96121 31.8376 8.2893 31.7416 8.64141 31.5015L8.90949 31.3254L9.12555 31.4775C9.46965 31.7216 9.71772 31.8056 10.1819 31.8296C10.646 31.8496 10.9181 31.7896 11.2782 31.5855C11.7103 31.3414 12.0304 30.9653 12.2064 30.4932C12.2945 30.2651 12.2945 30.2011 12.3105 28.4846L12.3225 26.7161H17.58H22.8336L22.8496 28.4446C22.8656 30.0891 22.8696 30.1891 22.9536 30.4372C23.1136 30.9213 23.4217 31.3094 23.8378 31.5575C24.1939 31.7656 24.466 31.8376 24.8862 31.8376C25.3303 31.8376 25.6704 31.7336 26.0265 31.4935C26.2946 31.3174 26.2946 31.3174 26.3786 31.3935C26.5066 31.5055 26.7587 31.6535 26.9828 31.7416C27.1428 31.8016 27.2829 31.8176 27.683 31.8176C28.1791 31.8176 28.1871 31.8176 28.4912 31.6695C29.0074 31.4135 29.3755 31.0173 29.5715 30.4932C29.6595 30.2651 29.6595 30.2011 29.6755 28.4886L29.6876 26.7161H29.8556C30.3077 26.7121 30.9479 26.46 31.268 26.1639C31.8082 25.6638 32.0322 25.1076 31.9962 24.3674C31.9642 23.7472 31.7642 23.3151 31.316 22.879C30.9519 22.5229 30.3517 22.2788 29.8556 22.2748H29.6876L29.6755 20.5023C29.6595 18.7898 29.6595 18.7258 29.5715 18.4977C29.3755 17.9735 28.9953 17.5614 28.4912 17.3213C28.1871 17.1773 28.1751 17.1733 27.683 17.1733C27.2588 17.1733 27.1468 17.1853 26.9508 17.2613C26.7027 17.3614 26.5706 17.4374 26.3906 17.5814L26.2746 17.6735L26.1545 17.5734C25.6024 17.1053 24.6301 17.0173 23.9419 17.3614C23.5258 17.5734 23.1376 18.0296 22.9576 18.5257C22.8696 18.7658 22.8656 18.8258 22.8496 20.5223L22.8336 22.2748H17.576H12.3185V20.6223C12.3185 19.3019 12.3065 18.9218 12.2585 18.7218C12.1104 18.0936 11.7343 17.6214 11.1661 17.3454C10.8581 17.1973 10.79 17.1773 10.4379 17.1613C9.86576 17.1333 9.42964 17.2573 9.05753 17.5534L8.90949 17.6735L8.76144 17.5574C8.57339 17.4094 8.34932 17.2973 8.08124 17.2173C7.78516 17.1293 7.20499 17.1373 6.9169 17.2293ZM28.0231 18.5217C28.1791 18.6057 28.2671 18.7018 28.3432 18.8858C28.3952 19.0138 28.4032 19.67 28.4032 24.5034C28.4032 29.817 28.3992 29.981 28.3232 30.1451C28.2191 30.3812 27.939 30.5572 27.675 30.5572C27.4309 30.5572 27.2028 30.4452 27.0548 30.2491L26.9428 30.1051L26.9307 24.5995C26.9267 21.5706 26.9307 19.0378 26.9428 18.9658C26.9548 18.8978 27.0308 18.7658 27.1148 18.6737C27.3509 18.4097 27.695 18.3536 28.0231 18.5217ZM7.87718 18.5177C8.07324 18.6297 8.22529 18.8738 8.25729 19.1299C8.2693 19.2419 8.2773 21.7386 8.2693 24.6755C8.25729 30.4532 8.2693 30.0851 8.04123 30.3291C7.84517 30.5452 7.50107 30.6172 7.22499 30.5012C7.06895 30.4372 6.84888 30.1971 6.80887 30.0451C6.78887 29.985 6.77686 27.4683 6.77686 24.4554V18.9738L6.87689 18.8018C7.07295 18.4577 7.53308 18.3256 7.87718 18.5177ZM10.638 18.5137C10.798 18.5937 10.9101 18.7298 10.9901 18.9338C11.0261 19.0258 11.0381 20.3782 11.0301 24.5595L11.0181 30.0651L10.9021 30.2291C10.766 30.4252 10.518 30.5572 10.2819 30.5572C9.96979 30.5572 9.62569 30.3011 9.57768 30.0251C9.56568 29.953 9.56168 27.4203 9.56568 24.3874L9.57768 18.8818L9.70172 18.7258C9.76974 18.6417 9.88577 18.5417 9.96179 18.5057C10.1458 18.4097 10.4419 18.4137 10.638 18.5137ZM25.2423 18.5137C25.3423 18.5657 25.4383 18.6617 25.5103 18.7818L25.6224 18.9738L25.6344 24.4074C25.6424 28.1405 25.6304 29.893 25.6024 30.001C25.5503 30.1931 25.3463 30.4292 25.1742 30.5012C24.7461 30.6812 24.266 30.4212 24.1659 29.957C24.1139 29.713 24.1059 19.3139 24.1579 19.0459C24.202 18.8258 24.342 18.6217 24.522 18.5177C24.7101 18.4097 25.0342 18.4057 25.2423 18.5137ZM5.47648 24.4994V25.4477L5.27642 25.4277C4.71626 25.3717 4.30014 24.7515 4.47219 24.2234C4.59222 23.8633 4.98434 23.5552 5.32444 23.5552H5.47648V24.4994ZM22.8416 24.4954V25.4357H17.58H12.3185V24.4954V23.5552H17.58H22.8416V24.4954ZM30.1837 23.6512C30.5638 23.8272 30.7399 24.1313 30.7159 24.5635C30.7038 24.7835 30.6798 24.8635 30.5798 25.0036C30.4238 25.2277 30.1357 25.4037 29.8836 25.4277L29.6835 25.4477V24.4994V23.5552H29.8356C29.9156 23.5552 30.0757 23.5992 30.1837 23.6512Z" fill="#69B9CF"/>
</svg>
