<svg width="16" height="32" viewBox="0 0 16 32" fill="none" xmlns="http://www.w3.org/2000/svg">
<path d="M7.24446 0.0222015C6.36961 0.105694 5.61092 0.276308 5.2225 0.468702C3.82129 1.17657 2.57617 3.40545 1.75214 6.68341C1.6396 7.12266 1.5307 7.58368 1.50529 7.71073C1.46536 7.91764 1.44721 7.95032 1.3129 8.0447C0.909956 8.32059 0.485235 8.91229 0.27832 9.48221C0.0423646 10.1284 0.0532549 9.74358 0.0641451 16.7388L0.0750354 23.0914L0.154897 23.3709C0.336402 24.0026 0.605028 24.5035 0.964407 24.8774C1.16406 25.0807 1.47988 25.3094 1.68316 25.3929C1.76303 25.4256 1.79933 25.4691 1.81385 25.5562C1.85378 25.7632 2.22768 26.972 2.39829 27.4512C3.14246 29.5022 4.14073 30.9542 5.17531 31.4914C6.19536 32.0251 8.73643 32.163 10.6059 31.7891C11.0343 31.702 11.2521 31.6258 11.5715 31.4479C12.8784 30.711 14.1162 28.4603 14.9039 25.3784C15.4013 23.4363 15.7026 21.4252 15.8913 18.8079C15.9567 17.9222 15.9567 13.9908 15.8913 13.145C15.728 10.9379 15.5065 9.3116 15.1617 7.69984C14.3957 4.14961 13.1615 1.61944 11.7204 0.642946C11.3174 0.370689 10.7475 0.192816 9.89442 0.0766525C9.3971 0.00768089 7.7563 -0.0249901 7.24446 0.0222015ZM9.16115 0.588495L9.27005 0.610275L9.00142 0.828081C7.94507 1.67752 6.93953 3.57243 6.26797 5.98281C5.99934 6.94841 5.75612 8.01929 5.75612 8.23346C5.75612 8.32421 5.81784 8.40045 6.09372 8.67633C6.36961 8.94496 6.46036 9.06112 6.58378 9.30797C6.76166 9.66735 6.8633 9.99043 6.91412 10.3788C6.94316 10.5712 6.95405 12.6295 6.95405 16.6407C6.95405 23.2076 6.96131 22.9934 6.73625 23.5778C6.59104 23.9481 6.41317 24.2422 6.16995 24.4963C6.05379 24.6197 5.97393 24.7322 5.97393 24.783C5.97393 24.9754 6.3442 26.3258 6.60919 27.1027C7.30254 29.1283 8.18828 30.5912 9.13937 31.2773L9.27731 31.3753L9.13937 31.4007C8.73643 31.466 7.54213 31.4043 6.68543 31.2773C6.42769 31.2373 6.16632 31.2047 6.10461 31.2047C5.94126 31.201 5.54921 31.0595 5.30236 30.9143C4.73607 30.5767 4.05361 29.6982 3.54177 28.6454C3.0989 27.7343 2.85205 27.0736 2.48904 25.7995C2.28213 25.088 2.20953 24.9246 2.09699 24.9246C1.98083 24.9246 1.58878 24.6778 1.40002 24.4854C1.09509 24.1732 0.888175 23.792 0.721191 23.233C0.65948 23.0333 0.65585 22.6413 0.644959 16.7388C0.637699 12.281 0.644959 10.397 0.674 10.2409C0.804683 9.52214 1.15317 8.89414 1.58878 8.57469C2.00261 8.27702 1.96631 8.33874 2.11152 7.68169C2.88472 4.13509 4.12984 1.65574 5.47298 0.984175C5.60729 0.918833 5.80331 0.846231 5.90859 0.828081C6.24982 0.762739 7.21542 0.635687 7.57117 0.606646C8.00315 0.570345 9.01594 0.559454 9.16115 0.588495ZM10.733 0.820822C11.6623 0.995066 12.6315 2.13128 13.4083 3.96085C14.3812 6.25143 15.0237 9.36242 15.3105 13.2176C15.3759 14.0634 15.3722 17.8968 15.3105 18.7535C15.0201 22.6667 14.3776 25.7704 13.3757 28.0973C12.5952 29.916 11.6659 30.9869 10.7148 31.1756C10.1848 31.2809 9.53868 30.9578 8.93971 30.2899L8.69287 30.014L8.86348 29.7454C9.98518 27.9993 10.9326 24.725 11.3428 21.1856C11.5643 19.298 11.6187 18.2452 11.6187 15.9764C11.6187 13.9835 11.5969 13.4317 11.4517 11.8454C11.0924 7.87045 10.1812 4.44002 8.93608 2.36724L8.70013 1.97156L8.80177 1.84088C8.95786 1.64485 9.38258 1.24917 9.57861 1.11486C9.78189 0.976915 9.95614 0.897053 10.203 0.835342C10.4353 0.77726 10.4934 0.77726 10.733 0.820822ZM8.52225 2.82463C9.83997 5.19508 10.6713 8.73078 10.9835 13.3083C11.0488 14.2158 11.0706 16.8549 11.0234 17.8459C10.86 21.3635 10.3663 24.3656 9.54594 26.8123C9.33902 27.4257 8.9506 28.3768 8.75821 28.7362C8.52951 29.1646 8.35527 29.4622 8.33349 29.4622C8.28629 29.4622 7.81801 28.5511 7.58569 28.0102C7.3098 27.3713 6.91775 26.2024 6.7181 25.4437L6.58378 24.9282L6.77255 24.6995C6.99761 24.4237 7.28802 23.8465 7.38603 23.4726C7.42596 23.3237 7.47679 23.0624 7.49857 22.8918C7.52035 22.6921 7.53487 20.5068 7.53487 16.5936C7.53487 10.1647 7.5385 10.2591 7.34973 9.66009C7.19001 9.13372 6.79433 8.47668 6.4894 8.21894C6.42406 8.16449 6.37324 8.08826 6.37324 8.04833C6.37324 7.94669 6.6346 6.83225 6.79433 6.25143C6.97946 5.57987 7.24809 4.78125 7.48405 4.20406C7.77082 3.4962 8.26089 2.52696 8.32986 2.52696C8.34438 2.52696 8.4315 2.66128 8.52225 2.82463Z" fill="#69B9CF"/>
<path d="M2.86297 8.80703C2.4201 8.90141 1.95545 9.16641 1.62511 9.51489C1.33834 9.81256 1.13505 10.1792 1.03704 10.5712C0.964438 10.8435 0.964438 10.996 0.964438 16.6444C0.964438 22.997 0.953548 22.6486 1.18224 23.1241C1.70135 24.2168 2.93195 24.7613 4.07179 24.4019C4.47473 24.2712 4.77603 24.0824 5.08459 23.7557C5.28061 23.5524 5.38952 23.3964 5.49842 23.1749C5.77431 22.6014 5.75979 22.9862 5.74889 16.5028L5.738 10.7128L5.63636 10.4224C5.37137 9.67825 4.83411 9.13736 4.0972 8.876C3.85762 8.78888 3.12797 8.74895 2.86297 8.80703ZM4.0972 9.50763C4.44206 9.66736 4.81959 10.0267 4.96843 10.3317C5.18623 10.7854 5.17534 10.4406 5.17534 16.648C5.17534 21.6358 5.16808 22.3581 5.12089 22.5469C4.93575 23.2439 4.35857 23.7848 3.6507 23.9118C2.78674 24.0643 1.88285 23.5016 1.61785 22.6449C1.54525 22.4162 1.54525 22.2964 1.54525 16.6516C1.54525 11.8999 1.55614 10.8617 1.59607 10.7092C1.7195 10.2409 2.07161 9.79441 2.49271 9.56935C2.83393 9.38784 3.00092 9.35154 3.4329 9.36606C3.78139 9.37332 3.83584 9.38784 4.0972 9.50763Z" fill="#69B9CF"/>
<path d="M2.55056 11.4352C2.18029 11.5368 1.94797 11.849 1.94434 12.2447C1.94434 12.6694 2.14762 13.0361 2.72117 13.6278C3.13137 14.0489 3.28384 14.1614 3.41089 14.1287C3.52705 14.0997 4.03164 13.6205 4.31115 13.2757C4.63786 12.8691 4.75765 12.5968 4.75765 12.2556C4.75765 12.0233 4.74313 11.9579 4.65601 11.8127C4.54348 11.6167 4.31115 11.4606 4.0752 11.4171C3.8828 11.3844 3.58877 11.4352 3.46171 11.5296C3.36733 11.5986 3.36733 11.5986 3.20761 11.5151C3.00795 11.4062 2.772 11.3771 2.55056 11.4352ZM2.89542 11.9942C2.92809 12.0088 3.00432 12.0886 3.06603 12.1721C3.27658 12.4625 3.43267 12.4662 3.63596 12.183C3.70856 12.0814 3.80294 11.9906 3.85013 11.9797C3.9663 11.9507 4.15143 12.056 4.18047 12.1685C4.23492 12.3863 4.0026 12.8001 3.59966 13.1958L3.3637 13.4281L3.24391 13.3229C3.04788 13.1559 2.7357 12.782 2.62679 12.5932C2.46344 12.3137 2.49611 12.0668 2.70665 11.9906C2.77926 11.9652 2.82282 11.9652 2.89542 11.9942Z" fill="#69B9CF"/>
<path d="M2.94282 20.6665C2.00263 21.0041 1.72311 22.1294 2.40193 22.8555C3.02631 23.5234 4.11897 23.36 4.53643 22.536C4.8704 21.879 4.59088 21.0586 3.92657 20.7319C3.65069 20.5975 3.2187 20.5685 2.94282 20.6665ZM3.64343 21.2401C3.98102 21.3853 4.1589 21.7374 4.07904 22.1113C4.05 22.2529 4.0028 22.3291 3.87212 22.4598C3.59623 22.7357 3.2187 22.7647 2.89563 22.5324C2.76494 22.4416 2.59796 22.1222 2.59796 21.9697C2.59796 21.4216 3.15336 21.0368 3.64343 21.2401Z" fill="#69B9CF"/>
<path d="M12.2755 6.32405C12.025 6.40391 11.7056 6.72336 11.6185 6.98835C11.535 7.23883 11.5568 7.60184 11.6693 7.81601C11.9851 8.44039 12.8019 8.58196 13.3319 8.10642C13.5606 7.8995 13.6513 7.6817 13.6513 7.33684C13.6513 7.09363 13.6332 7.01739 13.5533 6.86493C13.3028 6.38939 12.7692 6.16432 12.2755 6.32405ZM12.8091 6.90123C12.987 6.98835 13.0705 7.1263 13.0705 7.33684C13.0705 7.56191 12.9834 7.69259 12.7728 7.77608C12.5659 7.85594 12.3481 7.7906 12.2283 7.61273C11.9561 7.20616 12.3772 6.69069 12.8091 6.90123Z" fill="#69B9CF"/>
<path d="M12.9255 10.5785C12.6641 10.662 12.352 10.9814 12.2757 11.2392C12.116 11.7837 12.3302 12.2919 12.8275 12.5351C13.107 12.673 13.4591 12.673 13.7241 12.5351C14.2142 12.2882 14.4247 11.7764 14.265 11.2392C14.1852 10.9669 13.8693 10.6511 13.5971 10.5712C13.3539 10.4986 13.1578 10.5022 12.9255 10.5785ZM13.47 11.1448C13.6189 11.2101 13.7423 11.3952 13.7423 11.5586C13.7423 11.9398 13.4192 12.1576 13.078 12.0087C12.7186 11.849 12.7041 11.3299 13.0562 11.1557C13.2087 11.0831 13.3103 11.0794 13.47 11.1448Z" fill="#69B9CF"/>
<path d="M13.401 14.8184C13.1433 14.8983 12.8238 15.225 12.7476 15.4864C12.6169 15.922 12.704 16.2669 13.0162 16.5827C13.3175 16.8803 13.6515 16.9675 14.0544 16.8477C14.824 16.619 15.0527 15.6207 14.4682 15.0544C14.196 14.7894 13.7894 14.6987 13.401 14.8184ZM13.96 15.3956C14.2069 15.5227 14.2904 15.8494 14.1415 16.0962C14.0653 16.2197 13.8802 16.3213 13.735 16.3213C13.6006 16.3213 13.4083 16.1979 13.3357 16.0636C13.1142 15.6497 13.5498 15.1815 13.96 15.3956Z" fill="#69B9CF"/>
<path d="M12.9293 19.0656C12.6715 19.1455 12.3521 19.4722 12.2759 19.7336C12.1488 20.1655 12.2323 20.5177 12.5409 20.8262C12.7006 20.9859 12.795 21.0477 12.9438 21.0912C13.3649 21.2146 13.6916 21.1348 14.0002 20.8262C14.1671 20.6592 14.2216 20.5721 14.2724 20.4051C14.5193 19.5521 13.7715 18.8079 12.9293 19.0656ZM13.4919 19.6428C13.7134 19.759 13.8005 20.0349 13.6916 20.2962C13.5464 20.6375 13.0454 20.6483 12.8639 20.3107C12.6389 19.8933 13.0745 19.4286 13.4919 19.6428Z" fill="#69B9CF"/>
<path d="M12.3192 23.3019C12.1231 23.36 11.8618 23.5488 11.7456 23.7158C11.5532 23.9989 11.5097 24.3801 11.6403 24.7213C11.7383 24.9936 12.036 25.2658 12.3155 25.3457C12.802 25.4873 13.3065 25.2658 13.5534 24.7975C13.6333 24.6451 13.6514 24.5688 13.6514 24.3256C13.6514 24.0824 13.6333 24.0062 13.5534 23.8501C13.3211 23.4072 12.7911 23.1713 12.3192 23.3019ZM12.8201 23.9082C13.1686 24.0788 13.1722 24.5325 12.8274 24.7431C12.6858 24.8302 12.5842 24.8338 12.4172 24.7649C12.0651 24.616 12.0578 24.0425 12.4099 23.89C12.5696 23.821 12.6422 23.8247 12.8201 23.9082Z" fill="#69B9CF"/>
</svg>
