<svg width="32" height="30" viewBox="0 0 32 30" fill="none" xmlns="http://www.w3.org/2000/svg">
<path d="M12.7072 0.623188C11.8029 0.901449 10.1101 2.13043 9.6 2.87246C8.95072 3.84638 8.57971 4.58841 8.57971 4.91304C8.57971 5.09855 8.13913 5.46956 7.6058 5.77101C7.07246 6.07246 6.37681 6.67536 6.07536 7.11594C5.7971 7.55652 5.26377 8.08986 4.93913 8.29855C4.15072 8.83188 3.73333 9.5971 3.71014 10.5014C3.71014 11.2435 2.52754 13.1449 2.06377 13.1449C1.64638 13.1449 0 14.3971 0 14.6986C0 15.487 1.83188 14.7681 3.31594 13.4C4.4058 12.4029 4.86957 11.5681 4.86957 10.6174C4.86957 9.8058 5.07826 9.2029 5.35652 9.2029C5.47246 9.2029 5.77391 9.62029 6.02899 10.1072C6.33043 10.7333 6.77101 11.1507 7.42029 11.429L8.34783 11.8464V19.313C8.34783 23.9507 8.44058 27.0348 8.57971 27.429C9.06667 28.658 10.4116 29.6087 11.687 29.6087C13.171 29.6087 14.0754 29.029 15.0029 27.429C15.2116 27.0812 15.2812 25.4116 15.3043 21.887V16.8551H20.1739H25.0667L25.6 16.2754C26.0638 15.7884 26.342 15.6957 27.4319 15.6957C28.4986 15.6957 28.7768 15.6029 28.9855 15.2319C29.171 14.8841 29.4725 14.7681 30.1449 14.7681C30.8406 14.7681 31.142 14.629 31.513 14.1652C32.1391 13.3536 32.1159 12.8899 31.4203 12.1246C31.0261 11.6841 30.6319 11.5217 30.029 11.5217C29.287 11.5217 29.2174 11.4754 29.2174 10.8261C29.2174 10.1768 29.2638 10.1304 30.0986 10.1304C31.0957 10.1304 32 9.3884 32 8.6C32 7.83478 31.0493 7.11594 30.0754 7.11594C29.287 7.11594 29.2174 7.06956 29.2174 6.42029C29.2174 5.77101 29.287 5.72464 30.029 5.72464C31.0261 5.72464 32 4.86667 32 4.03188C32 3.22029 31.0957 2.47826 30.0754 2.47826C29.4725 2.47826 29.171 2.33913 28.9855 2.01449C28.7768 1.64348 28.4986 1.55072 27.4319 1.55072C26.342 1.55072 26.0638 1.45797 25.6 0.971014L25.0667 0.391304L19.2 0.414492C15.9768 0.414492 13.0551 0.507246 12.7072 0.623188ZM19.942 8.62319V15.6957H16.6029C13.4029 15.6957 13.2174 15.6725 12.0348 15.0464C10.9449 14.4899 10.6899 14.2116 10.0406 12.913C9.29855 11.4522 9.27536 11.313 9.27536 8.62319C9.27536 6.35072 9.36812 5.65507 9.73913 4.84348C10.3884 3.4058 11.0377 2.66377 12.1275 2.08406C13.0087 1.62029 13.4493 1.57391 16.5333 1.55072H19.942V8.62319ZM24.9275 8.62319V15.5797L22.9101 15.6493L20.8696 15.7188V8.62319V1.52754L22.9101 1.5971L24.9275 1.66667V8.62319ZM28.2899 8.62319V14.7681H27.1304H25.971V8.62319V2.47826H27.1304H28.2899V8.62319ZM30.5855 3.61449C31.1188 3.96232 30.7015 4.56522 29.913 4.56522C29.3333 4.56522 29.2174 4.47246 29.2174 3.98551C29.2174 3.54493 29.3333 3.4058 29.7507 3.4058C30.029 3.4058 30.4 3.49855 30.5855 3.61449ZM8.30145 9.71304L8.23188 10.942L7.48986 10.2C6.88696 9.64348 6.72464 9.27246 6.72464 8.62319C6.72464 7.95072 6.88696 7.6029 7.48986 7.06956L8.23188 6.35072L8.30145 7.41739C8.34783 8.02029 8.34783 9.04058 8.30145 9.71304ZM30.7246 8.62319C30.7246 8.97101 30.5391 9.11014 29.9826 9.15652C29.287 9.22609 29.2174 9.17971 29.2174 8.62319C29.2174 8.06667 29.287 8.02029 29.9826 8.08986C30.5391 8.13623 30.7246 8.27536 30.7246 8.62319ZM30.771 13.0522C30.9333 13.4928 30.4696 13.8406 29.7507 13.8406C29.3333 13.8406 29.2174 13.7014 29.2174 13.2609C29.2174 12.7739 29.3333 12.6812 29.913 12.6812C30.3536 12.6812 30.6783 12.8203 30.771 13.0522ZM11.2464 15.8812C11.8493 16.2754 12.7304 16.6464 13.2406 16.7391L14.1681 16.9014L14.0986 22.1188L14.029 27.3362L13.3333 27.8928C12.2899 28.7275 10.9449 28.658 10.0638 27.7304L9.3913 27.0348L9.32174 20.4957L9.25217 13.9797L9.73913 14.5826C9.9942 14.9072 10.6667 15.5101 11.2464 15.8812Z" fill="#69B9CF"/>
<path d="M11.5246 6.35073C11.4319 6.42029 11.3623 7.51015 11.3623 8.73913C11.3623 10.571 11.4551 11.1275 11.8956 11.9855C12.5449 13.2841 13.2869 13.6551 15.5362 13.7942C16.9275 13.8638 17.3449 13.8174 17.6 13.5391C18.1333 12.8899 17.6464 12.6812 15.629 12.6812C13.8435 12.6812 13.6116 12.6348 13.1014 12.1015C12.5681 11.5913 12.5217 11.3826 12.5217 9.22609C12.5217 7.95073 12.4522 6.76812 12.3826 6.55942C12.2435 6.18841 11.7797 6.07246 11.5246 6.35073Z" fill="#69B9CF"/>
<path d="M11.1999 20.3333C10.9216 20.4493 10.597 20.7507 10.4578 21.0058C10.1332 21.6087 10.1332 25.3188 10.4578 25.9217C10.9912 26.9652 12.6839 26.8493 13.1941 25.7594C13.797 24.3913 13.31 20.3333 12.5448 20.3333C12.4288 20.3333 12.197 20.287 12.0115 20.2406C11.8491 20.171 11.4781 20.2174 11.1999 20.3333ZM12.1738 23.4638C12.1738 25.2725 12.1274 25.5507 11.7796 25.6203C11.4086 25.6899 11.3622 25.458 11.3622 23.4638C11.3622 21.4696 11.4086 21.2377 11.7796 21.3072C12.1274 21.3768 12.1738 21.6551 12.1738 23.4638Z" fill="#69B9CF"/>
</svg>
