<svg width="32" height="32" viewBox="0 0 32 32" fill="none" xmlns="http://www.w3.org/2000/svg">
<path d="M5.2992 0.0280933C5.30857 0.0437164 5.2617 0.106213 5.19296 0.168707L5.06796 0.281199V1.203V2.12481H3.74306C2.89 2.12481 2.40879 2.13731 2.39629 2.15606C2.38691 2.17168 2.34317 2.18731 2.30255 2.18731C2.26192 2.18731 2.21818 2.19981 2.2088 2.21856C2.19943 2.23418 2.15568 2.2498 2.11506 2.2498C2.07444 2.2498 2.03069 2.26543 2.01819 2.28417C2.00882 2.30292 1.96507 2.3123 1.92757 2.30605C1.87133 2.29355 1.85883 2.30292 1.87445 2.3373C1.88695 2.37479 1.87445 2.38104 1.82446 2.36854C1.78696 2.35604 1.74634 2.36542 1.73384 2.38104C1.72446 2.40292 1.73071 2.40604 1.74946 2.39354C1.77133 2.38104 1.78696 2.37792 1.78696 2.39042C1.78696 2.40917 1.64009 2.47478 1.58385 2.48416C1.56822 2.48416 1.55573 2.50291 1.55885 2.52166C1.56198 2.54041 1.46823 2.64977 1.34949 2.76539C1.22763 2.88101 1.13076 2.98412 1.13076 2.99975C1.13076 3.01225 1.07451 3.13099 1.00577 3.26535C0.937022 3.39972 0.880776 3.53408 0.880776 3.56533C0.880776 3.59658 0.865152 3.63095 0.843279 3.64345C0.821405 3.65907 0.818281 3.6497 0.833904 3.62157C0.849528 3.59658 0.846404 3.5872 0.833904 3.60283C0.818281 3.61533 0.812031 3.71844 0.815156 3.83093C0.818281 3.94343 0.808906 4.05279 0.790158 4.07467C0.76516 4.10279 0.75266 7.94313 0.749536 17.0987C0.740161 27.9104 0.746411 30.0821 0.780783 30.0665C0.815156 30.054 0.821405 30.1009 0.812031 30.2852C0.805782 30.4758 0.812031 30.5164 0.846404 30.5039C0.877651 30.4914 0.887025 30.5133 0.874526 30.5977C0.865152 30.6789 0.874526 30.7039 0.902649 30.6946C0.930772 30.6821 0.943271 30.7071 0.943271 30.7696C0.943271 30.8227 0.968269 30.8758 1.00577 30.9039C1.04014 30.9289 1.06826 30.9727 1.06826 31.0039C1.06826 31.0352 1.08389 31.0602 1.10263 31.0602C1.12451 31.0602 1.13076 31.0914 1.11826 31.1414C1.10576 31.1914 1.10888 31.2133 1.12763 31.2008C1.16825 31.1758 1.5776 31.582 1.5526 31.6226C1.5401 31.6414 1.55573 31.6445 1.58697 31.632C1.62447 31.6195 1.63384 31.6226 1.61822 31.6476C1.6026 31.6726 1.62135 31.6851 1.67447 31.6851C1.71821 31.6851 1.75571 31.6976 1.75571 31.7164C1.75571 31.732 1.78383 31.7476 1.81821 31.7476C1.85258 31.7476 1.8807 31.7601 1.8807 31.7789C1.8807 31.7945 1.90882 31.8101 1.9432 31.8101C1.97757 31.8101 2.00569 31.8226 2.00569 31.8413C2.00569 31.857 2.03382 31.8726 2.06819 31.8726C2.10256 31.8726 2.12756 31.8882 2.12443 31.9101C2.11818 31.9351 2.14943 31.9445 2.21818 31.9382C2.27442 31.9351 2.31817 31.9445 2.31817 31.9632C2.31817 32.0101 15.2422 32.0132 15.2703 31.9663C15.2797 31.9507 15.3235 31.9351 15.3641 31.9351C15.4047 31.9351 15.4484 31.9195 15.4578 31.9038C15.4672 31.8851 15.5047 31.8726 15.5359 31.8726C15.5703 31.8726 15.6453 31.8445 15.7078 31.8101C15.7672 31.7757 15.839 31.757 15.864 31.7664C15.8922 31.7789 15.9109 31.7695 15.9109 31.7414C15.9109 31.6726 16.0578 31.5507 16.114 31.5726C16.1421 31.582 16.1578 31.5789 16.1484 31.5664C16.1296 31.532 16.3609 31.3008 16.3859 31.3289C16.3984 31.3383 16.3984 31.3226 16.3921 31.2883C16.3827 31.2508 16.4109 31.1976 16.4702 31.1414C16.5234 31.0883 16.5671 31.0289 16.5671 31.007C16.5671 30.9852 16.589 30.9664 16.614 30.9664C16.6421 30.9664 16.6577 30.9414 16.6515 30.8977C16.6484 30.857 16.6609 30.8289 16.6765 30.832C16.6952 30.8352 16.7077 30.7914 16.7077 30.7383C16.7077 30.6821 16.7233 30.6414 16.7421 30.6446C16.764 30.6477 16.7702 30.6196 16.7608 30.5696C16.7515 30.5258 16.7608 30.4821 16.7827 30.4696C16.8077 30.454 16.8202 28.2791 16.8265 21.9483L16.8327 13.4521L16.9515 13.4427C17.0171 13.4365 17.0671 13.4458 17.0671 13.4646C17.0671 13.4833 17.1108 13.499 17.1639 13.499C17.2296 13.499 17.2577 13.5115 17.2452 13.5396C17.2358 13.5677 17.2608 13.5771 17.3358 13.5677C17.4014 13.5583 17.442 13.5677 17.442 13.5896C17.442 13.6083 17.4702 13.624 17.5045 13.624C17.5389 13.624 17.567 13.6365 17.567 13.6552C17.567 13.6708 17.5952 13.6865 17.6295 13.6865C17.6639 13.6865 17.692 13.6989 17.692 13.7177C17.692 13.7333 17.717 13.7489 17.7483 13.7489C17.7795 13.7489 17.8233 13.7771 17.8483 13.8114C17.8733 13.8458 17.917 13.8739 17.9483 13.8739C17.9795 13.8739 18.0014 13.8927 17.9951 13.9114C17.992 13.9333 18.0139 13.9489 18.042 13.9427C18.1076 13.9333 18.3295 14.1427 18.3014 14.1864C18.292 14.2052 18.3045 14.2083 18.3295 14.1989C18.3576 14.1895 18.3795 14.1958 18.3795 14.2145C18.3795 14.2333 18.4013 14.2489 18.4295 14.2489C18.4982 14.2489 18.5732 14.3302 18.5607 14.3958C18.5545 14.4301 18.567 14.4489 18.5951 14.4426C18.6232 14.4364 18.6295 14.452 18.617 14.4833C18.6076 14.5114 18.6107 14.5239 18.6295 14.5145C18.6795 14.4833 18.8888 14.7145 18.8701 14.7801C18.8607 14.8207 18.8669 14.8332 18.9013 14.8207C18.9357 14.8082 18.9451 14.8207 18.9357 14.877C18.9294 14.9239 18.9419 14.9489 18.9669 14.9457C18.9857 14.9395 19.0044 14.9614 19.0044 14.9926C19.0044 15.0239 19.0325 15.0676 19.0669 15.0926C19.1013 15.1176 19.1294 15.1613 19.1294 15.1926C19.1294 15.2238 19.145 15.2488 19.1607 15.2488C19.1794 15.2488 19.1919 15.2895 19.1919 15.3426C19.1919 15.3926 19.2075 15.4363 19.2232 15.4363C19.2419 15.4363 19.2544 15.4644 19.2544 15.4988C19.2544 15.5332 19.27 15.5613 19.2888 15.5613C19.3107 15.5613 19.32 15.6082 19.3107 15.6863C19.3044 15.7769 19.3107 15.8113 19.3419 15.8113C19.3731 15.8113 19.3825 15.8519 19.3731 15.98C19.3669 16.105 19.3731 16.1425 19.4013 16.1331C19.4325 16.1206 19.4419 17.3924 19.4419 22.4327C19.4419 26.9917 19.4513 28.7478 19.4763 28.7478C19.4981 28.7478 19.5075 28.8041 19.4981 28.9041C19.4919 29.0134 19.5013 29.0603 19.5294 29.0603C19.5513 29.0603 19.5669 29.1009 19.5669 29.154C19.5669 29.204 19.5825 29.2478 19.5981 29.2478C19.6169 29.2478 19.6294 29.2884 19.6294 29.3415C19.6294 29.3915 19.645 29.4353 19.6606 29.4353C19.6794 29.4353 19.6919 29.4634 19.6919 29.4978C19.6919 29.5321 19.7075 29.5603 19.7231 29.5603C19.7419 29.5603 19.7544 29.5884 19.7544 29.6228C19.7544 29.6571 19.77 29.6853 19.7856 29.6853C19.8044 29.6853 19.8169 29.7134 19.8169 29.7478C19.8169 29.7821 19.8325 29.8102 19.8512 29.8102C19.8731 29.8102 19.8794 29.8415 19.8731 29.8852C19.8606 29.9415 19.87 29.9571 19.9044 29.9415C19.9419 29.929 19.9481 29.9446 19.9356 30.0071C19.9262 30.054 19.9325 30.0821 19.945 30.0727C19.9887 30.0477 20.1325 30.2102 20.1231 30.2696C20.1168 30.304 20.1293 30.3227 20.1575 30.3165C20.1856 30.3102 20.1918 30.3258 20.1793 30.3571C20.17 30.3852 20.1731 30.3977 20.1918 30.3883C20.2325 30.3633 20.5762 30.7071 20.5512 30.7477C20.5418 30.7664 20.5512 30.7696 20.5824 30.7602C20.6137 30.7477 20.6293 30.7539 20.6231 30.7821C20.6168 30.8102 20.6356 30.8227 20.6699 30.8164C20.7293 30.8071 20.8918 30.9508 20.8668 30.9945C20.8574 31.007 20.8855 31.0133 20.9324 31.0039C20.9949 30.9914 21.0105 30.9977 20.998 31.0352C20.9824 31.0695 20.998 31.0789 21.0543 31.0664C21.098 31.0602 21.1293 31.0664 21.1293 31.0883C21.1293 31.107 21.1574 31.1227 21.1918 31.1227C21.2261 31.1227 21.2543 31.1352 21.2543 31.1539C21.2543 31.1695 21.2824 31.1851 21.3168 31.1851C21.3511 31.1851 21.3792 31.1976 21.3792 31.2164C21.3792 31.232 21.4074 31.2476 21.4449 31.2476C21.4855 31.2476 21.5042 31.2633 21.4949 31.2883C21.4855 31.3164 21.5105 31.3258 21.5855 31.3164C21.6511 31.307 21.6917 31.3164 21.6917 31.3383C21.6917 31.357 21.7355 31.3726 21.7855 31.3726C21.8386 31.3726 21.8792 31.3883 21.8792 31.4101C21.8792 31.4414 21.9323 31.4476 22.0698 31.4414C22.2229 31.432 22.2604 31.4383 22.2479 31.4726C22.2323 31.5039 22.3042 31.5101 22.626 31.5039C22.8416 31.5007 23.051 31.482 23.0854 31.4633C23.1229 31.4445 23.2229 31.4351 23.3104 31.4383C23.4041 31.4476 23.4666 31.4383 23.4635 31.4195C23.4603 31.4008 23.5103 31.3883 23.576 31.3851C23.6416 31.3851 23.7072 31.3695 23.7166 31.3539C23.7572 31.2976 23.9072 31.2383 23.9697 31.257C24.0072 31.2664 24.0291 31.257 24.0259 31.2351C24.0228 31.2164 24.0447 31.2008 24.0728 31.2008C24.104 31.2008 24.1447 31.1758 24.1665 31.1445C24.2165 31.0789 24.5009 30.9289 24.5384 30.9539C24.554 30.9633 24.5759 30.9477 24.5853 30.9227C24.5946 30.8945 24.6196 30.882 24.6384 30.8945C24.654 30.9039 24.6603 30.9008 24.6509 30.882C24.6259 30.8414 24.8634 30.6102 24.9071 30.6352C24.9259 30.6477 24.9509 30.6352 24.9602 30.6102C24.9696 30.5821 24.9915 30.5696 25.0071 30.5789C25.0227 30.5883 25.0259 30.5727 25.0165 30.5446C24.9946 30.4883 25.2352 30.2165 25.3102 30.2165C25.3383 30.2165 25.3446 30.1946 25.3321 30.1571C25.3196 30.1165 25.3352 30.0821 25.3852 30.0477C25.4258 30.0196 25.4571 29.9727 25.4571 29.9415C25.4571 29.9134 25.4727 29.8915 25.4946 29.8946C25.5164 29.9009 25.5258 29.8852 25.5164 29.8634C25.5071 29.8384 25.5446 29.7415 25.5977 29.6415C25.6477 29.5415 25.6914 29.4353 25.6914 29.404C25.6914 29.3697 25.7071 29.3353 25.7227 29.3259C25.7383 29.3165 25.7539 29.2728 25.7539 29.2322C25.7539 29.1915 25.7695 29.1478 25.7852 29.1384C25.8039 29.1291 25.8164 29.0728 25.8164 29.0134C25.8164 28.9572 25.832 28.9041 25.8477 28.8978C25.8695 28.8916 25.882 26.9042 25.8883 22.9514L25.8945 17.0143L25.9633 17.0175C26.0008 17.0175 26.0289 17.005 26.0258 16.9862C26.0227 16.9675 26.0445 16.9518 26.0726 16.9518C26.1039 16.9518 26.1508 16.9206 26.1758 16.88C26.2039 16.8425 26.2445 16.8112 26.2633 16.8112C26.3414 16.8112 26.6664 16.4425 26.7695 16.2331C26.8288 16.1144 26.8788 15.9957 26.8788 15.9675C26.8788 15.9394 26.8913 15.905 26.9101 15.8863C26.9257 15.8707 26.9445 15.6519 26.9476 15.4051L26.957 14.952L27.7225 14.9426C28.1694 14.9395 28.4975 14.9239 28.5162 14.9051C28.535 14.8864 28.5787 14.8739 28.6162 14.8739C28.6568 14.8739 28.6975 14.8582 28.7068 14.8426C28.7162 14.8239 28.7537 14.8114 28.7849 14.8114C28.8193 14.8114 28.8974 14.7832 28.9599 14.7457C29.0224 14.7114 29.0943 14.6895 29.1162 14.6989C29.1412 14.7083 29.1568 14.6989 29.1505 14.677C29.1474 14.6551 29.1662 14.6395 29.1912 14.6364C29.2162 14.6364 29.363 14.5083 29.5161 14.3489C29.6693 14.1927 29.8099 14.0708 29.8255 14.0833C29.8442 14.0958 29.8474 14.0864 29.8317 14.0645C29.8099 14.0239 29.988 13.6302 30.0505 13.5865C30.0661 13.574 30.0755 13.5146 30.0724 13.4583C30.0661 13.399 30.0755 13.3396 30.0942 13.3271C30.113 13.3177 30.1286 13.2209 30.1286 13.1115C30.1286 13.0053 30.1411 12.9053 30.1598 12.8865C30.1786 12.8678 30.1942 12.0803 30.1973 10.7179L30.2067 8.57746L30.5473 8.57121C30.7785 8.56808 30.8942 8.55558 30.9098 8.53058C30.9254 8.50871 30.9567 8.49934 30.9879 8.50871C31.016 8.52121 31.0317 8.51809 31.0223 8.50246C31.0129 8.48684 31.0254 8.45872 31.0504 8.43684C31.1098 8.38684 31.191 8.22436 31.191 8.15249C31.191 8.12124 31.2066 8.08687 31.2223 8.07749C31.266 8.04937 31.266 5.81204 31.2191 5.81204C31.2004 5.81204 31.191 5.76204 31.1941 5.68705C31.2004 5.6183 31.191 5.55893 31.1754 5.55581C31.1223 5.54331 31.0004 5.40582 31.016 5.3777C31.0254 5.36519 30.9973 5.35895 30.9504 5.36832C30.8879 5.38082 30.8723 5.37144 30.8848 5.3402C30.9004 5.3027 30.8004 5.29645 30.2661 5.30582L29.6286 5.3152L29.6349 3.2716C29.6411 1.64672 29.6349 1.23113 29.6068 1.2405C29.5786 1.253 29.5661 1.22488 29.5661 1.15926C29.5661 1.10614 29.5505 1.06239 29.5318 1.06239C29.5099 1.06239 29.5005 1.02177 29.5099 0.956148C29.5193 0.874905 29.5099 0.856155 29.4786 0.868656C29.4505 0.878029 29.438 0.862406 29.4474 0.818659C29.4505 0.781162 29.4443 0.753038 29.4318 0.753038C29.3818 0.753038 29.3099 0.653046 29.3287 0.609299C29.338 0.581177 29.3255 0.562428 29.2974 0.562428C29.263 0.562428 29.2537 0.54368 29.2662 0.512432C29.2755 0.487434 29.2724 0.474934 29.2537 0.484308C29.213 0.509308 29.1193 0.415564 29.1443 0.374943C29.1537 0.356194 29.1412 0.353069 29.1162 0.362442C29.0849 0.374943 29.0662 0.365568 29.0662 0.331196C29.0662 0.299948 29.0474 0.290573 29.0193 0.299948C28.9912 0.312447 28.9474 0.290573 28.9131 0.253077C28.8818 0.218704 28.8318 0.187456 28.8037 0.187456C28.7756 0.187456 28.7537 0.171833 28.7537 0.156208C28.7537 0.137459 28.7256 0.12496 28.6912 0.12496C28.6568 0.12496 28.6287 0.109337 28.6287 0.0937138C28.6287 0.0749645 28.5881 0.0624657 28.535 0.0624657C28.485 0.0624657 28.4412 0.0468407 28.4412 0.0312176C28.4412 0.0124683 28.2756 -3.05176e-05 28.0038 -3.05176e-05C27.7319 -3.05176e-05 27.5663 0.0124683 27.5663 0.0312176C27.5663 0.0468407 27.5413 0.0624657 27.51 0.0624657C27.4413 0.0624657 27.1819 0.19058 27.1007 0.265575C27.0663 0.293697 27.0163 0.312447 26.9851 0.306196C26.9538 0.299948 26.9257 0.315571 26.9257 0.337444C26.9257 0.359318 26.8726 0.424938 26.8101 0.484308C26.7445 0.540554 26.6914 0.609299 26.6914 0.631172C26.6914 0.656172 26.6632 0.703043 26.6289 0.734291C26.5945 0.765537 26.5664 0.809284 26.5664 0.834282C26.5664 0.856155 26.5507 0.87178 26.5289 0.868656C26.5039 0.862406 26.4945 0.893654 26.4976 0.959274C26.5039 1.01239 26.4945 1.06552 26.4757 1.07801C26.457 1.08739 26.4414 1.13114 26.4414 1.17176C26.4414 1.21238 26.4289 1.25613 26.4101 1.2655C26.3914 1.278 26.3789 1.99045 26.3789 3.29972V5.31207H25.3477H24.3165L24.3228 3.36222C24.329 1.81546 24.3228 1.41861 24.2947 1.42799C24.2665 1.44049 24.254 1.39987 24.254 1.28425C24.254 1.19676 24.2415 1.12489 24.2228 1.12489C24.2072 1.12489 24.1915 1.08114 24.1915 1.03114C24.1915 0.978022 24.179 0.937401 24.1603 0.937401C24.1447 0.937401 24.129 0.909277 24.129 0.874905C24.129 0.840532 24.1134 0.81241 24.0947 0.81241C24.0728 0.81241 24.0665 0.781162 24.0728 0.734291C24.0822 0.693668 24.0759 0.665545 24.0634 0.674919C24.0197 0.699919 23.8728 0.534306 23.8916 0.484308C23.9009 0.456186 23.8884 0.437437 23.8634 0.437437C23.8384 0.437437 23.8166 0.421814 23.8166 0.406189C23.8166 0.387442 23.7947 0.374943 23.7697 0.374943C23.7197 0.374943 23.5885 0.262451 23.5697 0.203079C23.5635 0.184332 23.5291 0.178082 23.4947 0.181206C23.451 0.19058 23.4385 0.178082 23.451 0.146833C23.4635 0.115587 23.4478 0.106213 23.3853 0.118711C23.326 0.13121 23.3104 0.121836 23.3229 0.0905876C23.3385 0.053091 23.3166 0.0468407 23.2291 0.0562153C23.1541 0.0655899 23.126 0.0593414 23.1416 0.0343418C23.1572 0.0093441 23.0385 -3.05176e-05 22.7104 -3.05176e-05C22.426 -3.05176e-05 22.2542 0.0124683 22.2542 0.0312176C22.2542 0.0468407 22.1979 0.0624657 22.1323 0.0624657C22.0542 0.0624657 22.0042 0.0780888 21.9948 0.109337C21.9855 0.134335 21.9167 0.181206 21.8417 0.215578C21.648 0.303072 21.3636 0.606174 21.2386 0.859282C21.1793 0.978022 21.1293 1.09989 21.1293 1.12801C21.1293 1.15926 21.1168 1.19363 21.098 1.203C21.0761 1.2155 21.0668 1.93733 21.0668 3.26848V5.3152L20.4231 5.31207C19.8044 5.30895 19.7762 5.30895 19.7325 5.37144C19.7075 5.40894 19.6606 5.43707 19.6263 5.43707C19.595 5.43707 19.5669 5.45894 19.5669 5.48394C19.5669 5.50893 19.5388 5.57768 19.5044 5.64017C19.4481 5.74329 19.4419 5.82141 19.4356 6.9807C19.4294 7.9525 19.4356 8.20561 19.4669 8.19623C19.4856 8.18686 19.5044 8.20248 19.5044 8.23061C19.5044 8.29935 19.7044 8.49934 19.7731 8.49934C19.8012 8.49934 19.8169 8.51809 19.8075 8.53683C19.7981 8.56808 19.8731 8.57433 20.1481 8.56808L20.5043 8.55871V10.8585C20.5043 12.3834 20.5137 13.1521 20.5356 13.1396C20.5543 13.1271 20.5668 13.1802 20.5668 13.2771C20.5668 13.3708 20.5793 13.4365 20.6012 13.4365C20.6199 13.4365 20.6293 13.4802 20.6262 13.5365C20.6168 13.6115 20.6293 13.6365 20.6574 13.6302C20.6856 13.624 20.6949 13.6458 20.6856 13.6989C20.6731 13.7552 20.6824 13.7708 20.7168 13.7552C20.7543 13.7427 20.7605 13.7552 20.748 13.8052C20.7355 13.8521 20.7418 13.8739 20.773 13.8739C20.798 13.8739 20.8168 13.8958 20.8168 13.9208C20.8168 13.9489 20.8762 14.0239 20.9449 14.0927C21.023 14.1677 21.0668 14.2333 21.0574 14.2614C21.048 14.2864 21.0605 14.3145 21.0855 14.3239C21.1136 14.3333 21.123 14.3552 21.1136 14.3739C21.1043 14.3926 21.1168 14.3958 21.1418 14.3864C21.173 14.3739 21.1918 14.3833 21.1918 14.4176C21.1918 14.4458 21.2105 14.4583 21.2386 14.4489C21.2886 14.4301 21.4542 14.577 21.4292 14.6208C21.4199 14.6333 21.448 14.6395 21.4886 14.6301C21.5355 14.6239 21.5667 14.6301 21.5667 14.652C21.5667 14.6708 21.5949 14.6864 21.6292 14.6864C21.6636 14.6864 21.6917 14.6989 21.6917 14.7176C21.6917 14.7332 21.7198 14.7489 21.7542 14.7489C21.7886 14.7489 21.8167 14.7614 21.8167 14.7801C21.8167 14.7957 21.8448 14.8114 21.8792 14.8114C21.9136 14.8114 21.9417 14.8239 21.9417 14.8426C21.9417 14.8582 21.998 14.8739 22.0667 14.8739C22.1354 14.8739 22.1917 14.8864 22.1917 14.9051C22.1917 14.9239 22.4635 14.9364 22.9448 14.9364H23.6947L23.6853 15.2926C23.6791 15.5676 23.6853 15.6426 23.7166 15.6332C23.7416 15.6207 23.7541 15.6613 23.7541 15.7769C23.7541 15.8644 23.7697 15.9363 23.7853 15.9363C23.8041 15.9363 23.8166 15.9769 23.8166 16.03C23.8166 16.08 23.8322 16.1238 23.8478 16.1238C23.8666 16.1238 23.8791 16.1519 23.8791 16.1863C23.8791 16.2206 23.8947 16.2488 23.9134 16.2488C23.9353 16.2488 23.9416 16.28 23.9353 16.3269C23.9259 16.3675 23.9322 16.3956 23.9447 16.3862C23.9884 16.3613 24.1353 16.5269 24.1165 16.5769C24.1072 16.605 24.1197 16.6237 24.1447 16.6237C24.1697 16.6237 24.1884 16.6425 24.1853 16.6612C24.179 16.6831 24.2009 16.6987 24.2322 16.6925C24.2915 16.6831 24.454 16.8268 24.429 16.8706C24.4196 16.8831 24.4478 16.8893 24.4946 16.88C24.5571 16.8675 24.5728 16.8737 24.5603 16.9112C24.5446 16.9456 24.5603 16.955 24.6228 16.9425C24.6853 16.93 24.6978 16.9362 24.6821 16.9768C24.6696 17.0112 24.6759 17.0206 24.7103 17.0081C24.7477 16.9956 24.754 17.7455 24.754 22.8389C24.754 27.4167 24.7446 28.6822 24.7165 28.6791C24.6915 28.6728 24.6821 28.7041 24.6884 28.7697C24.6915 28.8291 24.6821 28.8728 24.6634 28.8728C24.6446 28.8728 24.629 28.9134 24.629 28.9666C24.629 29.0166 24.6165 29.0603 24.5978 29.0603C24.5821 29.0603 24.5665 29.0884 24.5665 29.1197C24.5665 29.154 24.5509 29.1915 24.529 29.204C24.5071 29.2197 24.504 29.2134 24.5196 29.1853C24.5353 29.1603 24.5321 29.1509 24.5103 29.1634C24.4946 29.1759 24.4853 29.2165 24.4978 29.254C24.5103 29.304 24.504 29.3165 24.4665 29.304C24.4321 29.2884 24.4228 29.3009 24.4321 29.354C24.4446 29.4134 24.3197 29.5759 24.2603 29.5759C24.2478 29.5759 24.2447 29.5946 24.2478 29.6196C24.2603 29.6696 24.1353 29.8102 24.0759 29.8102C24.0509 29.8102 23.9916 29.8571 23.9384 29.9165C23.8322 30.0384 23.4353 30.2477 23.3135 30.2477C23.2697 30.2477 23.2197 30.2633 23.201 30.2821C23.1822 30.3008 23.1072 30.3133 23.0385 30.304C22.9541 30.2977 22.9073 30.3071 22.8979 30.3321C22.876 30.3852 22.4385 30.3883 22.4479 30.3352C22.4542 30.3102 22.4042 30.304 22.2886 30.3071C22.1511 30.3133 22.1229 30.3071 22.1386 30.2696C22.1542 30.229 22.1354 30.2258 22.0448 30.2383C21.9636 30.2508 21.9386 30.2477 21.9542 30.2227C21.9698 30.1977 21.9448 30.1852 21.8792 30.1852C21.7917 30.1852 21.6699 30.1102 21.6792 30.0634C21.6792 30.054 21.6542 30.0509 21.6199 30.054C21.5761 30.0634 21.5636 30.0509 21.5761 30.0196C21.5886 29.9852 21.5761 29.979 21.5355 29.9884C21.4699 30.0071 21.3011 29.8602 21.3324 29.8102C21.3418 29.7915 21.3293 29.7884 21.3011 29.7978C21.2699 29.8102 21.2543 29.804 21.2605 29.7759C21.2668 29.7509 21.2511 29.7353 21.2293 29.7415C21.2105 29.7446 21.1949 29.729 21.198 29.7103C21.2043 29.6884 21.1886 29.6728 21.1636 29.679C21.1355 29.6853 21.1293 29.6696 21.1418 29.6384C21.1511 29.6103 21.148 29.5978 21.1293 29.6071C21.0855 29.6353 20.9418 29.479 20.9418 29.404C20.9418 29.3665 20.9293 29.3478 20.9105 29.3572C20.8949 29.3665 20.8793 29.3509 20.8793 29.3197C20.8793 29.2884 20.8512 29.2415 20.8168 29.2165C20.7793 29.1915 20.7543 29.1353 20.7543 29.0853C20.7543 29.0384 20.7387 28.9978 20.7199 28.9978C20.7012 28.9978 20.6918 28.9541 20.6949 28.8978C20.7012 28.8259 20.6918 28.7978 20.6637 28.8041C20.6324 28.8103 20.6262 28.776 20.6324 28.676C20.6418 28.5728 20.6356 28.5416 20.6074 28.551C20.5762 28.5635 20.5668 27.2948 20.5668 22.2639C20.5668 17.7236 20.5574 15.9707 20.5324 15.9863C20.5106 15.9988 20.5012 15.9425 20.5106 15.8019C20.5168 15.6426 20.5106 15.6051 20.4762 15.6176C20.4449 15.6301 20.4387 15.6019 20.4449 15.4926C20.4543 15.3894 20.4481 15.3551 20.4199 15.3645C20.3918 15.3769 20.3793 15.3488 20.3793 15.2832C20.3793 15.2301 20.3637 15.1863 20.345 15.1863C20.3231 15.1863 20.3137 15.1457 20.3231 15.0801C20.3325 14.9989 20.3231 14.9801 20.2918 14.9926C20.2606 15.0051 20.2512 14.9801 20.2575 14.902C20.2637 14.827 20.2575 14.7989 20.2262 14.8051C20.195 14.8114 20.1887 14.7895 20.1981 14.7332C20.2106 14.6708 20.2043 14.6551 20.17 14.6708C20.1325 14.6833 20.1262 14.6676 20.1356 14.6114C20.1481 14.5551 20.1387 14.5395 20.1043 14.5551C20.0668 14.5676 20.0606 14.552 20.0731 14.4895C20.0825 14.4426 20.0762 14.4145 20.0606 14.4239C20.02 14.4489 19.9419 14.3739 19.9419 14.3083C19.9419 14.2739 19.9294 14.2489 19.9106 14.2489C19.895 14.2489 19.8794 14.2114 19.8794 14.1645C19.8794 14.1208 19.87 14.0895 19.8606 14.102C19.8231 14.1395 19.6856 13.9646 19.7012 13.9021C19.7106 13.8708 19.7044 13.8489 19.6887 13.8583C19.6513 13.8833 19.4419 13.6708 19.4419 13.6083C19.4419 13.5833 19.4294 13.5615 19.4106 13.5615C19.395 13.5615 19.3825 13.5427 19.3888 13.5208C19.3919 13.5021 19.3763 13.4865 19.3575 13.4896C19.3357 13.4958 19.32 13.4802 19.3263 13.4583C19.3294 13.4396 19.3138 13.424 19.295 13.4271C19.2732 13.4333 19.2544 13.4208 19.2544 13.4052C19.2544 13.3865 19.2325 13.374 19.2075 13.374C19.1388 13.374 18.9357 13.1615 18.9607 13.1177C18.9732 13.099 18.9701 13.0927 18.9482 13.1052C18.9294 13.1146 18.9076 13.1115 18.8951 13.0927C18.8857 13.0771 18.8544 13.0615 18.8294 13.0615C18.7701 13.0615 18.6826 12.9771 18.7044 12.9428C18.7138 12.9271 18.6888 12.9209 18.6482 12.9271C18.592 12.9396 18.567 12.9271 18.5513 12.8771C18.5388 12.8334 18.5045 12.8115 18.4513 12.8115C18.3982 12.8115 18.3795 12.799 18.3888 12.7709C18.4013 12.7396 18.3826 12.7303 18.3295 12.7428C18.2857 12.749 18.2545 12.7428 18.2545 12.7209C18.2545 12.7021 18.2264 12.6865 18.1889 12.6865C18.1451 12.6865 18.1295 12.6709 18.1389 12.6459C18.1514 12.6147 18.1326 12.6053 18.0732 12.6178C18.0139 12.6303 17.9983 12.6209 18.0107 12.5897C18.0232 12.5522 18.0045 12.5459 17.9233 12.5553C17.8576 12.5647 17.817 12.5553 17.817 12.5334C17.817 12.5147 17.7889 12.499 17.7545 12.499C17.7201 12.499 17.6951 12.4834 17.7014 12.4615C17.7045 12.4365 17.6733 12.4272 17.6077 12.4334C17.5483 12.4365 17.5045 12.4272 17.5045 12.4084C17.5045 12.3897 17.4483 12.374 17.3764 12.374C17.3014 12.374 17.2577 12.3615 17.2702 12.3428C17.2827 12.3241 17.2108 12.3116 17.0827 12.3116C16.9015 12.3116 16.8765 12.3053 16.8921 12.2616C16.9046 12.2241 16.8983 12.2147 16.864 12.2303C16.8233 12.2459 16.8171 11.7772 16.8171 7.99937C16.8171 4.9871 16.8077 3.74969 16.7827 3.74969C16.764 3.74969 16.7546 3.69657 16.7577 3.61533C16.764 3.52158 16.7546 3.48721 16.7265 3.49346C16.6983 3.49971 16.689 3.46846 16.6952 3.39972C16.7015 3.33097 16.6921 3.29972 16.6671 3.30285C16.6452 3.3091 16.6296 3.28723 16.6296 3.25598C16.6296 3.22473 16.6015 3.18098 16.5671 3.15598C16.5327 3.13099 16.5046 3.09036 16.5046 3.06224C16.5046 3.03412 16.4765 2.9935 16.4421 2.9685C16.4077 2.9435 16.3796 2.89975 16.3796 2.86851C16.3796 2.83726 16.364 2.81226 16.3452 2.81226C16.3265 2.81226 16.3203 2.79039 16.3296 2.76226C16.339 2.73727 16.3359 2.72477 16.3171 2.73414C16.2734 2.76226 16.1828 2.6654 16.2109 2.62165C16.2234 2.59978 16.2203 2.59353 16.1984 2.60603C16.1796 2.6154 16.1578 2.61228 16.1453 2.59353C16.1359 2.5779 16.1015 2.56228 16.0734 2.56228C16.0421 2.56228 15.9984 2.53416 15.9734 2.49978C15.9484 2.46541 15.9078 2.43729 15.8797 2.43729C15.8515 2.43729 15.8109 2.40917 15.7859 2.37479C15.7609 2.34042 15.7172 2.3123 15.6859 2.3123C15.6547 2.3123 15.6297 2.29355 15.6297 2.27168C15.6297 2.24355 15.5984 2.23418 15.5297 2.24355C15.4516 2.25605 15.4359 2.2498 15.4516 2.20918C15.4672 2.16856 15.4516 2.16231 15.3578 2.17793C15.2766 2.19043 15.2516 2.18731 15.2672 2.16231C15.2828 2.13419 14.9516 2.12481 13.9298 2.12481H12.5674V1.24988C12.5674 0.687418 12.5549 0.374943 12.5362 0.374943C12.5205 0.374943 12.5049 0.346819 12.5049 0.312447C12.5049 0.278074 12.4893 0.24995 12.4705 0.24995C12.4487 0.24995 12.4424 0.218704 12.4487 0.174957C12.4612 0.121836 12.4518 0.103086 12.4205 0.115587C12.3987 0.12496 12.3799 0.112461 12.3799 0.0843391C12.3799 0.053091 12.358 0.0437164 12.3174 0.053091C12.2831 0.0624657 12.2549 0.053091 12.2549 0.0343418C12.2549 0.0093441 11.3144 -3.05176e-05 8.76769 -3.05176e-05C6.73659 -3.05176e-05 5.28982 0.0124683 5.2992 0.0280933ZM11.4362 1.6311L11.4456 2.12481H8.81769H6.19288V1.64672C6.19288 1.38112 6.20225 1.15613 6.21475 1.14676C6.22413 1.13426 7.40217 1.12801 8.83018 1.13114L11.4269 1.14051L11.4362 1.6311ZM22.9104 1.18738C22.9354 1.22175 22.9823 1.24988 23.0135 1.24988C23.0604 1.24988 23.0697 1.2655 23.0604 1.32487C23.0479 1.38112 23.0572 1.39674 23.0916 1.38112C23.1291 1.36862 23.1354 1.38424 23.1197 1.47799C23.1072 1.56548 23.1104 1.58735 23.1479 1.57173C23.1854 1.55923 23.1916 1.81858 23.1916 3.43409V5.31207H22.6917H22.1917V3.36847V1.42486L22.3386 1.27488C22.4823 1.12801 22.4917 1.12489 22.676 1.12489C22.8291 1.12489 22.8729 1.13738 22.9104 1.18738ZM28.1756 1.15613C28.1662 1.17176 28.185 1.18738 28.2225 1.18738C28.3131 1.18738 28.4506 1.33112 28.4318 1.40611C28.4225 1.44674 28.4318 1.45924 28.46 1.44674C28.4975 1.43424 28.5037 1.73109 28.5037 3.37159V5.31207H28.0038H27.5038V3.41222C27.5038 1.35299 27.4975 1.41549 27.6725 1.253C27.7163 1.20926 27.7725 1.18738 27.7975 1.19676C27.8256 1.20926 27.8444 1.20613 27.8444 1.19363C27.835 1.13426 27.86 1.12489 28.0225 1.12489C28.1287 1.12489 28.1881 1.13738 28.1756 1.15613ZM15.0047 3.28098C15.0047 3.2966 15.0485 3.31222 15.0985 3.31222C15.1516 3.31222 15.1922 3.32472 15.1922 3.34347C15.1922 3.35909 15.2141 3.37472 15.2391 3.37472C15.3016 3.37472 15.5672 3.64032 15.5672 3.70282C15.5672 3.72782 15.5828 3.74969 15.6016 3.74969C15.6203 3.74969 15.6297 3.79344 15.6266 3.84968C15.6203 3.91843 15.6297 3.94968 15.6547 3.94655C15.6828 3.9403 15.6922 6.76197 15.6922 17.0612C15.6922 25.7887 15.6828 30.1852 15.6609 30.1852C15.6453 30.1852 15.6297 30.2196 15.6297 30.2571C15.6297 30.4321 15.4328 30.6664 15.1766 30.7977L15.0266 30.8727H8.79581C4.64925 30.8727 2.57127 30.8633 2.58377 30.8414C2.59627 30.8227 2.5619 30.8102 2.50565 30.8102C2.40254 30.8102 2.30255 30.7383 2.33379 30.6852C2.34317 30.6664 2.33067 30.6633 2.30255 30.6727C2.2713 30.6852 2.25567 30.6789 2.26192 30.6508C2.26817 30.6289 2.24005 30.5946 2.19943 30.5758C2.16193 30.5602 2.13693 30.5258 2.14631 30.5039C2.15568 30.4821 2.14631 30.4727 2.13068 30.4821C2.09006 30.5071 2.00569 30.4227 2.00569 30.3602C2.00569 30.3321 1.99319 30.3102 1.97444 30.3102C1.95882 30.3102 1.9432 30.2383 1.9432 30.154C1.9432 30.0665 1.9307 29.9977 1.91195 29.9977C1.86195 29.9977 1.8682 4.16529 1.9182 4.14966C1.9432 4.14029 1.95257 4.08717 1.94945 4.00905C1.9432 3.93718 1.95882 3.84656 1.98069 3.80594C2.04944 3.68407 2.16818 3.5622 2.20255 3.58408C2.2213 3.59345 2.22443 3.59033 2.21505 3.57158C2.18693 3.52471 2.36817 3.36222 2.42441 3.38409C2.45253 3.39659 2.47128 3.39034 2.46503 3.37472C2.46191 3.35597 2.49316 3.32472 2.5369 3.29972C2.60252 3.26223 3.56183 3.25598 8.81144 3.25285C12.9205 3.24973 15.0047 3.2591 15.0047 3.28098ZM30.1286 6.93695V7.43692H25.3477H20.5668V6.95883C20.5668 6.69322 20.5762 6.46824 20.5887 6.45886C20.5981 6.44637 22.751 6.43699 25.3696 6.43699H30.1286V6.93695ZM29.0662 10.6867C29.0662 12.3803 29.0568 12.8178 29.0256 12.8303C29.0006 12.8396 28.9912 12.8865 28.9974 12.9709C29.0068 13.049 28.9943 13.1115 28.9724 13.1334C28.9412 13.1615 28.9381 13.1615 28.9568 13.1271C28.9724 13.099 28.9693 13.0896 28.9474 13.1021C28.9318 13.1146 28.9224 13.1521 28.9318 13.1865C28.9412 13.2209 28.9318 13.249 28.9131 13.249C28.8943 13.249 28.8787 13.2771 28.8787 13.3084C28.8787 13.3708 28.8287 13.4177 28.7693 13.4208C28.7537 13.4208 28.7412 13.4552 28.7474 13.4927C28.7568 13.5552 28.7474 13.5646 28.685 13.5552C28.6475 13.549 28.6131 13.5583 28.6131 13.5771C28.61 13.6427 28.5568 13.6927 28.5006 13.6771C28.4693 13.6677 28.4318 13.6771 28.4193 13.6927C28.41 13.7146 28.4162 13.7177 28.435 13.7052C28.4568 13.6927 28.4725 13.6896 28.4725 13.6989C28.4725 13.7052 28.4287 13.7364 28.3725 13.7614C28.285 13.8052 27.9444 13.8114 25.3227 13.8114C22.901 13.8114 22.376 13.8052 22.3885 13.7708C22.401 13.7396 22.3792 13.7333 22.3136 13.7427C22.2323 13.7552 22.1292 13.6958 22.1261 13.6333C22.1261 13.6208 22.1042 13.6115 22.0792 13.6177C22.0105 13.6302 21.8073 13.4115 21.8261 13.3427C21.8355 13.299 21.8292 13.2896 21.7917 13.3021C21.7542 13.3177 21.748 13.3052 21.7605 13.2396C21.7698 13.1896 21.7636 13.1615 21.7417 13.1646C21.723 13.1677 21.7073 13.1271 21.7073 13.074C21.7073 13.0084 21.6949 12.9803 21.6699 12.9896C21.6386 13.0021 21.6292 12.5553 21.6292 10.8054C21.6292 9.59301 21.6386 8.59308 21.6511 8.58371C21.6605 8.57121 23.3354 8.56183 25.3696 8.56183H29.0662V10.6867ZM25.8164 15.3051C25.8164 15.6613 25.8133 15.6769 25.7352 15.7519C25.6914 15.7925 25.6508 15.8238 25.6414 15.8175C25.6352 15.8144 25.6289 15.8207 25.6258 15.8332C25.6258 15.8488 25.6102 15.8769 25.5914 15.8957C25.5508 15.9457 25.129 15.9519 25.129 15.905C25.129 15.8863 25.1071 15.8738 25.079 15.8738C25.0071 15.8738 24.9321 15.7863 24.9509 15.7175C24.9602 15.6769 24.954 15.6644 24.9227 15.6769C24.8915 15.6894 24.879 15.6644 24.879 15.5769C24.879 15.5113 24.8665 15.4707 24.8477 15.4832C24.8134 15.5051 24.804 14.9926 24.8384 14.9582C24.8477 14.9457 25.0727 14.9364 25.3383 14.9364H25.8164V15.3051Z" fill="#69B9CF"/>
<path d="M12.0517 7.42756C11.8423 7.44318 11.7736 7.47755 11.5424 7.69941C11.4361 7.80566 11.3361 7.8869 11.3236 7.88377C11.3111 7.88065 11.3049 7.90252 11.3111 7.93065C11.3142 7.96189 11.2517 8.05251 11.1611 8.14001C11.0768 8.22437 11.0049 8.30874 11.0049 8.32749C11.0049 8.36811 10.7924 8.5806 10.7612 8.5681C10.7487 8.56497 10.7393 8.57122 10.7362 8.58372C10.7237 8.69309 10.5237 8.9462 10.4518 8.93995C10.4393 8.93995 10.4299 8.96494 10.4362 8.99307C10.4393 9.02431 10.3768 9.11493 10.2862 9.20243C10.2018 9.28679 10.13 9.37116 10.13 9.38991C10.13 9.43053 9.91747 9.64302 9.88622 9.63052C9.87373 9.62739 9.86435 9.63364 9.86123 9.64614C9.84873 9.77113 9.69249 9.95862 9.63312 9.92112C9.61125 9.90862 9.60812 9.92112 9.61749 9.95237C9.62999 9.98362 9.62374 9.99924 9.59562 9.99299C9.5675 9.98674 9.555 10.0055 9.56125 10.0461C9.5675 10.0867 9.51438 10.1617 9.41126 10.2648C9.32689 10.3492 9.25502 10.4336 9.25502 10.4523C9.25502 10.493 9.04254 10.7054 9.01129 10.6929C8.99879 10.6898 8.98942 10.6961 8.98629 10.7086C8.97379 10.8179 8.77381 11.071 8.70194 11.0648C8.68944 11.0648 8.68006 11.0898 8.68631 11.1179C8.68944 11.1492 8.62694 11.2398 8.53632 11.3273C8.45196 11.4116 8.38009 11.496 8.38009 11.5148C8.38009 11.5554 8.18948 11.746 8.14573 11.7491C8.13011 11.7491 8.11448 11.7585 8.11136 11.771C8.09886 11.8772 7.91137 12.121 7.83013 12.1335C7.8145 12.1366 7.80825 12.1616 7.81138 12.1897C7.8145 12.2178 7.74888 12.3053 7.66139 12.3866C7.57702 12.4678 7.50515 12.5491 7.50515 12.5709C7.50515 12.6178 7.29267 12.8303 7.26142 12.8178C7.24892 12.8147 7.23955 12.8209 7.23642 12.8334C7.22392 12.9584 7.06768 13.1459 7.00831 13.1084C6.98644 13.0959 6.98332 13.1084 6.99269 13.1396C7.00519 13.1709 6.99894 13.1865 6.97082 13.1803C6.94269 13.174 6.93019 13.1928 6.93644 13.2334C6.94269 13.274 6.88957 13.349 6.78646 13.4521C6.70209 13.5365 6.63022 13.6208 6.63022 13.6396C6.63022 13.6802 6.43961 13.8708 6.39586 13.874C6.38024 13.874 6.36461 13.8833 6.36149 13.8958C6.34899 14.0208 6.19275 14.2083 6.13338 14.1708C6.11151 14.1583 6.10838 14.1708 6.11776 14.2021C6.13025 14.2333 6.124 14.2489 6.09588 14.2427C6.06776 14.2364 6.05526 14.2552 6.06151 14.2958C6.06776 14.3364 6.01464 14.4114 5.91152 14.5145C5.82715 14.5989 5.75528 14.6833 5.75528 14.702C5.75528 14.7426 5.56467 14.9332 5.52092 14.9364C5.5053 14.9364 5.48968 14.9457 5.48655 14.9582C5.47405 15.0832 5.31781 15.2707 5.25844 15.2332C5.2397 15.2239 5.23345 15.2332 5.24282 15.2582C5.25219 15.2832 5.24282 15.3145 5.22095 15.3301C5.19595 15.3457 5.1897 15.3395 5.20845 15.3113C5.22407 15.2863 5.22095 15.277 5.19907 15.2895C5.18345 15.302 5.17408 15.3363 5.18033 15.3676C5.1897 15.402 5.1397 15.4738 5.03659 15.577C4.95222 15.6613 4.88035 15.7457 4.88035 15.7644C4.88035 15.8051 4.68974 15.9957 4.64599 15.9988C4.63037 15.9988 4.61474 16.0082 4.61162 16.0207C4.59912 16.1269 4.40538 16.3769 4.32726 16.3831C4.31476 16.3831 4.30539 16.4081 4.31164 16.4363C4.31789 16.4675 4.26477 16.5394 4.1929 16.6019C4.12415 16.6675 4.06791 16.7362 4.06791 16.7612C4.06791 16.7862 4.05541 16.8175 4.03666 16.8269C3.99291 16.855 3.99604 17.3112 4.03979 17.3112C4.06166 17.3112 4.06791 17.3424 4.06166 17.3893C4.05228 17.4299 4.05853 17.4581 4.07416 17.4487C4.10853 17.4268 4.20227 17.5206 4.1804 17.5549C4.17103 17.5706 4.19915 17.5768 4.23977 17.5674C4.29914 17.5581 4.31476 17.5643 4.30227 17.5955C4.28977 17.633 4.50225 17.6393 5.63029 17.6299C6.83645 17.6237 6.97707 17.6268 6.99581 17.6705C7.00519 17.6987 6.99894 17.7362 6.97707 17.758C6.95832 17.7768 6.94269 17.8237 6.94269 17.8643C6.94269 17.9049 6.93019 17.9361 6.91145 17.9361C6.89582 17.9361 6.8802 17.9924 6.8802 18.058C6.8802 18.1268 6.86457 18.1924 6.8427 18.2049C6.82083 18.2205 6.8177 18.2111 6.83333 18.183C6.84895 18.158 6.84583 18.1486 6.83333 18.1643C6.8177 18.1768 6.80833 18.2424 6.81458 18.308C6.8177 18.3767 6.80833 18.4392 6.78958 18.4517C6.77083 18.4611 6.75521 18.5174 6.75521 18.5767C6.75521 18.6361 6.74271 18.6923 6.72396 18.7017C6.70834 18.7111 6.69271 18.7548 6.69271 18.7986C6.69271 18.8392 6.68021 18.8736 6.66146 18.8736C6.64584 18.8736 6.63022 18.9298 6.63022 18.9954C6.63022 19.0642 6.61459 19.1298 6.59272 19.1423C6.57085 19.1579 6.56772 19.1486 6.58335 19.1204C6.59897 19.0954 6.59584 19.0861 6.58335 19.1017C6.56772 19.1142 6.55835 19.1798 6.5646 19.2454C6.56772 19.3142 6.55835 19.3767 6.5396 19.3892C6.52085 19.3985 6.50523 19.4548 6.50523 19.5142C6.50523 19.5735 6.49273 19.6298 6.47398 19.6391C6.45523 19.6485 6.44273 19.6923 6.44273 19.736C6.44273 19.7766 6.43023 19.811 6.41148 19.811C6.39586 19.811 6.38024 19.8673 6.38024 19.936C6.38024 20.0172 6.36774 20.0579 6.34274 20.0516C6.31774 20.0485 6.30837 20.0891 6.31462 20.1735C6.31774 20.2454 6.30837 20.3141 6.28962 20.3266C6.27087 20.336 6.25524 20.3922 6.25524 20.4516C6.25524 20.511 6.24275 20.5672 6.224 20.5766C6.20837 20.586 6.19275 20.6297 6.19275 20.6734C6.19275 20.7141 6.18025 20.7484 6.1615 20.7484C6.14588 20.7484 6.13025 20.8047 6.13025 20.8734C6.13025 20.9547 6.11776 20.9953 6.09276 20.989C6.06776 20.9859 6.05838 21.0265 6.06463 21.1109C6.06776 21.1828 6.05838 21.2515 6.03964 21.264C6.02089 21.2734 6.00526 21.3328 6.00526 21.3953C6.00526 21.4703 5.99276 21.5015 5.96464 21.489C5.93652 21.4796 5.92714 21.5046 5.93652 21.5796C5.94589 21.6452 5.93652 21.6859 5.91465 21.6859C5.8959 21.6859 5.88027 21.739 5.88027 21.8109C5.88027 21.8921 5.86777 21.9327 5.84278 21.9265C5.81778 21.9234 5.8084 21.964 5.81465 22.0483C5.81778 22.1202 5.8084 22.189 5.78965 22.2015C5.77091 22.2108 5.75528 22.2671 5.75528 22.3264C5.75528 22.3858 5.74278 22.4421 5.72403 22.4514C5.70841 22.4608 5.69279 22.5046 5.69279 22.5483C5.69279 22.5889 5.68029 22.6233 5.66154 22.6233C5.64592 22.6233 5.63029 22.6795 5.63029 22.7483C5.63029 22.8295 5.61779 22.8702 5.59279 22.8639C5.5678 22.8608 5.55842 22.9014 5.56467 22.9858C5.5678 23.0576 5.55842 23.1264 5.53967 23.1389C5.52092 23.1483 5.5053 23.2045 5.5053 23.2639C5.5053 23.3232 5.48968 23.3795 5.47405 23.3889C5.4553 23.3982 5.44281 23.442 5.44281 23.4857C5.44281 23.5264 5.43031 23.5607 5.41156 23.5607C5.39593 23.5607 5.38031 23.617 5.38031 23.6857C5.38031 23.767 5.36781 23.8076 5.34281 23.8013C5.31781 23.7982 5.30844 23.8388 5.31469 23.9232C5.31781 23.9951 5.30844 24.0638 5.28969 24.0763C5.27094 24.0857 5.25532 24.1419 5.25532 24.2013C5.25532 24.2607 5.24282 24.3169 5.22407 24.3263C5.20845 24.3357 5.19282 24.3794 5.19282 24.4232C5.19282 24.4638 5.18033 24.4982 5.16158 24.4982C5.14595 24.4982 5.13033 24.5544 5.13033 24.6232C5.13033 24.6981 5.11783 24.745 5.09596 24.7388C5.05221 24.7294 5.05846 25.2762 5.10533 25.3325C5.12095 25.3543 5.1272 25.3825 5.11783 25.4012C5.10846 25.4168 5.12095 25.4387 5.14908 25.4481C5.17408 25.4575 5.18657 25.4793 5.1772 25.4981C5.16783 25.5168 5.18033 25.52 5.20532 25.5106C5.23657 25.4981 5.25532 25.5075 5.25532 25.5356C5.25532 25.57 5.28344 25.5762 5.35531 25.5668C5.43031 25.5543 5.44906 25.5637 5.43656 25.595C5.42406 25.6293 5.46155 25.6387 5.62404 25.6356C5.73653 25.6325 5.83653 25.6137 5.84903 25.595C5.8584 25.5731 5.89277 25.5668 5.92089 25.5793C5.95527 25.5918 5.97402 25.5825 5.97402 25.5543C5.97402 25.495 6.174 25.3044 6.20525 25.3325C6.21775 25.345 6.21775 25.3293 6.20525 25.2981C6.18963 25.2575 6.22087 25.2044 6.32087 25.1044C6.39586 25.0294 6.47398 24.9669 6.49898 24.9669C6.52398 24.9669 6.53335 24.945 6.52085 24.9106C6.50835 24.8669 6.54897 24.8106 6.66771 24.6981C6.75833 24.6138 6.8302 24.5325 6.82395 24.5169C6.81145 24.4763 7.03956 24.2482 7.07393 24.2669C7.08643 24.2763 7.08956 24.2607 7.08018 24.2326C7.05831 24.1763 7.29892 23.9045 7.37391 23.9045C7.39891 23.9045 7.40828 23.8826 7.39579 23.8482C7.38329 23.8045 7.42391 23.7482 7.54265 23.6357C7.63327 23.5514 7.70514 23.4701 7.69889 23.4545C7.68639 23.4139 7.9145 23.1858 7.94887 23.2045C7.96137 23.2139 7.96449 23.1983 7.95512 23.1701C7.93012 23.1108 8.17698 22.842 8.24885 22.842C8.27697 22.842 8.28634 22.8233 8.27384 22.7889C8.24885 22.7295 8.46446 22.4889 8.51445 22.5202C8.5332 22.5296 8.53632 22.5233 8.52695 22.5077C8.51445 22.4889 8.52695 22.4639 8.55507 22.4546C8.58007 22.4452 8.59257 22.4202 8.58007 22.4014C8.5582 22.3639 8.78318 22.1171 8.81755 22.139C8.83005 22.1452 8.8363 22.1202 8.83005 22.0827C8.82068 22.0296 8.8613 21.9796 8.98629 21.8734C9.08003 21.7952 9.14878 21.7202 9.13941 21.7077C9.11753 21.6702 9.35189 21.4359 9.38939 21.4578C9.40813 21.4671 9.41126 21.4609 9.40189 21.4453C9.38939 21.4265 9.40189 21.4015 9.43001 21.3921C9.45501 21.3828 9.46751 21.3578 9.45501 21.339C9.43313 21.3015 9.65812 21.0547 9.69561 21.0765C9.70811 21.0859 9.71124 21.0672 9.70186 21.0359C9.69249 20.9984 9.73936 20.9297 9.85498 20.8234C9.9456 20.7391 10.0175 20.6578 10.0112 20.6422C9.99559 20.5985 10.2299 20.3735 10.2643 20.3953C10.2831 20.4047 10.2862 20.3985 10.2768 20.3828C10.2643 20.3641 10.2768 20.3391 10.3049 20.3297C10.3299 20.3203 10.3424 20.2953 10.3299 20.2766C10.3081 20.2391 10.5331 19.9922 10.5705 20.0141C10.583 20.0235 10.5862 20.0047 10.5768 19.9735C10.5674 19.936 10.6143 19.8673 10.7299 19.761C10.8205 19.6766 10.8924 19.5954 10.8861 19.5798C10.8705 19.536 11.1049 19.311 11.1393 19.3329C11.158 19.3423 11.1611 19.336 11.1518 19.3204C11.1393 19.3017 11.1518 19.2767 11.1799 19.2673C11.2049 19.2579 11.2174 19.2329 11.2049 19.2142C11.183 19.1767 11.408 18.9298 11.4455 18.9517C11.458 18.9611 11.4611 18.9423 11.4517 18.9111C11.4424 18.8736 11.4892 18.8048 11.6048 18.6986C11.6955 18.6142 11.7673 18.533 11.7611 18.5174C11.7486 18.4767 11.9767 18.2486 12.0111 18.2674C12.0267 18.2767 12.0361 18.2736 12.0329 18.258C12.0142 18.1736 12.261 17.8549 12.3173 17.8893C12.3329 17.8987 12.336 17.8799 12.3267 17.8487C12.3173 17.8112 12.3642 17.7424 12.4798 17.6362C12.5704 17.5518 12.6423 17.4706 12.636 17.4549C12.6235 17.4143 12.8516 17.1862 12.886 17.205C12.9016 17.2143 12.911 17.2112 12.9079 17.1956C12.8891 17.1175 13.1422 16.7956 13.1954 16.8269C13.2079 16.8362 13.211 16.8175 13.2016 16.7862C13.1922 16.7487 13.2391 16.68 13.3547 16.5738C13.4453 16.4894 13.5172 16.4113 13.511 16.3988C13.5078 16.3863 13.5328 16.3238 13.5672 16.2644C13.6328 16.1457 13.6578 15.8113 13.5984 15.8113C13.5828 15.8113 13.5672 15.7894 13.5672 15.7644C13.5672 15.7019 13.3641 15.4988 13.3016 15.4988C13.2766 15.4988 13.2547 15.4863 13.2547 15.4676C13.2547 15.4488 12.7829 15.4332 11.9517 15.4301L10.6455 15.4207V15.3426C10.6455 15.2988 10.6612 15.2676 10.6768 15.2707C10.6955 15.2738 10.7049 15.227 10.6987 15.1551C10.6924 15.0895 10.7018 15.027 10.7205 15.0176C10.7393 15.0051 10.7549 14.9489 10.7549 14.8895C10.7549 14.8301 10.7705 14.7739 10.7862 14.7645C10.8049 14.7551 10.8174 14.7114 10.8174 14.6708C10.8174 14.6301 10.833 14.5926 10.8549 14.5864C10.8737 14.5801 10.8924 14.5177 10.8924 14.4489C10.8955 14.3833 10.9111 14.3302 10.9268 14.3333C10.9455 14.3364 10.9549 14.2895 10.9486 14.2177C10.9424 14.1521 10.9518 14.0896 10.9705 14.0802C10.9893 14.0677 11.0049 14.0114 11.0049 13.9521C11.0049 13.8927 11.0205 13.8365 11.0361 13.8271C11.0549 13.8177 11.0674 13.774 11.0674 13.7333C11.0674 13.6927 11.083 13.6552 11.1049 13.649C11.1236 13.6427 11.1424 13.5802 11.1424 13.5115C11.1455 13.4459 11.1611 13.3927 11.1768 13.3959C11.1955 13.399 11.2049 13.3521 11.1986 13.2802C11.1924 13.2146 11.2018 13.1521 11.2205 13.1428C11.2392 13.1303 11.2549 13.074 11.2549 13.0146C11.2549 12.9553 11.2705 12.899 11.2861 12.8897C11.3049 12.8803 11.3174 12.8365 11.3174 12.7959C11.3174 12.7553 11.333 12.7178 11.3549 12.7115C11.3736 12.7053 11.3924 12.6428 11.3924 12.574C11.3955 12.5084 11.4111 12.4553 11.4267 12.4584C11.4455 12.4616 11.4549 12.4147 11.4486 12.3428C11.4424 12.2772 11.4517 12.2147 11.4705 12.2053C11.4892 12.1928 11.5049 12.1366 11.5049 12.0772C11.5049 12.0178 11.5205 11.9616 11.5361 11.9522C11.5549 11.9428 11.5673 11.8991 11.5673 11.8585C11.5673 11.8179 11.583 11.7804 11.6048 11.7741C11.6236 11.7679 11.6423 11.7054 11.6423 11.6366C11.6455 11.571 11.6611 11.5179 11.6767 11.521C11.6955 11.5241 11.7048 11.4773 11.6986 11.4054C11.6923 11.3398 11.7017 11.2773 11.7205 11.2679C11.7392 11.2554 11.7548 11.1992 11.7548 11.1398C11.7548 11.0804 11.7705 11.0242 11.7861 11.0148C11.8048 11.0054 11.8173 10.9617 11.8173 10.9179C11.8173 10.8773 11.8361 10.8429 11.858 10.8429C11.8892 10.8429 11.8986 10.8023 11.8986 10.7086C11.8954 10.6367 11.9079 10.5804 11.9267 10.5836C11.9454 10.5867 11.9548 10.5398 11.9486 10.468C11.9423 10.4023 11.9517 10.3398 11.9704 10.3305C11.9892 10.318 12.0048 10.2617 12.0048 10.2024C12.0048 10.143 12.0204 10.0867 12.0361 10.0774C12.0548 10.068 12.0673 10.0242 12.0673 9.98049C12.0673 9.93675 12.0861 9.9055 12.1111 9.9055C12.1454 9.9055 12.1517 9.87425 12.1392 9.78363C12.1298 9.71176 12.1361 9.65552 12.1579 9.64302C12.1767 9.63052 12.1923 9.57427 12.1923 9.5149C12.1923 9.45553 12.2079 9.39929 12.2235 9.38991C12.2423 9.38054 12.2548 9.32429 12.2548 9.26492C12.2548 9.20555 12.2704 9.14931 12.286 9.13993C12.3048 9.13056 12.3173 9.08681 12.3173 9.04306C12.3173 8.99932 12.336 8.96807 12.361 8.96807C12.3954 8.96807 12.4017 8.93682 12.3892 8.8462C12.3798 8.77433 12.386 8.71809 12.4079 8.70559C12.4267 8.69309 12.4423 8.63684 12.4423 8.57747C12.4423 8.5181 12.4579 8.46186 12.4735 8.45248C12.4923 8.44311 12.5048 8.38686 12.5048 8.33062C12.5048 8.27749 12.5173 8.21812 12.5329 8.19938C12.5485 8.18375 12.5673 8.08376 12.5735 7.98064C12.5798 7.8369 12.5735 7.79316 12.5454 7.80253C12.5235 7.8119 12.5048 7.79941 12.5048 7.77441C12.5048 7.70879 12.3017 7.49943 12.2392 7.49943C12.2048 7.49943 12.1923 7.4838 12.2048 7.45256C12.2142 7.42756 12.2173 7.40881 12.2142 7.41194C12.2111 7.41506 12.1392 7.42131 12.0517 7.42756ZM10.7268 10.6336C10.708 10.6523 10.6924 10.6992 10.6924 10.7398C10.6924 10.7804 10.6799 10.8117 10.6612 10.8117C10.6455 10.8117 10.6299 10.8679 10.6299 10.9367C10.6299 11.0179 10.6174 11.0585 10.5924 11.0523C10.5674 11.0492 10.558 11.0898 10.5643 11.1742C10.5674 11.246 10.558 11.3148 10.5393 11.3273C10.5206 11.3366 10.5049 11.3929 10.5049 11.4523C10.5049 11.5116 10.4924 11.5679 10.4737 11.5772C10.4581 11.5866 10.4424 11.6304 10.4424 11.6741C10.4424 11.7147 10.4299 11.7491 10.4112 11.7491C10.3956 11.7491 10.3799 11.8054 10.3799 11.8741C10.3799 11.9553 10.3674 11.996 10.3424 11.9897C10.3174 11.9866 10.3081 12.0272 10.3143 12.1116C10.3174 12.1835 10.3081 12.2522 10.2893 12.2647C10.2706 12.2741 10.2549 12.3303 10.2549 12.3897C10.2549 12.4491 10.2424 12.5053 10.2237 12.5147C10.2081 12.5241 10.1925 12.5678 10.1925 12.6115C10.1925 12.6522 10.18 12.6865 10.1612 12.6865C10.1456 12.6865 10.13 12.7428 10.13 12.8115C10.13 12.8928 10.1175 12.9334 10.0925 12.9303C10.0675 12.924 10.0581 12.9646 10.0643 13.049C10.0675 13.1209 10.0581 13.1896 10.0393 13.2021C10.0206 13.2115 10.005 13.2677 10.005 13.3271C10.005 13.3865 9.99247 13.4427 9.97372 13.4521C9.95809 13.4615 9.94247 13.5052 9.94247 13.549C9.94247 13.5896 9.92997 13.624 9.91122 13.624C9.8956 13.624 9.87997 13.6802 9.87997 13.749C9.87997 13.8302 9.86748 13.8708 9.84248 13.8646C9.81748 13.8615 9.80811 13.9021 9.81435 13.9864C9.81748 14.0583 9.80811 14.1271 9.78936 14.1396C9.77061 14.1489 9.75498 14.2052 9.75498 14.2645C9.75498 14.3239 9.74249 14.3802 9.72374 14.3895C9.70811 14.3989 9.69249 14.4427 9.69249 14.4864C9.69249 14.527 9.67999 14.5614 9.66124 14.5614C9.64562 14.5614 9.62999 14.6176 9.62999 14.6864C9.62999 14.7676 9.61749 14.8083 9.5925 14.802C9.5675 14.7989 9.55812 14.8395 9.56437 14.9239C9.5675 14.9957 9.55812 15.0645 9.53938 15.077C9.52063 15.0864 9.505 15.1426 9.505 15.202C9.505 15.2613 9.4925 15.3176 9.47376 15.327C9.45813 15.3363 9.44251 15.3801 9.44251 15.4207C9.44251 15.4613 9.43001 15.5051 9.41126 15.5145C9.39564 15.5238 9.38001 15.5832 9.38001 15.6426C9.38001 15.7051 9.36439 15.7457 9.34564 15.7426C9.29564 15.7301 9.30814 16.1394 9.35814 16.23C9.41126 16.3206 9.60187 16.4988 9.65187 16.4988C9.67374 16.4988 9.68936 16.5144 9.68624 16.53C9.67999 16.5519 10.0331 16.5613 10.7487 16.5613C11.7611 16.5613 11.8173 16.5613 11.8173 16.6175C11.8173 16.6737 11.5673 16.9425 11.5174 16.9425C11.5017 16.9393 11.4924 16.9612 11.4986 16.9893C11.5111 17.0487 11.3799 17.1925 11.3267 17.1737C11.3049 17.1643 11.2955 17.1768 11.3049 17.2018C11.3142 17.2268 11.2924 17.2643 11.258 17.2862C11.2205 17.3081 11.1924 17.3487 11.1924 17.3737C11.1924 17.4237 10.9924 17.6393 10.9486 17.6393C10.9361 17.6393 10.9299 17.6612 10.9361 17.6862C10.9393 17.7112 10.8737 17.8049 10.7862 17.8893C10.7018 17.9736 10.6299 18.058 10.6299 18.0799C10.6299 18.0986 10.5612 18.1799 10.4737 18.2611C10.3893 18.3424 10.3174 18.4236 10.3174 18.4455C10.3174 18.4892 10.1112 18.7048 10.0737 18.6986C10.0612 18.6986 10.055 18.7173 10.0612 18.7455C10.0643 18.7736 9.99872 18.8673 9.91122 18.9517C9.82685 19.0361 9.75498 19.1204 9.75498 19.1392C9.75498 19.1798 9.5425 19.3923 9.51125 19.3798C9.49875 19.3767 9.48938 19.3829 9.48625 19.3954C9.47376 19.5048 9.27377 19.7579 9.2019 19.7516C9.1894 19.7516 9.18003 19.7766 9.18628 19.8048C9.1894 19.836 9.12691 19.9266 9.03629 20.0141C8.95192 20.0985 8.88005 20.1829 8.88005 20.2016C8.88005 20.2422 8.66757 20.4547 8.63632 20.4422C8.62382 20.4391 8.61444 20.4453 8.61132 20.4578C8.59882 20.5672 8.39884 20.8203 8.32697 20.8141C8.31447 20.8141 8.30509 20.8391 8.31134 20.8672C8.31447 20.8984 8.25197 20.989 8.16135 21.0765C8.07698 21.1609 8.00511 21.2453 8.00511 21.264C8.00511 21.3046 7.8145 21.4953 7.77076 21.4984C7.75513 21.4984 7.73951 21.5078 7.73638 21.5203C7.72389 21.6265 7.53015 21.8765 7.45203 21.8827C7.43953 21.8827 7.43016 21.9046 7.43641 21.9327C7.43953 21.9608 7.37391 22.0546 7.28642 22.139C7.20205 22.2233 7.13018 22.3077 7.13018 22.3233C7.13018 22.3608 6.93957 22.5608 6.9052 22.5608C6.8677 22.5608 6.87395 22.4108 6.91145 22.3889C6.93019 22.3796 6.94269 22.3233 6.94269 22.264C6.94269 22.2046 6.95832 22.1483 6.97394 22.139C6.99269 22.1296 7.00519 22.089 7.00519 22.0483C7.00519 22.0108 7.01769 21.9671 7.03331 21.9515C7.04894 21.9327 7.06768 21.8702 7.07393 21.8109C7.08018 21.7515 7.09893 21.7046 7.11456 21.7077C7.1333 21.7109 7.14268 21.664 7.13643 21.5921C7.13018 21.5265 7.13955 21.464 7.1583 21.4546C7.17705 21.4421 7.19268 21.3859 7.19268 21.3265C7.19268 21.2672 7.2083 21.2109 7.22392 21.2015C7.24267 21.1922 7.25517 21.1515 7.25517 21.1109C7.25517 21.0734 7.26767 21.0297 7.28329 21.014C7.29892 20.9953 7.31767 20.9328 7.32392 20.8734C7.33017 20.8141 7.34891 20.7672 7.36454 20.7703C7.38329 20.7734 7.39266 20.7266 7.38641 20.6547C7.38016 20.5891 7.38954 20.5266 7.40828 20.5172C7.42703 20.5047 7.44266 20.4485 7.44266 20.3891C7.44266 20.3297 7.45828 20.2735 7.4739 20.2641C7.49265 20.2547 7.50515 20.2141 7.50515 20.1735C7.50515 20.136 7.51765 20.0922 7.53327 20.0735C7.5489 20.0579 7.56765 19.9954 7.5739 19.936C7.58015 19.8766 7.5989 19.8298 7.61452 19.8329C7.63327 19.836 7.64264 19.7891 7.63639 19.7173C7.63014 19.6516 7.63952 19.5892 7.65827 19.5798C7.67701 19.5673 7.69264 19.511 7.69264 19.4517C7.69264 19.3923 7.70826 19.336 7.72389 19.3267C7.74263 19.3173 7.75513 19.2767 7.75513 19.2361C7.75513 19.1986 7.76763 19.1548 7.78326 19.1361C7.79888 19.1204 7.81763 19.0579 7.82388 18.9986C7.83013 18.9392 7.84888 18.8923 7.8645 18.8955C7.88325 18.8986 7.89262 18.8517 7.88637 18.7798C7.88012 18.7142 7.8895 18.6517 7.90825 18.6423C7.927 18.6298 7.94262 18.5736 7.94262 18.5142C7.94262 18.4549 7.95824 18.3986 7.97387 18.3892C7.99262 18.3799 8.00511 18.3392 8.00511 18.2986C8.00511 18.2611 8.01761 18.2174 8.03324 18.1986C8.04886 18.183 8.06761 18.1205 8.07386 18.0611C8.08011 18.0018 8.09886 17.9549 8.11448 17.958C8.13323 17.9611 8.1426 17.9143 8.13635 17.8424C8.13011 17.7768 8.13948 17.7143 8.15823 17.7049C8.17698 17.6924 8.1926 17.6362 8.1926 17.5799C8.1926 17.5268 8.2051 17.4674 8.22072 17.4487C8.23947 17.4331 8.2551 17.3581 8.26135 17.2799C8.2676 17.2018 8.28634 17.1425 8.30197 17.1456C8.32072 17.1487 8.33322 17.0956 8.33322 17.0331C8.33322 16.9487 8.32072 16.9175 8.29572 16.9268C8.27072 16.9362 8.2551 16.9175 8.2551 16.8769C8.2551 16.8394 8.2426 16.8112 8.22385 16.8112C8.20822 16.8112 8.1926 16.7831 8.1926 16.7487C8.1926 16.7144 8.17698 16.6862 8.15823 16.6862C8.13948 16.6862 8.13011 16.6644 8.13948 16.6425C8.15198 16.6112 8.1426 16.6019 8.11136 16.6144C8.08323 16.6237 8.06761 16.6144 8.07386 16.5894C8.08011 16.5581 8.05199 16.5519 7.97699 16.5581C7.89887 16.5644 7.877 16.555 7.88637 16.5238C7.902 16.4894 7.71451 16.4831 6.82395 16.4925L5.74278 16.5019L5.84903 16.3894C5.9084 16.33 5.97402 16.28 5.99901 16.28C6.02714 16.28 6.03651 16.2613 6.02401 16.2269C5.99901 16.1675 6.21462 15.9269 6.26462 15.9582C6.28337 15.9675 6.28649 15.9613 6.27712 15.9457C6.26462 15.9269 6.27712 15.9019 6.30524 15.8926C6.33024 15.8832 6.34274 15.8582 6.33024 15.8394C6.30837 15.8019 6.53335 15.5551 6.57397 15.5801C6.58647 15.5894 6.5896 15.5738 6.58022 15.5457C6.55835 15.4895 6.79895 15.2176 6.87395 15.2176C6.89895 15.2176 6.90832 15.1957 6.89582 15.1614C6.88332 15.1176 6.92395 15.0614 7.04269 14.9489C7.1333 14.8645 7.20517 14.7833 7.19892 14.7676C7.18643 14.727 7.41453 14.4989 7.44891 14.5177C7.46141 14.527 7.46453 14.5114 7.45516 14.4833C7.43328 14.427 7.67389 14.1552 7.74888 14.1552C7.77388 14.1552 7.78326 14.1333 7.77076 14.0989C7.75826 14.0552 7.79888 13.9989 7.91762 13.8865C8.00824 13.8021 8.08011 13.7208 8.07386 13.7052C8.06136 13.6646 8.28947 13.4365 8.32384 13.4552C8.33634 13.4646 8.33946 13.449 8.33009 13.4209C8.30822 13.3646 8.54882 13.0928 8.62382 13.0928C8.64882 13.0928 8.65819 13.0709 8.64569 13.0365C8.63319 12.9928 8.67381 12.9365 8.79256 12.824C8.88317 12.7397 8.95504 12.6584 8.94879 12.6428C8.9363 12.6022 9.1644 12.3741 9.19878 12.3928C9.21127 12.4022 9.2144 12.3866 9.20503 12.3584C9.18315 12.3022 9.42376 12.0303 9.49875 12.0303C9.52375 12.0303 9.53313 12.0085 9.52063 11.9741C9.50813 11.9303 9.54875 11.8741 9.66749 11.7616C9.75811 11.6772 9.82998 11.596 9.82373 11.5804C9.81123 11.5398 10.0393 11.3116 10.0737 11.3304C10.0862 11.3398 10.0893 11.3241 10.08 11.296C10.055 11.2366 10.3018 10.9679 10.3737 10.9679C10.4018 10.9679 10.4112 10.9492 10.3987 10.9148C10.3768 10.8586 10.6205 10.5836 10.6674 10.6117C10.6799 10.6211 10.6955 10.6086 10.6955 10.5867C10.708 10.4555 10.733 10.418 10.7455 10.5117C10.7549 10.5617 10.7455 10.6148 10.7268 10.6336Z" fill="#69B9CF"/>
</svg>
