<svg width="32" height="32" viewBox="0 0 32 32" fill="none" xmlns="http://www.w3.org/2000/svg">
<path d="M15.092 0.783747C11.5216 0.97934 8.1218 2.37339 5.45105 4.72763C2.47803 7.34858 0.625222 10.8373 0.123791 14.7563C0.052666 15.2968 -0.0149028 16.4028 0.00287848 16.7051C0.024216 17.1283 0.209141 17.2812 0.696347 17.2812C1.13377 17.2812 1.34358 17.1283 1.37203 16.794C1.38982 16.5948 1.30447 16.4241 1.13377 16.3281C1.07687 16.2961 1.02708 16.2428 1.02708 16.2143C1.02708 16.1859 1.04486 15.9476 1.06264 15.6844C1.32936 12.2206 2.68429 9.10893 5.03497 6.56977C6.99802 4.44668 9.55497 2.93528 12.3893 2.22403C12.905 2.09245 13.8616 1.92886 14.4839 1.85773C15.1383 1.78661 16.7386 1.7795 17.368 1.84351C20.0601 2.11734 22.489 3.01352 24.605 4.5107C25.9422 5.4531 27.3967 6.91472 28.2786 8.19497C29.6478 10.1794 30.4799 12.3096 30.8249 14.7065C30.8854 15.1332 30.9849 16.257 30.96 16.2677C30.544 16.4704 30.4977 16.9789 30.8711 17.2101C30.9636 17.267 31.0525 17.2812 31.2837 17.2812C31.7709 17.2812 31.9665 17.1318 31.9949 16.7478C32.0305 16.2392 31.874 14.5429 31.714 13.7249C31.0312 10.2078 29.2353 7.08898 26.5147 4.69918C24.1498 2.61877 21.1697 1.27451 18.0615 0.890434C17.0266 0.758854 16.102 0.726847 15.092 0.783747Z" fill="#69B9CF"/>
<path d="M14.9144 2.52628C13.4243 2.63296 11.8098 3.03126 10.366 3.65005C7.66677 4.80583 5.28408 6.88624 3.77623 9.40406C2.89072 10.8835 2.33239 12.3415 1.99099 14.0627C1.83452 14.8416 1.77406 15.4497 1.74917 16.3956C1.72072 17.5728 1.81318 18.6752 2.023 19.6318C2.09057 19.9412 2.09412 20.087 2.09412 21.8687C2.09412 23.6682 2.09768 23.7784 2.16525 23.9207C2.33595 24.3012 2.89428 24.319 3.06854 23.9491C3.12188 23.8424 3.12544 23.6148 3.11477 21.7727L3.1041 19.7172L3.01164 19.2549C2.85872 18.4974 2.80182 17.9497 2.78048 17.0678C2.75559 15.9689 2.84094 15.0229 3.05787 13.9632C3.13255 13.6004 3.39215 12.6865 3.51307 12.3558C4.22076 10.4354 5.14183 8.95953 6.50387 7.55837C8.80477 5.19346 11.7031 3.82786 15.014 3.55759C15.9671 3.47579 16.945 3.51847 18.0261 3.68206C19.3597 3.88476 20.5831 4.26884 21.8135 4.86984C23.1436 5.52064 24.1998 6.28168 25.32 7.39478C26.714 8.78172 27.66 10.2184 28.3392 11.9823C28.9794 13.6324 29.2603 15.2754 29.2176 17.0856C29.1963 17.9533 29.1394 18.5045 28.9865 19.2549L28.894 19.7172L28.8798 21.7798C28.8691 23.6788 28.8727 23.8531 28.9296 23.9598C29.111 24.3012 29.6373 24.3012 29.8222 23.9598C29.8827 23.8531 29.8862 23.6753 29.9076 21.8154C29.9253 20.0657 29.936 19.7527 29.9893 19.5394C30.249 18.4725 30.3343 16.4419 30.1707 15.0763C29.8542 12.3984 28.7589 9.83437 27.027 7.71484C26.6465 7.24542 25.8036 6.38125 25.3342 5.97584C22.9906 3.94877 20.0781 2.73965 17.0126 2.52272C16.4365 2.4836 15.5261 2.4836 14.9144 2.52628Z" fill="#69B9CF"/>
<path d="M8.05058 16.2285C6.80589 16.4774 5.81014 17.4198 5.50075 18.6396L5.41895 18.949L5.17357 19.0273C4.47655 19.2513 3.88265 19.8986 3.69417 20.6454C3.6266 20.9085 3.62305 21.0508 3.62305 23.718C3.62305 26.3852 3.6266 26.5274 3.69417 26.7906C3.88977 27.5587 4.47655 28.1775 5.2447 28.4264L5.42607 28.4869L5.50075 28.7856C5.73546 29.7351 6.40403 30.546 7.29665 30.9549C8.1217 31.3319 9.15657 31.3355 9.97095 30.9585C10.86 30.546 11.525 29.7529 11.7775 28.8034L11.8558 28.5011V23.718V18.9348L11.774 18.6325C11.6886 18.3054 11.4788 17.8359 11.3045 17.5834C10.892 16.9824 10.2341 16.5166 9.50153 16.2996C9.11034 16.1858 8.43465 16.1538 8.05058 16.2285ZM9.33083 17.3309C9.88205 17.5159 10.3372 17.9142 10.5969 18.4369C10.8529 18.9561 10.8422 18.7072 10.8422 23.718C10.8422 28.6683 10.8493 28.4549 10.6182 28.9528C10.3195 29.5929 9.75402 30.0268 9.02499 30.1761C8.55556 30.2686 8.14304 30.2081 7.64516 29.9663C7.23264 29.7671 6.88413 29.4222 6.68498 29.0097C6.43248 28.4869 6.43248 28.5047 6.43248 25.457C6.43248 23.0032 6.42537 22.74 6.37203 22.6262C6.30802 22.4875 6.1551 22.3773 5.98084 22.3453C5.83859 22.3168 5.59321 22.4306 5.49008 22.5729C5.42251 22.6653 5.41895 22.74 5.40117 25.0267L5.38339 27.3845L5.21625 27.2742C5.0171 27.1426 4.86062 26.9542 4.75038 26.7159L4.67214 26.5452V23.7002V20.8552L4.76816 20.6738C4.8215 20.5742 4.90685 20.4427 4.9602 20.3786C5.04555 20.2755 5.3336 20.055 5.37983 20.055C5.3905 20.055 5.40117 20.2435 5.40117 20.4711C5.40117 20.9512 5.44385 21.0863 5.64655 21.2179C5.8706 21.3708 6.19777 21.2962 6.35069 21.0614C6.40759 20.9761 6.41826 20.8481 6.43604 19.9839C6.45382 19.0379 6.45738 18.9953 6.54984 18.7285C6.813 17.9711 7.40334 17.4412 8.18927 17.2598C8.50933 17.1887 8.98587 17.2171 9.33083 17.3309Z" fill="#69B9CF"/>
<path d="M22.8733 16.2107C22.3434 16.2961 21.714 16.5841 21.3121 16.9184C20.7893 17.3594 20.3946 17.9818 20.2203 18.6325L20.1421 18.9348V23.7002C20.1421 28.0282 20.1492 28.4905 20.2025 28.7181C20.5191 30.0659 21.6499 31.0688 23.0262 31.2252C24.1109 31.3461 25.2631 30.8518 25.921 29.9841C26.1593 29.6711 26.3975 29.1804 26.5007 28.7892L26.5825 28.4727L26.7781 28.4122C27.3328 28.2415 27.8627 27.7934 28.1188 27.2813C28.3855 26.7479 28.3784 26.8297 28.3677 23.6113L28.357 20.7485L28.2575 20.4711C28.0192 19.7919 27.4395 19.2122 26.8136 19.0237L26.5789 18.9491L26.4971 18.6397C26.2055 17.5088 25.352 16.6304 24.2282 16.3032C23.8797 16.2001 23.2182 16.1574 22.8733 16.2107ZM24.054 17.3345C24.5838 17.5123 25.0426 17.8964 25.2951 18.3801C25.5227 18.821 25.5369 18.9064 25.5618 19.9839C25.5796 20.8481 25.5903 20.9761 25.6472 21.0615C25.8001 21.2962 26.1273 21.3709 26.3513 21.2179C26.554 21.0864 26.5967 20.9512 26.5967 20.4711C26.5967 20.2435 26.6074 20.055 26.618 20.055C26.6643 20.055 26.9523 20.2755 27.0377 20.3787C27.091 20.4427 27.1764 20.5743 27.2297 20.6738L27.3257 20.8552V23.718V26.5808L27.2297 26.7621C27.1764 26.8617 27.091 26.9933 27.0377 27.0573C26.9523 27.1604 26.6643 27.3809 26.618 27.3809C26.6074 27.3809 26.5967 26.3389 26.5967 25.0658C26.5967 23.0138 26.5896 22.7365 26.5398 22.6298C26.4758 22.4982 26.3122 22.3773 26.1415 22.3453C26.0028 22.3168 25.7539 22.4342 25.6543 22.5729C25.5832 22.6653 25.5832 22.74 25.5654 25.5495C25.5476 28.2095 25.5405 28.4442 25.48 28.6256C25.128 29.6889 24.1109 30.3539 23.0796 30.1939C22.3256 30.0766 21.714 29.6391 21.4046 29.0026C21.145 28.4656 21.1556 28.7287 21.1556 23.718C21.1556 18.693 21.145 18.9597 21.4081 18.4227C21.6891 17.8537 22.2652 17.4056 22.8982 17.2634C23.236 17.1887 23.7019 17.2172 24.054 17.3345Z" fill="#69B9CF"/>
</svg>
