<svg width="30" height="32" viewBox="0 0 30 32" fill="none" xmlns="http://www.w3.org/2000/svg">
<path d="M6.8633 0.0299435C5.44266 0.299051 4.22854 1.36297 3.79046 2.72728C3.58393 3.35937 3.5589 4.26683 3.72788 4.87389C3.92188 5.57482 4.20977 6.11304 4.66662 6.63248C5.04838 7.05804 5.89951 7.57123 6.50031 7.72768L6.79446 7.80904V8.69772C6.79446 9.9181 6.95717 10.8068 7.34519 11.7893C7.50165 12.1774 7.92721 12.9972 8.15877 13.3414C8.24639 13.4791 8.24639 13.4916 8.13999 13.5229C7.77075 13.6355 7.1637 14.0048 6.80697 14.3365C5.136 15.8823 3.37741 17.5971 3.32108 17.7347C3.16463 18.0977 3.54013 18.4795 3.89059 18.323C3.97821 18.2855 4.64159 17.6784 5.37382 16.9837C7.98354 14.4929 7.97728 14.4992 8.6344 14.374C8.94732 14.3177 9.05371 14.3678 8.89099 14.4992C8.74079 14.6244 8.49672 15.0687 8.38407 15.4379C8.29645 15.7258 8.27768 16.1013 8.27768 17.8349L8.27142 19.9001L7.86463 20.0003C7.32015 20.1442 7.06356 20.2569 6.63174 20.551C5.78686 21.1268 4.93573 22.2908 4.58527 23.3547C4.46636 23.7177 4.36622 23.7865 3.80923 23.8742C2.91429 24.0118 2.02561 23.5675 1.57501 22.7414C1.42481 22.466 1.38726 22.3158 1.36849 21.8778C1.33094 21.0329 1.4561 20.7763 2.36982 19.8375C2.80164 19.3869 3.1083 19.024 3.1083 18.9489C3.1083 18.7236 2.87049 18.4983 2.62641 18.4983C2.42614 18.4983 2.32601 18.5671 1.69392 19.1929C0.955438 19.9189 0.705105 20.2944 0.517355 20.9327C0.392189 21.3521 0.38593 22.1093 0.504839 22.5411C0.780205 23.5738 1.6814 24.475 2.72654 24.7566C3.00191 24.8317 3.95318 24.8505 4.11589 24.7879C4.19725 24.7566 4.20351 24.8818 4.18473 25.6953C4.16596 26.2648 4.18473 26.8343 4.2348 27.1222C4.81682 30.8334 7.6581 32.93 10.2991 31.5969C10.8624 31.3153 11.6071 30.6269 12.0327 30.0136L12.3331 29.5755H15.0993H17.8717L18.1032 29.9385C18.4036 30.4016 19.0608 31.0838 19.4926 31.3654C21.1949 32.4981 23.3415 32.0538 24.6682 30.2952C25.3003 29.4503 25.7259 28.4553 25.9262 27.3225C26.0138 26.8093 26.0576 25.1258 25.9825 24.9318C25.9512 24.8567 26.0451 24.8379 26.4957 24.8379C27.4282 24.8254 28.1166 24.5313 28.7549 23.8554C29.3056 23.2734 29.581 22.5787 29.581 21.7463C29.581 21.0016 29.3056 20.2506 28.8425 19.7374C28.6485 19.5184 24.7809 15.8197 23.2601 14.3991C22.8471 14.011 22.2588 13.6418 21.8582 13.5229C21.7456 13.4916 21.7456 13.4853 21.8582 13.3164C22.0898 12.9659 22.459 12.265 22.4841 12.1148C22.5341 11.877 22.3026 11.6141 22.046 11.6141C21.8082 11.6141 21.6517 11.7643 21.4452 12.1774C21.0947 12.8783 20.3437 13.8045 19.6866 14.3427C17.4148 16.2015 14.3232 16.577 11.7761 15.294C9.70458 14.2551 8.334 12.4465 7.82708 10.1121C7.6894 9.47376 7.6894 8.12196 7.82708 7.42103C8.29019 5.0366 9.91736 3.00891 12.1516 2.05138C14.0854 1.22528 16.401 1.29413 18.266 2.25165C20.544 3.4157 22.0147 5.58734 22.2588 8.15325C22.3276 8.8667 22.3088 9.17336 22.1524 10.1246C22.0585 10.6879 22.0585 10.7442 22.1586 10.8881C22.3401 11.1698 22.7344 11.176 22.9159 10.9069C23.0598 10.6879 23.2038 9.59266 23.2163 8.64766L23.2288 7.77149L23.573 7.6651C24.8309 7.27708 25.8198 6.20691 26.1702 4.8426C26.3267 4.2418 26.2766 3.21543 26.0576 2.60212C25.6445 1.45058 24.6933 0.536869 23.4917 0.142593C22.9597 -0.0263824 21.827 -0.0388985 21.2887 0.123819C20.6316 0.317827 20.0684 0.655777 19.574 1.15018L19.1046 1.60704L18.51 1.32542C17.371 0.793459 16.595 0.605709 15.312 0.561901C13.8476 0.505577 12.5959 0.768427 11.3505 1.388L10.806 1.66337L10.4243 1.25658C9.67328 0.461769 8.80338 0.0549774 7.71443 0.00491142C7.40151 -0.00760651 7.01975 0.00491142 6.8633 0.0299435ZM8.27142 1.00624C8.79712 1.14393 9.29778 1.43181 9.67954 1.81982C10.0175 2.15777 10.0175 2.15777 9.89233 2.29546C9.82974 2.37056 9.66703 2.5145 9.5356 2.61463L9.29778 2.80864L9.06623 2.58334C8.71576 2.24539 8.29645 2.07642 7.7645 2.07642C7.02601 2.07016 6.32508 2.50198 6.01842 3.14033C5.55531 4.11663 5.99965 5.33075 6.97595 5.76883C7.11989 5.83141 7.2388 5.90651 7.2388 5.9378C7.2388 5.96909 7.17621 6.18814 7.10737 6.43221C6.97595 6.87029 6.96969 6.87029 6.78194 6.83274C6.18114 6.71383 5.44892 6.18814 5.0609 5.60611C4.26609 4.42329 4.41003 2.89 5.40511 1.84486C6.14359 1.06883 7.25757 0.743393 8.27142 1.00624ZM23.0285 1.00624C24.4116 1.36297 25.3316 2.52076 25.3316 3.89759C25.3316 4.17921 25.2878 4.56097 25.2315 4.74872C25.0062 5.53101 24.3741 6.28201 23.6669 6.60744C23.0035 6.9141 23.0473 6.92662 22.8721 6.37589L22.7219 5.88774L22.8783 5.82515C23.21 5.69373 23.4353 5.54353 23.6606 5.28694C23.9861 4.93021 24.1488 4.5422 24.155 4.07908C24.1801 3.25924 23.8234 2.65218 23.1099 2.2892C22.7469 2.10771 22.628 2.07642 22.24 2.07642C21.708 2.07016 21.2887 2.23287 20.932 2.58334L20.7005 2.80864L20.3688 2.5145C20.1873 2.35804 20.0183 2.22662 19.9933 2.22662C19.8556 2.22662 19.9807 2.01383 20.2874 1.73847C21.0572 1.03753 22.0835 0.762169 23.0285 1.00624ZM8.35278 3.20917C8.46543 3.29679 8.57808 3.40318 8.59685 3.45325C8.61563 3.50331 8.51549 3.69106 8.37781 3.87255C8.24639 4.05405 8.03986 4.36696 7.92721 4.56723C7.81456 4.7675 7.68314 4.94273 7.63307 4.9615C7.389 5.05538 6.91962 4.65485 6.79446 4.2418C6.53786 3.37189 7.62681 2.65218 8.35278 3.20917ZM22.4778 3.04646C23.016 3.18414 23.354 3.72861 23.2038 4.22928C23.1162 4.53594 22.8846 4.81756 22.6343 4.9177C22.3777 5.02409 22.3088 4.98028 22.071 4.56723C21.9584 4.36696 21.7519 4.05405 21.6204 3.87255C21.4827 3.69106 21.3826 3.50331 21.4014 3.45325C21.4452 3.3406 21.8144 3.05897 21.9772 3.02142C22.1774 2.97136 22.1899 2.97136 22.4778 3.04646ZM21.9396 14.568C22.0961 14.6431 22.4528 14.9185 22.7281 15.1813C29.0804 21.2019 28.611 20.6762 28.611 21.7839C28.611 22.3596 28.5985 22.4347 28.4295 22.7414C28.1917 23.167 27.7911 23.5362 27.3405 23.7427C27.0527 23.8742 26.8899 23.9055 26.5144 23.8992C25.8448 23.8929 25.7509 23.8429 25.6132 23.4048C25.3441 22.5537 24.7809 21.6525 24.1175 21.0204C23.4353 20.3758 22.7907 20.0441 22.0084 19.9502L21.6642 19.9064L21.6329 17.7786C21.5954 15.4442 21.5766 15.3378 21.1823 14.7495C21.0822 14.5993 21.0134 14.4429 21.0321 14.3991C21.0697 14.2927 21.5578 14.3865 21.9396 14.568ZM10.1927 15.4317C11.6259 16.4768 13.5034 17.0463 15.2495 16.9775C16.9329 16.9086 18.3411 16.4455 19.6678 15.5256C19.9933 15.3003 20.2937 15.1313 20.3312 15.1563C20.3625 15.1813 20.4564 15.3253 20.5315 15.488C20.6566 15.7634 20.6629 15.8823 20.6817 17.8849L20.7005 19.9877L20.4626 20.0628C20.0871 20.188 19.624 20.4321 19.2673 20.7012C19.0795 20.8389 18.9231 20.939 18.9168 20.9265C18.1909 19.8814 17.7027 19.3869 16.9642 18.9551C15.6562 18.1791 14.0479 18.2229 12.7399 19.074C12.2455 19.3869 11.6321 19.9752 11.3317 20.4133C11.2003 20.6011 11.0877 20.7513 11.0689 20.7513C11.0564 20.7513 10.8436 20.6261 10.5933 20.4759C10.3492 20.3194 9.92988 20.1317 9.65451 20.0503L9.16636 19.9064L9.19765 17.9037C9.21643 16.7146 9.25398 15.8134 9.29778 15.682C9.36663 15.463 9.59193 15.0562 9.64199 15.0562C9.66077 15.0562 9.90484 15.2252 10.1927 15.4317ZM15.4748 19.3807C16.1507 19.4996 16.7202 19.825 17.3147 20.4321C17.6088 20.7325 17.9405 21.133 18.0532 21.327L18.266 21.6837L18.0469 22.0467C17.3585 23.192 17.0018 24.5125 17.0018 25.9519C17.0018 26.8218 17.177 27.9045 17.4211 28.5616C17.4461 28.618 16.958 28.6367 15.093 28.6367C12.9965 28.6367 12.7399 28.6242 12.7712 28.5429C13.0215 27.8857 13.1842 26.8719 13.1842 25.9707C13.1842 24.4249 12.8087 23.0731 12.064 21.9403C11.9388 21.7526 11.8199 21.5648 11.7949 21.5273C11.7698 21.4897 11.8449 21.3208 11.9576 21.1518C12.5459 20.2819 13.3594 19.6561 14.1918 19.4433C14.73 19.2993 14.9678 19.2868 15.4748 19.3807ZM9.62948 21.0329C10.6871 21.4584 11.5132 22.4911 11.9576 23.943C12.2016 24.7503 12.2642 25.3073 12.2267 26.2899C12.1891 27.2474 12.0765 27.8044 11.7448 28.5929C11.5383 29.0873 11.3255 29.4378 11.4068 29.1437C11.4256 29.0561 11.4444 28.6931 11.4444 28.3301C11.4256 25.5639 9.26649 23.8616 7.37648 25.1196C6.38141 25.7767 5.7368 27.3976 5.91829 28.7932C5.94332 29.031 5.9621 29.2438 5.94958 29.2563C5.91203 29.3001 5.56156 28.5304 5.39885 28.0485C5.17355 27.3788 5.09845 26.8594 5.09219 26.0083C5.09219 25.1947 5.17981 24.5688 5.40511 23.8804C6.16236 21.5523 7.93347 20.357 9.62948 21.0329ZM21.9772 20.8827C23.0285 21.0767 24.0424 22.0342 24.6056 23.3798C25.3003 25.032 25.2503 27.2036 24.4867 28.7869C24.2301 29.3126 24.2114 29.3377 24.2489 29.0748C24.274 28.9184 24.2865 28.5053 24.2865 28.1611C24.2677 26.7154 23.5668 25.4763 22.459 24.9318C22.0961 24.7503 21.9897 24.7253 21.514 24.7253C21.0384 24.7253 20.9258 24.7503 20.569 24.9193C20.012 25.1822 19.5114 25.7016 19.1922 26.3525C18.8417 27.0722 18.7416 27.5666 18.7666 28.4865L18.7854 29.2438L18.6415 28.9997C18.4099 28.6117 18.1345 27.8044 18.0281 27.1786C17.8404 26.0959 17.9656 24.6252 18.3348 23.5925C18.7291 22.4973 19.5239 21.521 20.3437 21.133C20.9383 20.8451 21.4014 20.7763 21.9772 20.8827ZM9.12255 25.7266C9.91736 26.0083 10.4994 27.1097 10.4994 28.3238C10.4994 29.8634 9.71083 31.0399 8.67821 31.0399C6.85078 31.0399 6.16236 27.5728 7.6894 26.0896C8.12748 25.664 8.59685 25.5451 9.12255 25.7266ZM22.1086 25.7767C22.5842 26.0208 23.0974 26.7843 23.2664 27.479C23.3602 27.8795 23.3602 28.8308 23.2664 29.2313C23.16 29.6631 22.8533 30.2514 22.5842 30.533C21.9271 31.2214 21.0572 31.2152 20.4251 30.5205C19.9432 29.9823 19.6866 29.2438 19.6866 28.3551C19.6866 27.1535 20.1873 26.1522 20.9758 25.7767C21.3263 25.6077 21.7831 25.6077 22.1086 25.7767Z" fill="#69B9CF"/>
<path d="M11.2752 6.34458C10.0674 6.77641 9.87963 8.34725 10.9561 9.01063C12.1639 9.76163 13.6409 8.46615 13.0526 7.17068C12.8023 6.61369 12.4143 6.35084 11.8072 6.31955C11.5819 6.30703 11.3441 6.31955 11.2752 6.34458ZM12.0888 7.38972C12.3016 7.59625 12.3016 7.91542 12.0826 8.13446C11.5882 8.62261 10.8622 7.90916 11.3378 7.39598C11.5381 7.17694 11.876 7.17068 12.0888 7.38972Z" fill="#69B9CF"/>
<path d="M17.5964 6.41346C16.8829 6.74515 16.5512 7.6088 16.8454 8.34728C17.0456 8.84169 17.6464 9.23596 18.1972 9.23596C19.1359 9.23596 19.8369 8.36605 19.6366 7.4586C19.4363 6.54488 18.4225 6.0317 17.5964 6.41346ZM18.5101 7.31466C18.798 7.5337 18.8042 7.94675 18.5226 8.17205C17.9906 8.59135 17.3523 7.82784 17.853 7.37098C18.0282 7.22078 18.3474 7.18949 18.5101 7.31466Z" fill="#69B9CF"/>
<path d="M13.9538 9.17339C13.1841 9.37365 12.6896 9.68031 12.3767 10.1559C11.7133 11.1573 12.5019 12.3589 14.0289 12.6843C14.2355 12.7281 14.4295 12.7782 14.4545 12.8032C14.5609 12.8971 14.3731 13.3539 14.1541 13.548C13.7723 13.8859 13.134 13.7858 12.8711 13.3477C12.8023 13.235 12.746 13.0848 12.746 13.0097C12.746 12.7907 12.6208 12.5717 12.4518 12.4966C12.239 12.3964 12.1577 12.4089 11.9699 12.5591C11.7697 12.7156 11.7509 13.0535 11.9136 13.5292C12.0513 13.9422 12.5457 14.4366 12.9588 14.5743C13.5971 14.7934 14.3418 14.6619 14.7611 14.2614L14.9301 14.0987L15.1429 14.2864C15.4871 14.5868 15.8626 14.6995 16.3883 14.6682C16.914 14.6306 17.2332 14.493 17.5774 14.1488C17.8903 13.8358 18.0217 13.5354 18.053 13.0786C18.0781 12.7219 18.0655 12.6906 17.9091 12.5654C17.6963 12.3964 17.5649 12.3902 17.3584 12.5529C17.2457 12.6468 17.1831 12.7657 17.1518 12.9784C17.1205 13.2037 17.0517 13.3289 16.8765 13.5041C16.6699 13.7169 16.6074 13.742 16.3382 13.742C16.1693 13.742 15.9627 13.7044 15.8751 13.6606C15.6498 13.548 15.4308 13.185 15.4496 12.9597C15.4683 12.7907 15.4934 12.7719 15.75 12.7344C17.0329 12.5404 17.9779 11.6579 17.8528 10.763C17.8027 10.3938 17.6775 10.1559 17.3584 9.85555C16.6386 9.15461 15.1554 8.86047 13.9538 9.17339ZM16.1442 10.1747C16.5761 10.3374 16.939 10.6691 16.939 10.9069C16.939 11.1448 16.5385 11.5077 16.0942 11.6705C15.1492 12.0272 13.7849 11.8332 13.2341 11.2699C12.8211 10.8569 13.2091 10.3374 14.1228 10.0808C14.6297 9.94316 15.6686 9.98697 16.1442 10.1747Z" fill="#69B9CF"/>
</svg>
