<svg width="32" height="20" viewBox="0 0 32 20" fill="none" xmlns="http://www.w3.org/2000/svg">
<path d="M13.314 0.674448C13.133 0.820434 13.1272 1.18832 13.3082 1.3343C13.4366 1.43941 13.6001 1.44525 16.4498 1.44525H19.4512L19.5914 1.29927C19.6731 1.22335 19.7374 1.08905 19.7374 1.0073C19.7374 0.925543 19.6731 0.791237 19.5914 0.715324L19.4512 0.569339H16.4498C13.6527 0.569339 13.4366 0.575178 13.314 0.674448Z" fill="#69B9CF"/>
<path d="M13.7519 2.15183C11.3694 2.2511 8.63655 2.54307 6.36502 2.94015C4.62487 3.2438 3.89495 3.41315 3.48619 3.59417C2.75042 3.93285 2.09641 4.64526 1.79276 5.4511C1.66429 5.79563 1.66429 5.82483 1.64677 9.67884C1.62925 14.2861 1.62925 14.2745 2.24823 15.5475C2.97232 17.0248 4.40882 18.1752 6.01466 18.5723C7.29933 18.8876 11.3577 19.4307 12.4497 19.4307C13.3373 19.4307 13.5884 19.2263 14.4176 17.819C15.2643 16.3942 15.6555 15.927 16.0176 15.927C16.3095 15.927 16.8117 16.4993 17.3723 17.4686C18.3709 19.1854 18.6336 19.4307 19.4979 19.4307C20.4439 19.4307 23.1417 19.1037 25.0803 18.7591C26.7679 18.4555 27.6964 18.0117 28.6774 17.0423C29.5125 16.2073 30.0322 15.2496 30.2774 14.0701C30.3533 13.7139 30.365 13.019 30.365 9.77811V5.91242L30.2249 5.52118C30.0263 4.95475 29.8103 4.62191 29.3957 4.21315C28.8585 3.68176 28.3971 3.47738 27.1825 3.22629C22.9139 2.35037 18.149 1.97081 13.7519 2.15183ZM19.6789 3.1095C22.3008 3.29052 24.6599 3.60585 27.1241 4.10804C28.3154 4.35329 28.8701 4.71534 29.2614 5.50366L29.4599 5.91242V9.88322V13.854L29.3256 14.292C28.8117 15.9387 27.5971 17.1708 26.0147 17.6496C24.9636 17.965 20.7241 18.5548 19.5037 18.5548C19.0366 18.5548 19.019 18.5314 18.0497 16.8788C17.6993 16.2657 17.1621 15.5766 16.8701 15.3548C16.73 15.2496 16.4789 15.1212 16.3095 15.0745C16.0351 14.9927 15.965 14.9927 15.7081 15.0686C15.0833 15.2496 14.622 15.7577 13.7577 17.2117C13.4249 17.7723 13.0687 18.3095 12.9694 18.4029L12.7942 18.5723L12.0876 18.5314C10.5577 18.4438 7.05407 17.9475 6.08473 17.6788C5.34312 17.4745 4.5256 17.0015 3.96502 16.4526C3.41612 15.9212 2.90225 15.0511 2.67451 14.2511C2.5402 13.7956 2.5402 13.7723 2.5402 9.85402V5.91242L2.72706 5.52701C2.9548 5.05986 3.43363 4.59271 3.87743 4.38833C4.3913 4.15475 6.84969 3.69928 9.19714 3.40731C10.6336 3.22045 12.9344 3.04526 14.4818 2.99855C15.5855 2.96351 18.4585 3.02774 19.6789 3.1095Z" fill="#69B9CF"/>
<path d="M17.3897 7.86279C16.8583 7.88031 16.4087 7.90951 16.3912 7.92703C16.3736 7.94455 16.3853 8.50513 16.4087 9.1825C16.432 9.87739 16.4262 11.0511 16.397 11.8862C16.3503 13.0015 16.3561 13.3869 16.4028 13.4336C16.4788 13.5095 17.9444 13.5329 18.0204 13.4628C18.0437 13.4394 18.032 13.0365 17.9912 12.5752C17.9561 12.1139 17.9444 11.6935 17.962 11.6409C17.997 11.5416 18.3006 11.5183 18.5576 11.5825C18.7036 11.6234 18.8496 11.9095 19.235 12.9022L19.4569 13.4686L19.7722 13.5095C20.105 13.5504 21.0569 13.5212 21.1094 13.4628C21.1503 13.4278 21.0569 13.2059 20.5547 12.1606L20.1459 11.3022L20.4437 11.0394C20.8583 10.6599 20.9809 10.3971 21.0101 9.7898C21.0569 8.8263 20.7123 8.28907 19.8364 7.98542C19.4393 7.84528 18.7503 7.81024 17.3897 7.86279ZM18.9255 9.09491C19.3167 9.20586 19.5094 9.57374 19.4218 10.0526C19.3634 10.3737 19.1065 10.5197 18.5926 10.5372C17.8919 10.5548 17.9269 10.5956 17.9269 9.79564C17.9269 9.29929 17.9444 9.09491 18.0028 9.07739C18.1313 9.02484 18.7094 9.03652 18.9255 9.09491Z" fill="#69B9CF"/>
<path d="M10.8903 8.83215C10.867 9.3577 10.8611 9.8774 10.8845 9.98835C10.902 10.0993 11.2874 10.9227 11.7312 11.8219L12.5429 13.457L12.8524 13.492C13.0217 13.5154 13.3487 13.5154 13.5765 13.492L13.9911 13.457L14.2305 13.0132C14.8436 11.8686 15.194 11.1796 15.4509 10.6132L15.7312 10L15.7546 8.93142L15.7779 7.86865H15.3984C15.194 7.86865 14.8261 7.88616 14.5808 7.90368L14.1312 7.94456V8.9723V10L13.7049 10.8759L13.2728 11.7519L12.8757 10.9402C12.4319 10.0351 12.4436 10.0876 12.5137 8.79711L12.5604 7.94456L12.1633 7.90952C11.9473 7.88616 11.5794 7.86865 11.3517 7.86865H10.9312L10.8903 8.83215Z" fill="#69B9CF"/>
<path d="M0.256934 7.17958C0.0233577 7.29053 0 7.44819 0 9.1533C0 10.8818 0.0175182 11.0161 0.274453 11.1329C0.472993 11.2263 0.548905 11.2146 0.724088 11.0745L0.875912 10.9577V9.1533V7.34892L0.724088 7.23213C0.554745 7.09783 0.443796 7.08615 0.256934 7.17958Z" fill="#69B9CF"/>
<path d="M31.2758 7.23213L31.124 7.34892V9.1533V10.9577L31.2758 11.0745C31.451 11.2146 31.5269 11.2263 31.7255 11.1329C31.9824 11.0161 31.9999 10.8818 31.9999 9.1533C31.9999 7.42483 31.9824 7.29053 31.7255 7.17374C31.5269 7.08031 31.451 7.09199 31.2758 7.23213Z" fill="#69B9CF"/>
</svg>
