<svg width="24" height="24" viewBox="-1.5 0 24 24" fill="none" xmlns="http://www.w3.org/2000/svg">
<path d="M6.68538 0.0826681C6.37722 0.2723 6.33456 0.466673 6.4673 0.988162C6.5953 1.47646 6.84182 2.41988 6.92716 2.73278C6.96508 2.87026 7.02671 3.09782 7.0599 3.23056C7.1642 3.63353 7.22109 3.73783 7.38227 3.84213C7.69517 4.0365 8.10762 3.88005 8.22614 3.52923C8.28303 3.3633 8.27355 3.31116 7.91799 2.01218C7.87532 1.85573 7.78998 1.52387 7.72361 1.27735C7.45339 0.253337 7.42494 0.191706 7.17368 0.0637047C7.00301 -0.0263705 6.85604 -0.0216296 6.68538 0.0826681Z" fill="white"/>
<path d="M12.6587 0.836436C12.5023 0.874362 12.4169 0.97866 12.1704 1.41481C12.0424 1.63763 11.6963 2.23023 11.4119 2.73276C11.1227 3.23054 10.8714 3.69514 10.8525 3.76625C10.824 3.88477 10.8999 4.14552 10.9994 4.24507C11.1986 4.44893 11.5731 4.46315 11.7769 4.27352C11.8528 4.20241 12.1609 3.71884 12.4596 3.19736C12.7583 2.67587 13.0901 2.10223 13.1992 1.91734C13.3035 1.73719 13.4078 1.51911 13.422 1.43852C13.4504 1.27733 13.3698 1.07348 13.2181 0.935993C13.1233 0.850658 12.8152 0.793769 12.6587 0.836436Z" fill="white"/>
<path d="M1.91619 3.75676C1.74078 3.87528 1.60804 4.15499 1.65545 4.32566C1.71708 4.58166 1.90671 4.71915 3.10613 5.39234C3.22465 5.45397 3.57547 5.65783 3.88363 5.84272C4.54734 6.23146 4.76542 6.28361 5.01668 6.11294C5.30113 5.91857 5.36276 5.6199 5.18261 5.35441C5.07831 5.21219 4.68482 4.97041 2.76954 3.88002C2.30968 3.61928 2.15323 3.59558 1.91619 3.75676Z" fill="white"/>
<path d="M16.0484 5.61515C15.8256 5.68152 15.342 5.80952 14.7589 5.96597C13.7301 6.23619 13.4694 6.31204 13.3935 6.35945C13.2561 6.44953 13.1565 6.65812 13.1565 6.87146C13.1565 7.03265 13.1849 7.09902 13.3177 7.23176C13.5215 7.43562 13.6969 7.44036 14.3085 7.27443C14.5503 7.20806 14.8727 7.12272 15.0291 7.08006C15.1856 7.03739 15.4084 6.97576 15.5269 6.94257C15.6454 6.90939 15.9631 6.82405 16.238 6.75294C16.7785 6.61072 16.9491 6.50168 17.0297 6.24093C17.0914 6.04182 17.0108 5.80478 16.8354 5.65781C16.6884 5.52507 16.4087 5.51559 16.0484 5.61515Z" fill="white"/>
<path d="M8.321 5.71946C7.74262 5.90909 7.38232 6.18406 7.13106 6.61547C6.81343 7.17489 6.78024 7.6063 6.99832 8.42646C7.07891 8.72987 7.22588 9.28929 7.33017 9.66855C7.66203 10.9154 7.99389 12.1527 8.06026 12.3945C8.22144 13.0013 8.38263 13.5987 8.43952 13.8168C8.54856 14.2434 8.83301 15.2817 8.95627 15.7368C8.99894 15.879 9.03212 16.0354 9.03212 16.0876C9.03212 16.1824 9.0179 16.1824 8.46322 16.0449C8.29256 16.007 7.95122 15.9406 7.7047 15.898C6.93669 15.77 6.38201 15.9312 5.90319 16.4147C5.48126 16.8509 5.2774 17.4719 5.38644 18.0218C5.51444 18.6619 5.76571 18.9937 6.51475 19.5152C7.87537 20.4586 8.94205 21.274 10.1225 22.2791C10.8858 22.9333 11.4167 23.2699 12.3128 23.6729C12.4076 23.7156 12.6968 23.8056 12.9528 23.872C13.3652 23.981 13.5074 23.9953 14.2233 24C14.8064 24 15.1335 23.981 15.4085 23.9194C15.9916 23.7961 16.3993 23.6918 16.4467 23.6444C16.4752 23.6255 16.5226 23.6065 16.5605 23.6065C16.5984 23.6065 16.7644 23.5401 16.935 23.4643C17.101 23.3837 17.2479 23.3221 17.2574 23.3221C17.3238 23.3221 18.0681 22.8432 18.3241 22.6394C19.1537 21.9709 19.6278 21.3404 20.173 20.1931C20.2631 20.0035 20.4622 19.2687 20.5238 18.8894C20.6139 18.3916 20.6234 17.5335 20.5475 17.05C20.4812 16.6091 20.3295 15.988 19.9739 14.6938C19.9217 14.4994 19.8601 14.2719 19.8412 14.196C19.8222 14.1154 19.7463 13.8405 19.6752 13.5797C19.3955 12.5367 19.021 11.1429 18.9309 10.8063C18.8077 10.3323 18.6417 10.0336 18.3146 9.70174C17.8548 9.2324 17.2242 9.03328 16.57 9.14232C16.3898 9.17076 16.167 9.2324 16.077 9.27506C15.911 9.35092 15.9063 9.35092 15.546 9.16602C15.1857 8.98587 15.1715 8.98113 14.6784 8.98113C14.2517 8.98587 14.119 9.00484 13.8109 9.11388L13.4458 9.24662L13.0855 9.07121C12.7631 8.9195 12.6778 8.90054 12.3365 8.8958C12.1184 8.8958 11.8434 8.9195 11.7202 8.95743C11.5637 9.0001 11.4784 9.00484 11.4452 8.97165C11.4167 8.94321 11.3409 8.72039 11.2793 8.47861C11.2129 8.23209 11.1323 7.92393 11.0991 7.79593C11.0612 7.66319 10.9853 7.38822 10.9284 7.17963C10.7293 6.43058 10.3264 5.97072 9.64843 5.71946C9.3782 5.6199 8.62915 5.6199 8.321 5.71946ZM9.46828 6.9094C9.63894 7.01844 9.76221 7.21755 9.83332 7.51148C9.88547 7.72008 9.97554 8.06142 10.0988 8.50705C10.1415 8.6635 10.2315 8.99536 10.2979 9.24188C10.3643 9.4884 10.4354 9.75388 10.4544 9.83448C10.5776 10.2943 10.7056 10.7589 10.791 11.0766C10.8431 11.2804 10.919 11.5649 10.9616 11.7071C11.047 12.02 11.156 12.4277 11.2129 12.6553C11.3409 13.1862 11.5068 13.7883 11.5495 13.8973C11.6016 14.0253 11.7391 14.0917 11.8624 14.0443C12.0141 13.9874 12.0046 13.8262 11.8197 13.1341C11.7154 12.7548 11.6206 12.3898 11.6064 12.3234C11.5922 12.257 11.5305 12.0342 11.4689 11.8256C11.2082 10.9296 11.2082 10.6404 11.4594 10.356C11.6585 10.1284 12.18 9.96248 12.4502 10.0431C12.7916 10.1474 13.0049 10.3986 13.0997 10.83C13.1282 10.9343 13.1945 11.1903 13.2514 11.3989C13.3083 11.6075 13.3842 11.8967 13.4221 12.039C13.4648 12.1812 13.5596 12.532 13.6354 12.8212C13.716 13.1056 13.7966 13.4185 13.8203 13.5086C13.8583 13.6556 13.972 13.793 14.0621 13.793C14.0811 13.793 14.1427 13.7551 14.2043 13.703C14.3134 13.6176 14.3134 13.6176 14.2375 13.2905C14.1949 13.1104 14.1237 12.8354 14.0811 12.679C13.6449 11.0955 13.6212 10.9723 13.6781 10.7637C13.7871 10.356 14.1237 10.1284 14.6358 10.1237C15.1667 10.1142 15.3374 10.3086 15.5697 11.1903C15.655 11.5127 15.7546 11.873 15.7878 11.9915C15.821 12.1101 15.9205 12.4704 16.0058 12.7975C16.0912 13.1246 16.1907 13.428 16.2287 13.4707C16.333 13.5939 16.5131 13.5797 16.5747 13.447C16.6269 13.3332 16.6032 13.2194 16.2144 11.7782C16.0201 11.0576 16.0106 10.9059 16.1528 10.6594C16.3045 10.3892 16.5226 10.2801 16.8924 10.2754C17.1531 10.2754 17.2242 10.2943 17.3902 10.4129C17.4992 10.484 17.6225 10.612 17.6651 10.6878C17.7362 10.8111 17.9828 11.6549 18.3336 12.9871C18.381 13.1815 18.4805 13.5465 18.5469 13.793C18.6085 14.0396 18.6939 14.3477 18.7271 14.4805C18.784 14.6985 18.9167 15.1916 19.1063 15.9027C19.3908 16.9409 19.424 17.1116 19.4477 17.6805C19.514 19.1644 18.9973 20.4444 17.9354 21.4542C17.5324 21.8335 17.3096 21.9946 16.7833 22.2649C15.9869 22.6726 15.1952 22.8622 14.2707 22.8669C13.5027 22.8717 13.0097 22.7532 12.3222 22.4118C11.943 22.2222 11.0564 21.6296 10.9284 21.4779C10.9142 21.4637 10.7436 21.3072 10.5492 21.1366C9.81435 20.4918 8.93256 19.8139 7.44395 18.7614C7.05047 18.4817 6.69016 18.2115 6.64276 18.1593C6.52898 18.0361 6.48631 17.6331 6.5669 17.4435C6.60009 17.3629 6.69965 17.2349 6.78972 17.159C6.93195 17.031 6.98409 17.0168 7.25906 17.0168C7.79951 17.0168 9.02738 17.3487 10.0846 17.7801C10.3548 17.8891 10.516 17.8938 10.6013 17.7943C10.6677 17.7137 10.6013 17.4055 10.0988 15.5709C10.0561 15.4144 9.98976 15.1774 9.95658 15.0494C9.92339 14.9166 9.83806 14.6085 9.77643 14.3619C9.71006 14.1154 9.6105 13.7504 9.55835 13.556C9.34501 12.7311 8.77612 10.6262 8.5296 9.73966C8.43478 9.39832 8.3447 9.0475 8.321 8.95743C8.30204 8.86735 8.2167 8.52602 8.13137 8.1989C7.99389 7.66793 7.97966 7.5826 8.03181 7.40719C8.09344 7.17489 8.35419 6.89992 8.54856 6.85251C9.0416 6.72925 9.19331 6.73873 9.46828 6.9094Z" fill="white"/>
<path d="M3.95943 8.86262C3.89306 8.88633 3.38105 9.02381 2.82164 9.17077C2.26222 9.31774 1.6554 9.47893 1.47525 9.52633C1.02961 9.64485 0.901611 9.7776 0.901611 10.1142C0.901611 10.3228 0.925315 10.3939 1.01539 10.4935C1.21925 10.7068 1.36621 10.7258 1.89718 10.5883C2.53719 10.4271 2.79319 10.356 3.12979 10.2612C3.28624 10.2138 3.49009 10.1616 3.58017 10.1379C4.60892 9.89612 4.76537 9.79656 4.76537 9.38411C4.76537 8.9527 4.39558 8.71566 3.95943 8.86262Z" fill="white"/>
</svg>
