<svg width="24" height="24" viewBox="-1.5 -1.5 24 24" fill="none" xmlns="http://www.w3.org/2000/svg">
<path d="M0.641602 0.896099V1.50216H2.14698H3.65235L3.6719 1.58818C3.69928 1.71721 5.25548 14.2294 5.25548 14.3272C5.25548 14.4015 5.23202 14.4054 4.32489 14.4054C3.32 14.4054 3.1245 14.4328 2.74522 14.6244C2.29556 14.8511 1.93974 15.3673 1.8459 15.9147C1.70123 16.7866 2.27601 17.682 3.1245 17.901C3.24962 17.9362 3.42948 17.9635 3.52332 17.9635C3.67972 17.9635 3.68754 17.9675 3.65626 18.0535C3.52723 18.3897 3.5937 18.9997 3.79703 19.3829C3.95734 19.684 4.2897 20.0007 4.61032 20.1571C4.87621 20.2861 4.89185 20.29 5.37278 20.29C5.84199 20.29 5.87327 20.2861 6.12743 20.1649C6.47542 20.0007 6.81951 19.6566 6.97591 19.3243C7.16751 18.9137 7.2027 18.5696 7.10885 18.0887L7.08539 17.9635H9.79116H12.5008L12.4735 18.0887C12.3757 18.5852 12.4148 18.9293 12.626 19.3594C12.7941 19.6996 13.0991 19.9968 13.4666 20.1688C13.7091 20.2861 13.7442 20.29 14.2095 20.29C14.6905 20.29 14.7061 20.2861 14.972 20.1571C15.4999 19.8951 15.8791 19.3829 15.9691 18.812C16.0082 18.554 15.9925 18.2294 15.9261 18.0535L15.8909 17.9635H16.536H17.1812V17.3575V16.7514H10.3347H3.48813L3.33955 16.6693C2.96027 16.4582 2.94854 15.9929 3.31609 15.7192L3.42166 15.6371L11.144 15.6253L18.8625 15.6175L18.8782 15.5276C18.8899 15.4807 19.1792 13.0212 19.5272 10.0652C19.8713 7.1092 20.1646 4.62239 20.1763 4.54028L20.1998 4.39561H18.6709H17.1421L17.1264 4.30568C17.1186 4.25876 17.0756 4.07108 17.0326 3.8873C16.6181 2.08867 15.1089 0.665405 13.275 0.34869C12.7902 0.262669 11.9808 0.274399 11.5077 0.36824C10.5145 0.571564 9.82635 0.95084 9.08735 1.69766C8.40309 2.38975 8.02381 3.07401 7.82831 3.98505L7.73838 4.39561H6.49888H5.25939L5.23593 4.26658C5.21247 4.11409 4.74717 0.391701 4.74717 0.33305C4.74717 0.301769 4.12547 0.290039 2.69439 0.290039H0.641602V0.896099ZM13.146 1.56472C14.4872 1.83452 15.582 2.93324 15.8791 4.29395C15.9573 4.65759 15.9573 5.34967 15.8752 5.72112C15.6484 6.74947 14.9485 7.65661 14.014 8.12973C13.1499 8.56765 12.1137 8.62239 11.2027 8.28222C9.78725 7.75045 8.84883 6.29981 8.94268 4.79053C9.02479 3.4963 9.82244 2.33891 10.9955 1.80715C11.6328 1.5178 12.4617 1.42396 13.146 1.56472ZM7.82831 6.01438C8.20367 7.75045 9.5331 9.1307 11.2653 9.58427C11.797 9.72112 12.7042 9.7524 13.2594 9.65465C14.6279 9.40832 15.797 8.60675 16.4969 7.42591C16.8097 6.90197 16.9779 6.44449 17.1264 5.69375L17.1421 5.60773H17.9867H18.8351L18.8117 5.7133C18.8 5.77587 18.6279 7.2265 18.4285 8.93911L18.0649 12.0593H12.1372H6.20954L5.81071 8.86091C5.59175 7.10529 5.41189 5.65465 5.41189 5.6351C5.41189 5.61946 5.93583 5.60773 6.57709 5.60773H7.73838L7.82831 6.01438ZM17.9124 13.3575C17.9006 13.4083 17.8694 13.6625 17.842 13.9244L17.7912 14.4054H12.1528H6.51452L6.49106 14.2959C6.47933 14.2373 6.45196 14.0222 6.4285 13.8189C6.40504 13.6156 6.37767 13.4083 6.36594 13.3575L6.3503 13.2715H12.1411H17.9319L17.9124 13.3575ZM5.69732 18.0887C5.75988 18.1356 5.8459 18.249 5.88891 18.3389C5.95147 18.4797 5.95538 18.5344 5.92019 18.6556C5.84199 18.9411 5.64649 19.0975 5.37278 19.0975C5.05998 19.0975 4.82537 18.8629 4.82537 18.5501C4.82537 18.0887 5.32586 17.8228 5.69732 18.0887ZM14.5302 18.0887C14.9681 18.3976 14.7452 19.0975 14.2095 19.0975C13.9358 19.0975 13.7403 18.9411 13.6621 18.6556C13.5878 18.4015 13.799 18.0652 14.0727 17.9909C14.1978 17.9596 14.4129 18.0026 14.5302 18.0887Z" fill="white"/>
<path d="M11.8242 4.23131V5.23619L12.5202 5.93219L13.2123 6.62427L13.6424 6.19416L14.0725 5.76405L13.5525 5.24401L13.0363 4.72788V3.97324V3.22251H12.4303H11.8242V4.23131Z" fill="white"/>
</svg>
