<svg width="20" height="20" viewBox="0.5 0.5 20 20" fill="none" xmlns="http://www.w3.org/2000/svg">
<path d="M18.3466 8.43922C18.2943 8.28494 18.1979 8.14938 18.0693 8.04927C17.9408 7.94916 17.7857 7.88888 17.6233 7.87588L12.8725 7.49838L10.8166 2.94755C10.7512 2.80098 10.6447 2.67649 10.51 2.5891C10.3754 2.50171 10.2183 2.45517 10.0577 2.45508C9.89722 2.45499 9.74009 2.50136 9.60533 2.5886C9.47057 2.67584 9.36394 2.80022 9.29831 2.94672L7.24248 7.49838L2.49164 7.87588C2.33202 7.88853 2.17942 7.94689 2.05211 8.04399C1.92479 8.14109 1.82814 8.27282 1.77372 8.42341C1.7193 8.574 1.70942 8.73708 1.74526 8.89314C1.7811 9.04919 1.86114 9.19162 1.97581 9.30338L5.48664 12.7259L4.24498 18.1025C4.20727 18.2653 4.21936 18.4356 4.27966 18.5914C4.33996 18.7472 4.4457 18.8813 4.58314 18.9762C4.72059 19.0712 4.88341 19.1227 5.05046 19.1239C5.21752 19.1252 5.3811 19.0762 5.51998 18.9834L10.0575 15.9584L14.595 18.9834C14.7369 19.0776 14.9043 19.1261 15.0747 19.1224C15.245 19.1187 15.4101 19.0629 15.5478 18.9625C15.6855 18.8621 15.7891 18.722 15.8448 18.5609C15.9004 18.3999 15.9055 18.2257 15.8591 18.0617L14.335 12.7284L18.115 9.32672C18.3625 9.10338 18.4533 8.75505 18.3466 8.43922Z" fill="#F9B229"/>
</svg>
