<svg width="20" height="20" viewBox="0.5 0.5 20 20" fill="none" xmlns="http://www.w3.org/2000/svg">
<path d="M6.03142 12.726L4.78976 18.1026C4.75131 18.2654 4.76285 18.436 4.82288 18.5922C4.8829 18.7483 4.98862 18.8828 5.12623 18.9779C5.26384 19.073 5.42693 19.1244 5.59422 19.1254C5.7615 19.1264 5.92519 19.0769 6.06392 18.9835L10.6014 15.9585L15.1389 18.9835C15.2809 19.0777 15.4483 19.1262 15.6186 19.1225C15.789 19.1187 15.9541 19.0629 16.0918 18.9626C16.2294 18.8622 16.3331 18.7221 16.3887 18.561C16.4444 18.4 16.4494 18.2258 16.4031 18.0618L14.8789 12.7285L18.6589 9.32679C18.78 9.21778 18.8664 9.07567 18.9076 8.91805C18.9488 8.76042 18.9428 8.59419 18.8905 8.43991C18.8382 8.28562 18.7418 8.15006 18.6133 8.04998C18.4847 7.94989 18.3297 7.88968 18.1673 7.87679L13.4164 7.49846L11.3606 2.94762C11.295 2.80109 11.1885 2.67665 11.0538 2.58934C10.9191 2.50203 10.762 2.45557 10.6014 2.45557C10.4409 2.45557 10.2838 2.50203 10.1491 2.58934C10.0144 2.67665 9.90781 2.80109 9.84226 2.94762L7.78642 7.49846L3.03559 7.87596C2.87597 7.8886 2.72337 7.94696 2.59605 8.04406C2.46873 8.14116 2.37208 8.27289 2.31767 8.42348C2.26325 8.57407 2.25337 8.73715 2.28921 8.89321C2.32505 9.04927 2.40509 9.19169 2.51976 9.30345L6.03142 12.726ZM8.40892 9.12096C8.55767 9.10924 8.70052 9.05772 8.82251 8.9718C8.94449 8.88588 9.04112 8.76873 9.10226 8.63262L10.6014 5.31512L12.1006 8.63262C12.1617 8.76873 12.2583 8.88588 12.3803 8.9718C12.5023 9.05772 12.6452 9.10924 12.7939 9.12096L16.1039 9.38346L13.3781 11.8368C13.1414 12.0501 13.0473 12.3785 13.1339 12.6851L14.1781 16.3393L11.0648 14.2635C10.9281 14.1717 10.7672 14.1228 10.6027 14.1228C10.4381 14.1228 10.2772 14.1717 10.1406 14.2635L6.88726 16.4326L7.76226 12.6443C7.79434 12.505 7.79003 12.3597 7.74975 12.2225C7.70947 12.0853 7.63457 11.9608 7.53226 11.861L5.00059 9.39262L8.40892 9.12096Z" fill="#F9B229"/>
</svg>
