<svg width="25" height="24" viewBox="0 0 25 24" fill="none" xmlns="http://www.w3.org/2000/svg">
<path d="M16.78 22.1H12.98C12.42 22.1 11.2 21.93 10.55 21.28L7.51999 18.94L8.43999 17.75L11.54 20.15C11.79 20.39 12.42 20.59 12.98 20.59H16.78C17.68 20.59 18.65 19.87 18.85 19.06L21.27 11.71C21.43 11.27 21.4 10.87 21.19 10.58C20.97 10.27 20.57 10.09 20.08 10.09H16.08C15.56 10.09 15.08 9.86999 14.75 9.48999C14.41 9.09999 14.26 8.57999 14.34 8.03999L14.84 4.82999C14.96 4.26999 14.58 3.63999 14.04 3.45999C13.55 3.27999 12.92 3.53999 12.7 3.85999L8.59999 9.95999L7.35999 9.12999L11.46 3.02999C12.09 2.08999 13.47 1.63999 14.55 2.04999C15.8 2.45999 16.6 3.83999 16.32 5.11999L15.83 8.26999C15.82 8.33999 15.82 8.43999 15.89 8.51999C15.94 8.56999 16.01 8.59999 16.09 8.59999H20.09C21.07 8.59999 21.92 9.00999 22.42 9.71999C22.91 10.41 23.01 11.32 22.69 12.2L20.3 19.48C19.93 20.93 18.39 22.1 16.78 22.1Z" fill="#737373"/>
<path d="M5.88 20.9999H4.88C3.03 20.9999 2.13 20.1299 2.13 18.3499V8.5499C2.13 6.7699 3.03 5.8999 4.88 5.8999H5.88C7.73 5.8999 8.63 6.7699 8.63 8.5499V18.3499C8.63 20.1299 7.73 20.9999 5.88 20.9999ZM4.88 7.3999C3.79 7.3999 3.63001 7.6599 3.63001 8.5499V18.3499C3.63001 19.2399 3.79 19.4999 4.88 19.4999H5.88C6.97001 19.4999 7.13 19.2399 7.13 18.3499V8.5499C7.13 7.6599 6.97001 7.3999 5.88 7.3999H4.88Z" fill="#737373"/>
</svg>
