<svg width="35" height="36" viewBox="0 0 35 36" fill="none" xmlns="http://www.w3.org/2000/svg">
<path d="M17.276 0.885742C7.78576 0.885742 0.0645642 8.60694 0.0645642 18.0972C0.0645642 21.0605 0.830098 23.9745 2.28184 26.5457L0.0922521 34.3582C0.0204131 34.6149 0.0900072 34.8903 0.275591 35.0811C0.418521 35.2285 0.613085 35.3086 0.812887 35.3086C0.872753 35.3086 0.933367 35.3011 0.992485 35.2869L9.14621 33.2672C11.6359 34.6037 14.4398 35.3086 17.276 35.3086C26.7662 35.3086 34.4874 27.5874 34.4874 18.0972C34.4874 8.60694 26.7662 0.885742 17.276 0.885742ZM25.9341 24.1706C25.5659 25.1898 23.7999 26.1199 22.9513 26.2449C22.1895 26.3564 21.2256 26.4043 20.1675 26.072C19.5262 25.87 18.703 25.6021 17.6487 25.1524C13.2163 23.2621 10.3218 18.8552 10.1003 18.5641C9.87957 18.273 8.29612 16.1987 8.29612 14.0517C8.29612 11.9048 9.43731 10.8489 9.8429 10.4119C10.2485 9.97487 10.7267 9.86562 11.0215 9.86562C11.3163 9.86562 11.6104 9.86936 11.8686 9.88133C12.1403 9.8948 12.5047 9.77881 12.8631 10.6304C13.2313 11.5044 14.1151 13.6514 14.2243 13.8706C14.3351 14.0891 14.4084 14.3443 14.2617 14.6354C14.1151 14.9265 14.0417 15.1084 13.8202 15.3635C13.5987 15.6187 13.3563 15.9323 13.1572 16.1283C12.9357 16.3461 12.706 16.5818 12.9634 17.0188C13.2208 17.4559 14.1076 18.8844 15.4216 20.0413C17.1091 21.5275 18.5332 21.9884 18.9747 22.207C19.4162 22.4255 19.6744 22.3888 19.9318 22.0977C20.1892 21.8059 21.0363 20.8233 21.3304 20.387C21.6245 19.9508 21.9193 20.0226 22.3249 20.1685C22.7305 20.3137 24.9029 21.3688 25.3444 21.5873C25.7859 21.8059 26.0808 21.9151 26.1915 22.097C26.3023 22.278 26.3023 23.1521 25.9341 24.1706Z" fill="#2E9332"/>
</svg>
