<svg width="313" height="433" viewBox="0 0 313 433" fill="none" xmlns="http://www.w3.org/2000/svg">
<g opacity="0.35">
<path d="M159.226 172.646L103.824 128.635L159.226 83.0709L213.593 128.117L159.226 172.646Z" fill="#8CD5EA"/>
<path d="M76.3807 189.215L59.5527 175.753L98.9042 143.392L104.6 147.275L115.473 138.214L120.65 142.356L110.295 151.418L115.473 155.819L76.3807 189.215Z" fill="#7DE0FA"/>
<path d="M115.732 155.818L126.606 146.239L134.631 152.97L123.758 162.549L115.732 155.818Z" fill="#7DE0FA"/>
<path d="M101.233 208.632L84.4053 195.17L123.757 162.809L129.452 166.692L140.326 157.631L145.503 161.773L135.148 170.834L140.326 175.236L101.233 208.632Z" fill="#7DE0FA"/>
<path d="M113.658 413.93L0.783203 319.695L1.30525 130.194L12.1743 136.919L13.2098 314.517L121.943 403.057L113.658 413.93Z" fill="#8CD5EA"/>
<path d="M51.5244 316.588V169.022L63.4331 178.342V310.375L122.978 358.011L115.211 367.848L51.5244 316.588Z" fill="#8CD5EA"/>
<path d="M98.6406 273.613V206.819L109.514 215.104V267.917L121.682 277.755L115.986 288.11L98.6406 273.613Z" fill="#8CD5EA"/>
<path d="M154.561 432.57V233.226L162.845 239.957L168.541 232.708V405.128L302.127 295.359V232.708L222.907 299.501L216.176 288.628L313 207.337V300.537L154.561 432.57Z" fill="#8CD5EA"/>
<path d="M1.30469 130.188L54.6357 171.093L95.0225 138.991L81.5599 127.6L159.745 62.8776V11.6175L303.686 129.153L238.446 130.188L159.226 193.357L144.211 181.966L108.485 213.55L161.298 254.973L311.453 127.081L158.709 0.744141L1.30469 130.188Z" fill="#7DE0FA"/>
<path fill-rule="evenodd" clip-rule="evenodd" d="M125.051 418.072C127.625 418.072 129.711 415.985 129.711 413.412C129.711 410.839 127.625 408.752 125.051 408.752C122.477 408.752 120.391 410.839 120.391 413.412C120.391 415.985 122.477 418.072 125.051 418.072ZM125.051 426.357C132.2 426.357 137.995 420.561 137.995 413.412C137.995 406.263 132.2 400.468 125.051 400.468C117.902 400.468 112.106 406.263 112.106 413.412C112.106 420.561 117.902 426.357 125.051 426.357Z" fill="#7DE0FA"/>
<path fill-rule="evenodd" clip-rule="evenodd" d="M125.051 371.473C127.625 371.473 129.711 369.386 129.711 366.813C129.711 364.239 127.625 362.153 125.051 362.153C122.477 362.153 120.391 364.239 120.391 366.813C120.391 369.386 122.477 371.473 125.051 371.473ZM125.051 379.757C132.2 379.757 137.995 373.962 137.995 366.813C137.995 359.664 132.2 353.868 125.051 353.868C117.902 353.868 112.106 359.664 112.106 366.813C112.106 373.962 117.902 379.757 125.051 379.757Z" fill="#7DE0FA"/>
<path fill-rule="evenodd" clip-rule="evenodd" d="M125.051 291.735C127.625 291.735 129.711 289.648 129.711 287.075C129.711 284.501 127.625 282.415 125.051 282.415C122.477 282.415 120.391 284.501 120.391 287.075C120.391 289.648 122.477 291.735 125.051 291.735ZM125.051 300.019C132.2 300.019 137.995 294.224 137.995 287.075C137.995 279.926 132.2 274.13 125.051 274.13C117.902 274.13 112.106 279.926 112.106 287.075C112.106 294.224 117.902 300.019 125.051 300.019Z" fill="#7DE0FA"/>
<path fill-rule="evenodd" clip-rule="evenodd" d="M212.553 304.938C215.126 304.938 217.212 302.852 217.212 300.279C217.212 297.705 215.126 295.618 212.553 295.618C209.979 295.618 207.893 297.705 207.893 300.279C207.893 302.852 209.979 304.938 212.553 304.938ZM212.553 313.223C219.702 313.223 225.497 307.427 225.497 300.279C225.497 293.129 219.702 287.334 212.553 287.334C205.403 287.334 199.608 293.129 199.608 300.279C199.608 307.427 205.403 313.223 212.553 313.223Z" fill="#7DE0FA"/>
</g>
</svg>
