<svg width="21" height="21" viewBox="0 0 21 21" fill="none" xmlns="http://www.w3.org/2000/svg">
<path fill-rule="evenodd" clip-rule="evenodd" d="M4.07125 2.44744C3.89365 2.44705 3.72244 2.46729 3.55976 2.50577C3.33674 2.01084 3.04216 1.56681 2.70711 1.22946C2.13843 0.656864 1.24155 0.431099 0 0.431099V2.44488C0.758448 2.44488 1.1949 2.55474 1.29289 2.65341C1.67086 3.03399 2 3.80726 2 4.45866L2.01005 4.60106L2.98992 11.5074C1.35036 11.5931 0.0801976 12.8751 0.00122858 14.4777L0 15.5345C0.0968212 17.1897 1.36275 18.463 2.94324 18.5535L3.17026 18.5538C3.58174 19.7277 4.69331 20.5689 6 20.5689C7.30622 20.5689 8.41746 19.7283 8.82929 18.5551H11.1707C11.5825 19.7283 12.6938 20.5689 14 20.5689C15.6569 20.5689 17 19.2165 17 17.5482C17 15.88 15.6569 14.5276 14 14.5276C12.6938 14.5276 11.5825 15.3681 11.1707 16.5413H8.82929C8.41746 15.3681 7.30622 14.5276 6 14.5276C4.69378 14.5276 3.58254 15.3681 3.17071 16.5413H3C2.49001 16.5105 2.03254 16.0504 1.99821 15.4742L2 14.5276C2.02697 14.0053 2.48131 13.5478 3.04955 13.5194L5.02369 13.5199L5.038 13.5207H15.1169L15.2645 13.4735C16.0227 13.2313 16.6296 12.6564 16.917 11.9122L17.0224 11.7022L17.3647 11.0194C17.7188 10.3126 18.0729 9.60463 18.418 8.91294C19.2632 7.21862 19.7948 6.14184 19.9125 5.87742C20.5171 4.51953 19.2924 3.47439 18.0407 3.45213L4.07125 2.44744ZM14.7694 11.5069H5.11287C5.04866 11.4889 4.99973 11.4342 4.99015 11.3659L4.01026 4.4594L17.8934 5.46044C17.6505 5.95925 17.2089 6.85018 16.6308 8.00905L16.6163 8.03808C16.2863 8.69954 15.9326 9.40657 15.579 10.1124L15.2371 10.7944L15.1076 11.0526L15.0588 11.1668C15.0065 11.3133 14.9028 11.4337 14.7694 11.5069ZM14 18.5551C14.5523 18.5551 15 18.1043 15 17.5482C15 16.9921 14.5523 16.5413 14 16.5413C13.4477 16.5413 13 16.9921 13 17.5482C13 18.1043 13.4477 18.5551 14 18.5551ZM7 17.5482C7 18.1043 6.55228 18.5551 6 18.5551C5.44772 18.5551 5 18.1043 5 17.5482C5 16.9921 5.44772 16.5413 6 16.5413C6.55228 16.5413 7 16.9921 7 17.5482Z" fill="#69B9CF"/>
</svg>
