<svg width="22" height="21" viewBox="0 0 22 21" fill="none" xmlns="http://www.w3.org/2000/svg">
<path fill-rule="evenodd" clip-rule="evenodd" d="M15.5532 0.431115C14.1056 0.431099 13.1724 0.604751 12.1027 1.13197C11.7066 1.32716 11.335 1.56223 10.99 1.83648C10.6582 1.57761 10.3015 1.35333 9.92181 1.16425C8.83132 0.621175 7.85028 0.431099 6.45455 0.431099C2.71644 0.431099 0 3.54971 0 7.60003C0 10.6588 1.69383 13.6136 4.84884 16.4708C6.50489 17.9705 8.61932 19.4546 10.1336 20.2442L11 20.6959L11.8664 20.2442C13.3807 19.4546 15.4951 17.9705 17.1512 16.4708C20.3062 13.6136 22 10.6588 22 7.60003C22 3.59258 19.2579 0.446563 15.5532 0.431115ZM20 7.60003C20 9.99645 18.5862 12.4627 15.8137 14.9735C14.3022 16.3423 12.359 17.7103 11 18.4279C9.64104 17.7103 7.69782 16.3423 6.18628 14.9735C3.41382 12.4627 2 9.99645 2 7.60003C2 4.6074 3.88364 2.44488 6.45455 2.44488C7.56428 2.44488 8.24813 2.57737 9.03514 2.96931C9.50001 3.20082 9.91088 3.50652 10.2665 3.88853L11.0023 4.67887L11.7315 3.88227C12.0951 3.48495 12.512 3.17229 12.9819 2.9407C13.7459 2.56419 14.387 2.44488 15.5491 2.44489C18.0882 2.45548 20 4.64893 20 7.60003Z" fill="#69B9CF"/>
</svg>
