<svg width="46" height="26" viewBox="0 0 46 26" fill="none" xmlns="http://www.w3.org/2000/svg">
<path d="M13.1558 25.1667C20.0598 25.1667 25.6558 19.5703 25.6558 12.6667C25.6558 5.76319 20.0598 0.166748 13.1558 0.166748C6.25176 0.166748 0.655762 5.76319 0.655762 12.6667C0.655762 19.5703 6.25176 25.1667 13.1558 25.1667Z" fill="#EC0020"/>
<path d="M33.1558 25.1667C40.0598 25.1667 45.6558 19.5703 45.6558 12.6667C45.6558 5.76319 40.0598 0.166748 33.1558 0.166748C26.2518 0.166748 20.6558 5.76319 20.6558 12.6667C20.6558 19.5703 26.2518 25.1667 33.1558 25.1667Z" fill="#FE9A0C"/>
<path fill-rule="evenodd" clip-rule="evenodd" d="M9.21677 16.1265H8.09875L9.12177 10.4345H9.10275L7.01276 16.1265H5.65576L5.63077 10.4345H5.61176L4.78177 16.1265H3.65576L4.88077 9.1355H6.63077L6.70575 14.5815H6.72476L8.70776 9.1355H10.4378L9.21976 16.1265H9.21677ZM17.6398 12.2265C17.1458 12.1284 16.6428 12.0918 16.1398 12.1175C15.5338 12.1905 15.4018 12.3735 15.3638 12.5855C15.2248 13.3685 17.9838 12.6175 17.6488 14.4315C17.5618 14.9365 17.2938 15.3927 16.8958 15.7149C16.4968 16.0371 15.9948 16.2033 15.4828 16.1825C14.8768 16.2272 14.2687 16.1451 13.6967 15.9415L13.8607 14.9835C14.4227 15.1039 14.9977 15.1556 15.5717 15.1375C15.7587 15.1552 15.9468 15.1172 16.1118 15.0282C16.2768 14.9392 16.4118 14.8032 16.4998 14.6375C16.6518 13.8115 13.8998 14.4375 14.2328 12.5895C14.3228 12.1359 14.5807 11.7332 14.9557 11.4628C15.3317 11.1923 15.7948 11.0743 16.2538 11.1325C16.7758 11.1385 17.2948 11.2173 17.7948 11.3665L17.6428 12.2285L17.6398 12.2265ZM18.2718 11.9955L18.6818 10.1485H19.7998L19.5598 11.0735H20.2558L20.0858 11.9945H19.3858L18.8938 14.6635C18.8428 14.9565 18.8308 15.0635 19.2848 15.0635C19.3638 15.0631 19.4418 15.0557 19.5188 15.0415L19.3607 16.0355C19.1837 16.0435 18.9817 16.1675 18.8047 16.1675H18.6658C18.5118 16.2001 18.3508 16.1889 18.2028 16.1351C18.0538 16.0813 17.9238 15.9872 17.8258 15.8632C17.7278 15.7393 17.6668 15.5905 17.6488 15.4336C17.6318 15.2768 17.6578 15.1181 17.7258 14.9755L18.2688 11.9915L18.2718 11.9955ZM20.9658 14.1255C20.9198 14.2498 20.9058 14.3837 20.9258 14.5147C20.9447 14.6458 20.9968 14.77 21.0758 14.876C21.1558 14.9819 21.2598 15.0663 21.3808 15.1214C21.5008 15.1765 21.6337 15.2006 21.7657 15.1915C22.4617 15.2392 23.1528 15.0395 23.7168 14.6275L23.5398 15.5495C22.9678 15.9732 22.2598 16.1734 21.5508 16.1125C20.3577 16.1125 19.5508 15.4475 19.9278 13.4285C20.0418 12.8365 20.5658 10.9345 22.4218 10.9345C23.2618 10.9345 24.3358 11.6535 23.9218 13.8995L23.8838 14.1255H20.9658ZM22.8867 13.1665C22.9697 12.3665 22.5718 12.0035 22.2118 12.0035C21.9338 12.0574 21.6808 12.1999 21.4908 12.4095C21.2998 12.6191 21.1828 12.8847 21.1558 13.1665H22.8918H22.8867ZM24.6237 11.1615H25.6908L25.5328 11.9155H25.5558C25.6718 11.647 25.8568 11.4148 26.0938 11.2435C26.3307 11.0722 26.6098 10.9682 26.9008 10.9425C26.9768 10.9425 27.1408 10.9795 27.2108 10.9865L26.7998 12.2665C26.6258 12.2398 26.4478 12.2489 26.2768 12.2932C26.1058 12.3375 25.9458 12.4161 25.8068 12.5241C25.6678 12.6321 25.5518 12.7674 25.4658 12.9217C25.3808 13.076 25.3278 13.246 25.3098 13.4215L24.8428 16.1755H23.7248L24.6248 11.1615H24.6237ZM31.3737 10.6285C30.9597 10.3643 30.4588 10.2747 29.9788 10.3795C29.4108 10.4795 28.4788 10.8185 28.1288 12.6975C27.9518 13.6555 28.0468 14.8035 28.9678 15.0225C29.2858 15.1014 29.6168 15.1103 29.9388 15.0484C30.2608 14.9866 30.5647 14.8556 30.8307 14.6645L30.5308 15.8715C30.3978 15.9225 30.2778 16.2595 28.8958 16.1715C27.3678 16.0715 26.4897 14.9715 26.9128 12.6765C27.3358 10.3585 28.7128 9.1585 30.1958 9.17651C30.4568 9.17651 30.7158 9.23181 30.9538 9.33881C31.1918 9.44591 31.4048 9.60221 31.5788 9.79751L31.3788 10.6315L31.3737 10.6285ZM41.4518 16.1285H40.3558L40.4688 15.3735H40.4557C40.3078 15.6017 40.1048 15.789 39.8658 15.918C39.6258 16.047 39.3578 16.1135 39.0858 16.1115C37.8228 16.1115 37.5318 14.8245 37.7778 13.4725C38.0938 11.7725 39.0778 10.9335 40.0138 10.9335C40.2558 10.9188 40.4948 10.987 40.6918 11.1268C40.8898 11.2667 41.0338 11.4698 41.0998 11.7025H41.1188L41.5478 9.1525H42.6658L41.4557 16.1265L41.4518 16.1285ZM39.5578 15.0515C39.8988 15.0004 40.2108 14.8309 40.4398 14.5727C40.6678 14.3146 40.7988 13.9842 40.8078 13.6395C40.9528 12.8495 40.9028 12.0525 40.1388 12.0525C39.7898 12.1226 39.4767 12.3124 39.2527 12.5891C39.0297 12.8657 38.9098 13.2118 38.9138 13.5675C38.8058 14.1445 38.8438 15.0515 39.5578 15.0515ZM34.7078 14.9415C34.7078 14.9415 34.6008 15.4685 34.5758 15.7315L34.5188 16.1745H33.5278C33.5048 15.9177 33.5048 15.6593 33.5278 15.4025C33.3418 15.6198 33.1118 15.7954 32.8538 15.9176C32.5948 16.0398 32.3138 16.1059 32.0278 16.1115C31.8528 16.1211 31.6788 16.0867 31.5208 16.0113C31.3618 15.9359 31.2258 15.8219 31.1228 15.68C31.0208 15.538 30.9558 15.3725 30.9338 15.1987C30.9118 15.025 30.9338 14.8485 30.9978 14.6855C31.0418 14.291 31.2168 13.9225 31.4938 13.6379C31.7698 13.3534 32.1338 13.1689 32.5268 13.1135L33.5618 12.9375C33.7448 12.9085 33.9717 13.0475 34.0287 12.7695C34.0487 12.6814 34.0468 12.5897 34.0228 12.5026C33.9988 12.4155 33.9527 12.3358 33.8907 12.2706C33.8277 12.2054 33.7498 12.1567 33.6638 12.1289C33.5778 12.1012 33.4868 12.0952 33.3978 12.1115C32.8108 12.0893 32.2258 12.1993 31.6868 12.4335L31.9388 11.4755C32.4918 11.2071 33.1078 11.0954 33.7198 11.1525C34.3198 11.1755 35.3738 11.3655 35.1718 12.5525L34.7108 14.9365L34.7078 14.9415ZM33.8307 13.5885C33.5857 13.7395 33.3088 13.83 33.0218 13.8525C32.8098 13.8517 32.6038 13.926 32.4408 14.0624C32.2778 14.1987 32.1688 14.3883 32.1318 14.5975C32.1038 14.6637 32.0928 14.736 32.0998 14.8076C32.1068 14.8793 32.1318 14.9479 32.1728 15.0072C32.2138 15.0664 32.2698 15.1143 32.3338 15.1463C32.3988 15.1784 32.4697 15.1936 32.5417 15.1905C32.8187 15.1846 33.0858 15.0852 33.2988 14.9086C33.5118 14.732 33.6598 14.4884 33.7168 14.2175L33.8307 13.5885ZM35.7438 11.1605H36.8108L36.6558 12.0065H36.6748C36.7908 11.7381 36.9768 11.5059 37.2128 11.3346C37.4498 11.1633 37.7288 11.0593 38.0198 11.0335C38.0958 11.0335 38.2598 11.0705 38.3298 11.0775L37.9188 12.3565C37.8398 12.3436 37.7588 12.3386 37.6788 12.3415C37.5258 12.329 37.3718 12.347 37.2258 12.3945C37.0798 12.442 36.9448 12.5181 36.8288 12.6183C36.7118 12.7186 36.6168 12.8409 36.5478 12.9783C36.4798 13.1157 36.4388 13.2653 36.4288 13.4185L35.9618 16.1725H34.8438L35.7438 11.1585V11.1605ZM13.4438 14.9415C13.4438 14.9415 13.3368 15.4685 13.3108 15.7315L13.2548 16.1755H12.2558C12.2338 15.9183 12.2338 15.6597 12.2558 15.4025C12.0748 15.6299 11.8468 15.8164 11.5888 15.9494C11.3298 16.0825 11.0458 16.1592 10.7558 16.1745C10.5778 16.1745 10.4028 16.1313 10.2448 16.0487C10.0868 15.966 9.95177 15.8463 9.85077 15.6999C9.74977 15.5534 9.68576 15.3846 9.66376 15.208C9.64176 15.0313 9.66378 14.852 9.72678 14.6855C9.77078 14.2912 9.94577 13.9228 10.2218 13.6382C10.4988 13.3537 10.8618 13.1691 11.2548 13.1135L12.2908 12.9375C12.4008 12.9331 12.5048 12.8928 12.5898 12.8229C12.6738 12.753 12.7328 12.6573 12.7578 12.5505C12.8528 12.0025 12.4108 12.0875 12.1268 12.0795C11.5388 12.0577 10.9538 12.1677 10.4148 12.4015L10.6678 11.4435C11.2208 11.1753 11.8368 11.064 12.4488 11.1215C13.0488 11.1445 14.1028 11.3345 13.9008 12.5215L13.4398 14.9375L13.4438 14.9415ZM12.5658 13.5885C12.3218 13.7397 12.0448 13.8303 11.7578 13.8525C11.5458 13.8517 11.3398 13.926 11.1768 14.0624C11.0138 14.1987 10.9048 14.3883 10.8678 14.5975C10.8398 14.6637 10.8288 14.736 10.8358 14.8076C10.8428 14.8793 10.8678 14.9479 10.9088 15.0072C10.9498 15.0664 11.0058 15.1143 11.0698 15.1463C11.1348 15.1784 11.2058 15.1936 11.2778 15.1905C11.5548 15.1846 11.8218 15.0852 12.0348 14.9086C12.2478 14.732 12.3958 14.4884 12.4528 14.2175L12.5658 13.5885Z" fill="white"/>
<path fill-rule="evenodd" clip-rule="evenodd" d="M9.21677 16.1265H8.09875L9.12177 10.4345H9.10275L7.01276 16.1265H5.65576L5.63077 10.4345H5.61176L4.78177 16.1265H3.65576L4.88077 9.1355H6.63077L6.70575 14.5815H6.72476L8.70776 9.1355H10.4378L9.21976 16.1265H9.21677ZM17.6398 12.2265C17.1458 12.1284 16.6428 12.0918 16.1398 12.1175C15.5338 12.1905 15.4018 12.3735 15.3638 12.5855C15.2248 13.3685 17.9838 12.6175 17.6488 14.4315C17.5618 14.9365 17.2938 15.3927 16.8958 15.7149C16.4968 16.0371 15.9948 16.2033 15.4828 16.1825C14.8768 16.2272 14.2687 16.1451 13.6967 15.9415L13.8607 14.9835C14.4227 15.1039 14.9977 15.1556 15.5717 15.1375C15.7587 15.1552 15.9468 15.1172 16.1118 15.0282C16.2768 14.9392 16.4118 14.8032 16.4998 14.6375C16.6518 13.8115 13.8998 14.4375 14.2328 12.5895C14.3228 12.1359 14.5807 11.7332 14.9557 11.4628C15.3317 11.1923 15.7948 11.0743 16.2538 11.1325C16.7758 11.1385 17.2948 11.2173 17.7948 11.3665L17.6428 12.2285L17.6398 12.2265ZM18.2718 11.9955L18.6818 10.1485H19.7998L19.5598 11.0735H20.2558L20.0858 11.9945H19.3858L18.8938 14.6635C18.8428 14.9565 18.8308 15.0635 19.2848 15.0635C19.3638 15.0631 19.4418 15.0557 19.5188 15.0415L19.3607 16.0355C19.1837 16.0435 18.9817 16.1675 18.8047 16.1675H18.6658C18.5118 16.2001 18.3508 16.1889 18.2028 16.1351C18.0538 16.0813 17.9238 15.9872 17.8258 15.8632C17.7278 15.7393 17.6668 15.5905 17.6488 15.4336C17.6318 15.2768 17.6578 15.1181 17.7258 14.9755L18.2688 11.9915L18.2718 11.9955ZM20.9658 14.1255C20.9198 14.2498 20.9058 14.3837 20.9258 14.5147C20.9447 14.6458 20.9968 14.77 21.0758 14.876C21.1558 14.9819 21.2598 15.0663 21.3808 15.1214C21.5008 15.1765 21.6337 15.2006 21.7657 15.1915C22.4617 15.2392 23.1528 15.0395 23.7168 14.6275L23.5398 15.5495C22.9678 15.9732 22.2598 16.1734 21.5508 16.1125C20.3577 16.1125 19.5508 15.4475 19.9278 13.4285C20.0418 12.8365 20.5658 10.9345 22.4218 10.9345C23.2618 10.9345 24.3358 11.6535 23.9218 13.8995L23.8838 14.1255H20.9658ZM22.8867 13.1665C22.9697 12.3665 22.5718 12.0035 22.2118 12.0035C21.9338 12.0574 21.6808 12.1999 21.4908 12.4095C21.2998 12.6191 21.1828 12.8847 21.1558 13.1665H22.8918H22.8867ZM24.6237 11.1615H25.6908L25.5328 11.9155H25.5558C25.6718 11.647 25.8568 11.4148 26.0938 11.2435C26.3307 11.0722 26.6098 10.9682 26.9008 10.9425C26.9768 10.9425 27.1408 10.9795 27.2108 10.9865L26.7998 12.2665C26.6258 12.2398 26.4478 12.2489 26.2768 12.2932C26.1058 12.3375 25.9458 12.4161 25.8068 12.5241C25.6678 12.6321 25.5518 12.7674 25.4658 12.9217C25.3808 13.076 25.3278 13.246 25.3098 13.4215L24.8428 16.1755H23.7248L24.6248 11.1615H24.6237ZM31.3737 10.6285C30.9597 10.3643 30.4588 10.2747 29.9788 10.3795C29.4108 10.4795 28.4788 10.8185 28.1288 12.6975C27.9518 13.6555 28.0468 14.8035 28.9678 15.0225C29.2858 15.1014 29.6168 15.1103 29.9388 15.0484C30.2608 14.9866 30.5647 14.8556 30.8307 14.6645L30.5308 15.8715C30.3978 15.9225 30.2778 16.2595 28.8958 16.1715C27.3678 16.0715 26.4897 14.9715 26.9128 12.6765C27.3358 10.3585 28.7128 9.1585 30.1958 9.17651C30.4568 9.17651 30.7158 9.23181 30.9538 9.33881C31.1918 9.44591 31.4048 9.60221 31.5788 9.79751L31.3788 10.6315L31.3737 10.6285ZM41.4518 16.1285H40.3558L40.4688 15.3735H40.4557C40.3078 15.6017 40.1048 15.789 39.8658 15.918C39.6258 16.047 39.3578 16.1135 39.0858 16.1115C37.8228 16.1115 37.5318 14.8245 37.7778 13.4725C38.0938 11.7725 39.0778 10.9335 40.0138 10.9335C40.2558 10.9188 40.4948 10.987 40.6918 11.1268C40.8898 11.2667 41.0338 11.4698 41.0998 11.7025H41.1188L41.5478 9.1525H42.6658L41.4557 16.1265L41.4518 16.1285ZM39.5578 15.0515C39.8988 15.0004 40.2108 14.8309 40.4398 14.5727C40.6678 14.3146 40.7988 13.9842 40.8078 13.6395C40.9528 12.8495 40.9028 12.0525 40.1388 12.0525C39.7898 12.1226 39.4767 12.3124 39.2527 12.5891C39.0297 12.8657 38.9098 13.2118 38.9138 13.5675C38.8058 14.1445 38.8438 15.0515 39.5578 15.0515ZM34.7078 14.9415C34.7078 14.9415 34.6008 15.4685 34.5758 15.7315L34.5188 16.1745H33.5278C33.5048 15.9177 33.5048 15.6593 33.5278 15.4025C33.3418 15.6198 33.1118 15.7954 32.8538 15.9176C32.5948 16.0398 32.3138 16.1059 32.0278 16.1115C31.8528 16.1211 31.6788 16.0867 31.5208 16.0113C31.3618 15.9359 31.2258 15.8219 31.1228 15.68C31.0208 15.538 30.9558 15.3725 30.9338 15.1987C30.9118 15.025 30.9338 14.8485 30.9978 14.6855C31.0418 14.291 31.2168 13.9225 31.4938 13.6379C31.7698 13.3534 32.1338 13.1689 32.5268 13.1135L33.5618 12.9375C33.7448 12.9085 33.9717 13.0475 34.0287 12.7695C34.0487 12.6814 34.0468 12.5897 34.0228 12.5026C33.9988 12.4155 33.9527 12.3358 33.8907 12.2706C33.8277 12.2054 33.7498 12.1567 33.6638 12.1289C33.5778 12.1012 33.4868 12.0952 33.3978 12.1115C32.8108 12.0893 32.2258 12.1993 31.6868 12.4335L31.9388 11.4755C32.4918 11.2071 33.1078 11.0954 33.7198 11.1525C34.3198 11.1755 35.3738 11.3655 35.1718 12.5525L34.7108 14.9365L34.7078 14.9415ZM33.8307 13.5885C33.5857 13.7395 33.3088 13.83 33.0218 13.8525C32.8098 13.8517 32.6038 13.926 32.4408 14.0624C32.2778 14.1987 32.1688 14.3883 32.1318 14.5975C32.1038 14.6637 32.0928 14.736 32.0998 14.8076C32.1068 14.8793 32.1318 14.9479 32.1728 15.0072C32.2138 15.0664 32.2698 15.1143 32.3338 15.1463C32.3988 15.1784 32.4697 15.1936 32.5417 15.1905C32.8187 15.1846 33.0858 15.0852 33.2988 14.9086C33.5118 14.732 33.6598 14.4884 33.7168 14.2175L33.8307 13.5885ZM35.7438 11.1605H36.8108L36.6558 12.0065H36.6748C36.7908 11.7381 36.9768 11.5059 37.2128 11.3346C37.4498 11.1633 37.7288 11.0593 38.0198 11.0335C38.0958 11.0335 38.2598 11.0705 38.3298 11.0775L37.9188 12.3565C37.8398 12.3436 37.7588 12.3386 37.6788 12.3415C37.5258 12.329 37.3718 12.347 37.2258 12.3945C37.0798 12.442 36.9448 12.5181 36.8288 12.6183C36.7118 12.7186 36.6168 12.8409 36.5478 12.9783C36.4798 13.1157 36.4388 13.2653 36.4288 13.4185L35.9618 16.1725H34.8438L35.7438 11.1585V11.1605ZM13.4438 14.9415C13.4438 14.9415 13.3368 15.4685 13.3108 15.7315L13.2548 16.1755H12.2558C12.2338 15.9183 12.2338 15.6597 12.2558 15.4025C12.0748 15.6299 11.8468 15.8164 11.5888 15.9494C11.3298 16.0825 11.0458 16.1592 10.7558 16.1745C10.5778 16.1745 10.4028 16.1313 10.2448 16.0487C10.0868 15.966 9.95177 15.8463 9.85077 15.6999C9.74977 15.5534 9.68576 15.3846 9.66376 15.208C9.64176 15.0313 9.66378 14.852 9.72678 14.6855C9.77078 14.2912 9.94577 13.9228 10.2218 13.6382C10.4988 13.3537 10.8618 13.1691 11.2548 13.1135L12.2908 12.9375C12.4008 12.9331 12.5048 12.8928 12.5898 12.8229C12.6738 12.753 12.7328 12.6573 12.7578 12.5505C12.8528 12.0025 12.4108 12.0875 12.1268 12.0795C11.5388 12.0577 10.9538 12.1677 10.4148 12.4015L10.6678 11.4435C11.2208 11.1753 11.8368 11.064 12.4488 11.1215C13.0488 11.1445 14.1028 11.3345 13.9008 12.5215L13.4398 14.9375L13.4438 14.9415ZM12.5658 13.5885C12.3218 13.7397 12.0448 13.8303 11.7578 13.8525C11.5458 13.8517 11.3398 13.926 11.1768 14.0624C11.0138 14.1987 10.9048 14.3883 10.8678 14.5975C10.8398 14.6637 10.8288 14.736 10.8358 14.8076C10.8428 14.8793 10.8678 14.9479 10.9088 15.0072C10.9498 15.0664 11.0058 15.1143 11.0698 15.1463C11.1348 15.1784 11.2058 15.1936 11.2778 15.1905C11.5548 15.1846 11.8218 15.0852 12.0348 14.9086C12.2478 14.732 12.3958 14.4884 12.4528 14.2175L12.5658 13.5885Z" fill="white"/>
</svg>
