<svg width="67" height="18" viewBox="0 0 67 18" fill="none" xmlns="http://www.w3.org/2000/svg">
<path fill-rule="evenodd" clip-rule="evenodd" d="M17.2345 17.1669V7.06687H16.7885L13.5885 17.1669H9.78845H9.77747L6.5885 7.06687H6.14545V17.1669H0.688477V0.166847H6.1535C6.8345 0.163827 7.49849 0.379947 8.04749 0.783297C8.59649 1.18665 9.00145 1.75584 9.20245 2.40684L11.4485 10.2639H11.9214L14.1714 2.40684C14.3734 1.75388 14.7805 1.18338 15.3325 0.779907C15.8845 0.376427 16.5515 0.161457 17.2345 0.166847H22.6995V17.1669H17.2345Z" fill="#52B461"/>
<path fill-rule="evenodd" clip-rule="evenodd" d="M38.1376 17.1668V7.15578H37.7066L33.9796 15.5428C33.7606 16.0273 33.4066 16.4384 32.9596 16.7264C32.5116 17.0145 31.9916 17.1674 31.4596 17.1668H26.6836V0.166752H32.1836V10.1778H32.6346L36.4086 1.77775C36.4186 1.75575 36.4276 1.73475 36.4376 1.71375V1.70775C36.6656 1.24455 37.0196 0.854622 37.4586 0.582232C37.8966 0.309852 38.4036 0.165902 38.9196 0.166752H43.6956V17.1668H38.1376Z" fill="#52B461"/>
<path fill-rule="evenodd" clip-rule="evenodd" d="M59.8215 12.1747H53.2695V17.1667H47.7075V8.16675H66.1885C65.6375 9.38555 64.7395 10.4152 63.6075 11.1279C62.4755 11.8405 61.1585 12.2045 59.8215 12.1747Z" fill="#52B461"/>
<path fill-rule="evenodd" clip-rule="evenodd" d="M66.5383 6.16678H55.9673C51.3763 6.16678 47.5594 3.39475 46.7554 0.166748H60.3163C63.8273 0.166748 66.6724 2.60075 66.6724 5.20178C66.6724 5.52808 66.6273 5.85278 66.5383 6.16678Z" fill="url(#paint0_linear_20_255)"/>
<defs>
<linearGradient id="paint0_linear_20_255" x1="17672.7" y1="576.167" x2="17276.2" y2="576.167" gradientUnits="userSpaceOnUse">
<stop stop-color="#198ECA"/>
<stop offset="1" stop-color="#1DB5E4"/>
</linearGradient>
</defs>
</svg>
