<svg width="26" height="27" viewBox="0 0 26 27" fill="none" xmlns="http://www.w3.org/2000/svg">
<path fill-rule="evenodd" clip-rule="evenodd" d="M18 13.6667C17.6022 13.6667 17.2207 13.5087 16.9393 13.2274C16.658 12.9461 16.5 12.5645 16.5 12.1667V4.16675C16.5 3.76893 16.658 3.38739 16.9393 3.10609C17.2207 2.82478 17.6022 2.66675 18 2.66675C18.3978 2.66675 18.7793 2.82478 19.0607 3.10609C19.342 3.38739 19.5 3.76893 19.5 4.16675V12.1667C19.5 12.5645 19.342 12.9461 19.0607 13.2274C18.7793 13.5087 18.3978 13.6667 18 13.6667ZM14 11.6667C13.6022 11.6667 13.2207 11.5087 12.9393 11.2274C12.658 10.9461 12.5 10.5646 12.5 10.1667V2.16675C12.5 1.76893 12.658 1.38739 12.9393 1.10609C13.2207 0.824782 13.6022 0.666748 14 0.666748C14.3978 0.666748 14.7793 0.824782 15.0607 1.10609C15.342 1.38739 15.5 1.76893 15.5 2.16675V10.1667C15.5 10.5646 15.342 10.9461 15.0607 11.2274C14.7793 11.5087 14.3978 11.6667 14 11.6667ZM10.016 12.6667H9.98399C9.59049 12.6664 9.2132 12.51 8.93495 12.2318C8.65671 11.9535 8.50026 11.5762 8.5 11.1827V4.15075C8.50026 3.75725 8.65671 3.37994 8.93495 3.10169C9.2132 2.82345 9.59049 2.66701 9.98399 2.66675H10.016C10.4095 2.66701 10.7868 2.82345 11.065 3.10169C11.3433 3.37994 11.4997 3.75725 11.5 4.15075V11.1817C11.5 11.5754 11.3437 11.9529 11.0654 12.2314C10.7871 12.5099 10.4097 12.6664 10.016 12.6667ZM6 13.6667C5.60218 13.6667 5.22065 13.5087 4.93935 13.2274C4.65804 12.9461 4.5 12.5645 4.5 12.1667V7.16675C4.5 6.76893 4.65804 6.38739 4.93935 6.10609C5.22065 5.82478 5.60218 5.66675 6 5.66675C6.39782 5.66675 6.77935 5.82478 7.06065 6.10609C7.34196 6.38739 7.5 6.76893 7.5 7.16675V12.1667C7.5 12.5645 7.34196 12.9461 7.06065 13.2274C6.77935 13.5087 6.39782 13.6667 6 13.6667Z" fill="#F3C4B7"/>
<path fill-rule="evenodd" clip-rule="evenodd" d="M16.5 7.66675V6.66675H19.5V7.66675H16.5ZM15.5 7.66675H12.5V6.66675H15.5V7.66675ZM8.5 6.66675H11.5V7.66675H8.5V6.66675ZM4.5 6.66675H7.5V7.66675H4.5V6.66675Z" fill="#E1AEA0"/>
<path fill-rule="evenodd" clip-rule="evenodd" d="M22.431 14.6667C22.4748 14.9983 22.4978 15.3323 22.5 15.6667V18.6667C22.5 20.7884 21.6572 22.8233 20.1569 24.3236C18.6566 25.8238 16.6217 26.6667 14.5 26.6667H12.5C10.3783 26.6667 8.34343 25.8238 6.84314 24.3236C5.34285 22.8233 4.5 20.7884 4.5 18.6667V15.6667C4.5022 15.3323 4.52524 14.9983 4.569 14.6667H22.431Z" fill="#F3C4B7"/>
<path d="M25.5 7.66675H0.5V20.6667H25.5V7.66675Z" fill="#76A158"/>
<path d="M25.5 7.66675H0.5V8.66675H25.5V7.66675Z" fill="#87AE6B"/>
<path opacity="0.7" d="M8 17.6667C9.933 17.6667 11.5 16.0997 11.5 14.1667C11.5 12.2337 9.933 10.6667 8 10.6667C6.067 10.6667 4.5 12.2337 4.5 14.1667C4.5 16.0997 6.067 17.6667 8 17.6667Z" fill="#9FD17D"/>
<path fill-rule="evenodd" clip-rule="evenodd" d="M25.5 20.6667H0.5V19.6667H12.737C13.0577 18.5171 13.7457 17.5039 14.6959 16.7817C15.6461 16.0595 16.8065 15.668 18 15.6667C18.171 15.6667 18.333 15.7017 18.5 15.7167V12.1667C18.5 11.7689 18.658 11.3873 18.9393 11.106C19.2207 10.8247 19.6022 10.6667 20 10.6667C20.3978 10.6667 20.7793 10.8247 21.0607 11.106C21.342 11.3873 21.5 11.7689 21.5 12.1667V19.6667H25.5V20.6667Z" fill="#669248"/>
<path d="M22.5 12.1667C22.5 11.3383 21.8284 10.6667 21 10.6667C20.1716 10.6667 19.5 11.3383 19.5 12.1667V20.1667C19.5 20.9951 20.1716 21.6667 21 21.6667C21.8284 21.6667 22.5 20.9951 22.5 20.1667V12.1667Z" fill="#F3C4B7"/>
<path fill-rule="evenodd" clip-rule="evenodd" d="M13.6 22.6665C13.3921 21.6718 13.4933 20.6373 13.8902 19.7017C14.2871 18.7662 14.9607 17.9745 15.8205 17.4328C16.6804 16.8911 17.6853 16.6254 18.7005 16.6713C19.7157 16.7172 20.6926 17.0725 21.5 17.6895V22.6665H13.6Z" fill="#F3C4B7"/>
</svg>
