<svg width="23" height="26" viewBox="0 0 23 26" fill="none" xmlns="http://www.w3.org/2000/svg">
<path d="M7.11982 12.6646L3.85639 14.5461L0.828369 19.7896L13.1805 12.6646H7.11982Z" fill="#874691"/>
<path d="M16.4438 7.29175L13.1804 9.17332L10.1523 14.4168L22.4998 7.29175H16.4438Z" fill="#DA1844"/>
<path d="M13.1804 5.41023L10.1523 0.166748V10.9166V14.4169V25.1667L13.1804 19.9233V5.41023Z" fill="#F9B229"/>
<path d="M10.1523 0.166748L13.1804 5.41023L16.4438 7.2918H22.4998L10.1523 0.166748Z" fill="#F07F1A"/>
<path d="M10.1523 10.9165V25.1666L13.1804 19.9231V16.1554L10.1523 10.9165Z" fill="#72B22C"/>
<path d="M16.4438 18.0417L13.1804 19.9233L10.1523 25.1668L22.4998 18.0417H16.4438Z" fill="#00743E"/>
<path d="M0.828369 5.53931V19.7894L3.85639 14.546V10.7828L0.828369 5.53931Z" fill="#5F5A94"/>
<path d="M10.1525 10.9165V10.9212L0.828369 5.53931L3.85639 10.7828L16.4439 18.0416H22.5L10.1525 10.9165Z" fill="#0D90CD"/>
</svg>
