<svg width="55" height="19" viewBox="0 0 55 19" fill="none" xmlns="http://www.w3.org/2000/svg">
<path fill-rule="evenodd" clip-rule="evenodd" d="M50.4428 18.2082C50.4428 18.2082 50.0518 15.8222 49.9208 15.2242H44.2678C44.1118 15.6922 43.3308 18.2082 43.3308 18.2082H38.7188L45.2588 2.61318C45.4212 2.14966 45.7368 1.75538 46.1538 1.4954C46.5698 1.23542 47.0628 1.12529 47.5508 1.18317H50.9638L54.5328 18.2082H50.4428ZM48.1758 7.23821L47.8628 5.78217C47.6548 6.43221 47.2628 7.44621 47.2898 7.42021C47.2898 7.42021 45.8828 11.1882 45.5448 12.1752H49.1918C49.0118 11.3152 48.1758 7.23821 48.1758 7.23821ZM38.6928 5.10817C37.6629 4.64335 36.5401 4.42097 35.4108 4.45817C33.6648 4.45817 32.8828 5.18617 32.8568 5.91317C32.8568 6.71921 33.7958 7.23821 35.3568 8.01821C37.8848 9.21821 39.0568 10.6942 39.0308 12.6422C39.0048 16.1502 36.0088 18.4362 31.3708 18.4362C29.6951 18.4417 28.0332 18.1338 26.4708 17.5282L27.0708 13.7082L27.6708 13.9942C28.95 14.6229 30.3618 14.9347 31.7868 14.9032C33.0638 14.9032 34.4178 14.3832 34.4448 13.2402C34.4448 12.4872 33.8718 11.9402 32.1518 11.1102C30.4848 10.3042 28.2698 8.95321 28.2958 6.51021C28.3218 3.21017 31.3698 0.897172 35.7208 0.897172C37.0723 0.889102 38.414 1.12628 39.6808 1.59718L39.0808 5.28717L38.6928 5.10817ZM19.3108 18.2082L22.0718 1.18317H26.4718L23.7118 18.2082H19.3118H19.3108ZM8.7108 18.2082L4.7848 3.43917C4.6508 3.36117 4.5098 3.29017 4.3728 3.21517H7.0008L7.9718 3.90217L9.7528 6.62121L10.5088 8.70921L10.8478 10.4342L11.3168 12.7732L15.6408 1.18317H20.3048L13.3748 18.2082H8.7118H8.7108Z" fill="#1470B0"/>
<path fill-rule="evenodd" clip-rule="evenodd" d="M6.71177 5.42346C6.18447 5.00886 5.61697 4.64806 5.01777 4.34646L4.76677 3.40246C3.52117 2.68827 2.19297 2.12881 0.811768 1.73647V1.20947H7.57577C7.98047 1.21045 8.37267 1.34986 8.68717 1.60453C9.00167 1.85921 9.21967 2.21382 9.30477 2.60946L10.7688 10.0635C9.68617 8.30021 8.31477 6.73171 6.71177 5.42346Z" fill="#FFB927"/>
</svg>
